<svg width="2136" height="988" xmlns="http://www.w3.org/2000/svg" xmlns:xlink="http://www.w3.org/1999/xlink" overflow="hidden"><defs><clipPath id="clip0"><rect x="1170" y="1294" width="2136" height="988"/></clipPath></defs><g clip-path="url(#clip0)" transform="translate(-1170 -1294)"><path d="M1257.5 1646.17C1257.5 1633.65 1267.65 1623.5 1280.17 1623.5L1631.83 1623.5C1644.35 1623.5 1654.5 1633.65 1654.5 1646.17L1654.5 1736.83C1654.5 1749.35 1644.35 1759.5 1631.83 1759.5L1280.17 1759.5C1267.65 1759.5 1257.5 1749.35 1257.5 1736.83Z" stroke="#607796" stroke-width="4.58333" stroke-linejoin="round" stroke-miterlimit="10" stroke-dasharray="18.3333 13.75" fill="#EDEFF3" fill-rule="evenodd"/><text fill="#576C87" font-family="SimSun,SimSun_MSFontService,sans-serif" font-weight="400" font-size="73" transform="matrix(1 0 0 1 1381.92 1723)">环境</text><path d="M3.95678e-06-3.4375 290.613-3.43717 290.613 3.43783-3.95678e-06 3.4375ZM286.029-13.7497 313.529 0.000360892 286.029 13.7503Z" fill="#607796" transform="matrix(-1 0 0 1 1968.03 1669.5)"/><rect x="1967.5" y="1632.5" width="398" height="123" stroke="#607796" stroke-width="4.58333" stroke-linejoin="round" stroke-miterlimit="10" stroke-dasharray="18.3333 13.75" fill="#EDEFF3"/><text fill="#576C87" font-family="SimSun,SimSun_MSFontService,sans-serif" font-weight="400" font-size="73" transform="matrix(1 0 0 1 2019.47 1725)">行为网络</text><path d="M1654.53 1709.06 1945.14 1711.28 1945.09 1718.15 1654.47 1715.94ZM1940.64 1700.93 1968.03 1714.89 1940.43 1728.43Z" fill="#607796"/><path d="M2619.97 2014.76 2162.78 2014.76 2162.78 1879.97 2166.5 1879.97 2163.06 1883.41 2163.06 1778.42 2169.94 1778.42 2169.94 1886.85 2166.22 1886.85 2169.66 1883.41 2169.66 2011.32 2166.22 2007.88 2619.97 2007.88ZM2152.75 1783 2166.5 1755.5 2180.25 1783Z" fill="#607796"/><rect x="2678.5" y="1636.5" width="398" height="123" stroke="#607796" stroke-width="4.58333" stroke-linejoin="round" stroke-miterlimit="10" stroke-dasharray="18.3333 13.75" fill="#EDEFF3"/><text fill="#576C87" font-family="SimSun,SimSun_MSFontService,sans-serif" font-weight="400" font-size="73" transform="matrix(1 0 0 1 2730.36 1729)">目标网络</text><path d="M0-3.4375 260.855-3.4375 260.855 228.877 253.98 228.877 253.98 0 257.418 3.4375 0 3.4375ZM271.168 224.294 257.418 251.794 243.668 224.294Z" fill="#607796" transform="matrix(1 0 0 -1 2620.5 2011.29)"/><path d="M2829.5 2070.5C2829.5 2103.64 2735.7 2130.5 2620 2130.5 2504.3 2130.5 2410.5 2103.64 2410.5 2070.5 2410.5 2037.36 2504.3 2010.5 2620 2010.5 2735.7 2010.5 2829.5 2037.36 2829.5 2070.5Z" stroke="#607796" stroke-width="3.4375" stroke-miterlimit="8" fill="none" fill-rule="evenodd"/><path d="M2769.64 2220.5C2760.66 2220.5 2754.68 2214.5 2754.68 2205.5 2754.68 2196.5 2760.66 2190.5 2769.64 2190.5 2778.62 2190.5 2784.61 2196.5 2784.61 2205.5 2784.61 2214.5 2778.62 2220.5 2769.64 2220.5ZM2620 2160.5C2504.77 2160.5 2410.5 2133.5 2410.5 2100.5L2410.5 2220.5C2410.5 2253.5 2504.77 2280.5 2620 2280.5 2735.22 2280.5 2829.5 2253.5 2829.5 2220.5L2829.5 2100.5C2829.5 2133.5 2735.22 2160.5 2620 2160.5Z" stroke="#607796" stroke-width="3.4375" stroke-miterlimit="8" fill="none" fill-rule="evenodd"/><text fill="#576C87" font-family="SimSun,SimSun_MSFontService,sans-serif" font-weight="400" font-size="73" transform="matrix(1 0 0 1 2472.94 2112)">经验回放<tspan font-size="73" x="36.6668" y="114">缓冲区</tspan></text><rect x="2089.5" y="1300.5" width="1090" height="123" stroke="#607796" stroke-width="4.58333" stroke-linejoin="round" stroke-miterlimit="10" stroke-dasharray="18.3333 13.75" fill="#EDEFF3"/><text fill="#576C87" font-family="SimSun,SimSun_MSFontService,sans-serif" font-weight="400" font-size="73" transform="matrix(1 0 0 1 2487.78 1393)">误差函数</text><path d="M2365.54 1690.06 2656.16 1693.8 2656.07 1700.67 2365.46 1696.94ZM2651.71 1683.43 2679.03 1697.53 2651.35 1710.92Z" fill="#607796"/><path d="M2253.94 1423.5 2253.94 1612.58 2247.06 1612.58 2247.06 1423.5ZM2264.25 1607.99 2250.5 1635.49 2236.75 1607.99Z" fill="#607796"/><path d="M3.4375-5.7995e-06 3.43782 190.993-3.43718 190.993-3.4375 5.7995e-06ZM13.7503 186.409 0.000360892 213.909-13.7497 186.409Z" fill="#607796" transform="matrix(1 0 0 -1 2164.5 1630.41)"/><path d="M3.4375-5.7995e-06 3.43782 190.993-3.43718 190.993-3.4375 5.7995e-06ZM13.7503 186.409 0.000360892 213.909-13.7497 186.409Z" fill="#607796" transform="matrix(1 0 0 -1 2861.5 1637.41)"/><path d="M0-3.4375 284.176-3.4375 284.176 654.556 277.301 654.556 277.301 0 280.739 3.4375 0 3.4375ZM294.489 649.972 280.739 677.472 266.989 649.972Z" fill="#607796" transform="matrix(1 0 0 -1 2829.5 2100.97)"/><path d="M1257.5 1694.94 1175 1694.94 1178.43 1691.5 1178.43 1933.26 1173.58 1933.26 1177.01 1929.83 1177.01 2100.57 1173.58 2097.13 2388.16 2097.13 2388.16 2104 1170.14 2104 1170.14 1926.39 1175 1926.39 1171.56 1929.83 1171.56 1688.06 1257.5 1688.06ZM2383.58 2086.82 2411.08 2100.57 2383.58 2114.32Z" fill="#607796"/><path d="M1725.66 2006.36 1726.51 2008.76C1721.63 2010.37 1718.02 2013.5 1715.68 2018.15 1713.33 2022.81 1712.16 2028.66 1712.16 2035.7 1712.16 2042.99 1713.33 2049 1715.68 2053.73 1718.02 2058.46 1721.6 2061.63 1726.41 2063.23L1725.66 2065.64C1719.56 2064.03 1714.88 2060.58 1711.63 2055.28 1708.38 2049.98 1706.76 2043.56 1706.76 2036.01 1706.76 2028.49 1708.39 2022.07 1711.65 2016.75 1714.91 2011.43 1719.58 2007.96 1725.66 2006.36Z" fill="#576C87" fill-rule="evenodd"/><text fill="#000000" fill-opacity="0" font-family="Arial,Arial_MSFontService,sans-serif" font-size="59.2812" x="1706.76" y="2058.23">(</text><path d="M1744.92 2021.14C1746.86 2021.14 1748.63 2021.25 1750.22 2021.48 1751.81 2021.71 1753.4 2022.11 1754.98 2022.67L1753.58 2029.23 1751.05 2029.23C1750.82 2027.38 1750.21 2025.97 1749.22 2025.01 1748.23 2024.06 1746.67 2023.58 1744.55 2023.58 1742.9 2023.58 1741.57 2024 1740.55 2024.84 1739.53 2025.69 1739.02 2026.79 1739.02 2028.17 1739.02 2028.92 1739.15 2029.58 1739.41 2030.15 1739.67 2030.73 1740.19 2031.36 1740.98 2032.04 1741.78 2032.73 1743.01 2033.58 1744.67 2034.58 1745.98 2035.37 1747.04 2036.09 1747.83 2036.75 1748.62 2037.4 1749.25 2038.06 1749.7 2038.7 1750.16 2039.35 1750.5 2040.03 1750.7 2040.75 1750.91 2041.47 1751.02 2042.34 1751.02 2043.36 1751.02 2045.21 1750.52 2046.8 1749.53 2048.12 1748.54 2049.45 1747.2 2050.43 1745.5 2051.08 1743.8 2051.72 1741.87 2052.04 1739.7 2052.04 1737.97 2052.04 1736.28 2051.91 1734.61 2051.65 1732.94 2051.39 1731.09 2050.95 1729.05 2050.33L1730.55 2043.51 1732.98 2043.51C1733.07 2045.51 1733.63 2047.02 1734.67 2048.04 1735.71 2049.07 1737.37 2049.58 1739.64 2049.58 1741.62 2049.58 1743.17 2049.13 1744.28 2048.25 1745.4 2047.36 1745.95 2046.11 1745.95 2044.48 1745.95 2043.54 1745.8 2042.74 1745.48 2042.06 1745.17 2041.38 1744.66 2040.73 1743.95 2040.11 1743.25 2039.48 1742.12 2038.7 1740.58 2037.76 1738.95 2036.78 1737.69 2035.9 1736.78 2035.11 1735.88 2034.32 1735.19 2033.46 1734.73 2032.53 1734.28 2031.6 1734.05 2030.53 1734.05 2029.33 1734.05 2027.68 1734.49 2026.24 1735.38 2025 1736.26 2023.76 1737.53 2022.81 1739.17 2022.14 1740.82 2021.47 1742.73 2021.14 1744.92 2021.14Z" fill="#576C87" fill-rule="evenodd"/><text fill="#000000" fill-opacity="0" font-family="Arial,Arial_MSFontService,sans-serif" font-size="30.9062" x="1729.05" y="2048.18">𝑠</text><path d="M1762.77 2044.26 1768.24 2044.26C1768.53 2045.72 1768.68 2047.16 1768.68 2048.58 1768.68 2050.03 1768.43 2051.37 1767.93 2052.58 1767.43 2053.78 1766.63 2054.99 1765.54 2056.19 1764.44 2057.38 1762.94 2058.7 1761.02 2060.14L1759.33 2058.23C1760.4 2057.23 1761.17 2056.33 1761.65 2055.53 1762.12 2054.73 1762.47 2053.82 1762.68 2052.79 1762.88 2051.77 1762.99 2050.49 1762.99 2048.95 1762.99 2047.37 1762.92 2045.81 1762.77 2044.26Z" fill="#576C87" fill-rule="evenodd"/><text fill="#000000" fill-opacity="0" font-family="Arial,Arial_MSFontService,sans-serif" font-size="15.875" x="1759.33" y="2058.15">,</text><path d="M1802.49 2023.58C1800.35 2023.58 1798.42 2024.44 1796.71 2026.17 1795 2027.9 1793.67 2030.22 1792.71 2033.12 1791.75 2036.03 1791.27 2038.93 1791.27 2041.83 1791.27 2043.99 1791.57 2045.61 1792.16 2046.69 1792.76 2047.76 1793.75 2048.29 1795.15 2048.29 1796.52 2048.29 1797.87 2047.7 1799.2 2046.51 1800.52 2045.33 1801.88 2043.63 1803.29 2041.44 1804.7 2039.24 1805.69 2036.7 1806.27 2033.83L1806.56 2032.48C1806.74 2031.63 1806.87 2030.89 1806.93 2030.26 1806.99 2029.64 1807.02 2028.96 1807.02 2028.23 1807.02 2026.63 1806.68 2025.45 1805.99 2024.7 1805.31 2023.95 1804.14 2023.58 1802.49 2023.58ZM1801.87 2021.11C1803.22 2021.11 1804.49 2021.26 1805.66 2021.56 1806.84 2021.86 1808.06 2022.4 1809.31 2023.17L1812.18 2021.11 1814.18 2021.61 1809.59 2041.42C1809.13 2043.4 1808.9 2044.94 1808.9 2046.04 1808.9 2046.88 1809.03 2047.48 1809.31 2047.86 1809.58 2048.23 1810 2048.42 1810.59 2048.42 1811.21 2048.42 1811.88 2048.16 1812.59 2047.65 1813.3 2047.14 1814.3 2046.17 1815.59 2044.73L1817.37 2046.48C1815.49 2048.48 1813.89 2049.9 1812.57 2050.75 1811.25 2051.59 1809.82 2052.01 1808.27 2052.01 1806.98 2052.01 1805.95 2051.59 1805.18 2050.73 1804.41 2049.88 1804.02 2048.74 1804.02 2047.33 1804.02 2046.18 1804.26 2044.96 1804.74 2043.67L1804.34 2043.54C1802.34 2046.46 1800.44 2048.6 1798.65 2049.95 1796.86 2051.31 1794.96 2051.98 1792.96 2051.98 1790.67 2051.98 1788.89 2051.12 1787.63 2049.39 1786.37 2047.66 1785.74 2045.23 1785.74 2042.11 1785.74 2038.52 1786.45 2035.08 1787.85 2031.78 1789.26 2028.48 1791.19 2025.87 1793.65 2023.97 1796.11 2022.06 1798.85 2021.11 1801.87 2021.11Z" fill="#576C87" fill-rule="evenodd"/><text fill="#000000" fill-opacity="0" font-family="Arial,Arial_MSFontService,sans-serif" font-size="30.9062" x="1785.74" y="2048.15">𝑎</text><path d="M1823.73 2044.26 1829.2 2044.26C1829.49 2045.72 1829.63 2047.16 1829.63 2048.58 1829.63 2050.03 1829.38 2051.37 1828.88 2052.58 1828.38 2053.78 1827.59 2054.99 1826.49 2056.19 1825.4 2057.38 1823.9 2058.7 1821.98 2060.14L1820.29 2058.23C1821.35 2057.23 1822.12 2056.33 1822.6 2055.53 1823.08 2054.73 1823.43 2053.82 1823.63 2052.79 1823.84 2051.77 1823.95 2050.49 1823.95 2048.95 1823.95 2047.37 1823.87 2045.81 1823.73 2044.26Z" fill="#576C87" fill-rule="evenodd"/><text fill="#000000" fill-opacity="0" font-family="Arial,Arial_MSFontService,sans-serif" font-size="15.875" x="1820.29" y="2058.15">,</text><path d="M1853.23 2021.11C1854.55 2021.11 1855.58 2021.54 1856.34 2022.4 1857.1 2023.27 1857.48 2024.4 1857.48 2025.79 1857.48 2026.84 1857.28 2027.91 1856.89 2029.01L1857.3 2029.17C1859.34 2026.4 1861.3 2024.37 1863.19 2023.08 1865.07 2021.78 1866.98 2021.14 1868.92 2021.14 1870.44 2021.14 1871.71 2021.25 1872.73 2021.48L1871.23 2028.48 1868.01 2028.48C1867.89 2027.61 1867.71 2026.93 1867.48 2026.45 1867.25 2025.97 1866.98 2025.64 1866.67 2025.45 1866.36 2025.26 1865.96 2025.17 1865.48 2025.17 1864.73 2025.17 1863.91 2025.49 1863.03 2026.14 1862.14 2026.78 1861.15 2027.79 1860.05 2029.17 1858.94 2030.54 1858.06 2031.87 1857.4 2033.14 1856.75 2034.41 1856.2 2036.02 1855.76 2037.98L1852.8 2051.51 1847.39 2051.51 1851.92 2031.7C1852.21 2030.45 1852.4 2029.48 1852.48 2028.79 1852.57 2028.11 1852.61 2027.53 1852.61 2027.08 1852.61 2026.24 1852.47 2025.64 1852.2 2025.26 1851.93 2024.89 1851.5 2024.7 1850.92 2024.7 1850.27 2024.7 1849.59 2024.97 1848.87 2025.5 1848.15 2026.03 1847.17 2026.99 1845.92 2028.39L1844.14 2026.64C1846.06 2024.64 1847.66 2023.22 1848.95 2022.37 1850.24 2021.53 1851.67 2021.11 1853.23 2021.11Z" fill="#576C87" fill-rule="evenodd"/><text fill="#000000" fill-opacity="0" font-family="Arial,Arial_MSFontService,sans-serif" font-size="30.4062" x="1844.14" y="2047.71">𝑟</text><path d="M1879.39 2044.26 1884.86 2044.26C1885.15 2045.72 1885.3 2047.16 1885.3 2048.58 1885.3 2050.03 1885.05 2051.37 1884.55 2052.58 1884.05 2053.78 1883.25 2054.99 1882.16 2056.19 1881.06 2057.38 1879.56 2058.7 1877.64 2060.14L1875.96 2058.23C1877.02 2057.23 1877.79 2056.33 1878.27 2055.53 1878.75 2054.73 1879.09 2053.82 1879.3 2052.79 1879.51 2051.77 1879.61 2050.49 1879.61 2048.95 1879.61 2047.37 1879.54 2045.81 1879.39 2044.26Z" fill="#576C87" fill-rule="evenodd"/><text fill="#000000" fill-opacity="0" font-family="Arial,Arial_MSFontService,sans-serif" font-size="15.875" x="1875.96" y="2058.15">,</text><path d="M1916.52 2021.14C1918.46 2021.14 1920.23 2021.25 1921.82 2021.48 1923.41 2021.71 1925 2022.11 1926.58 2022.67L1925.18 2029.23 1922.65 2029.23C1922.42 2027.38 1921.81 2025.97 1920.82 2025.01 1919.83 2024.06 1918.27 2023.58 1916.15 2023.58 1914.5 2023.58 1913.17 2024 1912.15 2024.84 1911.13 2025.69 1910.62 2026.79 1910.62 2028.17 1910.62 2028.92 1910.75 2029.58 1911.01 2030.15 1911.27 2030.73 1911.79 2031.36 1912.58 2032.04 1913.38 2032.73 1914.61 2033.58 1916.27 2034.58 1917.58 2035.37 1918.64 2036.09 1919.43 2036.75 1920.22 2037.4 1920.85 2038.06 1921.3 2038.7 1921.76 2039.35 1922.1 2040.03 1922.3 2040.75 1922.51 2041.47 1922.62 2042.34 1922.62 2043.36 1922.62 2045.21 1922.12 2046.8 1921.13 2048.12 1920.14 2049.45 1918.8 2050.43 1917.1 2051.08 1915.4 2051.72 1913.47 2052.04 1911.3 2052.04 1909.57 2052.04 1907.88 2051.91 1906.21 2051.65 1904.54 2051.39 1902.69 2050.95 1900.65 2050.33L1902.15 2043.51 1904.58 2043.51C1904.67 2045.51 1905.23 2047.02 1906.27 2048.04 1907.31 2049.07 1908.97 2049.58 1911.24 2049.58 1913.22 2049.58 1914.77 2049.13 1915.88 2048.25 1917 2047.36 1917.55 2046.11 1917.55 2044.48 1917.55 2043.54 1917.4 2042.74 1917.08 2042.06 1916.77 2041.38 1916.26 2040.73 1915.55 2040.11 1914.85 2039.48 1913.72 2038.7 1912.18 2037.76 1910.55 2036.78 1909.29 2035.9 1908.38 2035.11 1907.48 2034.32 1906.79 2033.46 1906.33 2032.53 1905.88 2031.6 1905.65 2030.53 1905.65 2029.33 1905.65 2027.68 1906.09 2026.24 1906.98 2025 1907.86 2023.76 1909.13 2022.81 1910.77 2022.14 1912.42 2021.47 1914.33 2021.14 1916.52 2021.14ZM1933.71 2006.79 1939.18 2006.79C1939.43 2007.48 1939.62 2008.23 1939.76 2009.04 1939.89 2009.86 1939.96 2010.6 1939.96 2011.26 1939.96 2012.64 1939.75 2013.86 1939.33 2014.92 1938.92 2015.98 1938.26 2017.06 1937.35 2018.15 1936.44 2019.25 1935.06 2020.61 1933.21 2022.23L1931.3 2020.36C1932.32 2019.13 1933.07 2017.88 1933.55 2016.62 1934.03 2015.36 1934.27 2013.83 1934.27 2012.01 1934.27 2011.39 1934.24 2010.72 1934.18 2010.01 1934.12 2009.31 1933.96 2008.23 1933.71 2006.79Z" fill="#576C87" fill-rule="evenodd"/><text fill="#000000" fill-opacity="0" font-family="Arial,Arial_MSFontService,sans-serif" font-size="45.25" x="1900.65" y="2046.39">𝑠’</text><path d="M1959.55 2006.36C1965.64 2007.96 1970.31 2011.43 1973.57 2016.75 1976.83 2022.07 1978.46 2028.49 1978.46 2036.01 1978.46 2043.56 1976.83 2049.98 1973.58 2055.28 1970.33 2060.58 1965.66 2064.03 1959.55 2065.64L1958.8 2063.23C1963.62 2061.63 1967.19 2058.46 1969.54 2053.73 1971.88 2049 1973.05 2042.99 1973.05 2035.7 1973.05 2028.66 1971.89 2022.81 1969.55 2018.15 1967.22 2013.5 1963.61 2010.37 1958.71 2008.76Z" fill="#576C87" fill-rule="evenodd"/><text fill="#000000" fill-opacity="0" font-family="Arial,Arial_MSFontService,sans-serif" font-size="59.2812" x="1958.71" y="2058.23">)</text><path d="M2219.74 1860.23 2220.58 1862.64C2215.71 1864.24 2212.1 1867.37 2209.75 1872.03 2207.41 1876.69 2206.24 1882.53 2206.24 1889.58 2206.24 1896.87 2207.41 1902.88 2209.75 1907.61 2212.1 1912.34 2215.68 1915.5 2220.49 1917.11L2219.74 1919.51C2213.63 1917.91 2208.96 1914.46 2205.71 1909.15 2202.46 1903.85 2200.83 1897.43 2200.83 1889.89 2200.83 1882.37 2202.46 1875.95 2205.72 1870.62 2208.98 1865.3 2213.66 1861.84 2219.74 1860.23Z" fill="#576C87" fill-rule="evenodd"/><text fill="#000000" fill-opacity="0" font-family="Arial,Arial_MSFontService,sans-serif" font-size="59.2812" x="2200.83" y="1912.1">(</text><path d="M2239 1875.01C2240.94 1875.01 2242.7 1875.13 2244.3 1875.36 2245.89 1875.59 2247.48 1875.98 2249.06 1876.55L2247.66 1883.11 2245.12 1883.11C2244.89 1881.25 2244.29 1879.85 2243.3 1878.89 2242.31 1877.93 2240.75 1877.45 2238.62 1877.45 2236.98 1877.45 2235.64 1877.87 2234.62 1878.72 2233.6 1879.56 2233.09 1880.67 2233.09 1882.05 2233.09 1882.8 2233.22 1883.46 2233.48 1884.03 2233.74 1884.6 2234.27 1885.23 2235.06 1885.92 2235.85 1886.61 2237.08 1887.45 2238.75 1888.45 2240.06 1889.24 2241.11 1889.97 2241.91 1890.62 2242.7 1891.28 2243.32 1891.93 2243.78 1892.58 2244.24 1893.22 2244.57 1893.9 2244.78 1894.62 2244.99 1895.34 2245.09 1896.21 2245.09 1897.23 2245.09 1899.09 2244.6 1900.68 2243.61 1902 2242.62 1903.32 2241.27 1904.31 2239.58 1904.95 2237.88 1905.6 2235.95 1905.92 2233.78 1905.92 2232.05 1905.92 2230.35 1905.79 2228.69 1905.53 2227.02 1905.27 2225.17 1904.83 2223.12 1904.2L2224.62 1897.39 2227.06 1897.39C2227.14 1899.39 2227.71 1900.9 2228.75 1901.92 2229.79 1902.94 2231.45 1903.45 2233.72 1903.45 2235.7 1903.45 2237.24 1903.01 2238.36 1902.12 2239.47 1901.24 2240.03 1899.98 2240.03 1898.36 2240.03 1897.42 2239.87 1896.61 2239.56 1895.94 2239.25 1895.26 2238.74 1894.61 2238.03 1893.98 2237.32 1893.36 2236.2 1892.58 2234.66 1891.64 2233.03 1890.66 2231.76 1889.77 2230.86 1888.98 2229.95 1888.19 2229.27 1887.33 2228.81 1886.4 2228.35 1885.48 2228.12 1884.41 2228.12 1883.2 2228.12 1881.56 2228.57 1880.11 2229.45 1878.87 2230.34 1877.63 2231.6 1876.68 2233.25 1876.01 2234.89 1875.35 2236.81 1875.01 2239 1875.01Z" fill="#576C87" fill-rule="evenodd"/><text fill="#000000" fill-opacity="0" font-family="Arial,Arial_MSFontService,sans-serif" font-size="30.9062" x="2223.12" y="1902.06">𝑠</text><path d="M2256.85 1898.14 2262.32 1898.14C2262.61 1899.6 2262.75 1901.03 2262.75 1902.45 2262.75 1903.91 2262.5 1905.24 2262 1906.45 2261.5 1907.66 2260.71 1908.86 2259.61 1910.06 2258.52 1911.26 2257.01 1912.58 2255.1 1914.01L2253.41 1912.11C2254.47 1911.11 2255.24 1910.21 2255.72 1909.4 2256.2 1908.6 2256.54 1907.69 2256.75 1906.67 2256.96 1905.65 2257.07 1904.37 2257.07 1902.83 2257.07 1901.24 2256.99 1899.68 2256.85 1898.14Z" fill="#576C87" fill-rule="evenodd"/><text fill="#000000" fill-opacity="0" font-family="Arial,Arial_MSFontService,sans-serif" font-size="15.875" x="2253.41" y="1912.03">,</text><path d="M2296.57 1877.45C2294.42 1877.45 2292.5 1878.32 2290.79 1880.05 2289.08 1881.77 2287.75 1884.09 2286.79 1887 2285.83 1889.9 2285.35 1892.81 2285.35 1895.7 2285.35 1897.87 2285.65 1899.49 2286.24 1900.56 2286.84 1901.63 2287.83 1902.17 2289.23 1902.17 2290.6 1902.17 2291.95 1901.58 2293.27 1900.39 2294.6 1899.2 2295.96 1897.51 2297.37 1895.31 2298.77 1893.11 2299.77 1890.58 2300.35 1887.7L2300.63 1886.36C2300.82 1885.5 2300.94 1884.76 2301.01 1884.14 2301.07 1883.51 2301.1 1882.84 2301.1 1882.11 2301.1 1880.5 2300.76 1879.33 2300.07 1878.58 2299.38 1877.83 2298.22 1877.45 2296.57 1877.45ZM2295.94 1874.98C2297.3 1874.98 2298.56 1875.13 2299.74 1875.44 2300.92 1875.74 2302.13 1876.27 2303.38 1877.05L2306.26 1874.98 2308.26 1875.48 2303.66 1895.3C2303.21 1897.27 2302.98 1898.82 2302.98 1899.92 2302.98 1900.75 2303.11 1901.36 2303.38 1901.73 2303.65 1902.11 2304.08 1902.3 2304.66 1902.3 2305.29 1902.3 2305.96 1902.04 2306.66 1901.53 2307.37 1901.02 2308.37 1900.05 2309.66 1898.61L2311.44 1900.36C2309.57 1902.36 2307.97 1903.78 2306.65 1904.62 2305.32 1905.47 2303.89 1905.89 2302.35 1905.89 2301.06 1905.89 2300.03 1905.46 2299.26 1904.61 2298.49 1903.75 2298.1 1902.62 2298.1 1901.2 2298.1 1900.06 2298.34 1898.84 2298.82 1897.55L2298.41 1897.42C2296.41 1900.34 2294.52 1902.47 2292.73 1903.83 2290.93 1905.18 2289.04 1905.86 2287.04 1905.86 2284.75 1905.86 2282.97 1904.99 2281.71 1903.26 2280.45 1901.53 2279.82 1899.11 2279.82 1895.98 2279.82 1892.4 2280.52 1888.96 2281.93 1885.65 2283.34 1882.35 2285.27 1879.75 2287.73 1877.84 2290.18 1875.94 2292.92 1874.98 2295.94 1874.98Z" fill="#576C87" fill-rule="evenodd"/><text fill="#000000" fill-opacity="0" font-family="Arial,Arial_MSFontService,sans-serif" font-size="30.9062" x="2279.82" y="1902.03">𝑎</text><path d="M2315.65 1860.23C2321.73 1861.84 2326.4 1865.3 2329.66 1870.62 2332.92 1875.95 2334.55 1882.37 2334.55 1889.89 2334.55 1897.43 2332.93 1903.85 2329.68 1909.15 2326.43 1914.46 2321.75 1917.91 2315.65 1919.51L2314.9 1917.11C2319.71 1915.5 2323.29 1912.34 2325.63 1907.61 2327.98 1902.88 2329.15 1896.87 2329.15 1889.58 2329.15 1882.53 2327.98 1876.69 2325.65 1872.03 2323.32 1867.37 2319.7 1864.24 2314.8 1862.64Z" fill="#576C87" fill-rule="evenodd"/><text fill="#000000" fill-opacity="0" font-family="Arial,Arial_MSFontService,sans-serif" font-size="59.2812" x="2314.8" y="1912.1">)</text><path d="M2752.87 1882.04C2754.8 1882.04 2756.57 1882.15 2758.16 1882.38 2759.76 1882.61 2761.35 1883.01 2762.93 1883.57L2761.52 1890.13 2758.99 1890.13C2758.76 1888.28 2758.15 1886.87 2757.16 1885.91 2756.17 1884.96 2754.62 1884.48 2752.49 1884.48 2750.85 1884.48 2749.51 1884.9 2748.49 1885.74 2747.47 1886.59 2746.96 1887.7 2746.96 1889.07 2746.96 1889.82 2747.09 1890.48 2747.35 1891.05 2747.61 1891.63 2748.14 1892.26 2748.93 1892.95 2749.72 1893.63 2750.95 1894.48 2752.62 1895.48 2753.93 1896.27 2754.98 1896.99 2755.77 1897.65 2756.56 1898.3 2757.19 1898.96 2757.65 1899.6 2758.11 1900.25 2758.44 1900.93 2758.65 1901.65 2758.86 1902.37 2758.96 1903.24 2758.96 1904.26 2758.96 1906.11 2758.47 1907.7 2757.48 1909.02 2756.49 1910.35 2755.14 1911.33 2753.44 1911.98 2751.75 1912.62 2749.81 1912.95 2747.65 1912.95 2745.92 1912.95 2744.22 1912.82 2742.55 1912.55 2740.89 1912.29 2739.03 1911.85 2736.99 1911.23L2738.49 1904.41 2740.93 1904.41C2741.01 1906.41 2741.57 1907.92 2742.62 1908.95 2743.66 1909.97 2745.31 1910.48 2747.59 1910.48 2749.56 1910.48 2751.11 1910.03 2752.23 1909.15 2753.34 1908.26 2753.9 1907.01 2753.9 1905.38 2753.9 1904.45 2753.74 1903.64 2753.43 1902.96 2753.12 1902.28 2752.61 1901.63 2751.9 1901.01 2751.19 1900.38 2750.06 1899.6 2748.52 1898.66 2746.9 1897.69 2745.63 1896.8 2744.73 1896.01 2743.82 1895.22 2743.14 1894.36 2742.68 1893.43 2742.22 1892.5 2741.99 1891.44 2741.99 1890.23 2741.99 1888.58 2742.43 1887.14 2743.32 1885.9 2744.21 1884.66 2745.47 1883.71 2747.12 1883.04 2748.76 1882.37 2750.68 1882.04 2752.87 1882.04ZM2770.05 1867.7 2775.52 1867.7C2775.77 1868.38 2775.97 1869.13 2776.1 1869.95 2776.24 1870.76 2776.3 1871.5 2776.3 1872.16 2776.3 1873.54 2776.1 1874.76 2775.68 1875.82 2775.26 1876.88 2774.6 1877.96 2773.69 1879.05 2772.79 1880.15 2771.41 1881.51 2769.55 1883.13L2767.65 1881.26C2768.67 1880.03 2769.42 1878.78 2769.9 1877.52 2770.38 1876.26 2770.62 1874.73 2770.62 1872.91 2770.62 1872.29 2770.59 1871.62 2770.52 1870.91 2770.46 1870.21 2770.3 1869.13 2770.05 1867.7Z" fill="#576C87" fill-rule="evenodd"/><text fill="#000000" fill-opacity="0" font-family="Arial,Arial_MSFontService,sans-serif" font-size="45.25" x="2736.99" y="1907.29">𝑠’</text><path d="M1840 1614.04C1841.94 1614.04 1843.71 1614.15 1845.3 1614.38 1846.89 1614.61 1848.48 1615.01 1850.07 1615.57L1848.66 1622.13 1846.13 1622.13C1845.9 1620.28 1845.29 1618.87 1844.3 1617.92 1843.31 1616.96 1841.75 1616.48 1839.63 1616.48 1837.98 1616.48 1836.65 1616.9 1835.63 1617.74 1834.61 1618.59 1834.1 1619.7 1834.1 1621.07 1834.1 1621.82 1834.23 1622.48 1834.49 1623.06 1834.75 1623.63 1835.27 1624.26 1836.07 1624.95 1836.86 1625.63 1838.09 1626.48 1839.75 1627.48 1841.07 1628.27 1842.12 1628.99 1842.91 1629.65 1843.7 1630.31 1844.33 1630.96 1844.78 1631.6 1845.24 1632.25 1845.58 1632.93 1845.78 1633.65 1845.99 1634.37 1846.1 1635.24 1846.1 1636.26 1846.1 1638.11 1845.6 1639.7 1844.61 1641.02 1843.62 1642.35 1842.28 1643.33 1840.58 1643.98 1838.88 1644.62 1836.95 1644.95 1834.78 1644.95 1833.06 1644.95 1831.36 1644.82 1829.69 1644.56 1828.02 1644.3 1826.17 1643.85 1824.13 1643.23L1825.63 1636.42 1828.07 1636.42C1828.15 1638.42 1828.71 1639.93 1829.75 1640.95 1830.79 1641.97 1832.45 1642.48 1834.72 1642.48 1836.7 1642.48 1838.25 1642.03 1839.36 1641.15 1840.48 1640.26 1841.03 1639.01 1841.03 1637.38 1841.03 1636.45 1840.88 1635.64 1840.57 1634.96 1840.25 1634.28 1839.74 1633.63 1839.03 1633.01 1838.33 1632.38 1837.2 1631.6 1835.66 1630.67 1834.03 1629.69 1832.77 1628.8 1831.86 1628.01 1830.96 1627.22 1830.27 1626.36 1829.82 1625.43 1829.36 1624.5 1829.13 1623.44 1829.13 1622.23 1829.13 1620.58 1829.57 1619.14 1830.46 1617.9 1831.34 1616.66 1832.61 1615.71 1834.25 1615.04 1835.9 1614.37 1837.82 1614.04 1840 1614.04Z" fill="#576C87" fill-rule="evenodd"/><text fill="#000000" fill-opacity="0" font-family="Arial,Arial_MSFontService,sans-serif" font-size="30.9062" x="1824.13" y="1641.08">𝑠</text><path d="M1735.51 1795.14C1733.37 1795.14 1731.44 1796.01 1729.73 1797.74 1728.02 1799.46 1726.69 1801.78 1725.73 1804.69 1724.77 1807.59 1724.29 1810.5 1724.29 1813.39 1724.29 1815.56 1724.59 1817.18 1725.18 1818.25 1725.78 1819.32 1726.77 1819.86 1728.17 1819.86 1729.54 1819.86 1730.89 1819.27 1732.22 1818.08 1733.54 1816.89 1734.9 1815.2 1736.31 1813 1737.72 1810.8 1738.71 1808.27 1739.29 1805.39L1739.58 1804.05C1739.76 1803.19 1739.89 1802.45 1739.95 1801.83 1740.01 1801.2 1740.04 1800.53 1740.04 1799.8 1740.04 1798.19 1739.7 1797.02 1739.01 1796.27 1738.33 1795.52 1737.16 1795.14 1735.51 1795.14ZM1646.39 1795.14C1644.26 1795.14 1642.36 1796 1640.67 1797.72 1638.98 1799.44 1637.65 1801.76 1636.68 1804.67 1635.72 1807.59 1635.23 1810.5 1635.23 1813.39 1635.23 1815.56 1635.54 1817.18 1636.17 1818.25 1636.79 1819.32 1637.77 1819.86 1639.11 1819.86 1640.17 1819.86 1641.23 1819.5 1642.28 1818.77 1643.33 1818.04 1644.46 1816.88 1645.65 1815.3 1646.85 1813.71 1647.78 1812.2 1648.45 1810.77 1649.12 1809.33 1649.68 1807.54 1650.15 1805.39 1650.62 1803.25 1650.86 1801.38 1650.86 1799.8 1650.86 1798.17 1650.51 1796.99 1649.83 1796.25 1649.14 1795.51 1647.99 1795.14 1646.39 1795.14ZM1576.51 1795.14C1574.37 1795.14 1572.44 1796.01 1570.73 1797.74 1569.02 1799.46 1567.69 1801.78 1566.73 1804.69 1565.77 1807.59 1565.29 1810.5 1565.29 1813.39 1565.29 1815.56 1565.59 1817.18 1566.18 1818.25 1566.78 1819.32 1567.77 1819.86 1569.17 1819.86 1570.54 1819.86 1571.89 1819.27 1573.22 1818.08 1574.54 1816.89 1575.9 1815.2 1577.31 1813 1578.72 1810.8 1579.71 1808.27 1580.29 1805.39L1580.58 1804.05C1580.76 1803.19 1580.89 1802.45 1580.95 1801.83 1581.01 1801.2 1581.04 1800.53 1581.04 1799.8 1581.04 1798.19 1580.7 1797.02 1580.01 1796.27 1579.33 1795.52 1578.16 1795.14 1576.51 1795.14ZM1734.89 1792.67C1736.24 1792.67 1737.51 1792.82 1738.68 1793.13 1739.86 1793.43 1741.08 1793.96 1742.33 1794.74L1745.2 1792.67 1747.2 1793.17 1742.61 1812.99C1742.15 1814.96 1741.92 1816.51 1741.92 1817.61 1741.92 1818.44 1742.05 1819.05 1742.33 1819.42 1742.6 1819.8 1743.02 1819.99 1743.61 1819.99 1744.23 1819.99 1744.9 1819.73 1745.61 1819.22 1746.31 1818.71 1747.31 1817.74 1748.61 1816.3L1750.39 1818.05C1748.51 1820.05 1746.91 1821.47 1745.59 1822.31 1744.27 1823.16 1742.84 1823.58 1741.29 1823.58 1740 1823.58 1738.97 1823.15 1738.2 1822.3 1737.43 1821.44 1737.04 1820.31 1737.04 1818.89 1737.04 1817.75 1737.28 1816.53 1737.76 1815.24L1737.36 1815.11C1735.36 1818.03 1733.46 1820.16 1731.67 1821.52 1729.88 1822.87 1727.98 1823.55 1725.98 1823.55 1723.69 1823.55 1721.91 1822.68 1720.65 1820.95 1719.39 1819.23 1718.76 1816.8 1718.76 1813.67 1718.76 1810.09 1719.47 1806.65 1720.87 1803.34 1722.28 1800.04 1724.21 1797.44 1726.67 1795.53 1729.13 1793.63 1731.87 1792.67 1734.89 1792.67ZM1671.33 1792.67C1672.64 1792.67 1673.67 1793.11 1674.43 1793.97 1675.2 1794.83 1675.58 1795.96 1675.58 1797.36 1675.58 1798.51 1675.34 1799.73 1674.86 1801.02L1675.23 1801.14C1677.15 1798.29 1679.05 1796.17 1680.95 1794.78 1682.85 1793.4 1684.76 1792.7 1686.7 1792.7 1688.7 1792.7 1690.22 1793.27 1691.26 1794.41 1692.3 1795.54 1692.83 1797.18 1692.83 1799.33L1692.83 1799.77C1692.83 1799.91 1692.81 1800.07 1692.79 1800.24 1694.59 1797.69 1696.37 1795.8 1698.15 1794.56 1699.93 1793.32 1701.78 1792.7 1703.7 1792.7 1705.62 1792.7 1707.1 1793.26 1708.14 1794.36 1709.18 1795.46 1709.7 1797.02 1709.7 1799.02 1709.7 1800.33 1709.4 1802.19 1708.79 1804.61L1706.76 1812.8C1706.2 1815.07 1705.92 1816.67 1705.92 1817.61 1705.92 1818.44 1706.05 1819.05 1706.33 1819.42 1706.6 1819.8 1707.02 1819.99 1707.61 1819.99 1708.23 1819.99 1708.9 1819.73 1709.61 1819.22 1710.31 1818.71 1711.31 1817.74 1712.61 1816.3L1714.39 1818.05C1712.6 1819.94 1711.03 1821.34 1709.7 1822.24 1708.37 1823.13 1706.85 1823.58 1705.14 1823.58 1703.78 1823.58 1702.7 1823.09 1701.89 1822.13 1701.08 1821.16 1700.67 1819.92 1700.67 1818.42 1700.67 1817.07 1701.01 1815.08 1701.7 1812.45L1703.08 1807.05C1703.58 1805.09 1703.9 1803.64 1704.06 1802.7 1704.22 1801.77 1704.29 1801.01 1704.29 1800.42 1704.29 1798.99 1704.05 1797.95 1703.58 1797.31 1703.1 1796.68 1702.31 1796.36 1701.23 1796.36 1700.36 1796.36 1699.42 1796.69 1698.42 1797.34 1697.42 1798 1696.37 1799.02 1695.26 1800.41 1694.16 1801.79 1693.26 1803.16 1692.56 1804.5 1691.86 1805.84 1691.3 1807.49 1690.89 1809.42L1688.04 1823.08 1682.64 1823.08 1686.23 1807.2C1686.67 1805.27 1686.97 1803.83 1687.12 1802.91 1687.28 1801.98 1687.36 1801.18 1687.36 1800.52 1687.36 1799.02 1687.09 1797.95 1686.56 1797.31 1686.03 1796.68 1685.2 1796.36 1684.08 1796.36 1683.28 1796.36 1682.38 1796.69 1681.37 1797.34 1680.36 1798 1679.28 1799.05 1678.14 1800.5 1676.99 1801.95 1676.1 1803.34 1675.45 1804.67 1674.8 1806.01 1674.26 1807.63 1673.83 1809.55L1670.86 1823.08 1665.45 1823.08 1670.01 1803.27C1670.47 1801.27 1670.7 1799.73 1670.7 1798.64 1670.7 1797.81 1670.56 1797.2 1670.29 1796.83 1670.02 1796.45 1669.6 1796.27 1669.01 1796.27 1668.37 1796.27 1667.68 1796.53 1666.97 1797.06 1666.25 1797.59 1665.26 1798.56 1664.01 1799.95L1662.23 1798.2C1664.06 1796.29 1665.64 1794.89 1666.97 1794 1668.29 1793.12 1669.74 1792.67 1671.33 1792.67ZM1645.89 1792.67C1647.2 1792.67 1648.44 1792.83 1649.61 1793.14 1650.77 1793.45 1651.95 1793.99 1653.14 1794.74L1656.01 1792.67 1658.01 1793.17 1654.79 1807.74C1654.56 1808.76 1654.04 1811.33 1653.23 1815.45 1652.38 1819.83 1651.68 1822.92 1651.15 1824.74 1650.62 1826.55 1649.96 1828.2 1649.17 1829.69 1648.38 1831.18 1647.36 1832.48 1646.11 1833.58 1644.86 1834.68 1643.34 1835.54 1641.56 1836.14 1639.78 1836.75 1637.67 1837.05 1635.23 1837.05 1627.36 1837.05 1623.42 1834.76 1623.42 1830.17 1623.42 1829.01 1623.77 1827.94 1624.48 1826.99 1625.19 1826.03 1626.33 1825.02 1627.89 1823.95L1630.14 1825.77C1629.74 1826.25 1629.41 1826.72 1629.14 1827.19 1628.87 1827.66 1628.67 1828.11 1628.56 1828.55 1628.45 1828.99 1628.39 1829.51 1628.39 1830.11 1628.39 1831.67 1628.95 1832.81 1630.08 1833.53 1631.2 1834.25 1632.9 1834.61 1635.17 1834.61 1637.73 1834.61 1639.79 1834.03 1641.34 1832.88 1642.89 1831.72 1644.22 1829.86 1645.33 1827.3 1646.43 1824.74 1647.5 1820.86 1648.54 1815.67L1648.11 1815.58C1646.09 1818.35 1644.21 1820.37 1642.48 1821.64 1640.75 1822.91 1638.89 1823.55 1636.89 1823.55 1634.62 1823.55 1632.85 1822.69 1631.59 1820.99 1630.33 1819.28 1629.7 1816.84 1629.7 1813.67 1629.7 1810.11 1630.4 1806.69 1631.79 1803.41 1633.19 1800.13 1635.13 1797.52 1637.61 1795.58 1640.09 1793.64 1642.85 1792.67 1645.89 1792.67ZM1602.29 1792.67C1603.61 1792.67 1604.64 1793.11 1605.4 1793.97 1606.16 1794.83 1606.54 1795.96 1606.54 1797.36 1606.54 1798.4 1606.35 1799.48 1605.95 1800.58L1606.36 1800.74C1608.4 1797.96 1610.36 1795.93 1612.25 1794.64 1614.13 1793.35 1616.04 1792.7 1617.98 1792.7 1619.5 1792.7 1620.77 1792.82 1621.79 1793.05L1620.29 1800.05 1617.08 1800.05C1616.95 1799.17 1616.77 1798.5 1616.54 1798.02 1616.31 1797.54 1616.04 1797.2 1615.73 1797.02 1615.42 1796.83 1615.02 1796.74 1614.54 1796.74 1613.79 1796.74 1612.98 1797.06 1612.09 1797.7 1611.21 1798.35 1610.21 1799.36 1609.11 1800.74 1608 1802.11 1607.12 1803.43 1606.47 1804.7 1605.81 1805.98 1605.26 1807.59 1604.83 1809.55L1601.86 1823.08 1596.45 1823.08 1600.98 1803.27C1601.27 1802.02 1601.46 1801.05 1601.54 1800.36 1601.63 1799.67 1601.67 1799.1 1601.67 1798.64 1601.67 1797.81 1601.53 1797.2 1601.26 1796.83 1600.99 1796.45 1600.56 1796.27 1599.98 1796.27 1599.34 1796.27 1598.65 1796.53 1597.93 1797.06 1597.22 1797.59 1596.23 1798.56 1594.98 1799.95L1593.2 1798.2C1595.12 1796.2 1596.72 1794.78 1598.01 1793.94 1599.3 1793.09 1600.73 1792.67 1602.29 1792.67ZM1575.89 1792.67C1577.24 1792.67 1578.51 1792.82 1579.68 1793.13 1580.86 1793.43 1582.08 1793.96 1583.33 1794.74L1586.2 1792.67 1588.2 1793.17 1583.61 1812.99C1583.15 1814.96 1582.92 1816.51 1582.92 1817.61 1582.92 1818.44 1583.05 1819.05 1583.33 1819.42 1583.6 1819.8 1584.02 1819.99 1584.61 1819.99 1585.23 1819.99 1585.9 1819.73 1586.61 1819.22 1587.31 1818.71 1588.31 1817.74 1589.61 1816.3L1591.39 1818.05C1589.51 1820.05 1587.91 1821.47 1586.59 1822.31 1585.27 1823.16 1583.84 1823.58 1582.29 1823.58 1581 1823.58 1579.97 1823.15 1579.2 1822.3 1578.43 1821.44 1578.04 1820.31 1578.04 1818.89 1578.04 1817.75 1578.28 1816.53 1578.76 1815.24L1578.36 1815.11C1576.36 1818.03 1574.46 1820.16 1572.67 1821.52 1570.88 1822.87 1568.98 1823.55 1566.98 1823.55 1564.69 1823.55 1562.91 1822.68 1561.65 1820.95 1560.39 1819.23 1559.76 1816.8 1559.76 1813.67 1559.76 1810.09 1560.47 1806.65 1561.87 1803.34 1563.28 1800.04 1565.21 1797.44 1567.67 1795.53 1570.13 1793.63 1572.87 1792.67 1575.89 1792.67Z" fill="#576C87" fill-rule="evenodd"/><text fill="#000000" fill-opacity="0" font-family="Arial,Arial_MSFontService,sans-serif" font-size="44.375" x="1559.76" y="1831.5">𝑎𝑟𝑔𝑚𝑎</text><path d="M1765.18 1792.67C1765.82 1792.67 1766.39 1792.75 1766.88 1792.89 1767.37 1793.04 1767.8 1793.26 1768.18 1793.56 1768.55 1793.87 1768.88 1794.26 1769.18 1794.74 1769.47 1795.21 1769.75 1795.87 1770.02 1796.69 1770.29 1797.51 1770.55 1798.53 1770.78 1799.75 1771.02 1800.97 1771.24 1802.24 1771.43 1803.55L1771.74 1803.55C1773.74 1800.74 1775.25 1798.68 1776.28 1797.38 1777.32 1796.07 1778.19 1795.11 1778.89 1794.47 1779.6 1793.83 1780.28 1793.39 1780.94 1793.13 1781.6 1792.87 1782.47 1792.74 1783.55 1792.74 1784.53 1792.74 1785.33 1792.86 1785.96 1793.11L1784.71 1798.77 1782.52 1798.77C1782.39 1797.89 1782.03 1797.45 1781.43 1797.45 1781.24 1797.45 1781.04 1797.49 1780.83 1797.55 1780.62 1797.61 1780.37 1797.75 1780.07 1797.95 1779.76 1798.16 1779.32 1798.57 1778.74 1799.17 1778.15 1799.78 1777.5 1800.52 1776.77 1801.39 1776.04 1802.27 1775.29 1803.18 1774.52 1804.14L1772.39 1806.8C1772.77 1808.8 1773.12 1810.53 1773.46 1811.99 1773.79 1813.44 1774.09 1814.66 1774.35 1815.63 1774.61 1816.59 1774.84 1817.36 1775.03 1817.92 1775.23 1818.49 1775.45 1818.91 1775.68 1819.19 1775.9 1819.47 1776.14 1819.67 1776.38 1819.78 1776.62 1819.9 1776.89 1819.95 1777.21 1819.95 1777.77 1819.95 1778.32 1819.74 1778.85 1819.3 1779.38 1818.86 1780.14 1817.87 1781.14 1816.33L1783.18 1817.67C1781.72 1819.84 1780.4 1821.37 1779.22 1822.25 1778.05 1823.14 1776.64 1823.58 1775.02 1823.58 1774.12 1823.58 1773.36 1823.42 1772.74 1823.09 1772.11 1822.77 1771.57 1822.26 1771.11 1821.55 1770.65 1820.84 1770.25 1819.74 1769.89 1818.24 1769.25 1815.57 1768.85 1813.53 1768.71 1812.11L1768.39 1812.11C1766.19 1815.21 1764.55 1817.44 1763.47 1818.8 1762.4 1820.15 1761.51 1821.15 1760.82 1821.8 1760.12 1822.44 1759.44 1822.9 1758.78 1823.16 1758.13 1823.42 1757.26 1823.55 1756.18 1823.55 1755.2 1823.55 1754.39 1823.42 1753.77 1823.17L1755.02 1817.52 1757.21 1817.52C1757.33 1818.39 1757.7 1818.83 1758.3 1818.83 1758.59 1818.83 1758.9 1818.75 1759.22 1818.59 1759.55 1818.44 1760.01 1818.06 1760.61 1817.47 1761.22 1816.88 1762.05 1815.94 1763.11 1814.67 1764.18 1813.4 1765.72 1811.5 1767.74 1808.95 1767.43 1807.31 1767.1 1805.73 1766.77 1804.2 1766.44 1802.68 1766.09 1801.27 1765.74 1799.95 1765.38 1798.64 1765.09 1797.78 1764.86 1797.38 1764.63 1796.97 1764.39 1796.69 1764.13 1796.53 1763.87 1796.38 1763.54 1796.3 1763.14 1796.3 1762.71 1796.3 1762.31 1796.4 1761.96 1796.59 1761.6 1796.79 1761.22 1797.14 1760.8 1797.63 1760.38 1798.12 1759.83 1798.88 1759.14 1799.92L1757.11 1798.58C1758.43 1796.6 1759.69 1795.12 1760.89 1794.14 1762.1 1793.16 1763.53 1792.67 1765.18 1792.67Z" fill="#576C87" fill-rule="evenodd"/><text fill="#000000" fill-opacity="0" font-family="Arial,Arial_MSFontService,sans-serif" font-size="30.9062" x="1753.77" y="1819.72">𝑥</text><path d="M1802.77 1815.01C1801.86 1815.01 1801.02 1815.2 1800.24 1815.6 1799.46 1816 1798.75 1816.54 1798.11 1817.23 1797.47 1817.92 1796.9 1818.72 1796.4 1819.62 1795.9 1820.52 1795.48 1821.48 1795.14 1822.49 1794.79 1823.5 1794.53 1824.53 1794.36 1825.6 1794.18 1826.66 1794.09 1827.68 1794.09 1828.66 1794.09 1830.31 1794.33 1831.54 1794.79 1832.34 1795.26 1833.15 1796.01 1833.55 1797.05 1833.55 1797.57 1833.55 1798.07 1833.46 1798.56 1833.27 1799.04 1833.09 1799.55 1832.8 1800.08 1832.4 1801.43 1831.35 1802.58 1830.06 1803.52 1828.55 1804.47 1827.03 1805.18 1825.24 1805.66 1823.18 1805.87 1822.23 1806.04 1821.37 1806.16 1820.61 1806.29 1819.84 1806.35 1819.11 1806.35 1818.42 1806.35 1817.2 1806.06 1816.33 1805.49 1815.8 1804.91 1815.27 1804.01 1815.01 1802.77 1815.01ZM1802.35 1812.73C1803.56 1812.73 1804.63 1812.88 1805.56 1813.16 1806.48 1813.44 1807.33 1813.83 1808.09 1814.32L1810.32 1812.73 1812.18 1813.22 1808.71 1828.25C1808.51 1829.1 1808.37 1829.81 1808.3 1830.37 1808.22 1830.93 1808.18 1831.42 1808.18 1831.85 1808.18 1832.43 1808.3 1832.85 1808.54 1833.11 1808.78 1833.37 1809.12 1833.5 1809.56 1833.5 1809.84 1833.5 1810.11 1833.45 1810.37 1833.34 1810.64 1833.23 1810.93 1833.07 1811.25 1832.84 1811.56 1832.61 1811.9 1832.31 1812.28 1831.95 1812.65 1831.59 1813.08 1831.16 1813.55 1830.66 1813.8 1830.92 1814.05 1831.17 1814.31 1831.43 1814.57 1831.68 1814.82 1831.93 1815.07 1832.17 1814.3 1832.95 1813.61 1833.62 1812.98 1834.18 1812.35 1834.74 1811.74 1835.2 1811.15 1835.56 1810.57 1835.92 1809.99 1836.18 1809.42 1836.34 1808.86 1836.5 1808.27 1836.58 1807.66 1836.58 1806.55 1836.58 1805.7 1836.22 1805.08 1835.51 1804.47 1834.8 1804.17 1833.82 1804.17 1832.58 1804.17 1831.9 1804.27 1831.24 1804.49 1830.61L1804.17 1830.47C1803.39 1831.56 1802.63 1832.49 1801.89 1833.25 1801.16 1834.02 1800.43 1834.65 1799.71 1835.14 1799 1835.64 1798.27 1836 1797.53 1836.23 1796.8 1836.46 1796.04 1836.58 1795.24 1836.58 1793.42 1836.58 1792.01 1835.92 1791.02 1834.62 1790.02 1833.31 1789.53 1831.41 1789.53 1828.91 1789.53 1827.43 1789.68 1826 1790 1824.63 1790.31 1823.26 1790.75 1821.98 1791.33 1820.78 1791.9 1819.58 1792.59 1818.48 1793.38 1817.5 1794.18 1816.51 1795.05 1815.66 1796 1814.96 1796.95 1814.26 1797.96 1813.71 1799.03 1813.32 1800.1 1812.93 1801.21 1812.73 1802.35 1812.73Z" fill="#576C87" fill-rule="evenodd"/><text fill="#000000" fill-opacity="0" font-family="Arial,Arial_MSFontService,sans-serif" font-size="23.8442" x="1789.53" y="1833.6">𝑎</text><path d="M1845.77 1782.67C1843.52 1782.67 1841.42 1783.48 1839.47 1785.08 1837.52 1786.68 1835.81 1788.98 1834.35 1791.95 1832.88 1794.93 1831.74 1798.2 1830.92 1801.77 1830.11 1805.33 1829.7 1808.48 1829.7 1811.2 1829.7 1817.64 1832.05 1820.86 1836.74 1820.86 1839.63 1820.86 1842.29 1819.51 1844.7 1816.81 1847.12 1814.12 1849.07 1810.38 1850.55 1805.61 1852.03 1800.84 1852.77 1796.38 1852.77 1792.24 1852.77 1789.13 1852.19 1786.76 1851.05 1785.13 1849.9 1783.49 1848.14 1782.67 1845.77 1782.67ZM1846.11 1779.92C1850.13 1779.92 1853.23 1781.09 1855.41 1783.42 1857.58 1785.76 1858.67 1789.13 1858.67 1793.55 1858.67 1796.46 1858.21 1799.73 1857.3 1803.33 1856.38 1806.93 1855.12 1810.12 1853.52 1812.88 1851.91 1815.64 1850.05 1817.86 1847.94 1819.55 1845.82 1821.24 1843.53 1822.4 1841.05 1823.05 1841.53 1824.57 1841.98 1825.82 1842.39 1826.81 1842.81 1827.8 1843.21 1828.61 1843.6 1829.22 1843.98 1829.83 1844.36 1830.29 1844.74 1830.59 1845.11 1830.9 1845.49 1831.1 1845.86 1831.2 1846.24 1831.31 1846.67 1831.36 1847.17 1831.36 1847.96 1831.36 1848.77 1831.13 1849.58 1830.67 1850.39 1830.21 1851.3 1829.42 1852.3 1828.3L1853.92 1830.05C1852.26 1831.86 1850.7 1833.14 1849.27 1833.89 1847.83 1834.64 1846.35 1835.02 1844.83 1835.02 1843.1 1835.02 1841.69 1834.63 1840.6 1833.86 1839.5 1833.09 1838.55 1831.86 1837.75 1830.17 1836.95 1828.49 1836.17 1826.28 1835.42 1823.55 1831.65 1823.34 1828.78 1822.09 1826.8 1819.8 1824.82 1817.51 1823.83 1814.28 1823.83 1810.11 1823.83 1806.99 1824.36 1803.45 1825.41 1799.52 1826.46 1795.58 1827.98 1792.11 1829.97 1789.09 1831.96 1786.08 1834.33 1783.8 1837.1 1782.25 1839.86 1780.7 1842.86 1779.92 1846.11 1779.92Z" fill="#576C87" fill-rule="evenodd"/><text fill="#000000" fill-opacity="0" font-family="Arial,Arial_MSFontService,sans-serif" font-size="55.0938" x="1823.83" y="1828.13">𝑄</text><path d="M2051.61 1775.15C2057.69 1776.75 2062.37 1780.22 2065.63 1785.54 2068.89 1790.86 2070.52 1797.29 2070.52 1804.81 2070.52 1812.35 2068.89 1818.77 2065.64 1824.07 2062.39 1829.37 2057.71 1832.83 2051.61 1834.43L2050.86 1832.03C2055.67 1830.42 2059.25 1827.25 2061.6 1822.53 2063.94 1817.8 2065.11 1811.79 2065.11 1804.49 2065.11 1797.45 2063.94 1791.6 2061.61 1786.95 2059.28 1782.29 2055.66 1779.16 2050.77 1777.56ZM1889.56 1775.15 1890.41 1777.56C1885.53 1779.16 1881.92 1782.29 1879.58 1786.95 1877.23 1791.6 1876.06 1797.45 1876.06 1804.49 1876.06 1811.79 1877.23 1817.8 1879.58 1822.53 1881.92 1827.25 1885.5 1830.42 1890.31 1832.03L1889.56 1834.43C1883.46 1832.83 1878.78 1829.37 1875.53 1824.07 1872.28 1818.77 1870.66 1812.35 1870.66 1804.81 1870.66 1797.29 1872.29 1790.86 1875.55 1785.54 1878.81 1780.22 1883.48 1776.75 1889.56 1775.15Z" fill="#576C87" fill-rule="evenodd"/><path d="M1909.1 1792.7C1911.04 1792.7 1912.8 1792.82 1914.4 1793.05 1915.99 1793.28 1917.58 1793.67 1919.16 1794.24L1917.75 1800.8 1915.22 1800.8C1914.99 1798.94 1914.38 1797.54 1913.4 1796.58 1912.41 1795.62 1910.85 1795.14 1908.72 1795.14 1907.08 1795.14 1905.74 1795.56 1904.72 1796.41 1903.7 1797.25 1903.19 1798.36 1903.19 1799.74 1903.19 1800.49 1903.32 1801.15 1903.58 1801.72 1903.84 1802.29 1904.37 1802.92 1905.16 1803.61 1905.95 1804.3 1907.18 1805.14 1908.85 1806.14 1910.16 1806.93 1911.21 1807.66 1912 1808.31 1912.8 1808.97 1913.42 1809.62 1913.88 1810.27 1914.34 1810.91 1914.67 1811.59 1914.88 1812.31 1915.09 1813.03 1915.19 1813.9 1915.19 1814.92 1915.19 1816.78 1914.7 1818.37 1913.71 1819.69 1912.72 1821.01 1911.37 1822 1909.68 1822.64 1907.98 1823.29 1906.05 1823.61 1903.88 1823.61 1902.15 1823.61 1900.45 1823.48 1898.79 1823.22 1897.12 1822.96 1895.26 1822.52 1893.22 1821.89L1894.72 1815.08 1897.16 1815.08C1897.24 1817.08 1897.81 1818.59 1898.85 1819.61 1899.89 1820.63 1901.55 1821.14 1903.82 1821.14 1905.8 1821.14 1907.34 1820.7 1908.46 1819.81 1909.57 1818.93 1910.13 1817.67 1910.13 1816.05 1910.13 1815.11 1909.97 1814.3 1909.66 1813.63 1909.35 1812.95 1908.84 1812.3 1908.13 1811.67 1907.42 1811.05 1906.3 1810.27 1904.75 1809.33 1903.13 1808.35 1901.86 1807.46 1900.96 1806.67 1900.05 1805.88 1899.37 1805.02 1898.91 1804.09 1898.45 1803.17 1898.22 1802.1 1898.22 1800.89 1898.22 1799.25 1898.67 1797.8 1899.55 1796.56 1900.44 1795.32 1901.7 1794.37 1903.35 1793.7 1904.99 1793.04 1906.91 1792.7 1909.1 1792.7Z" fill="#576C87" fill-rule="evenodd"/><text fill="#000000" fill-opacity="0" font-family="Arial,Arial_MSFontService,sans-serif" font-size="30.9062" x="1893.22" y="1819.75">𝑠</text><path d="M1926.95 1815.83 1932.41 1815.83C1932.71 1817.29 1932.85 1818.73 1932.85 1820.14 1932.85 1821.6 1932.6 1822.93 1932.1 1824.14 1931.6 1825.35 1930.81 1826.55 1929.71 1827.75 1928.62 1828.95 1927.11 1830.27 1925.2 1831.7L1923.51 1829.8C1924.57 1828.8 1925.34 1827.9 1925.82 1827.09 1926.3 1826.29 1926.64 1825.38 1926.85 1824.36 1927.06 1823.34 1927.16 1822.06 1927.16 1820.52 1927.16 1818.93 1927.09 1817.37 1926.95 1815.83Z" fill="#576C87" fill-rule="evenodd"/><text fill="#000000" fill-opacity="0" font-family="Arial,Arial_MSFontService,sans-serif" font-size="15.875" x="1923.51" y="1829.72">,</text><path d="M1966.67 1795.14C1964.52 1795.14 1962.6 1796.01 1960.89 1797.74 1959.18 1799.46 1957.85 1801.78 1956.89 1804.69 1955.93 1807.59 1955.45 1810.5 1955.45 1813.39 1955.45 1815.56 1955.75 1817.18 1956.34 1818.25 1956.93 1819.32 1957.93 1819.86 1959.33 1819.86 1960.7 1819.86 1962.05 1819.27 1963.37 1818.08 1964.69 1816.89 1966.06 1815.2 1967.47 1813 1968.87 1810.8 1969.87 1808.27 1970.45 1805.39L1970.73 1804.05C1970.92 1803.19 1971.04 1802.45 1971.11 1801.83 1971.17 1801.2 1971.2 1800.53 1971.2 1799.8 1971.2 1798.19 1970.86 1797.02 1970.17 1796.27 1969.48 1795.52 1968.31 1795.14 1966.67 1795.14ZM1966.04 1792.67C1967.4 1792.67 1968.66 1792.82 1969.84 1793.13 1971.02 1793.43 1972.23 1793.96 1973.48 1794.74L1976.36 1792.67 1978.36 1793.17 1973.76 1812.99C1973.3 1814.96 1973.08 1816.51 1973.08 1817.61 1973.08 1818.44 1973.21 1819.05 1973.48 1819.42 1973.75 1819.8 1974.18 1819.99 1974.76 1819.99 1975.39 1819.99 1976.05 1819.73 1976.76 1819.22 1977.47 1818.71 1978.47 1817.74 1979.76 1816.3L1981.54 1818.05C1979.67 1820.05 1978.07 1821.47 1976.75 1822.31 1975.42 1823.16 1973.99 1823.58 1972.45 1823.58 1971.16 1823.58 1970.13 1823.15 1969.36 1822.3 1968.59 1821.44 1968.2 1820.31 1968.2 1818.89 1968.2 1817.75 1968.44 1816.53 1968.92 1815.24L1968.51 1815.11C1966.51 1818.03 1964.62 1820.16 1962.83 1821.52 1961.03 1822.87 1959.14 1823.55 1957.14 1823.55 1954.85 1823.55 1953.07 1822.68 1951.81 1820.95 1950.55 1819.23 1949.92 1816.8 1949.92 1813.67 1949.92 1810.09 1950.62 1806.65 1952.03 1803.34 1953.43 1800.04 1955.37 1797.44 1957.83 1795.53 1960.28 1793.63 1963.02 1792.67 1966.04 1792.67Z" fill="#576C87" fill-rule="evenodd"/><text fill="#000000" fill-opacity="0" font-family="Arial,Arial_MSFontService,sans-serif" font-size="30.9062" x="1949.92" y="1819.72">𝑎</text><path d="M1989.44 1815.83 1994.9 1815.83C1995.2 1817.29 1995.34 1818.73 1995.34 1820.14 1995.34 1821.6 1995.09 1822.93 1994.59 1824.14 1994.09 1825.35 1993.3 1826.55 1992.2 1827.75 1991.11 1828.95 1989.6 1830.27 1987.69 1831.7L1986 1829.8C1987.06 1828.8 1987.83 1827.9 1988.31 1827.09 1988.79 1826.29 1989.13 1825.38 1989.34 1824.36 1989.55 1823.34 1989.65 1822.06 1989.65 1820.52 1989.65 1818.93 1989.58 1817.37 1989.44 1815.83ZM1989.03 1794.86 1995.28 1794.86 1995.28 1802.17 1989.03 1802.17Z" fill="#576C87" fill-rule="evenodd"/><text fill="#000000" fill-opacity="0" font-family="Arial,Arial_MSFontService,sans-serif" font-size="36.8438" x="1986" y="1827.1">;</text><path d="M2021.76 1802.86C2020.78 1807.38 2020.29 1811.18 2020.29 1814.27 2020.29 1816.6 2020.65 1818.31 2021.36 1819.41 2022.06 1820.5 2023.21 1821.05 2024.79 1821.05 2027.13 1821.05 2029.34 1819.48 2031.43 1816.34 2033.53 1813.21 2035.3 1808.71 2036.76 1802.86ZM2034.58 1781.8C2032.14 1781.8 2029.88 1783.34 2027.81 1786.42 2025.74 1789.51 2023.97 1793.92 2022.51 1799.67L2037.48 1799.67C2038.46 1795.28 2038.95 1791.5 2038.95 1788.33 2038.95 1786.14 2038.6 1784.51 2037.89 1783.42 2037.18 1782.34 2036.08 1781.8 2034.58 1781.8ZM2034.95 1779.27C2040.99 1779.27 2044.01 1783.1 2044.01 1790.77 2044.01 1792.93 2043.77 1795.52 2043.28 1798.53 2042.79 1801.54 2042.01 1804.61 2040.95 1807.74 2039.89 1810.86 2038.54 1813.63 2036.92 1816.03 2035.29 1818.44 2033.42 1820.3 2031.29 1821.61 2029.17 1822.92 2026.88 1823.58 2024.42 1823.58 2021.31 1823.58 2019 1822.63 2017.48 1820.74 2015.96 1818.84 2015.2 1816 2015.2 1812.2 2015.2 1810.14 2015.43 1807.6 2015.89 1804.58 2016.35 1801.56 2017.1 1798.47 2018.15 1795.31 2019.21 1792.16 2020.56 1789.36 2022.22 1786.91 2023.87 1784.46 2025.78 1782.57 2027.93 1781.25 2030.09 1779.93 2032.43 1779.27 2034.95 1779.27Z" fill="#576C87" fill-rule="evenodd"/><text fill="#000000" fill-opacity="0" font-family="Arial,Arial_MSFontService,sans-serif" font-size="44.3125" x="2015.2" y="1818.04">𝜃</text><path d="M3069.52 1889.81C3070.84 1889.81 3071.87 1890.25 3072.63 1891.11 3073.39 1891.98 3073.77 1893.11 3073.77 1894.5 3073.77 1895.54 3073.58 1896.62 3073.18 1897.72L3073.59 1897.88C3075.63 1895.11 3077.59 1893.07 3079.48 1891.78 3081.36 1890.49 3083.27 1889.84 3085.21 1889.84 3086.73 1889.84 3088 1889.96 3089.02 1890.19L3087.52 1897.19 3084.3 1897.19C3084.18 1896.31 3084 1895.64 3083.77 1895.16 3083.54 1894.68 3083.27 1894.34 3082.96 1894.16 3082.65 1893.97 3082.25 1893.88 3081.77 1893.88 3081.02 1893.88 3080.21 1894.2 3079.32 1894.84 3078.43 1895.49 3077.44 1896.5 3076.34 1897.88 3075.23 1899.25 3074.35 1900.57 3073.7 1901.84 3073.04 1903.12 3072.49 1904.73 3072.05 1906.69L3069.09 1920.22 3063.68 1920.22 3068.21 1900.41C3068.5 1899.16 3068.69 1898.19 3068.77 1897.5 3068.86 1896.81 3068.9 1896.24 3068.9 1895.78 3068.9 1894.95 3068.76 1894.34 3068.49 1893.97 3068.22 1893.59 3067.79 1893.41 3067.21 1893.41 3066.56 1893.41 3065.88 1893.67 3065.16 1894.2 3064.45 1894.74 3063.46 1895.7 3062.21 1897.09L3060.43 1895.34C3062.35 1893.34 3063.95 1891.92 3065.24 1891.08 3066.53 1890.24 3067.96 1889.81 3069.52 1889.81Z" fill="#576C87" fill-rule="evenodd"/><text fill="#000000" fill-opacity="0" font-family="Arial,Arial_MSFontService,sans-serif" font-size="30.4062" x="3060.43" y="1916.42">𝑟</text><path d="M2942.11 1518.16C2939.97 1518.16 2938.04 1519.03 2936.33 1520.76 2934.62 1522.49 2933.29 1524.8 2932.33 1527.71 2931.37 1530.62 2930.9 1533.52 2930.9 1536.41 2930.9 1538.58 2931.19 1540.2 2931.79 1541.27 2932.38 1542.34 2933.37 1542.88 2934.77 1542.88 2936.15 1542.88 2937.49 1542.29 2938.82 1541.1 2940.14 1539.91 2941.5 1538.22 2942.91 1536.02 2944.32 1533.82 2945.31 1531.29 2945.9 1528.41L2946.18 1527.07C2946.36 1526.21 2946.49 1525.47 2946.55 1524.85 2946.61 1524.22 2946.65 1523.55 2946.65 1522.82 2946.65 1521.21 2946.3 1520.04 2945.61 1519.29 2944.93 1518.54 2943.76 1518.16 2942.11 1518.16ZM2941.49 1515.69C2942.84 1515.69 2944.11 1515.84 2945.29 1516.15 2946.46 1516.45 2947.68 1516.99 2948.93 1517.76L2951.8 1515.69 2953.8 1516.19 2949.21 1536.01C2948.75 1537.99 2948.52 1539.53 2948.52 1540.63 2948.52 1541.46 2948.66 1542.07 2948.93 1542.44 2949.2 1542.82 2949.62 1543.01 2950.21 1543.01 2950.83 1543.01 2951.5 1542.75 2952.21 1542.24 2952.92 1541.73 2953.92 1540.76 2955.21 1539.32L2956.99 1541.07C2955.11 1543.07 2953.52 1544.49 2952.19 1545.33 2950.87 1546.18 2949.44 1546.6 2947.9 1546.6 2946.6 1546.6 2945.57 1546.17 2944.8 1545.32 2944.03 1544.46 2943.65 1543.33 2943.65 1541.91 2943.65 1540.77 2943.89 1539.55 2944.36 1538.26L2943.96 1538.13C2941.96 1541.05 2940.06 1543.18 2938.27 1544.54 2936.48 1545.89 2934.58 1546.57 2932.58 1546.57 2930.29 1546.57 2928.52 1545.7 2927.25 1543.97 2925.99 1542.25 2925.36 1539.82 2925.36 1536.69 2925.36 1533.11 2926.07 1529.67 2927.47 1526.37 2928.88 1523.06 2930.81 1520.46 2933.27 1518.55 2935.73 1516.65 2938.47 1515.69 2941.49 1515.69ZM2877.93 1515.69C2879.24 1515.69 2880.28 1516.13 2881.04 1516.99 2881.8 1517.85 2882.18 1518.99 2882.18 1520.38 2882.18 1521.53 2881.94 1522.75 2881.46 1524.04L2881.83 1524.16C2883.75 1521.31 2885.66 1519.19 2887.55 1517.8 2889.45 1516.42 2891.36 1515.72 2893.3 1515.72 2895.3 1515.72 2896.82 1516.29 2897.86 1517.43 2898.91 1518.56 2899.43 1520.2 2899.43 1522.35L2899.43 1522.79C2899.43 1522.93 2899.42 1523.09 2899.4 1523.26 2901.19 1520.71 2902.97 1518.82 2904.75 1517.58 2906.54 1516.34 2908.39 1515.72 2910.3 1515.72 2912.22 1515.72 2913.7 1516.28 2914.74 1517.38 2915.78 1518.49 2916.3 1520.04 2916.3 1522.04 2916.3 1523.35 2916 1525.21 2915.4 1527.63L2913.36 1535.82C2912.8 1538.09 2912.52 1539.69 2912.52 1540.63 2912.52 1541.46 2912.66 1542.07 2912.93 1542.44 2913.2 1542.82 2913.62 1543.01 2914.21 1543.01 2914.83 1543.01 2915.5 1542.75 2916.21 1542.24 2916.92 1541.73 2917.92 1540.76 2919.21 1539.32L2920.99 1541.07C2919.2 1542.96 2917.64 1544.36 2916.3 1545.26 2914.97 1546.15 2913.45 1546.6 2911.74 1546.6 2910.39 1546.6 2909.3 1546.12 2908.49 1545.15 2907.68 1544.18 2907.27 1542.94 2907.27 1541.44 2907.27 1540.09 2907.61 1538.1 2908.3 1535.47L2909.68 1530.07C2910.18 1528.11 2910.5 1526.66 2910.66 1525.72 2910.82 1524.79 2910.9 1524.03 2910.9 1523.44 2910.9 1522.01 2910.66 1520.97 2910.18 1520.33 2909.7 1519.7 2908.92 1519.38 2907.83 1519.38 2906.96 1519.38 2906.02 1519.71 2905.02 1520.37 2904.02 1521.02 2902.97 1522.04 2901.86 1523.43 2900.76 1524.81 2899.86 1526.18 2899.16 1527.52 2898.46 1528.87 2897.91 1530.51 2897.49 1532.44L2894.65 1546.1 2889.24 1546.1 2892.83 1530.22C2893.27 1528.29 2893.57 1526.85 2893.72 1525.93 2893.88 1525 2893.96 1524.2 2893.96 1523.54 2893.96 1522.04 2893.69 1520.97 2893.16 1520.33 2892.63 1519.7 2891.8 1519.38 2890.68 1519.38 2889.89 1519.38 2888.98 1519.71 2887.97 1520.37 2886.96 1521.02 2885.89 1522.07 2884.74 1523.52 2883.59 1524.97 2882.7 1526.36 2882.05 1527.69 2881.41 1529.03 2880.86 1530.65 2880.43 1532.57L2877.46 1546.1 2872.05 1546.1 2876.61 1526.29C2877.07 1524.29 2877.3 1522.75 2877.3 1521.66 2877.3 1520.83 2877.17 1520.22 2876.9 1519.85 2876.62 1519.47 2876.2 1519.29 2875.61 1519.29 2874.97 1519.29 2874.29 1519.55 2873.57 1520.08 2872.85 1520.62 2871.86 1521.58 2870.61 1522.97L2868.83 1521.22C2870.67 1519.31 2872.24 1517.91 2873.57 1517.02 2874.89 1516.14 2876.34 1515.69 2877.93 1515.69Z" fill="#576C87" fill-rule="evenodd"/><text fill="#000000" fill-opacity="0" font-family="Arial,Arial_MSFontService,sans-serif" font-size="30.9062" x="2868.83" y="1542.74">𝑚𝑎</text><path d="M2971.36 1515.69C2972.01 1515.69 2972.57 1515.77 2973.06 1515.91 2973.55 1516.06 2973.99 1516.28 2974.36 1516.58 2974.74 1516.89 2975.07 1517.28 2975.36 1517.76 2975.65 1518.24 2975.93 1518.89 2976.2 1519.71 2976.47 1520.53 2976.73 1521.55 2976.97 1522.77 2977.21 1523.99 2977.42 1525.26 2977.61 1526.57L2977.92 1526.57C2979.92 1523.76 2981.44 1521.7 2982.47 1520.4 2983.5 1519.09 2984.37 1518.13 2985.08 1517.49 2985.79 1516.85 2986.47 1516.41 2987.13 1516.15 2987.78 1515.89 2988.65 1515.76 2989.74 1515.76 2990.71 1515.76 2991.52 1515.88 2992.14 1516.13L2990.89 1521.79 2988.7 1521.79C2988.58 1520.91 2988.21 1520.47 2987.61 1520.47 2987.42 1520.47 2987.22 1520.51 2987.02 1520.57 2986.81 1520.63 2986.55 1520.77 2986.25 1520.97 2985.95 1521.18 2985.51 1521.59 2984.92 1522.19 2984.34 1522.8 2983.68 1523.54 2982.95 1524.41 2982.22 1525.29 2981.47 1526.2 2980.7 1527.16L2978.58 1529.82C2978.95 1531.82 2979.31 1533.55 2979.64 1535.01 2979.97 1536.46 2980.27 1537.68 2980.53 1538.65 2980.79 1539.62 2981.02 1540.38 2981.22 1540.94 2981.42 1541.51 2981.63 1541.93 2981.86 1542.21 2982.09 1542.49 2982.32 1542.69 2982.56 1542.8 2982.8 1542.92 2983.08 1542.97 2983.39 1542.97 2983.95 1542.97 2984.5 1542.76 2985.03 1542.32 2985.56 1541.88 2986.33 1540.89 2987.33 1539.35L2989.36 1540.69C2987.9 1542.86 2986.58 1544.39 2985.41 1545.27 2984.23 1546.16 2982.83 1546.6 2981.2 1546.6 2980.31 1546.6 2979.55 1546.44 2978.92 1546.12 2978.3 1545.79 2977.76 1545.28 2977.3 1544.57 2976.84 1543.86 2976.43 1542.76 2976.08 1541.26 2975.43 1538.59 2975.04 1536.55 2974.89 1535.13L2974.58 1535.13C2972.37 1538.24 2970.73 1540.46 2969.66 1541.82 2968.58 1543.17 2967.7 1544.17 2967 1544.82 2966.3 1545.46 2965.63 1545.92 2964.97 1546.18 2964.31 1546.44 2963.44 1546.57 2962.36 1546.57 2961.38 1546.57 2960.58 1546.44 2959.95 1546.19L2961.2 1540.54 2963.39 1540.54C2963.52 1541.41 2963.88 1541.85 2964.49 1541.85 2964.78 1541.85 2965.08 1541.77 2965.41 1541.62 2965.73 1541.46 2966.19 1541.08 2966.8 1540.49 2967.4 1539.9 2968.24 1538.96 2969.3 1537.69 2970.36 1536.42 2971.9 1534.52 2973.92 1531.97 2973.61 1530.33 2973.29 1528.75 2972.95 1527.22 2972.62 1525.7 2972.28 1524.29 2971.92 1522.97 2971.57 1521.66 2971.28 1520.8 2971.05 1520.4 2970.82 1519.99 2970.57 1519.71 2970.31 1519.55 2970.05 1519.4 2969.72 1519.32 2969.33 1519.32 2968.89 1519.32 2968.5 1519.42 2968.14 1519.62 2967.79 1519.81 2967.4 1520.16 2966.99 1520.65 2966.57 1521.14 2966.02 1521.9 2965.33 1522.94L2963.3 1521.6C2964.61 1519.62 2965.87 1518.14 2967.08 1517.16 2968.29 1516.18 2969.71 1515.69 2971.36 1515.69Z" fill="#576C87" fill-rule="evenodd"/><text fill="#000000" fill-opacity="0" font-family="Arial,Arial_MSFontService,sans-serif" font-size="30.9062" x="2959.95" y="1542.74">𝑥</text><path d="M3008.95 1538.03C3008.05 1538.03 3007.21 1538.22 3006.43 1538.62 3005.65 1539.02 3004.94 1539.56 3004.29 1540.25 3003.65 1540.94 3003.08 1541.74 3002.58 1542.64 3002.09 1543.54 3001.67 1544.5 3001.32 1545.51 3000.98 1546.52 3000.72 1547.55 3000.54 1548.62 3000.36 1549.68 3000.28 1550.7 3000.28 1551.68 3000.28 1553.33 3000.51 1554.56 3000.98 1555.36 3001.44 1556.17 3002.2 1556.57 3003.24 1556.57 3003.76 1556.57 3004.26 1556.48 3004.74 1556.29 3005.22 1556.11 3005.73 1555.82 3006.27 1555.42 3007.61 1554.37 3008.76 1553.08 3009.71 1551.57 3010.66 1550.05 3011.37 1548.26 3011.84 1546.2 3012.06 1545.25 3012.23 1544.39 3012.35 1543.63 3012.47 1542.86 3012.53 1542.13 3012.53 1541.45 3012.53 1540.22 3012.25 1539.35 3011.67 1538.82 3011.1 1538.29 3010.19 1538.03 3008.95 1538.03ZM3008.54 1535.75C3009.75 1535.75 3010.81 1535.9 3011.74 1536.18 3012.67 1536.46 3013.51 1536.85 3014.28 1537.34L3016.5 1535.75 3018.36 1536.24 3014.9 1551.27C3014.7 1552.12 3014.56 1552.83 3014.48 1553.39 3014.41 1553.95 3014.37 1554.44 3014.37 1554.87 3014.37 1555.45 3014.49 1555.87 3014.72 1556.13 3014.96 1556.39 3015.3 1556.52 3015.74 1556.52 3016.02 1556.52 3016.29 1556.47 3016.56 1556.36 3016.83 1556.26 3017.12 1556.09 3017.43 1555.86 3017.75 1555.63 3018.09 1555.33 3018.46 1554.97 3018.84 1554.61 3019.26 1554.18 3019.74 1553.68 3019.98 1553.94 3020.24 1554.19 3020.5 1554.45 3020.76 1554.7 3021.01 1554.95 3021.25 1555.19 3020.49 1555.97 3019.79 1556.64 3019.16 1557.2 3018.54 1557.76 3017.93 1558.22 3017.34 1558.58 3016.75 1558.94 3016.17 1559.2 3015.61 1559.36 3015.04 1559.52 3014.45 1559.6 3013.84 1559.6 3012.74 1559.6 3011.88 1559.24 3011.27 1558.53 3010.66 1557.82 3010.35 1556.84 3010.35 1555.61 3010.35 1554.92 3010.46 1554.26 3010.67 1553.63L3010.35 1553.49C3009.57 1554.58 3008.81 1555.51 3008.08 1556.27 3007.35 1557.04 3006.62 1557.67 3005.9 1558.16 3005.18 1558.66 3004.45 1559.02 3003.72 1559.25 3002.99 1559.48 3002.22 1559.6 3001.42 1559.6 2999.6 1559.6 2998.2 1558.94 2997.2 1557.64 2996.21 1556.33 2995.71 1554.43 2995.71 1551.93 2995.71 1550.45 2995.87 1549.02 2996.18 1547.65 2996.49 1546.28 2996.94 1545 2997.51 1543.8 2998.09 1542.6 2998.77 1541.5 2999.57 1540.52 3000.36 1539.53 3001.23 1538.68 3002.18 1537.98 3003.13 1537.28 3004.14 1536.73 3005.21 1536.34 3006.28 1535.95 3007.39 1535.75 3008.54 1535.75ZM3029.6 1534.86 3035.52 1534.86 3035.52 1536.65 3027.88 1555.03 3025.19 1554.23Z" fill="#576C87" fill-rule="evenodd"/><text fill="#000000" fill-opacity="0" font-family="Arial,Arial_MSFontService,sans-serif" font-size="24.7393" x="2995.71" y="1556.51">𝑎′</text><path d="M3067.42 1505.69C3065.17 1505.69 3063.07 1506.5 3061.12 1508.1 3059.18 1509.7 3057.47 1512 3056 1514.97 3054.53 1517.95 3053.39 1521.22 3052.58 1524.79 3051.76 1528.35 3051.36 1531.5 3051.36 1534.22 3051.36 1540.66 3053.7 1543.88 3058.39 1543.88 3061.29 1543.88 3063.94 1542.53 3066.36 1539.83 3068.77 1537.14 3070.72 1533.4 3072.2 1528.63 3073.68 1523.86 3074.42 1519.4 3074.42 1515.26 3074.42 1512.15 3073.85 1509.78 3072.7 1508.15 3071.56 1506.51 3069.8 1505.69 3067.42 1505.69ZM3067.76 1502.94C3071.79 1502.94 3074.88 1504.11 3077.06 1506.44 3079.24 1508.78 3080.33 1512.15 3080.33 1516.57 3080.33 1519.49 3079.87 1522.75 3078.95 1526.35 3078.04 1529.95 3076.77 1533.14 3075.17 1535.9 3073.57 1538.66 3071.71 1540.88 3069.59 1542.57 3067.48 1544.26 3065.18 1545.42 3062.7 1546.07 3063.18 1547.59 3063.63 1548.84 3064.05 1549.83 3064.46 1550.82 3064.86 1551.63 3065.25 1552.24 3065.63 1552.85 3066.01 1553.31 3066.39 1553.62 3066.76 1553.92 3067.14 1554.12 3067.51 1554.22 3067.89 1554.33 3068.33 1554.38 3068.83 1554.38 3069.62 1554.38 3070.42 1554.15 3071.23 1553.69 3072.05 1553.24 3072.95 1552.44 3073.95 1551.32L3075.58 1553.07C3073.91 1554.88 3072.36 1556.16 3070.92 1556.91 3069.48 1557.66 3068 1558.04 3066.48 1558.04 3064.75 1558.04 3063.34 1557.65 3062.25 1556.88 3061.16 1556.11 3060.21 1554.88 3059.41 1553.19 3058.6 1551.51 3057.83 1549.3 3057.08 1546.57 3053.31 1546.36 3050.43 1545.11 3048.45 1542.82 3046.47 1540.53 3045.48 1537.3 3045.48 1533.13 3045.48 1530.01 3046.01 1526.47 3047.06 1522.54 3048.11 1518.6 3049.63 1515.13 3051.62 1512.12 3053.61 1509.1 3055.99 1506.82 3058.75 1505.27 3061.51 1503.72 3064.51 1502.94 3067.76 1502.94Z" fill="#576C87" fill-rule="evenodd"/><text fill="#000000" fill-opacity="0" font-family="Arial,Arial_MSFontService,sans-serif" font-size="55.0938" x="3045.48" y="1551.15">𝑄</text><path d="M3273.26 1498.17C3279.35 1499.77 3284.02 1503.24 3287.28 1508.56 3290.54 1513.88 3292.17 1520.31 3292.17 1527.83 3292.17 1535.37 3290.55 1541.79 3287.3 1547.09 3284.05 1552.39 3279.37 1555.85 3273.26 1557.45L3272.51 1555.05C3277.33 1553.44 3280.9 1550.27 3283.25 1545.55 3285.59 1540.82 3286.76 1534.81 3286.76 1527.51 3286.76 1520.47 3285.6 1514.62 3283.26 1509.97 3280.93 1505.31 3277.32 1502.18 3272.42 1500.58ZM3111.22 1498.17 3112.06 1500.58C3107.19 1502.18 3103.58 1505.31 3101.23 1509.97 3098.89 1514.62 3097.72 1520.47 3097.72 1527.51 3097.72 1534.81 3098.89 1540.82 3101.23 1545.55 3103.58 1550.27 3107.15 1553.44 3111.97 1555.05L3111.22 1557.45C3105.11 1555.85 3100.44 1552.39 3097.19 1547.09 3093.94 1541.79 3092.31 1535.37 3092.31 1527.83 3092.31 1520.31 3093.94 1513.88 3097.2 1508.56 3100.46 1503.24 3105.13 1499.77 3111.22 1498.17Z" fill="#576C87" fill-rule="evenodd"/><path d="M3130.75 1515.72C3132.69 1515.72 3134.46 1515.84 3136.05 1516.07 3137.64 1516.3 3139.23 1516.69 3140.81 1517.26L3139.41 1523.82 3136.88 1523.82C3136.65 1521.96 3136.04 1520.56 3135.05 1519.6 3134.06 1518.64 3132.5 1518.16 3130.38 1518.16 3128.73 1518.16 3127.4 1518.58 3126.38 1519.43 3125.36 1520.27 3124.85 1521.38 3124.85 1522.76 3124.85 1523.51 3124.98 1524.17 3125.24 1524.74 3125.5 1525.31 3126.02 1525.94 3126.81 1526.63 3127.61 1527.32 3128.84 1528.16 3130.5 1529.16 3131.81 1529.95 3132.87 1530.68 3133.66 1531.33 3134.45 1531.99 3135.07 1532.64 3135.53 1533.29 3135.99 1533.93 3136.32 1534.62 3136.53 1535.33 3136.74 1536.05 3136.85 1536.92 3136.85 1537.94 3136.85 1539.8 3136.35 1541.39 3135.36 1542.71 3134.37 1544.03 3133.03 1545.02 3131.33 1545.66 3129.63 1546.31 3127.7 1546.63 3125.53 1546.63 3123.8 1546.63 3122.11 1546.5 3120.44 1546.24 3118.77 1545.98 3116.92 1545.54 3114.88 1544.91L3116.38 1538.1 3118.81 1538.1C3118.9 1540.1 3119.46 1541.61 3120.5 1542.63 3121.54 1543.65 3123.2 1544.16 3125.47 1544.16 3127.45 1544.16 3129 1543.72 3130.11 1542.83 3131.23 1541.95 3131.78 1540.69 3131.78 1539.07 3131.78 1538.13 3131.63 1537.32 3131.31 1536.65 3131 1535.97 3130.49 1535.32 3129.78 1534.69 3129.07 1534.07 3127.95 1533.29 3126.41 1532.35 3124.78 1531.37 3123.52 1530.49 3122.61 1529.69 3121.71 1528.9 3121.02 1528.04 3120.56 1527.12 3120.11 1526.19 3119.88 1525.12 3119.88 1523.91 3119.88 1522.27 3120.32 1520.82 3121.21 1519.58 3122.09 1518.34 3123.36 1517.39 3125 1516.72 3126.65 1516.06 3128.56 1515.72 3130.75 1515.72Z" fill="#576C87" fill-rule="evenodd"/><text fill="#000000" fill-opacity="0" font-family="Arial,Arial_MSFontService,sans-serif" font-size="30.9062" x="3114.88" y="1542.77">𝑠</text><path d="M3148.6 1538.85 3154.07 1538.85C3154.36 1540.31 3154.51 1541.75 3154.51 1543.16 3154.51 1544.62 3154.26 1545.95 3153.76 1547.16 3153.26 1548.37 3152.46 1549.57 3151.37 1550.77 3150.27 1551.97 3148.77 1553.29 3146.85 1554.72L3145.16 1552.82C3146.22 1551.82 3147 1550.92 3147.47 1550.12 3147.95 1549.31 3148.3 1548.4 3148.51 1547.38 3148.71 1546.36 3148.82 1545.08 3148.82 1543.54 3148.82 1541.95 3148.75 1540.39 3148.6 1538.85Z" fill="#576C87" fill-rule="evenodd"/><text fill="#000000" fill-opacity="0" font-family="Arial,Arial_MSFontService,sans-serif" font-size="15.875" x="3145.16" y="1552.74">,</text><path d="M3188.32 1518.16C3186.18 1518.16 3184.25 1519.03 3182.54 1520.76 3180.83 1522.49 3179.5 1524.8 3178.54 1527.71 3177.58 1530.62 3177.1 1533.52 3177.1 1536.41 3177.1 1538.58 3177.4 1540.2 3177.99 1541.27 3178.59 1542.34 3179.58 1542.88 3180.98 1542.88 3182.35 1542.88 3183.7 1542.29 3185.03 1541.1 3186.35 1539.91 3187.71 1538.22 3189.12 1536.02 3190.53 1533.82 3191.52 1531.29 3192.1 1528.41L3192.39 1527.07C3192.57 1526.21 3192.7 1525.47 3192.76 1524.85 3192.82 1524.22 3192.85 1523.55 3192.85 1522.82 3192.85 1521.21 3192.51 1520.04 3191.82 1519.29 3191.14 1518.54 3189.97 1518.16 3188.32 1518.16ZM3187.7 1515.69C3189.05 1515.69 3190.32 1515.84 3191.49 1516.15 3192.67 1516.45 3193.89 1516.99 3195.14 1517.76L3198.01 1515.69 3200.01 1516.19 3195.42 1536.01C3194.96 1537.99 3194.73 1539.53 3194.73 1540.63 3194.73 1541.46 3194.86 1542.07 3195.14 1542.44 3195.41 1542.82 3195.83 1543.01 3196.42 1543.01 3197.04 1543.01 3197.71 1542.75 3198.42 1542.24 3199.12 1541.73 3200.12 1540.76 3201.42 1539.32L3203.2 1541.07C3201.32 1543.07 3199.72 1544.49 3198.4 1545.33 3197.08 1546.18 3195.65 1546.6 3194.1 1546.6 3192.81 1546.6 3191.78 1546.17 3191.01 1545.32 3190.24 1544.46 3189.85 1543.33 3189.85 1541.91 3189.85 1540.77 3190.09 1539.55 3190.57 1538.26L3190.17 1538.13C3188.17 1541.05 3186.27 1543.18 3184.48 1544.54 3182.69 1545.89 3180.79 1546.57 3178.79 1546.57 3176.5 1546.57 3174.72 1545.7 3173.46 1543.97 3172.2 1542.25 3171.57 1539.82 3171.57 1536.69 3171.57 1533.11 3172.28 1529.67 3173.68 1526.37 3175.09 1523.06 3177.02 1520.46 3179.48 1518.55 3181.94 1516.65 3184.68 1515.69 3187.7 1515.69Z" fill="#576C87" fill-rule="evenodd"/><text fill="#000000" fill-opacity="0" font-family="Arial,Arial_MSFontService,sans-serif" font-size="30.9062" x="3171.57" y="1542.74">𝑎</text><path d="M3211.09 1538.85 3216.56 1538.85C3216.85 1540.31 3217 1541.75 3217 1543.16 3217 1544.62 3216.75 1545.95 3216.25 1547.16 3215.75 1548.37 3214.95 1549.57 3213.85 1550.77 3212.76 1551.97 3211.26 1553.29 3209.34 1554.72L3207.65 1552.82C3208.71 1551.82 3209.49 1550.92 3209.96 1550.12 3210.44 1549.31 3210.79 1548.4 3211 1547.38 3211.2 1546.36 3211.31 1545.08 3211.31 1543.54 3211.31 1541.95 3211.24 1540.39 3211.09 1538.85ZM3210.68 1517.88 3216.93 1517.88 3216.93 1525.19 3210.68 1525.19Z" fill="#576C87" fill-rule="evenodd"/><text fill="#000000" fill-opacity="0" font-family="Arial,Arial_MSFontService,sans-serif" font-size="36.8438" x="3207.65" y="1550.12">;</text><path d="M3243.42 1525.88C3242.44 1530.4 3241.95 1534.2 3241.95 1537.29 3241.95 1539.62 3242.3 1541.33 3243.01 1542.43 3243.72 1543.52 3244.86 1544.07 3246.45 1544.07 3248.78 1544.07 3250.99 1542.5 3253.09 1539.37 3255.18 1536.23 3256.96 1531.74 3258.42 1525.88ZM3256.23 1504.82C3253.79 1504.82 3251.54 1506.36 3249.46 1509.44 3247.39 1512.53 3245.62 1516.94 3244.17 1522.69L3259.14 1522.69C3260.11 1518.3 3260.6 1514.52 3260.6 1511.35 3260.6 1509.16 3260.25 1507.53 3259.54 1506.44 3258.83 1505.36 3257.73 1504.82 3256.23 1504.82ZM3256.6 1502.29C3262.65 1502.29 3265.67 1506.12 3265.67 1513.79 3265.67 1515.95 3265.42 1518.54 3264.93 1521.55 3264.44 1524.56 3263.67 1527.63 3262.6 1530.76 3261.54 1533.88 3260.2 1536.65 3258.57 1539.05 3256.95 1541.46 3255.07 1543.32 3252.95 1544.63 3250.82 1545.94 3248.53 1546.6 3246.07 1546.6 3242.97 1546.6 3240.66 1545.65 3239.14 1543.76 3237.61 1541.86 3236.85 1539.02 3236.85 1535.22 3236.85 1533.16 3237.08 1530.62 3237.54 1527.6 3238 1524.58 3238.76 1521.49 3239.81 1518.33 3240.86 1515.18 3242.21 1512.38 3243.87 1509.93 3245.53 1507.48 3247.43 1505.59 3249.59 1504.27 3251.74 1502.95 3254.08 1502.29 3256.6 1502.29Z" fill="#576C87" fill-rule="evenodd"/><text fill="#000000" fill-opacity="0" font-family="Arial,Arial_MSFontService,sans-serif" font-size="44.3125" x="3236.85" y="1541.06">𝜃</text><text fill="#576C87" font-family="SimSun,SimSun_MSFontService,sans-serif" font-weight="400" font-size="64" transform="matrix(1 0 0 1 2406.75 1669)">每<tspan font-size="64" x="64.1665" y="0">隔</tspan><tspan font-size="64" x="128.333" y="0">n</tspan><tspan font-size="64" x="160.417" y="0">步</tspan><tspan font-size="64" x="-16.0417" y="100">拷贝数据</tspan><tspan font-size="64" x="-712.302" y="-122">误差函数的梯度</tspan></text><path d="M2306.81 1502.55C2304.56 1502.55 2302.46 1503.35 2300.51 1504.95 2298.56 1506.56 2296.85 1508.85 2295.38 1511.83 2293.91 1514.81 2292.77 1518.08 2291.96 1521.64 2291.15 1525.2 2290.74 1528.35 2290.74 1531.08 2290.74 1537.52 2293.09 1540.74 2297.77 1540.74 2300.67 1540.74 2303.33 1539.39 2305.74 1536.69 2308.16 1533.99 2310.11 1530.26 2311.59 1525.49 2313.07 1520.71 2313.81 1516.26 2313.81 1512.11 2313.81 1509.01 2313.23 1506.64 2312.09 1505 2310.94 1503.37 2309.18 1502.55 2306.81 1502.55ZM2307.15 1499.8C2311.17 1499.8 2314.27 1500.96 2316.45 1503.3 2318.62 1505.63 2319.71 1509.01 2319.71 1513.42 2319.71 1516.34 2319.25 1519.6 2318.34 1523.2 2317.42 1526.81 2316.16 1529.99 2314.56 1532.75 2312.95 1535.51 2311.09 1537.74 2308.98 1539.42 2306.86 1541.11 2304.57 1542.28 2302.09 1542.92 2302.57 1544.44 2303.01 1545.7 2303.43 1546.69 2303.85 1547.68 2304.25 1548.48 2304.63 1549.09 2305.02 1549.71 2305.4 1550.17 2305.77 1550.47 2306.15 1550.77 2306.52 1550.97 2306.9 1551.08 2307.27 1551.18 2307.71 1551.24 2308.21 1551.24 2309 1551.24 2309.81 1551.01 2310.62 1550.55 2311.43 1550.09 2312.34 1549.3 2313.34 1548.17L2314.96 1549.92C2313.29 1551.74 2311.74 1553.02 2310.31 1553.77 2308.87 1554.52 2307.39 1554.89 2305.87 1554.89 2304.14 1554.89 2302.73 1554.51 2301.63 1553.74 2300.54 1552.96 2299.59 1551.74 2298.79 1550.05 2297.99 1548.36 2297.21 1546.15 2296.46 1543.42 2292.69 1543.21 2289.82 1541.96 2287.84 1539.67 2285.86 1537.38 2284.87 1534.15 2284.87 1529.99 2284.87 1526.86 2285.39 1523.33 2286.45 1519.39 2287.5 1515.45 2289.02 1511.98 2291.01 1508.97 2293 1505.96 2295.37 1503.68 2298.13 1502.13 2300.89 1500.57 2303.9 1499.8 2307.15 1499.8Z" fill="#576C87" fill-rule="evenodd"/><text fill="#000000" fill-opacity="0" font-family="Arial,Arial_MSFontService,sans-serif" font-size="55.0938" x="2284.87" y="1548">𝑄</text><path d="M2512.65 1495.02C2518.73 1496.63 2523.4 1500.09 2526.66 1505.42 2529.93 1510.74 2531.56 1517.16 2531.56 1524.68 2531.56 1532.22 2529.93 1538.64 2526.68 1543.95 2523.43 1549.25 2518.75 1552.7 2512.65 1554.31L2511.9 1551.9C2516.71 1550.3 2520.29 1547.13 2522.63 1542.4 2524.98 1537.67 2526.15 1531.66 2526.15 1524.37 2526.15 1517.33 2524.98 1511.48 2522.65 1506.82 2520.32 1502.17 2516.7 1499.04 2511.81 1497.43ZM2350.6 1495.02 2351.45 1497.43C2346.57 1499.04 2342.96 1502.17 2340.62 1506.82 2338.27 1511.48 2337.1 1517.33 2337.1 1524.37 2337.1 1531.66 2338.27 1537.67 2340.62 1542.4 2342.96 1547.13 2346.54 1550.3 2351.35 1551.9L2350.6 1554.31C2344.5 1552.7 2339.82 1549.25 2336.57 1543.95 2333.32 1538.64 2331.7 1532.22 2331.7 1524.68 2331.7 1517.16 2333.33 1510.74 2336.59 1505.42 2339.85 1500.09 2344.52 1496.63 2350.6 1495.02Z" fill="#576C87" fill-rule="evenodd"/><path d="M2370.14 1512.58C2372.07 1512.58 2373.84 1512.69 2375.43 1512.92 2377.03 1513.15 2378.62 1513.55 2380.2 1514.11L2378.79 1520.67 2376.26 1520.67C2376.03 1518.82 2375.42 1517.41 2374.43 1516.45 2373.44 1515.5 2371.89 1515.02 2369.76 1515.02 2368.12 1515.02 2366.78 1515.44 2365.76 1516.28 2364.74 1517.13 2364.23 1518.24 2364.23 1519.61 2364.23 1520.36 2364.36 1521.02 2364.62 1521.59 2364.88 1522.17 2365.41 1522.8 2366.2 1523.49 2366.99 1524.17 2368.22 1525.02 2369.89 1526.02 2371.2 1526.81 2372.25 1527.53 2373.04 1528.19 2373.83 1528.84 2374.46 1529.5 2374.92 1530.14 2375.38 1530.79 2375.71 1531.47 2375.92 1532.19 2376.13 1532.91 2376.23 1533.78 2376.23 1534.8 2376.23 1536.65 2375.74 1538.24 2374.75 1539.56 2373.76 1540.89 2372.41 1541.87 2370.71 1542.52 2369.02 1543.16 2367.08 1543.49 2364.92 1543.49 2363.19 1543.49 2361.49 1543.35 2359.82 1543.09 2358.16 1542.83 2356.3 1542.39 2354.26 1541.77L2355.76 1534.95 2358.2 1534.95C2358.28 1536.95 2358.84 1538.46 2359.89 1539.49 2360.93 1540.51 2362.58 1541.02 2364.86 1541.02 2366.83 1541.02 2368.38 1540.57 2369.5 1539.69 2370.61 1538.8 2371.17 1537.55 2371.17 1535.92 2371.17 1534.99 2371.01 1534.18 2370.7 1533.5 2370.39 1532.82 2369.88 1532.17 2369.17 1531.55 2368.46 1530.92 2367.33 1530.14 2365.79 1529.2 2364.17 1528.22 2362.9 1527.34 2362 1526.55 2361.09 1525.76 2360.41 1524.9 2359.95 1523.97 2359.49 1523.04 2359.26 1521.97 2359.26 1520.77 2359.26 1519.12 2359.7 1517.68 2360.59 1516.44 2361.48 1515.2 2362.74 1514.25 2364.39 1513.58 2366.03 1512.91 2367.95 1512.58 2370.14 1512.58Z" fill="#576C87" fill-rule="evenodd"/><text fill="#000000" fill-opacity="0" font-family="Arial,Arial_MSFontService,sans-serif" font-size="30.9062" x="2354.26" y="1539.62">𝑠</text><path d="M2387.98 1535.7 2393.45 1535.7C2393.75 1537.16 2393.89 1538.6 2393.89 1540.02 2393.89 1541.47 2393.64 1542.81 2393.14 1544.02 2392.64 1545.22 2391.84 1546.43 2390.75 1547.63 2389.66 1548.82 2388.15 1550.14 2386.23 1551.58L2384.55 1549.67C2385.61 1548.67 2386.38 1547.77 2386.86 1546.97 2387.34 1546.17 2387.68 1545.26 2387.89 1544.24 2388.1 1543.21 2388.2 1541.93 2388.2 1540.39 2388.2 1538.81 2388.13 1537.25 2387.98 1535.7Z" fill="#576C87" fill-rule="evenodd"/><text fill="#000000" fill-opacity="0" font-family="Arial,Arial_MSFontService,sans-serif" font-size="15.875" x="2384.55" y="1549.59">,</text><path d="M2427.71 1515.02C2425.56 1515.02 2423.63 1515.88 2421.93 1517.61 2420.22 1519.34 2418.88 1521.66 2417.93 1524.56 2416.97 1527.47 2416.49 1530.37 2416.49 1533.27 2416.49 1535.43 2416.79 1537.05 2417.38 1538.13 2417.97 1539.2 2418.97 1539.74 2420.36 1539.74 2421.74 1539.74 2423.09 1539.14 2424.41 1537.95 2425.73 1536.77 2427.1 1535.07 2428.5 1532.88 2429.91 1530.68 2430.91 1528.14 2431.49 1525.27L2431.77 1523.92C2431.96 1523.07 2432.08 1522.33 2432.15 1521.7 2432.21 1521.08 2432.24 1520.4 2432.24 1519.67 2432.24 1518.07 2431.9 1516.89 2431.21 1516.14 2430.52 1515.39 2429.35 1515.02 2427.71 1515.02ZM2427.08 1512.55C2428.44 1512.55 2429.7 1512.7 2430.88 1513 2432.06 1513.3 2433.27 1513.84 2434.52 1514.61L2437.4 1512.55 2439.4 1513.05 2434.8 1532.86C2434.34 1534.84 2434.11 1536.38 2434.11 1537.49 2434.11 1538.32 2434.25 1538.92 2434.52 1539.3 2434.79 1539.67 2435.22 1539.86 2435.8 1539.86 2436.43 1539.86 2437.09 1539.6 2437.8 1539.09 2438.51 1538.58 2439.51 1537.61 2440.8 1536.17L2442.58 1537.92C2440.71 1539.92 2439.11 1541.34 2437.79 1542.19 2436.46 1543.03 2435.03 1543.45 2433.49 1543.45 2432.2 1543.45 2431.17 1543.03 2430.4 1542.17 2429.62 1541.32 2429.24 1540.18 2429.24 1538.77 2429.24 1537.62 2429.48 1536.4 2429.96 1535.11L2429.55 1534.99C2427.55 1537.9 2425.66 1540.04 2423.86 1541.39 2422.07 1542.75 2420.18 1543.42 2418.18 1543.42 2415.88 1543.42 2414.11 1542.56 2412.85 1540.83 2411.59 1539.1 2410.96 1536.67 2410.96 1533.55 2410.96 1529.96 2411.66 1526.52 2413.07 1523.22 2414.47 1519.92 2416.41 1517.31 2418.86 1515.41 2421.32 1513.5 2424.06 1512.55 2427.08 1512.55Z" fill="#576C87" fill-rule="evenodd"/><text fill="#000000" fill-opacity="0" font-family="Arial,Arial_MSFontService,sans-serif" font-size="30.9062" x="2410.96" y="1539.59">𝑎</text><path d="M2450.47 1535.7 2455.94 1535.7C2456.23 1537.16 2456.38 1538.6 2456.38 1540.02 2456.38 1541.47 2456.13 1542.81 2455.63 1544.02 2455.13 1545.22 2454.33 1546.43 2453.24 1547.63 2452.15 1548.82 2450.64 1550.14 2448.72 1551.58L2447.04 1549.67C2448.1 1548.67 2448.87 1547.77 2449.35 1546.97 2449.83 1546.17 2450.17 1545.26 2450.38 1544.24 2450.59 1543.21 2450.69 1541.93 2450.69 1540.39 2450.69 1538.81 2450.62 1537.25 2450.47 1535.7ZM2450.07 1514.74 2456.32 1514.74 2456.32 1522.05 2450.07 1522.05Z" fill="#576C87" fill-rule="evenodd"/><text fill="#000000" fill-opacity="0" font-family="Arial,Arial_MSFontService,sans-serif" font-size="36.8438" x="2447.04" y="1546.97">;</text><path d="M2482.8 1522.74C2481.82 1527.26 2481.33 1531.06 2481.33 1534.14 2481.33 1536.47 2481.69 1538.19 2482.4 1539.28 2483.1 1540.38 2484.25 1540.92 2485.83 1540.92 2488.17 1540.92 2490.38 1539.35 2492.47 1536.22 2494.57 1533.08 2496.34 1528.59 2497.8 1522.74ZM2495.61 1501.67C2493.18 1501.67 2490.92 1503.21 2488.85 1506.3 2486.78 1509.38 2485.01 1513.8 2483.55 1519.55L2498.52 1519.55C2499.5 1515.15 2499.99 1511.37 2499.99 1508.2 2499.99 1506.02 2499.63 1504.38 2498.93 1503.3 2498.22 1502.21 2497.11 1501.67 2495.61 1501.67ZM2495.99 1499.14C2502.03 1499.14 2505.05 1502.97 2505.05 1510.64 2505.05 1512.81 2504.81 1515.4 2504.32 1518.41 2503.83 1521.42 2503.05 1524.49 2501.99 1527.61 2500.93 1530.74 2499.58 1533.5 2497.96 1535.91 2496.33 1538.31 2494.46 1540.17 2492.33 1541.49 2490.21 1542.8 2487.92 1543.45 2485.46 1543.45 2482.35 1543.45 2480.04 1542.51 2478.52 1540.61 2477 1538.71 2476.24 1535.87 2476.24 1532.08 2476.24 1530.02 2476.47 1527.47 2476.93 1524.45 2477.38 1521.43 2478.14 1518.34 2479.19 1515.19 2480.24 1512.03 2481.6 1509.23 2483.25 1506.78 2484.91 1504.33 2486.82 1502.45 2488.97 1501.13 2491.13 1499.8 2493.47 1499.14 2495.99 1499.14Z" fill="#576C87" fill-rule="evenodd"/><text fill="#000000" fill-opacity="0" font-family="Arial,Arial_MSFontService,sans-serif" font-size="44.3125" x="2476.24" y="1537.91">𝜃</text></g></svg>