<svg width="1569" height="1126" xmlns="http://www.w3.org/2000/svg" xmlns:xlink="http://www.w3.org/1999/xlink" overflow="hidden"><defs><clipPath id="clip0"><rect x="475" y="554" width="1569" height="1126"/></clipPath></defs><g clip-path="url(#clip0)" transform="translate(-475 -554)"><path d="M964 678.5C964 612.502 1017.28 559 1083 559 1148.72 559 1202 612.502 1202 678.5 1202 744.498 1148.72 798 1083 798 1017.28 798 964 744.498 964 678.5Z" stroke="#778CA5" stroke-width="10.3125" stroke-miterlimit="8" fill="#F2F2F2" fill-rule="evenodd"/><text fill="#778CA5" font-family="Times New Roman,Times New Roman_MSFontService,sans-serif" font-weight="400" font-size="92" transform="matrix(1 0 0 1 1036.89 712)">49</text><path d="M655 917C655 851.278 708.502 798 774.5 798 840.498 798 894 851.278 894 917 894 982.722 840.498 1036 774.5 1036 708.502 1036 655 982.722 655 917Z" stroke="#778CA5" stroke-width="10.3125" stroke-miterlimit="8" fill="#F2F2F2" fill-rule="evenodd"/><text fill="#778CA5" font-family="Times New Roman,Times New Roman_MSFontService,sans-serif" font-weight="400" font-size="92" transform="matrix(1 0 0 1 751.666 951)">6</text><path d="M830 1235C830 1169.28 883.278 1116 949 1116 1014.72 1116 1068 1169.28 1068 1235 1068 1300.72 1014.72 1354 949 1354 883.278 1354 830 1300.72 830 1235Z" stroke="#778CA5" stroke-width="10.3125" stroke-miterlimit="8" fill="#F2F2F2" fill-rule="evenodd"/><text fill="#778CA5" font-family="Times New Roman,Times New Roman_MSFontService,sans-serif" font-weight="400" font-size="92" transform="matrix(1 0 0 1 926.181 1269)">5</text><path d="M0 0 188.973 119.167" stroke="#778CA5" stroke-width="10.3125" stroke-miterlimit="8" fill="none" fill-rule="evenodd" transform="matrix(-1 0 0 1 963.973 678)"/><path d="M859 1001 949.251 1115.57" stroke="#778CA5" stroke-width="10.3125" stroke-miterlimit="8" fill="none" fill-rule="evenodd"/><path d="M480 1235C480 1169.28 533.502 1116 599.5 1116 665.498 1116 719 1169.28 719 1235 719 1300.72 665.498 1354 599.5 1354 533.502 1354 480 1300.72 480 1235Z" stroke="#778CA5" stroke-width="10.3125" stroke-miterlimit="8" fill="#F2F2F2" fill-rule="evenodd"/><text fill="#778CA5" font-family="Times New Roman,Times New Roman_MSFontService,sans-serif" font-weight="400" font-size="92" transform="matrix(1 0 0 1 576.438 1269)">1</text><path d="M0 0 90.9644 114.572" stroke="#778CA5" stroke-width="10.3125" stroke-miterlimit="8" fill="none" fill-rule="evenodd" transform="matrix(-1 0 0 1 689.965 1001)"/><path d="M1272 917C1272 851.278 1325.28 798 1391 798 1456.72 798 1510 851.278 1510 917 1510 982.722 1456.72 1036 1391 1036 1325.28 1036 1272 982.722 1272 917Z" stroke="#778CA5" stroke-width="10.3125" stroke-miterlimit="8" fill="#F2F2F2" fill-rule="evenodd"/><text fill="#778CA5" font-family="Times New Roman,Times New Roman_MSFontService,sans-serif" font-weight="400" font-size="92" transform="matrix(1 0 0 1 1345.03 951)">43</text><path d="M1454 1237.5C1454 1171.5 1507.28 1118 1573 1118 1638.72 1118 1692 1171.5 1692 1237.5 1692 1303.5 1638.72 1357 1573 1357 1507.28 1357 1454 1303.5 1454 1237.5Z" stroke="#778CA5" stroke-width="10.3125" stroke-miterlimit="8" fill="#F2F2F2" fill-rule="evenodd"/><text fill="#778CA5" font-family="Times New Roman,Times New Roman_MSFontService,sans-serif" font-weight="400" font-size="92" transform="matrix(1 0 0 1 1527.32 1272)">36</text><path d="M1475.5 1001.5 1573.52 1118.9" stroke="#70AD47" stroke-width="6.875" stroke-miterlimit="8" fill="none" fill-rule="evenodd"/><path d="M1111 1235C1111 1169.28 1164.28 1116 1230 1116 1295.72 1116 1349 1169.28 1349 1235 1349 1300.72 1295.72 1354 1230 1354 1164.28 1354 1111 1300.72 1111 1235Z" stroke="#778CA5" stroke-width="10.3125" stroke-miterlimit="8" fill="#F2F2F2" fill-rule="evenodd"/><text fill="#778CA5" font-family="Times New Roman,Times New Roman_MSFontService,sans-serif" font-weight="400" font-size="92" transform="matrix(1 0 0 1 1206.83 1269)">7</text><path d="M0 0 76.8495 114.572" stroke="#778CA5" stroke-width="10.3125" stroke-miterlimit="8" fill="none" fill-rule="evenodd" transform="matrix(-1 0 0 1 1306.85 1001)"/><path d="M1202.5 678.5 1391.47 797.667" stroke="#70AD47" stroke-width="6.875" stroke-miterlimit="8" fill="none" fill-rule="evenodd"/><path d="M1013 1555.5C1013 1489.5 1066.28 1436 1132 1436 1197.72 1436 1251 1489.5 1251 1555.5 1251 1621.5 1197.72 1675 1132 1675 1066.28 1675 1013 1621.5 1013 1555.5Z" stroke="#778CA5" stroke-width="10.3125" stroke-miterlimit="8" fill="#F2F2F2" fill-rule="evenodd"/><text fill="#778CA5" font-family="Times New Roman,Times New Roman_MSFontService,sans-serif" font-weight="400" font-size="92" transform="matrix(1 0 0 1 1109.17 1590)">3</text><path d="M1033 1319 1131.72 1436.4" stroke="#778CA5" stroke-width="10.3125" stroke-miterlimit="8" fill="none" fill-rule="evenodd"/><path d="M655 1555.5C655 1489.5 708.502 1436 774.5 1436 840.498 1436 894 1489.5 894 1555.5 894 1621.5 840.498 1675 774.5 1675 708.502 1675 655 1621.5 655 1555.5Z" stroke="#778CA5" stroke-width="10.3125" stroke-miterlimit="8" fill="#F2F2F2" fill-rule="evenodd"/><text fill="#778CA5" font-family="Times New Roman,Times New Roman_MSFontService,sans-serif" font-weight="400" font-size="92" transform="matrix(1 0 0 1 751.666 1590)">2</text><path d="M0 0 90.2513 117.403" stroke="#778CA5" stroke-width="10.3125" stroke-miterlimit="8" fill="none" fill-rule="evenodd" transform="matrix(-1 0 0 1 865.251 1319)"/><path d="M1649 1551.5C1649 1485.5 1702.5 1432 1768.5 1432 1834.5 1432 1888 1485.5 1888 1551.5 1888 1617.5 1834.5 1671 1768.5 1671 1702.5 1671 1649 1617.5 1649 1551.5Z" stroke="#778CA5" stroke-width="10.3125" stroke-miterlimit="8" fill="#F2F2F2" fill-rule="evenodd"/><text fill="#778CA5" font-family="Times New Roman,Times New Roman_MSFontService,sans-serif" font-weight="400" font-size="92" transform="matrix(1 0 0 1 1722.65 1586)">32</text><path d="M1657.5 1322.5 1768.57 1433.16" stroke="#70AD47" stroke-width="6.875" stroke-miterlimit="8" fill="none" fill-rule="evenodd"/><path d="M1293 1553C1293 1487.28 1346.28 1434 1412 1434 1477.72 1434 1531 1487.28 1531 1553 1531 1618.72 1477.72 1672 1412 1672 1346.28 1672 1293 1618.72 1293 1553Z" stroke="#778CA5" stroke-width="10.3125" stroke-miterlimit="8" fill="#F2F2F2" fill-rule="evenodd"/><text fill="#778CA5" font-family="Times New Roman,Times New Roman_MSFontService,sans-serif" font-weight="400" font-size="92" transform="matrix(1 0 0 1 1388.76 1587)">4</text><path d="M0 0 77.209 111.741" stroke="#778CA5" stroke-width="10.3125" stroke-miterlimit="8" fill="none" fill-rule="evenodd" transform="matrix(-1 0 0 1 1489.21 1322)"/><text fill="#70AD47" font-family="Times New Roman,Times New Roman_MSFontService,sans-serif" font-weight="700" font-size="73" transform="matrix(1 0 0 1 1282.69 706)">24<tspan font-size="73" x="270.969" y="353">24</tspan><tspan font-size="73" x="344.302" y="353">-</tspan><tspan font-size="73" x="368.938" y="353">6=18</tspan><tspan font-size="73" x="470.724" y="654">18</tspan><tspan font-size="73" x="544.058" y="654">-</tspan><tspan font-size="73" x="568.693" y="654">7=11</tspan></text></g></svg>