<svg width="683" height="212" xmlns="http://www.w3.org/2000/svg" xmlns:xlink="http://www.w3.org/1999/xlink" overflow="hidden"><defs><clipPath id="clip0"><rect x="1784" y="428" width="683" height="212"/></clipPath></defs><g clip-path="url(#clip0)" transform="translate(-1784 -428)"><path d="M1857.07 433.575 1950.61 595.597 1883.1 634.573 1789.56 472.551Z" stroke="#607796" stroke-width="6.875" stroke-miterlimit="8" fill="none" fill-rule="evenodd"/><path d="M1857.07 433.575 1883.1 634.573" stroke="#607796" stroke-width="2.29167" stroke-miterlimit="8" fill="none" fill-rule="evenodd"/><path d="M0 0 187.087 77.9528" stroke="#607796" stroke-width="2.29167" stroke-miterlimit="8" fill="none" fill-rule="evenodd" transform="matrix(0.5 0.866025 0.866025 -0.5 1789.56 472.551)"/><path d="M1954.48 433.575 2048.02 595.596 1980.51 634.573 1886.97 472.551Z" stroke="#607796" stroke-width="6.875" stroke-miterlimit="8" fill="none" fill-rule="evenodd"/><path d="M1954.48 433.575 1980.51 634.573" stroke="#607796" stroke-width="2.29167" stroke-miterlimit="8" fill="none" fill-rule="evenodd"/><path d="M0 0 187.087 77.9528" stroke="#607796" stroke-width="2.29167" stroke-miterlimit="8" fill="none" fill-rule="evenodd" transform="matrix(0.5 0.866025 0.866025 -0.5 1886.97 472.551)"/><path d="M2051.89 433.574 2145.43 595.596 2077.92 634.573 1984.38 472.551Z" stroke="#607796" stroke-width="6.875" stroke-miterlimit="8" fill="none" fill-rule="evenodd"/><path d="M2051.89 433.574 2077.92 634.573" stroke="#607796" stroke-width="2.29167" stroke-miterlimit="8" fill="none" fill-rule="evenodd"/><path d="M0 0 187.087 77.9528" stroke="#607796" stroke-width="2.29167" stroke-miterlimit="8" fill="none" fill-rule="evenodd" transform="matrix(0.5 0.866025 0.866025 -0.5 1984.38 472.551)"/><path d="M2142.56 546.366 2150.81 560.655 2136.33 569.015 2128.08 554.726Z" stroke="#607796" stroke-width="4.58333" stroke-miterlimit="8" fill="#9DACBF" fill-rule="evenodd"/><path d="M2173.7 433.574 2267.24 595.595 2199.73 634.572 2106.19 472.55Z" stroke="#607796" stroke-width="6.875" stroke-miterlimit="8" fill="none" fill-rule="evenodd"/><path d="M2173.7 433.574 2199.73 634.572" stroke="#607796" stroke-width="2.29167" stroke-miterlimit="8" fill="none" fill-rule="evenodd"/><path d="M0 0 187.087 77.9528" stroke="#607796" stroke-width="2.29167" stroke-miterlimit="8" fill="none" fill-rule="evenodd" transform="matrix(0.5 0.866025 0.866025 -0.5 2106.19 472.55)"/><path d="M2271.11 433.574 2364.65 595.595 2297.14 634.572 2203.6 472.55Z" stroke="#607796" stroke-width="6.875" stroke-miterlimit="8" fill="none" fill-rule="evenodd"/><path d="M2271.11 433.574 2297.14 634.572" stroke="#607796" stroke-width="2.29167" stroke-miterlimit="8" fill="none" fill-rule="evenodd"/><path d="M0 0 187.087 77.9528" stroke="#607796" stroke-width="2.29167" stroke-miterlimit="8" fill="none" fill-rule="evenodd" transform="matrix(0.5 0.866025 0.866025 -0.5 2203.6 472.55)"/><path d="M2368.47 433.573 2462.02 595.595 2394.51 634.571 2300.96 472.55Z" stroke="#607796" stroke-width="6.875" stroke-miterlimit="8" fill="none" fill-rule="evenodd"/><path d="M2368.47 433.573 2394.51 634.571" stroke="#607796" stroke-width="2.29167" stroke-miterlimit="8" fill="none" fill-rule="evenodd"/><path d="M0 0 187.087 77.9528" stroke="#607796" stroke-width="2.29167" stroke-miterlimit="8" fill="none" fill-rule="evenodd" transform="matrix(0.5 0.866025 0.866025 -0.5 2300.96 472.55)"/></g></svg>