<svg width="621" height="85" xmlns="http://www.w3.org/2000/svg" xmlns:xlink="http://www.w3.org/1999/xlink" overflow="hidden"><defs><clipPath id="clip0"><rect x="2605" y="540" width="621" height="85"/></clipPath></defs><g clip-path="url(#clip0)" transform="translate(-2605 -540)"><rect x="2608.5" y="543.5" width="187" height="78.0001" stroke="#607796" stroke-width="6.875" stroke-miterlimit="8" fill="none"/><path d="M2608 543 2795.09 620.953" stroke="#607796" stroke-width="2.29167" stroke-miterlimit="8" fill="none" fill-rule="evenodd"/><path d="M0 0 187.087 77.9528" stroke="#607796" stroke-width="2.29167" stroke-miterlimit="8" fill="none" fill-rule="evenodd" transform="matrix(1 0 0 -1 2608 620.953)"/><rect x="2801.5" y="605.5" width="15.9998" height="17.0002" stroke="#607796" stroke-width="4.58333" stroke-miterlimit="8" fill="#9DACBF"/><rect x="2823.5" y="543.5" width="187" height="78.0001" stroke="#607796" stroke-width="6.875" stroke-miterlimit="8" fill="none"/><path d="M2823 543 3010.09 620.953" stroke="#607796" stroke-width="2.29167" stroke-miterlimit="8" fill="none" fill-rule="evenodd"/><path d="M0 0 187.087 77.9528" stroke="#607796" stroke-width="2.29167" stroke-miterlimit="8" fill="none" fill-rule="evenodd" transform="matrix(1 0 0 -1 2823 620.953)"/><rect x="3015.5" y="605.5" width="16.0002" height="17.0002" stroke="#607796" stroke-width="4.58333" stroke-miterlimit="8" fill="#9DACBF"/><rect x="3035.5" y="543.5" width="187" height="78.0001" stroke="#607796" stroke-width="6.875" stroke-miterlimit="8" fill="none"/><path d="M3035 543 3222.09 620.953" stroke="#607796" stroke-width="2.29167" stroke-miterlimit="8" fill="none" fill-rule="evenodd"/><path d="M0 0 187.087 77.9528" stroke="#607796" stroke-width="2.29167" stroke-miterlimit="8" fill="none" fill-rule="evenodd" transform="matrix(1 0 0 -1 3035 620.953)"/></g></svg>