<svg width="826" height="199" xmlns="http://www.w3.org/2000/svg" xmlns:xlink="http://www.w3.org/1999/xlink" overflow="hidden"><defs><clipPath id="clip0"><rect x="1182" y="72" width="826" height="199"/></clipPath></defs><g clip-path="url(#clip0)" transform="translate(-1182 -72)"><path d="M1242.36 77.8284 1374.65 210.119 1319.53 265.24 1187.24 132.949Z" stroke="#607796" stroke-width="6.875" stroke-miterlimit="8" fill="none" fill-rule="evenodd"/><path d="M1242.36 77.8284 1319.53 265.24" stroke="#607796" stroke-width="2.29167" stroke-miterlimit="8" fill="none" fill-rule="evenodd"/><path d="M0 0 187.087 77.9528" stroke="#607796" stroke-width="2.29167" stroke-miterlimit="8" fill="none" fill-rule="evenodd" transform="matrix(0.707107 0.707107 0.707107 -0.707107 1187.24 132.949)"/><path d="M1362.11 77.828 1494.4 210.118 1439.28 265.239 1306.99 132.949Z" stroke="#607796" stroke-width="6.875" stroke-miterlimit="8" fill="none" fill-rule="evenodd"/><path d="M1362.11 77.828 1439.28 265.239" stroke="#607796" stroke-width="2.29167" stroke-miterlimit="8" fill="none" fill-rule="evenodd"/><path d="M0 0 187.087 77.9528" stroke="#607796" stroke-width="2.29167" stroke-miterlimit="8" fill="none" fill-rule="evenodd" transform="matrix(0.707107 0.707107 0.707107 -0.707107 1306.99 132.949)"/><path d="M1481.87 77.828 1614.16 210.118 1559.04 265.239 1426.75 132.949Z" stroke="#607796" stroke-width="6.875" stroke-miterlimit="8" fill="none" fill-rule="evenodd"/><path d="M1481.87 77.828 1559.04 265.239" stroke="#607796" stroke-width="2.29167" stroke-miterlimit="8" fill="none" fill-rule="evenodd"/><path d="M0 0 187.087 77.9528" stroke="#607796" stroke-width="2.29167" stroke-miterlimit="8" fill="none" fill-rule="evenodd" transform="matrix(0.707107 0.707107 0.707107 -0.707107 1426.75 132.949)"/><path d="M1618.53 183.406 1630.2 195.073 1618.38 206.895 1606.71 195.228Z" stroke="#607796" stroke-width="4.58333" stroke-miterlimit="8" fill="#9DACBF" fill-rule="evenodd"/><path d="M1630.92 77.8273 1763.21 210.118 1708.08 265.238 1575.79 132.948Z" stroke="#607796" stroke-width="6.875" stroke-miterlimit="8" fill="none" fill-rule="evenodd"/><path d="M1630.92 77.8273 1708.08 265.238" stroke="#607796" stroke-width="2.29167" stroke-miterlimit="8" fill="none" fill-rule="evenodd"/><path d="M0 0 187.087 77.9528" stroke="#607796" stroke-width="2.29167" stroke-miterlimit="8" fill="none" fill-rule="evenodd" transform="matrix(0.707107 0.707107 0.707107 -0.707107 1575.79 132.948)"/><path d="M1750.89 77.8273 1883.18 210.118 1828.06 265.238 1695.76 132.948Z" stroke="#607796" stroke-width="6.875" stroke-miterlimit="8" fill="none" fill-rule="evenodd"/><path d="M1750.89 77.8273 1828.06 265.238" stroke="#607796" stroke-width="2.29167" stroke-miterlimit="8" fill="none" fill-rule="evenodd"/><path d="M0 0 187.087 77.9528" stroke="#607796" stroke-width="2.29167" stroke-miterlimit="8" fill="none" fill-rule="evenodd" transform="matrix(0.707107 0.707107 0.707107 -0.707107 1695.76 132.948)"/><path d="M1870.66 77.8269 2002.95 210.117 1947.83 265.238 1815.54 132.948Z" stroke="#607796" stroke-width="6.875" stroke-miterlimit="8" fill="none" fill-rule="evenodd"/><path d="M1870.66 77.8269 1947.83 265.238" stroke="#607796" stroke-width="2.29167" stroke-miterlimit="8" fill="none" fill-rule="evenodd"/><path d="M0 0 187.087 77.9528" stroke="#607796" stroke-width="2.29167" stroke-miterlimit="8" fill="none" fill-rule="evenodd" transform="matrix(0.707107 0.707107 0.707107 -0.707107 1815.54 132.948)"/></g></svg>