<svg width="1097" height="172" xmlns="http://www.w3.org/2000/svg" xmlns:xlink="http://www.w3.org/1999/xlink" overflow="hidden"><defs><clipPath id="clip0"><rect x="2139" y="86" width="1097" height="172"/></clipPath></defs><g clip-path="url(#clip0)" transform="translate(-2139 -86)"><path d="M2182.83 91.4762 2344.86 185.02 2305.88 252.529 2143.86 158.985Z" stroke="#607796" stroke-width="6.875" stroke-miterlimit="8" fill="none" fill-rule="evenodd"/><path d="M2182.83 91.4762 2305.88 252.529" stroke="#607796" stroke-width="2.29167" stroke-miterlimit="8" fill="none" fill-rule="evenodd"/><path d="M0 0 187.087 77.9528" stroke="#607796" stroke-width="2.29167" stroke-miterlimit="8" fill="none" fill-rule="evenodd" transform="matrix(0.866025 0.5 0.5 -0.866025 2143.86 158.985)"/><path d="M2351.2 91.4762 2513.22 185.02 2474.24 252.529 2312.22 158.985Z" stroke="#607796" stroke-width="6.875" stroke-miterlimit="8" fill="none" fill-rule="evenodd"/><path d="M2351.2 91.4762 2474.24 252.529" stroke="#607796" stroke-width="2.29167" stroke-miterlimit="8" fill="none" fill-rule="evenodd"/><path d="M0 0 187.087 77.9528" stroke="#607796" stroke-width="2.29167" stroke-miterlimit="8" fill="none" fill-rule="evenodd" transform="matrix(0.866025 0.5 0.5 -0.866025 2312.22 158.985)"/><path d="M2520.09 91.4762 2682.11 185.02 2643.13 252.529 2481.11 158.985Z" stroke="#607796" stroke-width="6.875" stroke-miterlimit="8" fill="none" fill-rule="evenodd"/><path d="M2520.09 91.4762 2643.13 252.529" stroke="#607796" stroke-width="2.29167" stroke-miterlimit="8" fill="none" fill-rule="evenodd"/><path d="M0 0 187.087 77.9528" stroke="#607796" stroke-width="2.29167" stroke-miterlimit="8" fill="none" fill-rule="evenodd" transform="matrix(0.866025 0.5 0.5 -0.866025 2481.11 158.985)"/><path d="M2680.13 158.043 2694.42 166.293 2686.06 180.773 2671.77 172.523Z" stroke="#607796" stroke-width="4.58333" stroke-miterlimit="8" fill="#9DACBF" fill-rule="evenodd"/><path d="M2732.02 91.4758 2894.04 185.019 2855.07 252.528 2693.04 158.985Z" stroke="#607796" stroke-width="6.875" stroke-miterlimit="8" fill="none" fill-rule="evenodd"/><path d="M2732.02 91.4758 2855.07 252.528" stroke="#607796" stroke-width="2.29167" stroke-miterlimit="8" fill="none" fill-rule="evenodd"/><path d="M0 0 187.087 77.9528" stroke="#607796" stroke-width="2.29167" stroke-miterlimit="8" fill="none" fill-rule="evenodd" transform="matrix(0.866025 0.5 0.5 -0.866025 2693.04 158.985)"/><path d="M2900.19 91.4758 3062.21 185.019 3023.23 252.528 2861.21 158.985Z" stroke="#607796" stroke-width="6.875" stroke-miterlimit="8" fill="none" fill-rule="evenodd"/><path d="M2900.19 91.4758 3023.23 252.528" stroke="#607796" stroke-width="2.29167" stroke-miterlimit="8" fill="none" fill-rule="evenodd"/><path d="M0 0 187.087 77.9528" stroke="#607796" stroke-width="2.29167" stroke-miterlimit="8" fill="none" fill-rule="evenodd" transform="matrix(0.866025 0.5 0.5 -0.866025 2861.21 158.985)"/><path d="M3068.62 91.4758 3230.64 185.019 3191.66 252.528 3029.64 158.985Z" stroke="#607796" stroke-width="6.875" stroke-miterlimit="8" fill="none" fill-rule="evenodd"/><path d="M3068.62 91.4758 3191.66 252.528" stroke="#607796" stroke-width="2.29167" stroke-miterlimit="8" fill="none" fill-rule="evenodd"/><path d="M0 0 187.087 77.9528" stroke="#607796" stroke-width="2.29167" stroke-miterlimit="8" fill="none" fill-rule="evenodd" transform="matrix(0.866025 0.5 0.5 -0.866025 3029.64 158.985)"/></g></svg>