<svg width="529" height="194" xmlns="http://www.w3.org/2000/svg" xmlns:xlink="http://www.w3.org/1999/xlink" overflow="hidden"><defs><clipPath id="clip0"><rect x="1193" y="439" width="529" height="194"/></clipPath></defs><g clip-path="url(#clip0)" transform="translate(-1193 -439)"><rect x="1196.5" y="442.5" width="78" height="187" stroke="#607796" stroke-width="6.875" stroke-miterlimit="8" fill="none"/><path d="M1273.95 442 1196 629.087" stroke="#607796" stroke-width="2.29167" stroke-miterlimit="8" fill="none" fill-rule="evenodd"/><path d="M0 0 187.087 77.9528" stroke="#607796" stroke-width="2.29167" stroke-miterlimit="8" fill="none" fill-rule="evenodd" transform="matrix(6.12323e-17 1 1 -6.12323e-17 1196 442)"/><rect x="1280.5" y="442.5" width="78" height="187" stroke="#607796" stroke-width="6.875" stroke-miterlimit="8" fill="none"/><path d="M1357.95 442 1280 629.087" stroke="#607796" stroke-width="2.29167" stroke-miterlimit="8" fill="none" fill-rule="evenodd"/><path d="M0 0 187.087 77.9528" stroke="#607796" stroke-width="2.29167" stroke-miterlimit="8" fill="none" fill-rule="evenodd" transform="matrix(6.12323e-17 1 1 -6.12323e-17 1280 442)"/><rect x="1365.5" y="442.5" width="78" height="187" stroke="#607796" stroke-width="6.875" stroke-miterlimit="8" fill="none"/><path d="M1442.95 442 1365 629.087" stroke="#607796" stroke-width="2.29167" stroke-miterlimit="8" fill="none" fill-rule="evenodd"/><path d="M0 0 187.087 77.9528" stroke="#607796" stroke-width="2.29167" stroke-miterlimit="8" fill="none" fill-rule="evenodd" transform="matrix(6.12323e-17 1 1 -6.12323e-17 1365 442)"/><rect x="1448.5" y="613.5" width="16.9999" height="15.9998" stroke="#607796" stroke-width="4.58333" stroke-miterlimit="8" fill="#9DACBF"/><rect x="1471.5" y="442.5" width="78" height="187" stroke="#607796" stroke-width="6.875" stroke-miterlimit="8" fill="none"/><path d="M1548.95 442 1471 629.087" stroke="#607796" stroke-width="2.29167" stroke-miterlimit="8" fill="none" fill-rule="evenodd"/><path d="M0 0 187.087 77.9528" stroke="#607796" stroke-width="2.29167" stroke-miterlimit="8" fill="none" fill-rule="evenodd" transform="matrix(6.12323e-17 1 1 -6.12323e-17 1471 442)"/><rect x="1555.5" y="442.5" width="78" height="187" stroke="#607796" stroke-width="6.875" stroke-miterlimit="8" fill="none"/><path d="M1632.95 442 1555 629.087" stroke="#607796" stroke-width="2.29167" stroke-miterlimit="8" fill="none" fill-rule="evenodd"/><path d="M0 0 187.087 77.9528" stroke="#607796" stroke-width="2.29167" stroke-miterlimit="8" fill="none" fill-rule="evenodd" transform="matrix(6.12323e-17 1 1 -6.12323e-17 1555 442)"/><rect x="1640.5" y="442.5" width="78" height="187" stroke="#607796" stroke-width="6.875" stroke-miterlimit="8" fill="none"/><path d="M1717.95 442 1640 629.087" stroke="#607796" stroke-width="2.29167" stroke-miterlimit="8" fill="none" fill-rule="evenodd"/><path d="M0 0 187.087 77.9528" stroke="#607796" stroke-width="2.29167" stroke-miterlimit="8" fill="none" fill-rule="evenodd" transform="matrix(6.12323e-17 1 1 -6.12323e-17 1640 442)"/></g></svg>