<svg width="1632" height="1117" xmlns="http://www.w3.org/2000/svg" xmlns:xlink="http://www.w3.org/1999/xlink" overflow="hidden"><defs><clipPath id="clip0"><rect x="2468" y="481" width="1632" height="1117"/></clipPath></defs><g clip-path="url(#clip0)" transform="translate(-2468 -481)"><path d="M2887.24 484.963 2956.63 484.963 2956.63 554.199 2887.24 554.199Z" fill="#EDEFF3" fill-rule="evenodd"/><path d="M2956.63 484.963 3026.02 484.963 3026.02 554.199 2956.63 554.199Z" fill="#EDEFF3" fill-rule="evenodd"/><path d="M3026.02 484.963 3095.42 484.963 3095.42 554.199 3026.02 554.199Z" fill="#EDEFF3" fill-rule="evenodd"/><path d="M3095.42 484.963 3164.81 484.963 3164.81 554.199 3095.42 554.199Z" fill="#EDEFF3" fill-rule="evenodd"/><path d="M3164.81 484.963 3234.2 484.963 3234.2 554.199 3164.81 554.199Z" fill="#EDEFF3" fill-rule="evenodd"/><path d="M3234.2 484.963 3303.6 484.963 3303.6 554.199 3234.2 554.199Z" fill="#EDEFF3" fill-rule="evenodd"/><path d="M3303.6 484.963 3372.99 484.963 3372.99 554.199 3303.6 554.199Z" fill="#EDEFF3" fill-rule="evenodd"/><path d="M3372.99 484.963 3442.39 484.963 3442.39 554.199 3372.99 554.199Z" fill="#EDEFF3" fill-rule="evenodd"/><path d="M3442.39 484.963 3511.78 484.963 3511.78 554.199 3442.39 554.199Z" fill="#EDEFF3" fill-rule="evenodd"/><path d="M3511.78 484.963 3581.17 484.963 3581.17 554.199 3511.78 554.199Z" fill="#EDEFF3" fill-rule="evenodd"/><path d="M2887.24 554.199 2956.63 554.199 2956.63 623.435 2887.24 623.435Z" fill="#EDEFF3" fill-rule="evenodd"/><path d="M2956.63 554.199 3026.02 554.199 3026.02 623.435 2956.63 623.435Z" fill="#EDEFF3" fill-rule="evenodd"/><path d="M3026.02 554.199 3095.42 554.199 3095.42 623.435 3026.02 623.435Z" fill="#EDEFF3" fill-rule="evenodd"/><path d="M3095.42 554.199 3164.81 554.199 3164.81 623.435 3095.42 623.435Z" fill="#EDEFF3" fill-rule="evenodd"/><path d="M3164.81 554.199 3234.2 554.199 3234.2 623.435 3164.81 623.435Z" fill="#EDEFF3" fill-rule="evenodd"/><path d="M3234.2 554.199 3303.6 554.199 3303.6 623.435 3234.2 623.435Z" fill="#EDEFF3" fill-rule="evenodd"/><path d="M3303.6 554.199 3372.99 554.199 3372.99 623.435 3303.6 623.435Z" fill="#EDEFF3" fill-rule="evenodd"/><path d="M3372.99 554.199 3442.39 554.199 3442.39 623.435 3372.99 623.435Z" fill="#EDEFF3" fill-rule="evenodd"/><path d="M3442.39 554.199 3511.78 554.199 3511.78 623.435 3442.39 623.435Z" fill="#EDEFF3" fill-rule="evenodd"/><path d="M3511.78 554.199 3581.17 554.199 3581.17 623.435 3511.78 623.435Z" fill="#EDEFF3" fill-rule="evenodd"/><path d="M2609.66 623.435 2679.05 623.435 2679.05 692.672 2609.66 692.672Z" fill="#D1D8E1" fill-rule="evenodd"/><path d="M2679.05 623.435 2748.45 623.435 2748.45 692.672 2679.05 692.672Z" fill="#D1D8E1" fill-rule="evenodd"/><path d="M2748.45 623.435 2817.84 623.435 2817.84 692.672 2748.45 692.672Z" fill="#D1D8E1" fill-rule="evenodd"/><path d="M3026.02 623.435 3095.42 623.435 3095.42 692.672 3026.02 692.672Z" fill="#EDEFF3" fill-rule="evenodd"/><path d="M3095.42 623.435 3164.81 623.435 3164.81 692.672 3095.42 692.672Z" fill="#EDEFF3" fill-rule="evenodd"/><path d="M3164.81 623.435 3234.2 623.435 3234.2 692.672 3164.81 692.672Z" fill="#EDEFF3" fill-rule="evenodd"/><path d="M3234.2 623.435 3303.6 623.435 3303.6 692.672 3234.2 692.672Z" fill="#EDEFF3" fill-rule="evenodd"/><path d="M3303.6 623.435 3372.99 623.435 3372.99 692.672 3303.6 692.672Z" fill="#EDEFF3" fill-rule="evenodd"/><path d="M3372.99 623.435 3442.39 623.435 3442.39 692.672 3372.99 692.672Z" fill="#EDEFF3" fill-rule="evenodd"/><path d="M3442.39 623.435 3511.78 623.435 3511.78 692.672 3442.39 692.672Z" fill="#EDEFF3" fill-rule="evenodd"/><path d="M3511.78 623.435 3581.17 623.435 3581.17 692.672 3511.78 692.672Z" fill="#EDEFF3" fill-rule="evenodd"/><path d="M2609.66 692.672 2679.05 692.672 2679.05 761.908 2609.66 761.908Z" fill="#D1D8E1" fill-rule="evenodd"/><path d="M2679.05 692.672 2748.45 692.672 2748.45 761.908 2679.05 761.908Z" fill="#D1D8E1" fill-rule="evenodd"/><path d="M2748.45 692.672 2817.84 692.672 2817.84 761.908 2748.45 761.908Z" fill="#D1D8E1" fill-rule="evenodd"/><path d="M3095.42 692.672 3164.81 692.672 3164.81 761.908 3095.42 761.908Z" fill="#EDEFF3" fill-rule="evenodd"/><path d="M3164.81 692.672 3234.2 692.672 3234.2 761.908 3164.81 761.908Z" fill="#EDEFF3" fill-rule="evenodd"/><path d="M3234.2 692.672 3303.6 692.672 3303.6 761.908 3234.2 761.908Z" fill="#EDEFF3" fill-rule="evenodd"/><path d="M3303.6 692.672 3372.99 692.672 3372.99 761.908 3303.6 761.908Z" fill="#EDEFF3" fill-rule="evenodd"/><path d="M3372.99 692.672 3442.39 692.672 3442.39 761.908 3372.99 761.908Z" fill="#EDEFF3" fill-rule="evenodd"/><path d="M3442.39 692.672 3511.78 692.672 3511.78 761.908 3442.39 761.908Z" fill="#EDEFF3" fill-rule="evenodd"/><path d="M3511.78 692.672 3581.17 692.672 3581.17 761.908 3511.78 761.908Z" fill="#EDEFF3" fill-rule="evenodd"/><path d="M3303.6 831.144 3372.99 831.144 3372.99 900.38 3303.6 900.38Z" fill="#D1D8E1" fill-rule="evenodd"/><path d="M3372.99 831.144 3442.39 831.144 3442.39 900.38 3372.99 900.38Z" fill="#D1D8E1" fill-rule="evenodd"/><path d="M3442.39 831.144 3511.78 831.144 3511.78 900.38 3442.39 900.38Z" fill="#D1D8E1" fill-rule="evenodd"/><path d="M3303.6 900.38 3372.99 900.38 3372.99 969.616 3303.6 969.616Z" fill="#D1D8E1" fill-rule="evenodd"/><path d="M3372.99 900.38 3442.39 900.38 3442.39 969.616 3372.99 969.616Z" fill="#D1D8E1" fill-rule="evenodd"/><path d="M3442.39 900.38 3511.78 900.38 3511.78 969.616 3442.39 969.616Z" fill="#D1D8E1" fill-rule="evenodd"/><path d="M2540.27 1108.09 2609.66 1108.09 2609.66 1177.32 2540.27 1177.32Z" fill="#D1D8E1" fill-rule="evenodd"/><path d="M2609.66 1108.09 2679.05 1108.09 2679.05 1177.32 2609.66 1177.32Z" fill="#D1D8E1" fill-rule="evenodd"/><path d="M2679.05 1108.09 2748.45 1108.09 2748.45 1177.32 2679.05 1177.32Z" fill="#D1D8E1" fill-rule="evenodd"/><path d="M2540.27 1177.32 2609.66 1177.32 2609.66 1246.56 2540.27 1246.56Z" fill="#D1D8E1" fill-rule="evenodd"/><path d="M2609.66 1177.32 2679.05 1177.32 2679.05 1246.56 2609.66 1246.56Z" fill="#D1D8E1" fill-rule="evenodd"/><path d="M2679.05 1177.32 2748.45 1177.32 2748.45 1246.56 2679.05 1246.56Z" fill="#D1D8E1" fill-rule="evenodd"/><path d="M3511.78 1315.8 3581.17 1315.8 3581.17 1385.03 3511.78 1385.03Z" fill="#EDEFF3" fill-rule="evenodd"/><path d="M3234.2 1385.03 3303.6 1385.03 3303.6 1454.27 3234.2 1454.27Z" fill="#607796" fill-rule="evenodd"/><path d="M3303.6 1385.03 3372.99 1385.03 3372.99 1454.27 3303.6 1454.27Z" fill="#607796" fill-rule="evenodd"/><path d="M3511.78 1385.03 3581.17 1385.03 3581.17 1454.27 3511.78 1454.27Z" fill="#EDEFF3" fill-rule="evenodd"/><path d="M3234.2 1454.27 3303.6 1454.27 3303.6 1523.51 3234.2 1523.51Z" fill="#607796" fill-rule="evenodd"/><path d="M3303.6 1454.27 3372.99 1454.27 3372.99 1523.51 3303.6 1523.51Z" fill="#607796" fill-rule="evenodd"/><path d="M3511.78 1454.27 3581.17 1454.27 3581.17 1523.51 3511.78 1523.51Z" fill="#EDEFF3" fill-rule="evenodd"/><path d="M2470.87 1523.51 2540.27 1523.51 2540.27 1592.74 2470.87 1592.74Z" fill="#EDEFF3" fill-rule="evenodd"/><path d="M2540.27 1523.51 2609.66 1523.51 2609.66 1592.74 2540.27 1592.74Z" fill="#EDEFF3" fill-rule="evenodd"/><path d="M2609.66 1523.51 2679.05 1523.51 2679.05 1592.74 2609.66 1592.74Z" fill="#EDEFF3" fill-rule="evenodd"/><path d="M2679.05 1523.51 2748.45 1523.51 2748.45 1592.74 2679.05 1592.74Z" fill="#EDEFF3" fill-rule="evenodd"/><path d="M2748.45 1523.51 2817.84 1523.51 2817.84 1592.74 2748.45 1592.74Z" fill="#EDEFF3" fill-rule="evenodd"/><path d="M3234.2 1523.51 3303.6 1523.51 3303.6 1592.74 3234.2 1592.74Z" fill="#607796" fill-rule="evenodd"/><path d="M3303.6 1523.51 3372.99 1523.51 3372.99 1592.74 3303.6 1592.74Z" fill="#607796" fill-rule="evenodd"/><path d="M3511.78 1523.51 3581.17 1523.51 3581.17 1592.74 3511.78 1592.74Z" fill="#EDEFF3" fill-rule="evenodd"/><path d="M2540.27 482.672 2540.27 554.199" stroke="#BCCEE7" stroke-width="4.58333" stroke-linejoin="round" stroke-miterlimit="10" fill="none" fill-rule="evenodd"/><path d="M2540.27 554.199 2540.27 1595.03" stroke="#BCCEE7" stroke-width="4.58333" stroke-linejoin="round" stroke-miterlimit="10" fill="none" fill-rule="evenodd"/><path d="M2609.66 482.672 2609.66 554.199" stroke="#BCCEE7" stroke-width="4.58333" stroke-linejoin="round" stroke-miterlimit="10" fill="none" fill-rule="evenodd"/><path d="M2609.66 554.199 2609.66 1595.03" stroke="#BCCEE7" stroke-width="4.58333" stroke-linejoin="round" stroke-miterlimit="10" fill="none" fill-rule="evenodd"/><path d="M2679.05 482.672 2679.05 554.199" stroke="#BCCEE7" stroke-width="4.58333" stroke-linejoin="round" stroke-miterlimit="10" fill="none" fill-rule="evenodd"/><path d="M2679.05 554.199 2679.05 1595.03" stroke="#BCCEE7" stroke-width="4.58333" stroke-linejoin="round" stroke-miterlimit="10" fill="none" fill-rule="evenodd"/><path d="M2748.45 482.672 2748.45 554.199" stroke="#BCCEE7" stroke-width="4.58333" stroke-linejoin="round" stroke-miterlimit="10" fill="none" fill-rule="evenodd"/><path d="M2748.45 554.199 2748.45 1595.03" stroke="#BCCEE7" stroke-width="4.58333" stroke-linejoin="round" stroke-miterlimit="10" fill="none" fill-rule="evenodd"/><path d="M2817.84 482.672 2817.84 554.199" stroke="#BCCEE7" stroke-width="4.58333" stroke-linejoin="round" stroke-miterlimit="10" fill="none" fill-rule="evenodd"/><path d="M2817.84 554.199 2817.84 1595.03" stroke="#BCCEE7" stroke-width="4.58333" stroke-linejoin="round" stroke-miterlimit="10" fill="none" fill-rule="evenodd"/><path d="M2887.24 482.672 2887.24 554.199" stroke="#BCCEE7" stroke-width="4.58333" stroke-linejoin="round" stroke-miterlimit="10" fill="none" fill-rule="evenodd"/><path d="M2887.24 554.199 2887.24 1595.03" stroke="#BCCEE7" stroke-width="4.58333" stroke-linejoin="round" stroke-miterlimit="10" fill="none" fill-rule="evenodd"/><path d="M2956.63 482.672 2956.63 554.199" stroke="#BCCEE7" stroke-width="4.58333" stroke-linejoin="round" stroke-miterlimit="10" fill="none" fill-rule="evenodd"/><path d="M2956.63 554.199 2956.63 1595.03" stroke="#BCCEE7" stroke-width="4.58333" stroke-linejoin="round" stroke-miterlimit="10" fill="none" fill-rule="evenodd"/><path d="M3026.02 482.672 3026.02 554.199" stroke="#BCCEE7" stroke-width="4.58333" stroke-linejoin="round" stroke-miterlimit="10" fill="none" fill-rule="evenodd"/><path d="M3026.02 554.199 3026.02 1595.03" stroke="#BCCEE7" stroke-width="4.58333" stroke-linejoin="round" stroke-miterlimit="10" fill="none" fill-rule="evenodd"/><path d="M3095.42 482.672 3095.42 554.199" stroke="#BCCEE7" stroke-width="4.58333" stroke-linejoin="round" stroke-miterlimit="10" fill="none" fill-rule="evenodd"/><path d="M3095.42 554.199 3095.42 1595.03" stroke="#BCCEE7" stroke-width="4.58333" stroke-linejoin="round" stroke-miterlimit="10" fill="none" fill-rule="evenodd"/><path d="M3164.81 482.672 3164.81 554.199" stroke="#BCCEE7" stroke-width="4.58333" stroke-linejoin="round" stroke-miterlimit="10" fill="none" fill-rule="evenodd"/><path d="M3164.81 554.199 3164.81 1595.03" stroke="#BCCEE7" stroke-width="4.58333" stroke-linejoin="round" stroke-miterlimit="10" fill="none" fill-rule="evenodd"/><path d="M3234.2 482.672 3234.2 554.199" stroke="#BCCEE7" stroke-width="4.58333" stroke-linejoin="round" stroke-miterlimit="10" fill="none" fill-rule="evenodd"/><path d="M3234.2 554.199 3234.2 1595.03" stroke="#BCCEE7" stroke-width="4.58333" stroke-linejoin="round" stroke-miterlimit="10" fill="none" fill-rule="evenodd"/><path d="M3303.6 482.672 3303.6 554.199" stroke="#BCCEE7" stroke-width="4.58333" stroke-linejoin="round" stroke-miterlimit="10" fill="none" fill-rule="evenodd"/><path d="M3303.6 554.199 3303.6 1595.03" stroke="#BCCEE7" stroke-width="4.58333" stroke-linejoin="round" stroke-miterlimit="10" fill="none" fill-rule="evenodd"/><path d="M3372.99 482.672 3372.99 554.199" stroke="#BCCEE7" stroke-width="4.58333" stroke-linejoin="round" stroke-miterlimit="10" fill="none" fill-rule="evenodd"/><path d="M3372.99 554.199 3372.99 1595.03" stroke="#BCCEE7" stroke-width="4.58333" stroke-linejoin="round" stroke-miterlimit="10" fill="none" fill-rule="evenodd"/><path d="M3442.39 482.672 3442.39 554.199" stroke="#BCCEE7" stroke-width="4.58333" stroke-linejoin="round" stroke-miterlimit="10" fill="none" fill-rule="evenodd"/><path d="M3442.39 554.199 3442.39 1595.03" stroke="#BCCEE7" stroke-width="4.58333" stroke-linejoin="round" stroke-miterlimit="10" fill="none" fill-rule="evenodd"/><path d="M3511.78 482.672 3511.78 1595.03" stroke="#BCCEE7" stroke-width="4.58333" stroke-linejoin="round" stroke-miterlimit="10" fill="none" fill-rule="evenodd"/><path d="M2468.58 554.199 3234.2 554.199" stroke="#BCCEE7" stroke-width="4.58333" stroke-linejoin="round" stroke-miterlimit="10" fill="none" fill-rule="evenodd"/><path d="M3234.2 554.199 3583.47 554.199" stroke="#BCCEE7" stroke-width="4.58333" stroke-linejoin="round" stroke-miterlimit="10" fill="none" fill-rule="evenodd"/><path d="M2468.58 623.435 3583.47 623.435" stroke="#BCCEE7" stroke-width="4.58333" stroke-linejoin="round" stroke-miterlimit="10" fill="none" fill-rule="evenodd"/><path d="M2468.58 692.672 3583.47 692.672" stroke="#BCCEE7" stroke-width="4.58333" stroke-linejoin="round" stroke-miterlimit="10" fill="none" fill-rule="evenodd"/><path d="M2468.58 761.908 3583.47 761.908" stroke="#BCCEE7" stroke-width="4.58333" stroke-linejoin="round" stroke-miterlimit="10" fill="none" fill-rule="evenodd"/><path d="M2468.58 831.144 3583.47 831.144" stroke="#BCCEE7" stroke-width="4.58333" stroke-linejoin="round" stroke-miterlimit="10" fill="none" fill-rule="evenodd"/><path d="M2468.58 900.38 3583.47 900.38" stroke="#BCCEE7" stroke-width="4.58333" stroke-linejoin="round" stroke-miterlimit="10" fill="none" fill-rule="evenodd"/><path d="M2468.58 969.616 3234.2 969.616" stroke="#BCCEE7" stroke-width="4.58333" stroke-linejoin="round" stroke-miterlimit="10" fill="none" fill-rule="evenodd"/><path d="M3234.2 969.616 3583.47 969.616" stroke="#BCCEE7" stroke-width="4.58333" stroke-linejoin="round" stroke-miterlimit="10" fill="none" fill-rule="evenodd"/><path d="M2468.58 1038.85 3234.2 1038.85" stroke="#BCCEE7" stroke-width="4.58333" stroke-linejoin="round" stroke-miterlimit="10" fill="none" fill-rule="evenodd"/><path d="M3234.2 1038.85 3583.47 1038.85" stroke="#BCCEE7" stroke-width="4.58333" stroke-linejoin="round" stroke-miterlimit="10" fill="none" fill-rule="evenodd"/><path d="M2468.58 1108.09 2609.66 1108.09" stroke="#BCCEE7" stroke-width="4.58333" stroke-linejoin="round" stroke-miterlimit="10" fill="none" fill-rule="evenodd"/><path d="M2609.66 1108.09 2748.45 1108.09" stroke="#BCCEE7" stroke-width="4.58333" stroke-linejoin="round" stroke-miterlimit="10" fill="none" fill-rule="evenodd"/><path d="M2748.45 1108.09 3234.2 1108.09" stroke="#BCCEE7" stroke-width="4.58333" stroke-linejoin="round" stroke-miterlimit="10" fill="none" fill-rule="evenodd"/><path d="M3234.2 1108.09 3583.47 1108.09" stroke="#BCCEE7" stroke-width="4.58333" stroke-linejoin="round" stroke-miterlimit="10" fill="none" fill-rule="evenodd"/><path d="M2468.58 1177.32 2540.27 1177.32" stroke="#BCCEE7" stroke-width="4.58333" stroke-linejoin="round" stroke-miterlimit="10" fill="none" fill-rule="evenodd"/><path d="M2540.27 1177.32 2748.45 1177.32" stroke="#BCCEE7" stroke-width="4.58333" stroke-linejoin="round" stroke-miterlimit="10" fill="none" fill-rule="evenodd"/><path d="M2748.45 1177.32 3234.2 1177.32" stroke="#BCCEE7" stroke-width="4.58333" stroke-linejoin="round" stroke-miterlimit="10" fill="none" fill-rule="evenodd"/><path d="M3234.2 1177.32 3583.47 1177.32" stroke="#BCCEE7" stroke-width="4.58333" stroke-linejoin="round" stroke-miterlimit="10" fill="none" fill-rule="evenodd"/><path d="M2468.58 1246.56 2609.66 1246.56" stroke="#BCCEE7" stroke-width="4.58333" stroke-linejoin="round" stroke-miterlimit="10" fill="none" fill-rule="evenodd"/><path d="M2609.66 1246.56 2748.45 1246.56" stroke="#BCCEE7" stroke-width="4.58333" stroke-linejoin="round" stroke-miterlimit="10" fill="none" fill-rule="evenodd"/><path d="M2748.45 1246.56 3234.2 1246.56" stroke="#BCCEE7" stroke-width="4.58333" stroke-linejoin="round" stroke-miterlimit="10" fill="none" fill-rule="evenodd"/><path d="M3234.2 1246.56 3583.47 1246.56" stroke="#BCCEE7" stroke-width="4.58333" stroke-linejoin="round" stroke-miterlimit="10" fill="none" fill-rule="evenodd"/><path d="M2468.58 1315.8 3234.2 1315.8" stroke="#BCCEE7" stroke-width="4.58333" stroke-linejoin="round" stroke-miterlimit="10" fill="none" fill-rule="evenodd"/><path d="M3234.2 1315.8 3583.47 1315.8" stroke="#BCCEE7" stroke-width="4.58333" stroke-linejoin="round" stroke-miterlimit="10" fill="none" fill-rule="evenodd"/><path d="M2468.58 1385.03 3234.2 1385.03" stroke="#BCCEE7" stroke-width="4.58333" stroke-linejoin="round" stroke-miterlimit="10" fill="none" fill-rule="evenodd"/><path d="M3234.2 1385.03 3583.47 1385.03" stroke="#BCCEE7" stroke-width="4.58333" stroke-linejoin="round" stroke-miterlimit="10" fill="none" fill-rule="evenodd"/><path d="M2468.58 1454.27 3234.2 1454.27" stroke="#BCCEE7" stroke-width="4.58333" stroke-linejoin="round" stroke-miterlimit="10" fill="none" fill-rule="evenodd"/><path d="M3234.2 1454.27 3583.47 1454.27" stroke="#BCCEE7" stroke-width="4.58333" stroke-linejoin="round" stroke-miterlimit="10" fill="none" fill-rule="evenodd"/><path d="M2468.58 1523.51 3234.2 1523.51" stroke="#BCCEE7" stroke-width="4.58333" stroke-linejoin="round" stroke-miterlimit="10" fill="none" fill-rule="evenodd"/><path d="M3234.2 1523.51 3583.47 1523.51" stroke="#BCCEE7" stroke-width="4.58333" stroke-linejoin="round" stroke-miterlimit="10" fill="none" fill-rule="evenodd"/><path d="M2470.87 482.672 2470.87 1595.03" stroke="#BCCEE7" stroke-width="4.58333" stroke-linejoin="round" stroke-miterlimit="10" fill="none" fill-rule="evenodd"/><path d="M3581.17 482.672 3581.17 1595.03" stroke="#BCCEE7" stroke-width="4.58333" stroke-linejoin="round" stroke-miterlimit="10" fill="none" fill-rule="evenodd"/><path d="M2468.58 484.963 3583.47 484.963" stroke="#BCCEE7" stroke-width="4.58333" stroke-linejoin="round" stroke-miterlimit="10" fill="none" fill-rule="evenodd"/><path d="M2468.58 1592.74 3583.47 1592.74" stroke="#BCCEE7" stroke-width="4.58333" stroke-linejoin="round" stroke-miterlimit="10" fill="none" fill-rule="evenodd"/><rect x="2471.5" y="486.5" width="1110" height="1108" stroke="#9DACBF" stroke-width="3.4375" stroke-miterlimit="8" fill="none"/><path d="M3096.5 761.5 3582.04 761.5" stroke="#607796" stroke-width="6.875" stroke-miterlimit="8" stroke-dasharray="27.5 20.625" fill="none" fill-rule="evenodd"/><path d="M0 0 0.000360892 139.741" stroke="#607796" stroke-width="6.875" stroke-miterlimit="8" stroke-dasharray="27.5 20.625" fill="none" fill-rule="evenodd" transform="matrix(1 0 0 -1 2887.5 626.241)"/><path d="M0 0 0.000360892 70.0384" stroke="#607796" stroke-width="6.875" stroke-miterlimit="8" stroke-dasharray="27.5 20.625" fill="none" fill-rule="evenodd" transform="matrix(1 0 0 -1 3096.5 761.539)"/><path d="M0 0 139.213 0.000360892" stroke="#607796" stroke-width="6.875" stroke-miterlimit="8" stroke-dasharray="27.5 20.625" fill="none" fill-rule="evenodd" transform="matrix(-1 0 0 1 3026.71 626.5)"/><path d="M0 0 0.000360892 70.1228" stroke="#607796" stroke-width="6.875" stroke-miterlimit="8" stroke-dasharray="27.5 20.625" fill="none" fill-rule="evenodd" transform="matrix(1 0 0 -1 3026.5 696.623)"/><path d="M0 0 69.6147 0.429823" stroke="#607796" stroke-width="6.875" stroke-miterlimit="8" stroke-dasharray="27.5 20.625" fill="none" fill-rule="evenodd" transform="matrix(-1 0 0 1 3096.11 691.5)"/><path d="M2817.5 1524.5 2817.5 1594.42" stroke="#607796" stroke-width="6.875" stroke-miterlimit="8" stroke-dasharray="27.5 20.625" fill="none" fill-rule="evenodd"/><path d="M2471.5 1524.5 2817.54 1524.5" stroke="#607796" stroke-width="6.875" stroke-miterlimit="8" stroke-dasharray="27.5 20.625" fill="none" fill-rule="evenodd"/><path d="M0 0 0.000360892 281.019" stroke="#607796" stroke-width="6.875" stroke-miterlimit="8" stroke-dasharray="27.5 20.625" fill="none" fill-rule="evenodd" transform="matrix(1 0 0 -1 3513.5 1594.52)"/><path d="M0 0 69.6147 0.429823" stroke="#607796" stroke-width="6.875" stroke-miterlimit="8" stroke-dasharray="27.5 20.625" fill="none" fill-rule="evenodd" transform="matrix(-1 0 0 1 3582.11 1317.5)"/><path d="M3660.08 673.493 3728.33 673.493 3728.33 741.647 3660.08 741.647Z" fill="#EDEFF3" fill-rule="evenodd"/><path d="M3660.08 671.202 3660.08 743.939" stroke="#BCCEE7" stroke-width="4.58333" stroke-linejoin="round" stroke-miterlimit="10" fill="none" fill-rule="evenodd"/><path d="M3728.33 671.202 3728.33 743.939" stroke="#BCCEE7" stroke-width="4.58333" stroke-linejoin="round" stroke-miterlimit="10" fill="none" fill-rule="evenodd"/><path d="M3657.79 673.493 3730.62 673.493" stroke="#BCCEE7" stroke-width="4.58333" stroke-linejoin="round" stroke-miterlimit="10" fill="none" fill-rule="evenodd"/><path d="M3657.79 741.647 3730.62 741.647" stroke="#BCCEE7" stroke-width="4.58333" stroke-linejoin="round" stroke-miterlimit="10" fill="none" fill-rule="evenodd"/><path d="M3660.08 829.284 3728.33 829.284 3728.33 897.438 3660.08 897.438Z" fill="#D1D8E1" fill-rule="evenodd"/><path d="M3660.08 826.992 3660.08 899.729" stroke="#BCCEE7" stroke-width="4.58333" stroke-linejoin="round" stroke-miterlimit="10" fill="none" fill-rule="evenodd"/><path d="M3728.33 826.992 3728.33 899.729" stroke="#BCCEE7" stroke-width="4.58333" stroke-linejoin="round" stroke-miterlimit="10" fill="none" fill-rule="evenodd"/><path d="M3657.79 829.284 3730.62 829.284" stroke="#BCCEE7" stroke-width="4.58333" stroke-linejoin="round" stroke-miterlimit="10" fill="none" fill-rule="evenodd"/><path d="M3657.79 897.438 3730.62 897.438" stroke="#BCCEE7" stroke-width="4.58333" stroke-linejoin="round" stroke-miterlimit="10" fill="none" fill-rule="evenodd"/><path d="M3660.08 517.634 3728.33 517.634 3728.33 585.788 3660.08 585.788Z" fill="#607796" fill-rule="evenodd"/><path d="M3660.08 515.343 3660.08 588.08" stroke="#BCCEE7" stroke-width="4.58333" stroke-linejoin="round" stroke-miterlimit="10" fill="none" fill-rule="evenodd"/><path d="M3728.33 515.343 3728.33 588.08" stroke="#BCCEE7" stroke-width="4.58333" stroke-linejoin="round" stroke-miterlimit="10" fill="none" fill-rule="evenodd"/><path d="M3657.79 517.634 3730.62 517.634" stroke="#BCCEE7" stroke-width="4.58333" stroke-linejoin="round" stroke-miterlimit="10" fill="none" fill-rule="evenodd"/><path d="M3657.79 585.788 3730.62 585.788" stroke="#BCCEE7" stroke-width="4.58333" stroke-linejoin="round" stroke-miterlimit="10" fill="none" fill-rule="evenodd"/><text font-family="SimSun,SimSun_MSFontService,sans-serif" font-weight="400" font-size="64" transform="matrix(1 0 0 1 3801.26 573)">出入口</text><rect x="3628.5" y="491.5" width="459" height="591" stroke="#9DACBF" stroke-width="4.58333" stroke-miterlimit="8" fill="none"/><text font-family="SimSun,SimSun_MSFontService,sans-serif" font-weight="400" font-size="64" transform="matrix(1 0 0 1 3801.26 727)">边界<tspan font-size="64" x="0" y="158">障碍</tspan></text><path d="M2471.5 484.5 2887.43 484.5" stroke="#607796" stroke-width="6.875" stroke-miterlimit="8" stroke-dasharray="27.5 20.625" fill="none" fill-rule="evenodd"/><path d="M2471.5 486.5 2471.5 1524.93" stroke="#607796" stroke-width="6.875" stroke-miterlimit="8" stroke-dasharray="27.5 20.625" fill="none" fill-rule="evenodd"/><path d="M2817.5 1594.5 3512.14 1594.5" stroke="#607796" stroke-width="6.875" stroke-miterlimit="8" stroke-dasharray="27.5 20.625" fill="none" fill-rule="evenodd"/><path d="M3581.5 761.5 3581.5 1316.73" stroke="#607796" stroke-width="6.875" stroke-miterlimit="8" stroke-dasharray="27.5 20.625" fill="none" fill-rule="evenodd"/><path d="M0 0 69.6147 0.429823" stroke="#607796" stroke-width="6.875" stroke-miterlimit="8" stroke-dasharray="27.5 20.625" fill="none" fill-rule="evenodd" transform="matrix(-1 0 0 1 3730.11 1021.5)"/><text font-family="SimSun,SimSun_MSFontService,sans-serif" font-weight="400" font-size="64" transform="matrix(1 0 0 1 3801.26 1042)">地库轮廓</text></g></svg>