<svg width="985" height="398" xmlns="http://www.w3.org/2000/svg" xmlns:xlink="http://www.w3.org/1999/xlink" overflow="hidden"><defs><clipPath id="clip0"><rect x="1949" y="441" width="985" height="398"/></clipPath></defs><g clip-path="url(#clip0)" transform="translate(-1949 -441)"><rect x="2141" y="457" width="187" height="187" fill="#607796"/><rect x="2141" y="644" width="187" height="187" fill="#607796"/><path d="M0 0 0.141831 374.105" stroke="#FFFFFF" stroke-width="13.75" stroke-miterlimit="8" stroke-dasharray="55 41.25" fill="none" fill-rule="evenodd" transform="matrix(-1 0 0 1 2234.14 457)"/><rect x="2331.5" y="452.5" width="187" height="211" stroke="#607796" stroke-width="6.875" stroke-miterlimit="8" stroke-dasharray="27.5 20.625" fill="none"/><text font-family="Microsoft YaHei,Microsoft YaHei_MSFontService,sans-serif" font-weight="400" font-size="46" transform="matrix(1 0 0 1 2355.94 547)">待铺设<tspan font-size="46" x="22.9167" y="55">区域</tspan></text><path d="M2267.75 598 2267.75 557.5 2254 557.5 2281.5 530 2309 557.5 2295.25 557.5 2295.25 598Z" stroke="#548235" stroke-width="2.29167" stroke-miterlimit="8" fill="#C5E0B4" fill-rule="evenodd"/><rect x="1955.5" y="452.5" width="187" height="210" stroke="#607796" stroke-width="6.875" stroke-miterlimit="8" stroke-dasharray="27.5 20.625" fill="none"/><text font-family="Microsoft YaHei,Microsoft YaHei_MSFontService,sans-serif" font-weight="400" font-size="46" transform="matrix(1 0 0 1 1979.78 546)">待铺设<tspan font-size="46" x="22.9167" y="55">区域</tspan></text><rect x="2131.5" y="820.5" width="6.99976" height="7.99988" stroke="#607796" stroke-width="4.58333" stroke-miterlimit="8" fill="#9DACBF"/><rect x="1952.5" y="662.5" width="187" height="78.0001" stroke="#607796" stroke-width="6.875" stroke-miterlimit="8" fill="none"/><path d="M2139.09 739.953 1952 662" stroke="#607796" stroke-width="2.29167" stroke-miterlimit="8" fill="none" fill-rule="evenodd"/><path d="M0 0 187.087 77.9528" stroke="#607796" stroke-width="2.29167" stroke-miterlimit="8" fill="none" fill-rule="evenodd" transform="matrix(-1 1.22465e-16 1.22465e-16 1 2139.09 662)"/><path d="M2139.09 818.953 1952 741" stroke="#607796" stroke-width="2.29167" stroke-miterlimit="8" fill="none" fill-rule="evenodd"/><path d="M0 0 187.087 77.9528" stroke="#607796" stroke-width="2.29167" stroke-miterlimit="8" fill="none" fill-rule="evenodd" transform="matrix(-1 1.22465e-16 1.22465e-16 1 2139.09 741)"/><rect x="1952.5" y="741.5" width="187" height="78" stroke="#607796" stroke-width="6.875" stroke-miterlimit="8" fill="none"/><rect x="2330.5" y="663.5" width="187" height="78.0001" stroke="#607796" stroke-width="6.875" stroke-miterlimit="8" fill="none"/><path d="M2517.09 740.953 2330 663" stroke="#607796" stroke-width="2.29167" stroke-miterlimit="8" fill="none" fill-rule="evenodd"/><path d="M0 0 187.087 77.9528" stroke="#607796" stroke-width="2.29167" stroke-miterlimit="8" fill="none" fill-rule="evenodd" transform="matrix(-1 1.22465e-16 1.22465e-16 1 2517.09 663)"/><path d="M2517.09 819.953 2330 742" stroke="#607796" stroke-width="2.29167" stroke-miterlimit="8" fill="none" fill-rule="evenodd"/><path d="M0 0 187.087 77.9528" stroke="#607796" stroke-width="2.29167" stroke-miterlimit="8" fill="none" fill-rule="evenodd" transform="matrix(-1 1.22465e-16 1.22465e-16 1 2517.09 742)"/><rect x="2330.5" y="742.5" width="187" height="78.0001" stroke="#607796" stroke-width="6.875" stroke-miterlimit="8" fill="none"/><rect x="2330.5" y="820.5" width="6.99976" height="7.99988" stroke="#607796" stroke-width="4.58333" stroke-miterlimit="8" fill="#9DACBF"/><path d="M2608.5 499.5 2670.88 499.5" stroke="#C5E0B4" stroke-width="6.875" stroke-miterlimit="8" stroke-dasharray="27.5 20.625" fill="none" fill-rule="evenodd"/><text font-family="Microsoft YaHei,Microsoft YaHei_MSFontService,sans-serif" font-weight="400" font-size="37" transform="matrix(1 0 0 1 2691.16 487)">当前道路两侧<tspan font-size="37" x="18.3333" y="44">基础排布点</tspan></text><path d="M2298.5 662.5 2569.51 662.5" stroke="#C5E0B4" stroke-width="6.875" stroke-miterlimit="8" stroke-dasharray="27.5 20.625" fill="none" fill-rule="evenodd"/></g></svg>