<svg width="1093" height="574" xmlns="http://www.w3.org/2000/svg" xmlns:xlink="http://www.w3.org/1999/xlink" overflow="hidden"><defs><clipPath id="clip0"><rect x="1208" y="1332" width="1093" height="574"/></clipPath></defs><g clip-path="url(#clip0)" transform="translate(-1208 -1332)"><rect x="1427.5" y="1887.5" width="6.99988" height="7.99988" stroke="#607796" stroke-width="4.58333" stroke-miterlimit="8" fill="#9DACBF"/><rect x="1437" y="1524" width="187" height="187" fill="#607796"/><rect x="1437" y="1711" width="187" height="187" fill="#607796"/><path d="M0 0 0.141831 187.019" stroke="#FFFFFF" stroke-width="13.75" stroke-miterlimit="8" stroke-dasharray="55 41.25" fill="none" fill-rule="evenodd" transform="matrix(-1 0 0 1 1530.14 1711)"/><rect x="1627.5" y="1526.5" width="187" height="203" stroke="#607796" stroke-width="6.875" stroke-miterlimit="8" stroke-dasharray="27.5 20.625" fill="none"/><text font-family="Microsoft YaHei,Microsoft YaHei_MSFontService,sans-serif" font-weight="400" font-size="46" transform="matrix(1 0 0 1 1651.99 1617)">待铺设<tspan font-size="46" x="22.9166" y="55">区域</tspan></text><rect x="1248.5" y="1729.5" width="187" height="78" stroke="#607796" stroke-width="6.875" stroke-miterlimit="8" fill="none"/><path d="M1435.09 1806.95 1248 1729" stroke="#607796" stroke-width="2.29167" stroke-miterlimit="8" fill="none" fill-rule="evenodd"/><path d="M0 0 187.087 77.9528" stroke="#607796" stroke-width="2.29167" stroke-miterlimit="8" fill="none" fill-rule="evenodd" transform="matrix(-1 1.22465e-16 1.22465e-16 1 1435.09 1729)"/><path d="M1435.09 1885.95 1248 1808" stroke="#607796" stroke-width="2.29167" stroke-miterlimit="8" fill="none" fill-rule="evenodd"/><path d="M0 0 187.087 77.9528" stroke="#607796" stroke-width="2.29167" stroke-miterlimit="8" fill="none" fill-rule="evenodd" transform="matrix(-1 1.22465e-16 1.22465e-16 1 1435.09 1808)"/><rect x="1248.5" y="1808.5" width="187" height="78" stroke="#607796" stroke-width="6.875" stroke-miterlimit="8" fill="none"/><rect x="1441.5" y="1335.5" width="187" height="188" stroke="#607796" stroke-width="6.875" stroke-miterlimit="8" stroke-dasharray="27.5 20.625" fill="none"/><text font-family="Microsoft YaHei,Microsoft YaHei_MSFontService,sans-serif" font-weight="400" font-size="46" transform="matrix(1 0 0 1 1465.39 1418)">待铺设<tspan font-size="46" x="22.9167" y="55">区域</tspan></text><path d="M1437 1617 1531.53 1617 1531.53 1615.15 1530.69 1615.15 1530.69 1710.54" stroke="#FFFFFF" stroke-width="13.75" stroke-miterlimit="8" stroke-dasharray="55 41.25" fill="none" fill-rule="evenodd"/><rect x="1626.5" y="1730.5" width="187" height="78" stroke="#607796" stroke-width="6.875" stroke-miterlimit="8" fill="none"/><path d="M1813.09 1807.95 1626 1730" stroke="#607796" stroke-width="2.29167" stroke-miterlimit="8" fill="none" fill-rule="evenodd"/><path d="M0 0 187.087 77.9528" stroke="#607796" stroke-width="2.29167" stroke-miterlimit="8" fill="none" fill-rule="evenodd" transform="matrix(-1 1.22465e-16 1.22465e-16 1 1813.09 1730)"/><path d="M1813.09 1886.95 1626 1809" stroke="#607796" stroke-width="2.29167" stroke-miterlimit="8" fill="none" fill-rule="evenodd"/><path d="M0 0 187.087 77.9528" stroke="#607796" stroke-width="2.29167" stroke-miterlimit="8" fill="none" fill-rule="evenodd" transform="matrix(-1 1.22465e-16 1.22465e-16 1 1813.09 1809)"/><rect x="1626.5" y="1809.5" width="187" height="78" stroke="#607796" stroke-width="6.875" stroke-miterlimit="8" fill="none"/><rect x="1626.5" y="1887.5" width="7.99988" height="7.99988" stroke="#607796" stroke-width="4.58333" stroke-miterlimit="8" fill="#9DACBF"/><rect x="1427.5" y="1719.5" width="6.99988" height="7.00024" stroke="#607796" stroke-width="4.58333" stroke-miterlimit="8" fill="#9DACBF"/><path d="M0 104 0 58.4999C-1.34952e-14 33.371 20.371 13.0001 45.4998 13.0001L80 12.9999 80 0 106 26 80 51.9999 80 39 45.4998 39C34.7303 39 25.9999 47.7304 25.9999 58.4999L26 104Z" stroke="#548235" stroke-width="2.29167" stroke-miterlimit="8" fill="#C5E0B4" fill-rule="evenodd" transform="matrix(-1 0 0 1 1603 1544)"/><path d="M1976.5 1556.5 2038.88 1556.5" stroke="#C5E0B4" stroke-width="6.875" stroke-miterlimit="8" stroke-dasharray="27.5 20.625" fill="none" fill-rule="evenodd"/><text font-family="Microsoft YaHei,Microsoft YaHei_MSFontService,sans-serif" font-weight="400" font-size="37" transform="matrix(1 0 0 1 2058.96 1544)">当前道路两侧<tspan font-size="37" x="18.3335" y="44">基础排布点</tspan></text><path d="M1208.5 1729.5 1479.51 1729.5" stroke="#C5E0B4" stroke-width="6.875" stroke-miterlimit="8" stroke-dasharray="27.5 20.625" fill="none" fill-rule="evenodd"/><path d="M1584.5 1729.5 1855.51 1729.5" stroke="#C5E0B4" stroke-width="6.875" stroke-miterlimit="8" stroke-dasharray="27.5 20.625" fill="none" fill-rule="evenodd"/></g></svg>