<svg width="1038" height="397" xmlns="http://www.w3.org/2000/svg" xmlns:xlink="http://www.w3.org/1999/xlink" overflow="hidden"><defs><clipPath id="clip0"><rect x="3188" y="442" width="1038" height="397"/></clipPath></defs><g clip-path="url(#clip0)" transform="translate(-3188 -442)"><rect x="3425" y="457" width="187" height="187" fill="#607796"/><rect x="3425" y="644" width="187" height="187" fill="#607796"/><path d="M0 0 0.141831 374.105" stroke="#FFFFFF" stroke-width="13.75" stroke-miterlimit="8" stroke-dasharray="55 41.25" fill="none" fill-rule="evenodd" transform="matrix(-1 0 0 1 3518.14 457)"/><rect x="3613.5" y="452.5" width="192" height="211" stroke="#607796" stroke-width="6.875" stroke-miterlimit="8" stroke-dasharray="27.5 20.625" fill="none"/><path d="M3551.75 598 3551.75 557.5 3538 557.5 3565.5 530 3593 557.5 3579.25 557.5 3579.25 598Z" stroke="#548235" stroke-width="2.29167" stroke-miterlimit="8" fill="#C5E0B4" fill-rule="evenodd"/><rect x="3232.5" y="454.5" width="192" height="210" stroke="#607796" stroke-width="6.875" stroke-miterlimit="8" stroke-dasharray="27.5 20.625" fill="none"/><rect x="3415.5" y="820.5" width="6.99976" height="7.99988" stroke="#607796" stroke-width="4.58333" stroke-miterlimit="8" fill="#9DACBF"/><rect x="3236.5" y="662.5" width="187" height="78.0001" stroke="#607796" stroke-width="6.875" stroke-miterlimit="8" fill="none"/><path d="M3423.09 739.953 3236 662" stroke="#607796" stroke-width="2.29167" stroke-miterlimit="8" fill="none" fill-rule="evenodd"/><path d="M0 0 187.087 77.9528" stroke="#607796" stroke-width="2.29167" stroke-miterlimit="8" fill="none" fill-rule="evenodd" transform="matrix(-1 1.22465e-16 1.22465e-16 1 3423.09 662)"/><path d="M3423.09 818.953 3236 741" stroke="#607796" stroke-width="2.29167" stroke-miterlimit="8" fill="none" fill-rule="evenodd"/><path d="M0 0 187.087 77.9528" stroke="#607796" stroke-width="2.29167" stroke-miterlimit="8" fill="none" fill-rule="evenodd" transform="matrix(-1 1.22465e-16 1.22465e-16 1 3423.09 741)"/><rect x="3236.5" y="741.5" width="187" height="78" stroke="#607796" stroke-width="6.875" stroke-miterlimit="8" fill="none"/><rect x="3614.5" y="663.5" width="187" height="78.0001" stroke="#607796" stroke-width="6.875" stroke-miterlimit="8" fill="none"/><path d="M3801.09 740.953 3614 663" stroke="#607796" stroke-width="2.29167" stroke-miterlimit="8" fill="none" fill-rule="evenodd"/><path d="M0 0 187.087 77.9528" stroke="#607796" stroke-width="2.29167" stroke-miterlimit="8" fill="none" fill-rule="evenodd" transform="matrix(-1 1.22465e-16 1.22465e-16 1 3801.09 663)"/><path d="M3801.09 819.953 3614 742" stroke="#607796" stroke-width="2.29167" stroke-miterlimit="8" fill="none" fill-rule="evenodd"/><path d="M0 0 187.087 77.9528" stroke="#607796" stroke-width="2.29167" stroke-miterlimit="8" fill="none" fill-rule="evenodd" transform="matrix(-1 1.22465e-16 1.22465e-16 1 3801.09 742)"/><rect x="3614.5" y="742.5" width="187" height="78.0001" stroke="#607796" stroke-width="6.875" stroke-miterlimit="8" fill="none"/><rect x="3614.5" y="821.5" width="8" height="7.99988" stroke="#607796" stroke-width="4.58333" stroke-miterlimit="8" fill="#9DACBF"/><rect x="3614.5" y="585.5" width="187" height="78.0001" stroke="#607796" stroke-width="6.875" stroke-miterlimit="8" fill="none"/><path d="M3801.09 662.953 3614 585" stroke="#607796" stroke-width="2.29167" stroke-miterlimit="8" fill="none" fill-rule="evenodd"/><path d="M0 0 187.087 77.9528" stroke="#607796" stroke-width="2.29167" stroke-miterlimit="8" fill="none" fill-rule="evenodd" transform="matrix(-1 1.22465e-16 1.22465e-16 1 3801.09 585)"/><rect x="3614.5" y="575.5" width="8" height="7.99988" stroke="#607796" stroke-width="4.58333" stroke-miterlimit="8" fill="#9DACBF"/><path d="M3801.09 573.953 3614 496" stroke="#607796" stroke-width="2.29167" stroke-miterlimit="8" fill="none" fill-rule="evenodd"/><path d="M0 0 187.087 77.9528" stroke="#607796" stroke-width="2.29167" stroke-miterlimit="8" fill="none" fill-rule="evenodd" transform="matrix(-1 1.22465e-16 1.22465e-16 1 3801.09 496)"/><rect x="3614.5" y="496.5" width="187" height="78" stroke="#607796" stroke-width="6.875" stroke-miterlimit="8" fill="none"/><rect x="3235.5" y="585.5" width="188" height="78.0001" stroke="#607796" stroke-width="6.875" stroke-miterlimit="8" fill="none"/><path d="M3422.09 662.953 3235 585" stroke="#607796" stroke-width="2.29167" stroke-miterlimit="8" fill="none" fill-rule="evenodd"/><path d="M0 0 187.087 77.9528" stroke="#607796" stroke-width="2.29167" stroke-miterlimit="8" fill="none" fill-rule="evenodd" transform="matrix(-1 1.22465e-16 1.22465e-16 1 3422.09 585)"/><rect x="3413.5" y="575.5" width="8" height="7.99988" stroke="#607796" stroke-width="4.58333" stroke-miterlimit="8" fill="#9DACBF"/><path d="M3422.09 573.953 3235 496" stroke="#607796" stroke-width="2.29167" stroke-miterlimit="8" fill="none" fill-rule="evenodd"/><path d="M0 0 187.087 77.9528" stroke="#607796" stroke-width="2.29167" stroke-miterlimit="8" fill="none" fill-rule="evenodd" transform="matrix(-1 1.22465e-16 1.22465e-16 1 3422.09 496)"/><rect x="3235.5" y="496.5" width="188" height="78" stroke="#607796" stroke-width="6.875" stroke-miterlimit="8" fill="none"/><path d="M3900.5 500.5 3962.88 500.5" stroke="#C5E0B4" stroke-width="6.875" stroke-miterlimit="8" stroke-dasharray="27.5 20.625" fill="none" fill-rule="evenodd"/><text font-family="Microsoft YaHei,Microsoft YaHei_MSFontService,sans-serif" font-weight="400" font-size="37" transform="matrix(1 0 0 1 3983.17 488)">当前道路两侧<tspan font-size="37" x="18.3335" y="44">基础排布点</tspan></text><path d="M3188.5 497.5 3459.51 497.5" stroke="#C5E0B4" stroke-width="6.875" stroke-miterlimit="8" stroke-dasharray="27.5 20.625" fill="none" fill-rule="evenodd"/><path d="M3570.5 497.5 3841.51 497.5" stroke="#C5E0B4" stroke-width="6.875" stroke-miterlimit="8" stroke-dasharray="27.5 20.625" fill="none" fill-rule="evenodd"/></g></svg>