<svg width="1182" height="574" xmlns="http://www.w3.org/2000/svg" xmlns:xlink="http://www.w3.org/1999/xlink" overflow="hidden"><defs><clipPath id="clip0"><rect x="124" y="1436" width="1182" height="574"/></clipPath></defs><g clip-path="url(#clip0)" transform="translate(-124 -1436)"><rect x="431.5" y="1991.5" width="8.00027" height="8.00024" stroke="#607796" stroke-width="4.58333" stroke-miterlimit="8" fill="#9DACBF"/><rect x="441" y="1628" width="187" height="187" fill="#607796"/><rect x="441" y="1815" width="187" height="187" fill="#607796"/><path d="M0 0 0.141831 187.019" stroke="#FFFFFF" stroke-width="13.75" stroke-miterlimit="8" stroke-dasharray="55 41.25" fill="none" fill-rule="evenodd" transform="matrix(-1 0 0 1 535.142 1815)"/><rect x="631.5" y="1630.5" width="188" height="203" stroke="#607796" stroke-width="6.875" stroke-miterlimit="8" stroke-dasharray="27.5 20.625" fill="none"/><text font-family="Microsoft YaHei,Microsoft YaHei_MSFontService,sans-serif" font-weight="400" font-size="46" transform="matrix(1 0 0 1 656.252 1721)">待铺设<tspan font-size="46" x="22.9167" y="55">区域</tspan></text><rect x="252.5" y="1833.5" width="187" height="78" stroke="#607796" stroke-width="6.875" stroke-miterlimit="8" fill="none"/><path d="M439.087 1910.95 252 1833" stroke="#607796" stroke-width="2.29167" stroke-miterlimit="8" fill="none" fill-rule="evenodd"/><path d="M0 0 187.087 77.9528" stroke="#607796" stroke-width="2.29167" stroke-miterlimit="8" fill="none" fill-rule="evenodd" transform="matrix(-1 1.22465e-16 1.22465e-16 1 439.087 1833)"/><path d="M439.087 1989.95 252 1912" stroke="#607796" stroke-width="2.29167" stroke-miterlimit="8" fill="none" fill-rule="evenodd"/><path d="M0 0 187.087 77.9528" stroke="#607796" stroke-width="2.29167" stroke-miterlimit="8" fill="none" fill-rule="evenodd" transform="matrix(-1 1.22465e-16 1.22465e-16 1 439.087 1912)"/><rect x="252.5" y="1912.5" width="187" height="78" stroke="#607796" stroke-width="6.875" stroke-miterlimit="8" fill="none"/><rect x="445.5" y="1439.5" width="187" height="188" stroke="#607796" stroke-width="6.875" stroke-miterlimit="8" stroke-dasharray="27.5 20.625" fill="none"/><text font-family="Microsoft YaHei,Microsoft YaHei_MSFontService,sans-serif" font-weight="400" font-size="46" transform="matrix(1 0 0 1 469.656 1522)">待铺设<tspan font-size="46" x="22.9167" y="55">区域</tspan></text><path d="M441 1721 535.531 1721 535.531 1719.15 534.685 1719.15 534.685 1814.54" stroke="#FFFFFF" stroke-width="13.75" stroke-miterlimit="8" stroke-dasharray="55 41.25" fill="none" fill-rule="evenodd"/><rect x="630.5" y="1834.5" width="187" height="78" stroke="#607796" stroke-width="6.875" stroke-miterlimit="8" fill="none"/><path d="M817.087 1911.95 630 1834" stroke="#607796" stroke-width="2.29167" stroke-miterlimit="8" fill="none" fill-rule="evenodd"/><path d="M0 0 187.087 77.9528" stroke="#607796" stroke-width="2.29167" stroke-miterlimit="8" fill="none" fill-rule="evenodd" transform="matrix(-1 1.22465e-16 1.22465e-16 1 817.087 1834)"/><path d="M817.087 1990.95 630 1913" stroke="#607796" stroke-width="2.29167" stroke-miterlimit="8" fill="none" fill-rule="evenodd"/><path d="M0 0 187.087 77.9528" stroke="#607796" stroke-width="2.29167" stroke-miterlimit="8" fill="none" fill-rule="evenodd" transform="matrix(-1 1.22465e-16 1.22465e-16 1 817.087 1913)"/><rect x="630.5" y="1913.5" width="187" height="77.9996" stroke="#607796" stroke-width="6.875" stroke-miterlimit="8" fill="none"/><rect x="630.5" y="1991.5" width="7.99988" height="8.00024" stroke="#607796" stroke-width="4.58333" stroke-miterlimit="8" fill="#9DACBF"/><rect x="431.5" y="1823.5" width="8.00027" height="6.99988" stroke="#607796" stroke-width="4.58333" stroke-miterlimit="8" fill="#9DACBF"/><path d="M0 104 0 58.5001C-1.34952e-14 33.3712 20.371 13.0001 45.5 13.0001L80.0003 13 80.0003 0 106 26.0001 80.0003 52.0001 80.0003 39.0001 45.5 39.0001C34.7304 39.0001 26 47.7306 26 58.5001L26.0001 104Z" stroke="#548235" stroke-width="2.29167" stroke-miterlimit="8" fill="#C5E0B4" fill-rule="evenodd" transform="matrix(-1 0 0 1 607 1648)"/><path d="M980.5 1660.5 1042.88 1660.5" stroke="#C5E0B4" stroke-width="6.875" stroke-miterlimit="8" stroke-dasharray="27.5 20.625" fill="none" fill-rule="evenodd"/><text font-family="Microsoft YaHei,Microsoft YaHei_MSFontService,sans-serif" font-weight="400" font-size="37" transform="matrix(1 0 0 1 1063.23 1648)">当前道路两侧<tspan font-size="37" x="18.3334" y="44">基础排布点</tspan></text><path d="M212.5 1833.5 483.511 1833.5" stroke="#C5E0B4" stroke-width="6.875" stroke-miterlimit="8" stroke-dasharray="27.5 20.625" fill="none" fill-rule="evenodd"/><path d="M588.5 1833.5 859.511 1833.5" stroke="#C5E0B4" stroke-width="6.875" stroke-miterlimit="8" stroke-dasharray="27.5 20.625" fill="none" fill-rule="evenodd"/><rect x="129" y="1656" width="260" height="116" stroke="#607796" stroke-width="10.3125" stroke-miterlimit="8" fill="none"/><text fill="#607796" font-family="DengXian,DengXian_MSFontService,sans-serif" font-weight="400" font-size="55" transform="matrix(1 0 0 1 176.73 1732)">障碍物</text></g></svg>