<svg width="573" height="472" xmlns="http://www.w3.org/2000/svg" xmlns:xlink="http://www.w3.org/1999/xlink" overflow="hidden"><defs><clipPath id="clip0"><rect x="2567" y="479" width="573" height="472"/></clipPath></defs><g clip-path="url(#clip0)" transform="translate(-2567 -479)"><rect x="2760" y="569" width="187" height="187" fill="#607796"/><rect x="2760" y="756" width="187" height="187" fill="#607796"/><path d="M0 0 0.141831 374.105" stroke="#FFFFFF" stroke-width="13.75" stroke-miterlimit="8" stroke-dasharray="55 41.25" fill="none" fill-rule="evenodd" transform="matrix(-1 0 0 1 2853.14 569)"/><path d="M2886.5 711 2886.5 669 2873 669 2900 642 2927 669 2913.5 669 2913.5 711Z" stroke="#548235" stroke-width="2.29167" stroke-miterlimit="8" fill="#C5E0B4" fill-rule="evenodd"/><rect x="2749.5" y="932.5" width="8" height="7.99988" stroke="#607796" stroke-width="4.58333" stroke-miterlimit="8" fill="#9DACBF"/><rect x="2571.5" y="775.5" width="187" height="78.0001" stroke="#607796" stroke-width="6.875" stroke-miterlimit="8" fill="none"/><path d="M2758.09 852.953 2571 775" stroke="#607796" stroke-width="2.29167" stroke-miterlimit="8" fill="none" fill-rule="evenodd"/><path d="M0 0 187.087 77.9528" stroke="#607796" stroke-width="2.29167" stroke-miterlimit="8" fill="none" fill-rule="evenodd" transform="matrix(-1 1.22465e-16 1.22465e-16 1 2758.09 775)"/><path d="M2758.09 931.953 2571 854" stroke="#607796" stroke-width="2.29167" stroke-miterlimit="8" fill="none" fill-rule="evenodd"/><path d="M0 0 187.087 77.9528" stroke="#607796" stroke-width="2.29167" stroke-miterlimit="8" fill="none" fill-rule="evenodd" transform="matrix(-1 1.22465e-16 1.22465e-16 1 2758.09 854)"/><rect x="2571.5" y="854.5" width="187" height="78" stroke="#607796" stroke-width="6.875" stroke-miterlimit="8" fill="none"/><rect x="2948.5" y="776.5" width="188" height="78.0001" stroke="#607796" stroke-width="6.875" stroke-miterlimit="8" fill="none"/><path d="M3135.09 853.953 2948 776" stroke="#607796" stroke-width="2.29167" stroke-miterlimit="8" fill="none" fill-rule="evenodd"/><path d="M0 0 187.087 77.9528" stroke="#607796" stroke-width="2.29167" stroke-miterlimit="8" fill="none" fill-rule="evenodd" transform="matrix(-1 1.22465e-16 1.22465e-16 1 3135.09 776)"/><path d="M3135.09 932.953 2948 855" stroke="#607796" stroke-width="2.29167" stroke-miterlimit="8" fill="none" fill-rule="evenodd"/><path d="M0 0 187.087 77.9528" stroke="#607796" stroke-width="2.29167" stroke-miterlimit="8" fill="none" fill-rule="evenodd" transform="matrix(-1 1.22465e-16 1.22465e-16 1 3135.09 855)"/><rect x="2948.5" y="855.5" width="188" height="78" stroke="#607796" stroke-width="6.875" stroke-miterlimit="8" fill="none"/><rect x="2948.5" y="933.5" width="8.00024" height="7.99988" stroke="#607796" stroke-width="4.58333" stroke-miterlimit="8" fill="#9DACBF"/><rect x="2948.5" y="698.5" width="188" height="78.0001" stroke="#607796" stroke-width="6.875" stroke-miterlimit="8" fill="none"/><path d="M3135.09 775.953 2948 698" stroke="#607796" stroke-width="2.29167" stroke-miterlimit="8" fill="none" fill-rule="evenodd"/><path d="M0 0 187.087 77.9528" stroke="#607796" stroke-width="2.29167" stroke-miterlimit="8" fill="none" fill-rule="evenodd" transform="matrix(-1 1.22465e-16 1.22465e-16 1 3135.09 698)"/><rect x="2570.5" y="698.5" width="187" height="78.0001" stroke="#607796" stroke-width="6.875" stroke-miterlimit="8" fill="none"/><path d="M2757.09 775.953 2570 698" stroke="#607796" stroke-width="2.29167" stroke-miterlimit="8" fill="none" fill-rule="evenodd"/><path d="M0 0 187.087 77.9528" stroke="#607796" stroke-width="2.29167" stroke-miterlimit="8" fill="none" fill-rule="evenodd" transform="matrix(-1 1.22465e-16 1.22465e-16 1 2757.09 698)"/><rect x="2749.5" y="688.5" width="8" height="7.99988" stroke="#607796" stroke-width="4.58333" stroke-miterlimit="8" fill="#9DACBF"/><rect x="2948.5" y="689.5" width="8.00024" height="7.99988" stroke="#607796" stroke-width="4.58333" stroke-miterlimit="8" fill="#9DACBF"/><rect x="2945.5" y="682.5" width="16.9998" height="20.0003" stroke="#C5E0B4" stroke-width="3.4375" stroke-miterlimit="8" fill="none"/><rect x="2745.5" y="683.5" width="16.9998" height="19.0002" stroke="#C5E0B4" stroke-width="3.4375" stroke-miterlimit="8" fill="none"/><rect x="2721.5" y="484.5" width="269" height="73.0002" stroke="#C5E0B4" stroke-width="3.4375" stroke-miterlimit="8" fill="none"/><text font-family="Microsoft YaHei,Microsoft YaHei_MSFontService,sans-serif" font-weight="400" font-size="28" transform="matrix(1 0 0 1 2745.56 514)">满足最少柱网放置<tspan font-size="28" x="13.75" y="33">要求铺设的柱子</tspan></text><path d="M0-1.71875 111.868-1.71875 111.868 173.183 50.5657 173.183 50.5657 169.746 110.149 169.746 108.43 171.464 108.43 0 110.149 1.71875 0 1.71875ZM55.149 185.214 27.649 171.464 55.149 157.714Z" fill="#C5E0B4" transform="matrix(1 0 0 -1 2962.5 692.964)"/><path d="M2744.88 694.725 2637.28 694.725 2637.28 519.781 2698.58 519.781 2698.58 523.219 2639 523.219 2640.72 521.5 2640.72 693.006 2639 691.287 2744.88 691.287ZM2694 507.75 2721.5 521.5 2694 535.25Z" fill="#C5E0B4"/></g></svg>