<svg width="740" height="493" xmlns="http://www.w3.org/2000/svg" xmlns:xlink="http://www.w3.org/1999/xlink" overflow="hidden"><defs><clipPath id="clip0"><rect x="491" y="675" width="740" height="493"/></clipPath></defs><g clip-path="url(#clip0)" transform="translate(-491 -675)"><rect x="766" y="682" width="187" height="188" fill="#607796"/><rect x="766" y="869" width="187" height="188" fill="#607796"/><path d="M0 0 0.141831 374.105" stroke="#FFFFFF" stroke-width="13.75" stroke-miterlimit="8" stroke-dasharray="55 41.25" fill="none" fill-rule="evenodd" transform="matrix(-1 0 0 1 859.142 682)"/><rect x="956.5" y="678.5" width="187" height="211" stroke="#607796" stroke-width="6.875" stroke-miterlimit="8" stroke-dasharray="27.5 20.625" fill="none"/><text font-family="Microsoft YaHei,Microsoft YaHei_MSFontService,sans-serif" font-weight="400" font-size="46" transform="matrix(1 0 0 1 981.068 773)">待铺设<tspan font-size="46" x="22.9166" y="55">区域</tspan></text><path d="M892.75 824 892.75 783.5 879 783.5 906.5 756 934 783.5 920.25 783.5 920.25 824Z" stroke="#548235" stroke-width="2.29167" stroke-miterlimit="8" fill="#C5E0B4" fill-rule="evenodd"/><rect x="580.5" y="678.5" width="187" height="210" stroke="#607796" stroke-width="6.875" stroke-miterlimit="8" stroke-dasharray="27.5 20.625" fill="none"/><text font-family="Microsoft YaHei,Microsoft YaHei_MSFontService,sans-serif" font-weight="400" font-size="46" transform="matrix(1 0 0 1 604.904 772)">待铺设<tspan font-size="46" x="22.9166" y="55">区域</tspan></text><rect x="756.5" y="1046.5" width="6.99988" height="8.00024" stroke="#607796" stroke-width="4.58333" stroke-miterlimit="8" fill="#9DACBF"/><rect x="710.5" y="1091.5" width="299" height="65" stroke="#9DACBF" stroke-width="6.875" stroke-miterlimit="8" fill="none"/><text font-family="Microsoft YaHei,Microsoft YaHei_MSFontService,sans-serif" font-weight="400" font-size="37" transform="matrix(1 0 0 1 731.102 1136)">上一步剩余区域</text><path d="M0 3.4375-82.4997 3.4375-79.0622 0-79.0622 256.118-82.4997 252.68 111.66 252.68 111.66 259.555-85.9372 259.555-85.9372-3.4375 0-3.4375ZM107.077 242.368 134.577 256.118 107.077 269.868Z" fill="#9DACBF" transform="matrix(-1 0 0 1 1144.08 867.5)"/><rect x="577.5" y="888.5" width="187" height="78" stroke="#607796" stroke-width="6.875" stroke-miterlimit="8" fill="none"/><path d="M764.087 965.953 577 888" stroke="#607796" stroke-width="2.29167" stroke-miterlimit="8" fill="none" fill-rule="evenodd"/><path d="M0 0 187.087 77.9528" stroke="#607796" stroke-width="2.29167" stroke-miterlimit="8" fill="none" fill-rule="evenodd" transform="matrix(-1 1.22465e-16 1.22465e-16 1 764.087 888)"/><path d="M764.087 1044.95 577 967" stroke="#607796" stroke-width="2.29167" stroke-miterlimit="8" fill="none" fill-rule="evenodd"/><path d="M0 0 187.087 77.9528" stroke="#607796" stroke-width="2.29167" stroke-miterlimit="8" fill="none" fill-rule="evenodd" transform="matrix(-1 1.22465e-16 1.22465e-16 1 764.087 967)"/><rect x="577.5" y="967.5" width="187" height="77.9997" stroke="#607796" stroke-width="6.875" stroke-miterlimit="8" fill="none"/><path d="M577.5 878.938 495 878.938 498.437 875.5 498.437 1123.69 495 1120.26 687.659 1120.26 687.659 1127.13 491.562 1127.13 491.562 872.063 577.5 872.063ZM683.076 1109.94 710.576 1123.69 683.076 1137.44Z" fill="#9DACBF"/><rect x="577.5" y="864.5" width="190" height="22" stroke="#9DACBF" stroke-width="4.58333" stroke-miterlimit="8" stroke-dasharray="18.3333 13.75" fill="none"/><rect x="955.5" y="889.5" width="187" height="78.0001" stroke="#607796" stroke-width="6.875" stroke-miterlimit="8" fill="none"/><path d="M1142.09 966.953 955 889" stroke="#607796" stroke-width="2.29167" stroke-miterlimit="8" fill="none" fill-rule="evenodd"/><path d="M0 0 187.087 77.9528" stroke="#607796" stroke-width="2.29167" stroke-miterlimit="8" fill="none" fill-rule="evenodd" transform="matrix(-1 1.22465e-16 1.22465e-16 1 1142.09 889)"/><path d="M1142.09 1045.95 955 968" stroke="#607796" stroke-width="2.29167" stroke-miterlimit="8" fill="none" fill-rule="evenodd"/><path d="M0 0 187.087 77.9528" stroke="#607796" stroke-width="2.29167" stroke-miterlimit="8" fill="none" fill-rule="evenodd" transform="matrix(-1 1.22465e-16 1.22465e-16 1 1142.09 968)"/><rect x="955.5" y="968.5" width="187" height="78" stroke="#607796" stroke-width="6.875" stroke-miterlimit="8" fill="none"/><rect x="955.5" y="1046.5" width="7.99988" height="8.00024" stroke="#607796" stroke-width="4.58333" stroke-miterlimit="8" fill="#9DACBF"/><rect x="955.5" y="865.5" width="190" height="22" stroke="#9DACBF" stroke-width="4.58333" stroke-miterlimit="8" stroke-dasharray="18.3333 13.75" fill="none"/></g></svg>