<svg width="439" height="472" xmlns="http://www.w3.org/2000/svg" xmlns:xlink="http://www.w3.org/1999/xlink" overflow="hidden"><defs><clipPath id="clip0"><rect x="1934" y="479" width="439" height="472"/></clipPath></defs><g clip-path="url(#clip0)" transform="translate(-1934 -479)"><rect x="2056" y="569" width="187" height="187" fill="#607796"/><rect x="2056" y="756" width="187" height="187" fill="#607796"/><path d="M0 0 0.141831 374.105" stroke="#FFFFFF" stroke-width="13.75" stroke-miterlimit="8" stroke-dasharray="55 41.25" fill="none" fill-rule="evenodd" transform="matrix(-1 0 0 1 2149.14 569)"/><path d="M2182.5 711 2182.5 669 2169 669 2196 642 2223 669 2209.5 669 2209.5 711Z" stroke="#548235" stroke-width="2.29167" stroke-miterlimit="8" fill="#C5E0B4" fill-rule="evenodd"/><rect x="2045.5" y="932.5" width="7.99988" height="7.99988" stroke="#607796" stroke-width="4.58333" stroke-miterlimit="8" fill="#9DACBF"/><path d="M2057.95 745 1980 932.086" stroke="#607796" stroke-width="2.29167" stroke-miterlimit="8" fill="none" fill-rule="evenodd"/><path d="M0 0 187.087 77.9528" stroke="#607796" stroke-width="2.29167" stroke-miterlimit="8" fill="none" fill-rule="evenodd" transform="matrix(6.12323e-17 1 1 -6.12323e-17 1980 745)"/><rect x="1980.5" y="745.5" width="77" height="187" stroke="#607796" stroke-width="6.875" stroke-miterlimit="8" fill="none"/><rect x="2245.5" y="933.5" width="7.00024" height="7.99988" stroke="#607796" stroke-width="4.58333" stroke-miterlimit="8" fill="#9DACBF"/><path d="M2318.95 745 2241 932.086" stroke="#607796" stroke-width="2.29167" stroke-miterlimit="8" fill="none" fill-rule="evenodd"/><path d="M0 0 187.087 77.9528" stroke="#607796" stroke-width="2.29167" stroke-miterlimit="8" fill="none" fill-rule="evenodd" transform="matrix(6.12323e-17 1 1 -6.12323e-17 2241 745)"/><rect x="2241.5" y="745.5" width="78" height="187" stroke="#607796" stroke-width="6.875" stroke-miterlimit="8" fill="none"/><rect x="2047.5" y="734.5" width="7.00024" height="6.99988" stroke="#607796" stroke-width="4.58333" stroke-miterlimit="8" fill="#9DACBF"/><rect x="2246.5" y="734.5" width="7.00024" height="7.99988" stroke="#607796" stroke-width="4.58333" stroke-miterlimit="8" fill="#9DACBF"/><rect x="2242.5" y="728.5" width="17.9998" height="19.0002" stroke="#C5E0B4" stroke-width="3.4375" stroke-miterlimit="8" fill="none"/><rect x="2042.5" y="728.5" width="16.9999" height="19.0002" stroke="#C5E0B4" stroke-width="3.4375" stroke-miterlimit="8" fill="none"/><rect x="2018.5" y="484.5" width="269" height="73.0002" stroke="#C5E0B4" stroke-width="3.4375" stroke-miterlimit="8" fill="none"/><text font-family="Microsoft YaHei,Microsoft YaHei_MSFontService,sans-serif" font-weight="400" font-size="28" transform="matrix(1 0 0 1 2042.78 514)">满足最少柱网放置<tspan font-size="28" x="13.75" y="33">要求铺设的柱子</tspan></text><path d="M0-1.71875 111.817-1.71875 111.817 218.8 50.5529 218.8 50.5529 215.362 110.098 215.362 108.379 217.081 108.379 0 110.098 1.71875 0 1.71875ZM55.1362 230.831 27.6362 217.081 55.1362 203.331Z" fill="#C5E0B4" transform="matrix(1 0 0 -1 2260.5 738.581)"/><path d="M2041.88 740.341 1934.33 740.341 1934.33 519.781 1995.59 519.781 1995.59 523.219 1936.05 523.219 1937.77 521.5 1937.77 738.623 1936.05 736.904 2041.88 736.904ZM1991.01 507.75 2018.51 521.5 1991.01 535.25Z" fill="#C5E0B4"/></g></svg>