<svg width="565" height="301" xmlns="http://www.w3.org/2000/svg" xmlns:xlink="http://www.w3.org/1999/xlink" overflow="hidden"><defs><clipPath id="clip0"><rect x="130" y="681" width="565" height="301"/></clipPath></defs><g clip-path="url(#clip0)" transform="translate(-130 -681)"><rect x="508" y="762" width="187" height="187" fill="#607796"/><path d="M602 762 602 949.087" stroke="#FFFFFF" stroke-width="13.75" stroke-miterlimit="8" stroke-dasharray="55 41.25" fill="none" fill-rule="evenodd"/><path d="M413.75 772.854 496.006 772.855 496.006 775.146 413.75 775.146ZM418.333 783.167 400 774 418.333 764.833ZM491.422 764.834 509.756 774 491.422 783.167Z" fill="#607796"/><text fill="#607796" font-family="Cambria Math,Cambria Math_MSFontService,sans-serif" font-weight="400" font-size="48" transform="translate(290.546 742)">ğ‘‘<tspan font-size="48" x="42.9688" y="0">&lt;</tspan><tspan font-size="48" x="92.4229" y="0">ğ‘ğ‘ğ‘Ÿ</tspan><tspan font-size="48" x="165.665" y="0">_</tspan><tspan font-size="48" x="183.425" y="0">â„ğ‘’ğ‘–ğ‘”â„ğ‘¡</tspan></text><path d="M429 978.087 506.953 791" stroke="#607796" stroke-width="2.29167" stroke-miterlimit="8" fill="none" fill-rule="evenodd"/><path d="M0 0 187.087 77.9528" stroke="#607796" stroke-width="2.29167" stroke-miterlimit="8" fill="none" fill-rule="evenodd" transform="matrix(-1.83697e-16 -1 -1 1.83697e-16 506.953 978.087)"/><rect x="429.5" y="791.5" width="78" height="187" stroke="#607796" stroke-width="6.875" stroke-miterlimit="8" fill="none"/><rect x="135" y="767" width="260" height="116" stroke="#607796" stroke-width="10.3125" stroke-miterlimit="8" fill="none"/><text fill="#607796" font-family="DengXian,DengXian_MSFontService,sans-serif" font-weight="400" font-size="55" transform="matrix(1 0 0 1 182.274 843)">éšœç¢ç‰©</text></g></svg>