<svg width="675" height="299" xmlns="http://www.w3.org/2000/svg" xmlns:xlink="http://www.w3.org/1999/xlink" overflow="hidden"><defs><clipPath id="clip0"><rect x="20" y="1040" width="675" height="299"/></clipPath></defs><g clip-path="url(#clip0)" transform="translate(-20 -1040)"><rect x="508" y="1144" width="187" height="187" fill="#607796"/><path d="M602 1144 602 1331.09" stroke="#FFFFFF" stroke-width="13.75" stroke-miterlimit="8" stroke-dasharray="55 41.25" fill="none" fill-rule="evenodd"/><path d="M301.75 1154.85 496.806 1154.85 496.806 1157.15 301.75 1157.15ZM306.333 1165.17 288 1156 306.333 1146.83ZM492.223 1146.83 510.556 1156 492.223 1165.17Z" fill="#607796"/><path d="M323 1170 510.087 1247.95" stroke="#607796" stroke-width="2.29167" stroke-miterlimit="8" fill="none" fill-rule="evenodd"/><path d="M0 0 187.087 77.9528" stroke="#607796" stroke-width="2.29167" stroke-miterlimit="8" fill="none" fill-rule="evenodd" transform="matrix(1 0 0 -1 323 1247.95)"/><rect x="323.5" y="1170.5" width="187" height="78" stroke="#607796" stroke-width="6.875" stroke-miterlimit="8" fill="none"/><text fill="#607796" font-family="Cambria Math,Cambria Math_MSFontService,sans-serif" font-weight="400" font-size="48" transform="translate(290.546 1101)">ğ‘‘<tspan font-size="48" x="42.9688" y="0">&gt;</tspan><tspan font-size="48" x="92.4229" y="0">ğ‘ğ‘ğ‘Ÿ</tspan><tspan font-size="48" x="165.665" y="0">_</tspan><tspan font-size="48" x="183.425" y="0">â„ğ‘’ğ‘–ğ‘”â„ğ‘¡</tspan></text><rect x="25.0001" y="1149" width="261" height="116" stroke="#607796" stroke-width="10.3125" stroke-miterlimit="8" fill="none"/><text fill="#607796" font-family="DengXian,DengXian_MSFontService,sans-serif" font-weight="400" font-size="55" transform="matrix(1 0 0 1 73.0396 1225)">éšœç¢ç‰©</text></g></svg>