<svg width="572" height="604" xmlns="http://www.w3.org/2000/svg" xmlns:xlink="http://www.w3.org/1999/xlink" overflow="hidden"><defs><clipPath id="clip0"><rect x="1258" y="549" width="572" height="604"/></clipPath></defs><g clip-path="url(#clip0)" transform="translate(-1258 -549)"><rect x="1450" y="771" width="187" height="187" fill="#607796"/><rect x="1450" y="958" width="187" height="187" fill="#607796"/><path d="M0 0 0.141831 187.019" stroke="#FFFFFF" stroke-width="13.75" stroke-miterlimit="8" stroke-dasharray="55 41.25" fill="none" fill-rule="evenodd" transform="matrix(-1 0 0 1 1543.14 958)"/><rect x="1261.5" y="966.5" width="187" height="78" stroke="#607796" stroke-width="6.875" stroke-miterlimit="8" fill="none"/><path d="M1448.09 1043.95 1261 966" stroke="#607796" stroke-width="2.29167" stroke-miterlimit="8" fill="none" fill-rule="evenodd"/><path d="M0 0 187.087 77.9528" stroke="#607796" stroke-width="2.29167" stroke-miterlimit="8" fill="none" fill-rule="evenodd" transform="matrix(-1 1.22465e-16 1.22465e-16 1 1448.09 966)"/><path d="M1448.09 1122.95 1261 1045" stroke="#607796" stroke-width="2.29167" stroke-miterlimit="8" fill="none" fill-rule="evenodd"/><path d="M0 0 187.087 77.9528" stroke="#607796" stroke-width="2.29167" stroke-miterlimit="8" fill="none" fill-rule="evenodd" transform="matrix(-1 1.22465e-16 1.22465e-16 1 1448.09 1045)"/><rect x="1261.5" y="1045.5" width="187" height="78" stroke="#607796" stroke-width="6.875" stroke-miterlimit="8" fill="none"/><path d="M1450 865 1544.53 865 1544.53 863.152 1543.69 863.152 1543.69 958.543" stroke="#FFFFFF" stroke-width="13.75" stroke-miterlimit="8" stroke-dasharray="55 41.25" fill="none" fill-rule="evenodd"/><rect x="1639.5" y="978.5" width="187" height="77.9997" stroke="#607796" stroke-width="6.875" stroke-miterlimit="8" fill="none"/><path d="M1826.09 1055.95 1639 978" stroke="#607796" stroke-width="2.29167" stroke-miterlimit="8" fill="none" fill-rule="evenodd"/><path d="M0 0 187.087 77.9528" stroke="#607796" stroke-width="2.29167" stroke-miterlimit="8" fill="none" fill-rule="evenodd" transform="matrix(-1 1.22465e-16 1.22465e-16 1 1826.09 978)"/><path d="M1826.09 1134.95 1639 1057" stroke="#607796" stroke-width="2.29167" stroke-miterlimit="8" fill="none" fill-rule="evenodd"/><path d="M0 0 187.087 77.9528" stroke="#607796" stroke-width="2.29167" stroke-miterlimit="8" fill="none" fill-rule="evenodd" transform="matrix(-1 1.22465e-16 1.22465e-16 1 1826.09 1057)"/><rect x="1639.5" y="1057.5" width="187" height="78" stroke="#607796" stroke-width="6.875" stroke-miterlimit="8" fill="none"/><path d="M0 105 0 59.0626C0 33.692 20.5669 13.125 45.9376 13.125L79.7498 13.125 79.7498 0 106 26.25 79.7498 52.5001 79.7498 39.3751 45.9376 39.3751C35.0644 39.3751 26.25 48.1895 26.25 59.0626L26.25 105Z" stroke="#548235" stroke-width="2.29167" stroke-miterlimit="8" fill="#C5E0B4" fill-rule="evenodd" transform="matrix(-1 0 0 1 1616 791)"/><rect x="1638.5" y="898.5" width="187" height="78" stroke="#607796" stroke-width="6.875" stroke-miterlimit="8" fill="none"/><path d="M1825.09 975.953 1638 898" stroke="#607796" stroke-width="2.29167" stroke-miterlimit="8" fill="none" fill-rule="evenodd"/><path d="M0 0 187.087 77.9528" stroke="#607796" stroke-width="2.29167" stroke-miterlimit="8" fill="none" fill-rule="evenodd" transform="matrix(-1 1.22465e-16 1.22465e-16 1 1825.09 898)"/><rect x="1638.5" y="887.5" width="7.99988" height="7.99988" stroke="#607796" stroke-width="4.58333" stroke-miterlimit="8" fill="#9DACBF"/><path d="M1825.09 885.953 1638 808" stroke="#607796" stroke-width="2.29167" stroke-miterlimit="8" fill="none" fill-rule="evenodd"/><path d="M0 0 187.087 77.9528" stroke="#607796" stroke-width="2.29167" stroke-miterlimit="8" fill="none" fill-rule="evenodd" transform="matrix(-1 1.22465e-16 1.22465e-16 1 1825.09 808)"/><rect x="1638.5" y="808.5" width="187" height="78.0001" stroke="#607796" stroke-width="6.875" stroke-miterlimit="8" fill="none"/><rect x="1470.5" y="593.5" width="78" height="187" stroke="#607796" stroke-width="6.875" stroke-miterlimit="8" fill="none"/><path d="M1547.95 593 1470 780.087" stroke="#607796" stroke-width="2.29167" stroke-miterlimit="8" fill="none" fill-rule="evenodd"/><path d="M0 0 187.087 77.9528" stroke="#607796" stroke-width="2.29167" stroke-miterlimit="8" fill="none" fill-rule="evenodd" transform="matrix(6.12323e-17 1 1 -6.12323e-17 1470 593)"/><path d="M1626.95 593 1549 780.087" stroke="#607796" stroke-width="2.29167" stroke-miterlimit="8" fill="none" fill-rule="evenodd"/><path d="M0 0 187.087 77.9528" stroke="#607796" stroke-width="2.29167" stroke-miterlimit="8" fill="none" fill-rule="evenodd" transform="matrix(6.12323e-17 1 1 -6.12323e-17 1549 593)"/><rect x="1549.5" y="593.5" width="78" height="187" stroke="#607796" stroke-width="6.875" stroke-miterlimit="8" fill="none"/><rect x="1627.5" y="767.5" width="7.99988" height="7.99988" stroke="#607796" stroke-width="4.58333" stroke-miterlimit="8" fill="#9DACBF"/><rect x="1638.5" y="801.5" width="7.99988" height="6.99988" stroke="#607796" stroke-width="4.58333" stroke-miterlimit="8" fill="#9DACBF"/><rect x="1634.5" y="795.5" width="16.9999" height="18.9999" stroke="#C5E0B4" stroke-width="3.4375" stroke-miterlimit="8" fill="none"/><rect x="1439.5" y="950.5" width="17.9999" height="18.9999" stroke="#C5E0B4" stroke-width="3.4375" stroke-miterlimit="8" fill="none"/><rect x="1642.5" y="633.5" width="78" height="116" stroke="#C5E0B4" stroke-width="3.4375" stroke-miterlimit="8" fill="none"/><text font-family="Microsoft YaHei,Microsoft YaHei_MSFontService,sans-serif" font-weight="400" font-size="28" writing-mode="tb-rl" transform="matrix(1 2.95822e-25 -2.95822e-25 1 1686.26 650)" x="11.1494" y="2.85742">转弯的</text><text font-family="Microsoft YaHei,Microsoft YaHei_MSFontService,sans-serif" font-weight="400" font-size="28" writing-mode="tb-rl" transform="matrix(1 2.95822e-25 -2.95822e-25 1 1653.26 664)" x="11.1494" y="2.85742">柱子</text><path d="M0-1.71875 31.9438-1.71875 31.9438 32.1826 28.5063 32.1826 28.5063 0 30.2251 1.71875 0 1.71875ZM43.9751 27.5992 30.2251 55.0992 16.4751 27.5992Z" fill="#C5E0B4" transform="matrix(1 0 0 -1 1651.5 804.599)"/><path d="M0 1.71875-83.2788 1.71875-81.56 0-81.56 408.421-83.2788 406.702 242.103 406.702 240.384 408.421 240.384 348.837 243.822 348.837 243.822 410.14-84.9975 410.14-84.9975-1.71875 0-1.71875ZM228.353 353.421 242.103 325.921 255.853 353.421Z" fill="#C5E0B4" transform="matrix(1 -1.22465e-16 -1.22465e-16 -1 1439.5 959.421)"/><rect x="1442.5" y="956.5" width="8.00024" height="7.99988" stroke="#607796" stroke-width="4.58333" stroke-miterlimit="8" fill="#9DACBF"/><path d="M0 0 192.6 0.000360892" stroke="#C5E0B4" stroke-width="3.4375" stroke-miterlimit="8" stroke-dasharray="13.75 10.3125" fill="none" fill-rule="evenodd" transform="matrix(-1 0 0 1 1643.1 957.5)"/><path d="M1439.58 961.869 1404.78 961.869 1404.78 917.417 1408.22 917.417 1408.22 960.15 1406.5 958.431 1439.58 958.431ZM1392.75 922 1406.5 894.5 1420.25 922Z" fill="#C5E0B4"/><rect x="1367.5" y="777.5" width="78" height="117" stroke="#C5E0B4" stroke-width="3.4375" stroke-miterlimit="8" fill="none"/><text font-family="Microsoft YaHei,Microsoft YaHei_MSFontService,sans-serif" font-weight="400" font-size="28" writing-mode="tb-rl" transform="matrix(1 2.95822e-25 -2.95822e-25 1 1411.08 794)" x="11.1494" y="2.85742">超出铺</text><text font-family="Microsoft YaHei,Microsoft YaHei_MSFontService,sans-serif" font-weight="400" font-size="28" writing-mode="tb-rl" transform="matrix(1 2.95822e-25 -2.95822e-25 1 1378.08 794)" x="11.1494" y="2.85742">设道路</text></g></svg>