<svg width="572" height="604" xmlns="http://www.w3.org/2000/svg" xmlns:xlink="http://www.w3.org/1999/xlink" overflow="hidden"><defs><clipPath id="clip0"><rect x="455" y="549" width="572" height="604"/></clipPath></defs><g clip-path="url(#clip0)" transform="translate(-455 -549)"><rect x="637.5" y="1134.5" width="7.99988" height="8.00024" stroke="#607796" stroke-width="4.58333" stroke-miterlimit="8" fill="#9DACBF"/><rect x="647" y="771" width="188" height="187" fill="#607796"/><rect x="647" y="958" width="187" height="187" fill="#607796"/><path d="M0 0 0.141831 187.019" stroke="#FFFFFF" stroke-width="13.75" stroke-miterlimit="8" stroke-dasharray="55 41.25" fill="none" fill-rule="evenodd" transform="matrix(-1 0 0 1 741.142 958)"/><rect x="458.5" y="977.5" width="187" height="78" stroke="#607796" stroke-width="6.875" stroke-miterlimit="8" fill="none"/><path d="M645.086 1054.95 458 977" stroke="#607796" stroke-width="2.29167" stroke-miterlimit="8" fill="none" fill-rule="evenodd"/><path d="M0 0 187.087 77.9528" stroke="#607796" stroke-width="2.29167" stroke-miterlimit="8" fill="none" fill-rule="evenodd" transform="matrix(-1 1.22465e-16 1.22465e-16 1 645.086 977)"/><path d="M645.086 1133.95 458 1056" stroke="#607796" stroke-width="2.29167" stroke-miterlimit="8" fill="none" fill-rule="evenodd"/><path d="M0 0 187.087 77.9528" stroke="#607796" stroke-width="2.29167" stroke-miterlimit="8" fill="none" fill-rule="evenodd" transform="matrix(-1 1.22465e-16 1.22465e-16 1 645.086 1056)"/><rect x="458.5" y="1056.5" width="187" height="78" stroke="#607796" stroke-width="6.875" stroke-miterlimit="8" fill="none"/><path d="M647 865 741.531 865 741.531 863.152 740.685 863.152 740.685 958.543" stroke="#FFFFFF" stroke-width="13.75" stroke-miterlimit="8" stroke-dasharray="55 41.25" fill="none" fill-rule="evenodd"/><rect x="836.5" y="978.5" width="187" height="77.9997" stroke="#607796" stroke-width="6.875" stroke-miterlimit="8" fill="none"/><path d="M1023.09 1055.95 836 978" stroke="#607796" stroke-width="2.29167" stroke-miterlimit="8" fill="none" fill-rule="evenodd"/><path d="M0 0 187.087 77.9528" stroke="#607796" stroke-width="2.29167" stroke-miterlimit="8" fill="none" fill-rule="evenodd" transform="matrix(-1 1.22465e-16 1.22465e-16 1 1023.09 978)"/><path d="M1023.09 1134.95 836 1057" stroke="#607796" stroke-width="2.29167" stroke-miterlimit="8" fill="none" fill-rule="evenodd"/><path d="M0 0 187.087 77.9528" stroke="#607796" stroke-width="2.29167" stroke-miterlimit="8" fill="none" fill-rule="evenodd" transform="matrix(-1 1.22465e-16 1.22465e-16 1 1023.09 1057)"/><rect x="836.5" y="1057.5" width="187" height="78" stroke="#607796" stroke-width="6.875" stroke-miterlimit="8" fill="none"/><rect x="836.5" y="1134.5" width="8.00024" height="8.00024" stroke="#607796" stroke-width="4.58333" stroke-miterlimit="8" fill="#9DACBF"/><rect x="637.5" y="966.5" width="7.99988" height="7.99988" stroke="#607796" stroke-width="4.58333" stroke-miterlimit="8" fill="#9DACBF"/><path d="M0 105 0 59.0626C0 33.692 20.5669 13.125 45.9376 13.125L79.7498 13.125 79.7498 0 106 26.25 79.7498 52.5001 79.7498 39.3751 45.9376 39.3751C35.0644 39.3751 26.25 48.1895 26.25 59.0626L26.25 105Z" stroke="#548235" stroke-width="2.29167" stroke-miterlimit="8" fill="#C5E0B4" fill-rule="evenodd" transform="matrix(-1 0 0 1 813 791)"/><rect x="836.5" y="898.5" width="187" height="78" stroke="#607796" stroke-width="6.875" stroke-miterlimit="8" fill="none"/><path d="M1023.09 975.953 836 898" stroke="#607796" stroke-width="2.29167" stroke-miterlimit="8" fill="none" fill-rule="evenodd"/><path d="M0 0 187.087 77.9528" stroke="#607796" stroke-width="2.29167" stroke-miterlimit="8" fill="none" fill-rule="evenodd" transform="matrix(-1 1.22465e-16 1.22465e-16 1 1023.09 898)"/><rect x="836.5" y="887.5" width="8.00024" height="7.99988" stroke="#607796" stroke-width="4.58333" stroke-miterlimit="8" fill="#9DACBF"/><path d="M1023.09 885.953 836 808" stroke="#607796" stroke-width="2.29167" stroke-miterlimit="8" fill="none" fill-rule="evenodd"/><path d="M0 0 187.087 77.9528" stroke="#607796" stroke-width="2.29167" stroke-miterlimit="8" fill="none" fill-rule="evenodd" transform="matrix(-1 1.22465e-16 1.22465e-16 1 1023.09 808)"/><rect x="836.5" y="808.5" width="187" height="78.0001" stroke="#607796" stroke-width="6.875" stroke-miterlimit="8" fill="none"/><rect x="668.5" y="593.5" width="78.0001" height="187" stroke="#607796" stroke-width="6.875" stroke-miterlimit="8" fill="none"/><path d="M745.953 593 668 780.087" stroke="#607796" stroke-width="2.29167" stroke-miterlimit="8" fill="none" fill-rule="evenodd"/><path d="M0 0 187.087 77.9528" stroke="#607796" stroke-width="2.29167" stroke-miterlimit="8" fill="none" fill-rule="evenodd" transform="matrix(6.12323e-17 1 1 -6.12323e-17 668 593)"/><path d="M824.953 593 747 780.087" stroke="#607796" stroke-width="2.29167" stroke-miterlimit="8" fill="none" fill-rule="evenodd"/><path d="M0 0 187.087 77.9528" stroke="#607796" stroke-width="2.29167" stroke-miterlimit="8" fill="none" fill-rule="evenodd" transform="matrix(6.12323e-17 1 1 -6.12323e-17 747 593)"/><rect x="747.5" y="593.5" width="77.9997" height="187" stroke="#607796" stroke-width="6.875" stroke-miterlimit="8" fill="none"/><rect x="824.5" y="767.5" width="7.99988" height="7.99988" stroke="#607796" stroke-width="4.58333" stroke-miterlimit="8" fill="#9DACBF"/><rect x="836.5" y="801.5" width="8.00024" height="6.99988" stroke="#607796" stroke-width="4.58333" stroke-miterlimit="8" fill="#9DACBF"/><path d="M850.219 793.781 850.219 816.219 829.781 816.219 829.781 793.781ZM831.5 797.219 833.219 795.5 833.219 814.5 831.5 812.781 848.5 812.781 846.781 814.5 846.781 795.5 848.5 797.219Z" fill="#C5E0B4"/><path d="M652.219 958.781 652.219 981.218 630.781 981.218 630.781 958.781ZM632.5 962.219 634.219 960.5 634.219 979.5 632.5 977.781 650.5 977.781 648.781 979.5 648.781 960.5 650.5 962.219Z" fill="#C5E0B4"/><rect x="856.5" y="633.5" width="70.9998" height="116" stroke="#C5E0B4" stroke-width="3.4375" stroke-miterlimit="8" fill="none"/><text font-family="Microsoft YaHei,Microsoft YaHei_MSFontService,sans-serif" font-weight="400" font-size="28" writing-mode="tb-rl" transform="matrix(1 2.95822e-25 -2.95822e-25 1 896.395 650)" x="11.1494" y="2.85742">转弯的</text><text font-family="Microsoft YaHei,Microsoft YaHei_MSFontService,sans-serif" font-weight="400" font-size="28" writing-mode="tb-rl" transform="matrix(1 2.95822e-25 -2.95822e-25 1 863.395 664)" x="11.1494" y="2.85742">柱子</text><path d="M0-1.71875 44.7346-1.71875 44.7346 32.1826 41.2971 32.1826 41.2971 0 43.0158 1.71875 0 1.71875ZM56.7658 27.5992 43.0158 55.0992 29.2658 27.5992Z" fill="#C5E0B4" transform="matrix(1 0 0 -1 848.5 804.599)"/><path d="M0 1.71875-83.2783 1.71875-81.5596 0-81.5596 418.82-83.2783 417.101 259.224 417.101 257.505 418.82 257.505 359.237 260.943 359.237 260.943 420.538-84.9971 420.538-84.9971-1.71875 0-1.71875ZM245.474 363.82 259.224 336.32 272.974 363.82Z" fill="#C5E0B4" transform="matrix(1 -1.22465e-16 -1.22465e-16 -1 632.5 969.82)"/><path d="M0 0 192.6 0.000360892" stroke="#C5E0B4" stroke-width="3.4375" stroke-miterlimit="8" stroke-dasharray="13.75 10.3125" fill="none" fill-rule="evenodd" transform="matrix(-1 0 0 1 838.1 957.5)"/></g></svg>