<svg width="572" height="604" xmlns="http://www.w3.org/2000/svg" xmlns:xlink="http://www.w3.org/1999/xlink" overflow="hidden"><defs><clipPath id="clip0"><rect x="1871" y="554" width="572" height="604"/></clipPath></defs><g clip-path="url(#clip0)" transform="translate(-1871 -554)"><rect x="2063" y="776" width="188" height="187" fill="#607796"/><rect x="2063" y="963" width="187" height="187" fill="#607796"/><path d="M0 0 0.141831 187.019" stroke="#FFFFFF" stroke-width="13.75" stroke-miterlimit="8" stroke-dasharray="55 41.25" fill="none" fill-rule="evenodd" transform="matrix(-1 0 0 1 2157.14 963)"/><path d="M2061.09 1126.95 1874 1049" stroke="#607796" stroke-width="2.29167" stroke-miterlimit="8" fill="none" fill-rule="evenodd"/><path d="M0 0 187.087 77.9528" stroke="#607796" stroke-width="2.29167" stroke-miterlimit="8" fill="none" fill-rule="evenodd" transform="matrix(-1 1.22465e-16 1.22465e-16 1 2061.09 1049)"/><rect x="1874.5" y="1049.5" width="187" height="78" stroke="#607796" stroke-width="6.875" stroke-miterlimit="8" fill="none"/><path d="M2063 869 2157.53 869 2157.53 867.153 2156.68 867.153 2156.68 962.543" stroke="#FFFFFF" stroke-width="13.75" stroke-miterlimit="8" stroke-dasharray="55 41.25" fill="none" fill-rule="evenodd"/><rect x="2252.5" y="982.5" width="187" height="78" stroke="#607796" stroke-width="6.875" stroke-miterlimit="8" fill="none"/><path d="M2439.09 1059.95 2252 982" stroke="#607796" stroke-width="2.29167" stroke-miterlimit="8" fill="none" fill-rule="evenodd"/><path d="M0 0 187.087 77.9528" stroke="#607796" stroke-width="2.29167" stroke-miterlimit="8" fill="none" fill-rule="evenodd" transform="matrix(-1 1.22465e-16 1.22465e-16 1 2439.09 982)"/><path d="M2439.09 1138.95 2252 1061" stroke="#607796" stroke-width="2.29167" stroke-miterlimit="8" fill="none" fill-rule="evenodd"/><path d="M0 0 187.087 77.9528" stroke="#607796" stroke-width="2.29167" stroke-miterlimit="8" fill="none" fill-rule="evenodd" transform="matrix(-1 1.22465e-16 1.22465e-16 1 2439.09 1061)"/><rect x="2252.5" y="1061.5" width="187" height="78" stroke="#607796" stroke-width="6.875" stroke-miterlimit="8" fill="none"/><path d="M0 104 0 58.4999C-1.34952e-14 33.371 20.371 13.0001 45.4998 13.0001L80 12.9999 80 0 106 26 80 51.9999 80 39 45.4998 39C34.7303 39 25.9999 47.7304 25.9999 58.4999L26 104Z" stroke="#548235" stroke-width="2.29167" stroke-miterlimit="8" fill="#C5E0B4" fill-rule="evenodd" transform="matrix(-1 0 0 1 2229 796)"/><rect x="2252.5" y="902.5" width="187" height="78" stroke="#607796" stroke-width="6.875" stroke-miterlimit="8" fill="none"/><path d="M2439.09 979.953 2252 902" stroke="#607796" stroke-width="2.29167" stroke-miterlimit="8" fill="none" fill-rule="evenodd"/><path d="M0 0 187.087 77.9528" stroke="#607796" stroke-width="2.29167" stroke-miterlimit="8" fill="none" fill-rule="evenodd" transform="matrix(-1 1.22465e-16 1.22465e-16 1 2439.09 902)"/><rect x="2252.5" y="892.5" width="8" height="8.00024" stroke="#607796" stroke-width="4.58333" stroke-miterlimit="8" fill="#9DACBF"/><path d="M2439.09 890.953 2252 813" stroke="#607796" stroke-width="2.29167" stroke-miterlimit="8" fill="none" fill-rule="evenodd"/><path d="M0 0 187.087 77.9528" stroke="#607796" stroke-width="2.29167" stroke-miterlimit="8" fill="none" fill-rule="evenodd" transform="matrix(-1 1.22465e-16 1.22465e-16 1 2439.09 813)"/><rect x="2252.5" y="813.5" width="187" height="77.9997" stroke="#607796" stroke-width="6.875" stroke-miterlimit="8" fill="none"/><rect x="2084.5" y="597.5" width="78" height="188" stroke="#607796" stroke-width="6.875" stroke-miterlimit="8" fill="none"/><path d="M2161.95 597 2084 784.087" stroke="#607796" stroke-width="2.29167" stroke-miterlimit="8" fill="none" fill-rule="evenodd"/><path d="M0 0 187.087 77.9528" stroke="#607796" stroke-width="2.29167" stroke-miterlimit="8" fill="none" fill-rule="evenodd" transform="matrix(6.12323e-17 1 1 -6.12323e-17 2084 597)"/><path d="M2240.95 597 2163 784.087" stroke="#607796" stroke-width="2.29167" stroke-miterlimit="8" fill="none" fill-rule="evenodd"/><path d="M0 0 187.087 77.9528" stroke="#607796" stroke-width="2.29167" stroke-miterlimit="8" fill="none" fill-rule="evenodd" transform="matrix(6.12323e-17 1 1 -6.12323e-17 2163 597)"/><rect x="2163.5" y="597.5" width="78" height="188" stroke="#607796" stroke-width="6.875" stroke-miterlimit="8" fill="none"/><rect x="2240.5" y="772.5" width="8" height="8.00024" stroke="#607796" stroke-width="4.58333" stroke-miterlimit="8" fill="#9DACBF"/><rect x="2252.5" y="805.5" width="8" height="8.00024" stroke="#607796" stroke-width="4.58333" stroke-miterlimit="8" fill="#9DACBF"/><rect x="2247.5" y="800.5" width="17.0002" height="18.9999" stroke="#C5E0B4" stroke-width="3.4375" stroke-miterlimit="8" fill="none"/><rect x="2051.5" y="1034.5" width="16.9998" height="19.0002" stroke="#C5E0B4" stroke-width="3.4375" stroke-miterlimit="8" fill="none"/><rect x="2256.5" y="638.5" width="78" height="116" stroke="#C5E0B4" stroke-width="3.4375" stroke-miterlimit="8" fill="none"/><text font-family="Microsoft YaHei,Microsoft YaHei_MSFontService,sans-serif" font-weight="400" font-size="28" writing-mode="tb-rl" transform="matrix(1 2.95822e-25 -2.95822e-25 1 2299.62 655)" x="11.1494" y="2.85742">转弯的</text><text font-family="Microsoft YaHei,Microsoft YaHei_MSFontService,sans-serif" font-weight="400" font-size="28" writing-mode="tb-rl" transform="matrix(1 2.95822e-25 -2.95822e-25 1 2266.62 668)" x="11.1494" y="2.85742">柱子</text><path d="M0-1.71875 31.9438-1.71875 31.9438 32.1826 28.5063 32.1826 28.5063 0 30.2251 1.71875 0 1.71875ZM43.9751 27.5992 30.2251 55.0992 16.4751 27.5992Z" fill="#C5E0B4" transform="matrix(1 0 0 -1 2264.5 809.599)"/><path d="M0 1.71875-83.2791 1.71875-81.5603 0-81.5603 488.312-83.2791 486.593 243.949 486.593 242.23 488.312 242.23 428.727 245.668 428.727 245.668 490.03-84.9978 490.03-84.9978-1.71875 0-1.71875ZM230.199 433.31 243.949 405.81 257.699 433.31Z" fill="#C5E0B4" transform="matrix(1 -1.22465e-16 -1.22465e-16 -1 2051.5 1044.31)"/><rect x="2056.5" y="1040.5" width="6.99976" height="7.99988" stroke="#607796" stroke-width="4.58333" stroke-miterlimit="8" fill="#9DACBF"/><path d="M0 0 192.6 0.000360892" stroke="#C5E0B4" stroke-width="3.4375" stroke-miterlimit="8" stroke-dasharray="13.75 10.3125" fill="none" fill-rule="evenodd" transform="matrix(-1 0 0 1 2256.1 961.5)"/></g></svg>