<svg width="659" height="673" xmlns="http://www.w3.org/2000/svg" xmlns:xlink="http://www.w3.org/1999/xlink" overflow="hidden"><defs><clipPath id="clip0"><rect x="574" y="1332" width="659" height="673"/></clipPath></defs><g clip-path="url(#clip0)" transform="translate(-574 -1332)"><rect x="756.5" y="1887.5" width="6.99988" height="7.99988" stroke="#607796" stroke-width="4.58333" stroke-miterlimit="8" fill="#9DACBF"/><rect x="766" y="1524" width="187" height="187" fill="#607796"/><rect x="766" y="1711" width="187" height="187" fill="#607796"/><path d="M0 0 0.141831 187.019" stroke="#FFFFFF" stroke-width="13.75" stroke-miterlimit="8" stroke-dasharray="55 41.25" fill="none" fill-rule="evenodd" transform="matrix(-1 0 0 1 859.142 1711)"/><rect x="749.5" y="1928.5" width="299" height="65" stroke="#9DACBF" stroke-width="6.875" stroke-miterlimit="8" fill="none"/><text font-family="Microsoft YaHei,Microsoft YaHei_MSFontService,sans-serif" font-weight="400" font-size="37" transform="matrix(1 0 0 1 770.356 1973)">上一步剩余区域</text><path d="M0 3.4375-82.5001 3.4375-79.0626 0-79.0626 244.052-82.5001 240.615 74.8415 240.615 74.8415 247.49-85.9376 247.49-85.9376-3.4375 0-3.4375ZM70.2582 230.302 97.7582 244.052 70.2582 257.802Z" fill="#9DACBF" transform="matrix(-1 0 0 1 1146.26 1716.5)"/><rect x="956.5" y="1526.5" width="187" height="203" stroke="#607796" stroke-width="6.875" stroke-miterlimit="8" stroke-dasharray="27.5 20.625" fill="none"/><text font-family="Microsoft YaHei,Microsoft YaHei_MSFontService,sans-serif" font-weight="400" font-size="46" transform="matrix(1 0 0 1 981.068 1617)">待铺设<tspan font-size="46" x="22.9166" y="55">区域</tspan></text><rect x="577.5" y="1729.5" width="187" height="78" stroke="#607796" stroke-width="6.875" stroke-miterlimit="8" fill="none"/><path d="M764.087 1806.95 577 1729" stroke="#607796" stroke-width="2.29167" stroke-miterlimit="8" fill="none" fill-rule="evenodd"/><path d="M0 0 187.087 77.9528" stroke="#607796" stroke-width="2.29167" stroke-miterlimit="8" fill="none" fill-rule="evenodd" transform="matrix(-1 1.22465e-16 1.22465e-16 1 764.087 1729)"/><path d="M764.087 1885.95 577 1808" stroke="#607796" stroke-width="2.29167" stroke-miterlimit="8" fill="none" fill-rule="evenodd"/><path d="M0 0 187.087 77.9528" stroke="#607796" stroke-width="2.29167" stroke-miterlimit="8" fill="none" fill-rule="evenodd" transform="matrix(-1 1.22465e-16 1.22465e-16 1 764.087 1808)"/><rect x="577.5" y="1808.5" width="187" height="78" stroke="#607796" stroke-width="6.875" stroke-miterlimit="8" fill="none"/><rect x="770.5" y="1335.5" width="187" height="188" stroke="#607796" stroke-width="6.875" stroke-miterlimit="8" stroke-dasharray="27.5 20.625" fill="none"/><text font-family="Microsoft YaHei,Microsoft YaHei_MSFontService,sans-serif" font-weight="400" font-size="46" transform="matrix(1 0 0 1 794.471 1418)">待铺设<tspan font-size="46" x="22.9167" y="55">区域</tspan></text><path d="M766 1617 860.531 1617 860.531 1615.15 859.685 1615.15 859.685 1710.54" stroke="#FFFFFF" stroke-width="13.75" stroke-miterlimit="8" stroke-dasharray="55 41.25" fill="none" fill-rule="evenodd"/><rect x="955.5" y="1730.5" width="187" height="78" stroke="#607796" stroke-width="6.875" stroke-miterlimit="8" fill="none"/><path d="M1142.09 1807.95 955 1730" stroke="#607796" stroke-width="2.29167" stroke-miterlimit="8" fill="none" fill-rule="evenodd"/><path d="M0 0 187.087 77.9528" stroke="#607796" stroke-width="2.29167" stroke-miterlimit="8" fill="none" fill-rule="evenodd" transform="matrix(-1 1.22465e-16 1.22465e-16 1 1142.09 1730)"/><path d="M1142.09 1886.95 955 1809" stroke="#607796" stroke-width="2.29167" stroke-miterlimit="8" fill="none" fill-rule="evenodd"/><path d="M0 0 187.087 77.9528" stroke="#607796" stroke-width="2.29167" stroke-miterlimit="8" fill="none" fill-rule="evenodd" transform="matrix(-1 1.22465e-16 1.22465e-16 1 1142.09 1809)"/><rect x="955.5" y="1809.5" width="187" height="78" stroke="#607796" stroke-width="6.875" stroke-miterlimit="8" fill="none"/><rect x="955.5" y="1887.5" width="7.99988" height="7.99988" stroke="#607796" stroke-width="4.58333" stroke-miterlimit="8" fill="#9DACBF"/><rect x="955.5" y="1706.5" width="191" height="21" stroke="#9DACBF" stroke-width="4.58333" stroke-miterlimit="8" stroke-dasharray="18.3333 13.75" fill="none"/><rect x="756.5" y="1719.5" width="6.99988" height="7.00024" stroke="#607796" stroke-width="4.58333" stroke-miterlimit="8" fill="#9DACBF"/><path d="M0 104 0 58.4999C-1.34952e-14 33.371 20.371 13.0001 45.4998 13.0001L80 12.9999 80 0 106 26 80 51.9999 80 39 45.4998 39C34.7303 39 25.9999 47.7304 25.9999 58.4999L26 104Z" stroke="#548235" stroke-width="2.29167" stroke-miterlimit="8" fill="#C5E0B4" fill-rule="evenodd" transform="matrix(-1 0 0 1 932 1544)"/></g></svg>