<svg width="1838" height="995" xmlns="http://www.w3.org/2000/svg" xmlns:xlink="http://www.w3.org/1999/xlink" overflow="hidden"><defs><clipPath id="clip0"><rect x="153" y="1234" width="1838" height="995"/></clipPath></defs><g clip-path="url(#clip0)" transform="translate(-153 -1234)"><path d="M579.982 1375.97 649.376 1375.97 649.376 1445.21 579.982 1445.21Z" fill="#778CA5" fill-rule="evenodd"/><path d="M649.376 1375.97 718.77 1375.97 718.77 1445.21 649.376 1445.21Z" fill="#778CA5" fill-rule="evenodd"/><path d="M579.982 1445.21 649.376 1445.21 649.376 1514.44 579.982 1514.44Z" fill="#778CA5" fill-rule="evenodd"/><path d="M649.376 1445.21 718.77 1445.21 718.77 1514.44 649.376 1514.44Z" fill="#778CA5" fill-rule="evenodd"/><path d="M510.588 1583.68 579.982 1583.68 579.982 1652.92 510.588 1652.92Z" fill="#9DACBF" fill-rule="evenodd"/><path d="M579.982 1583.68 649.376 1583.68 649.376 1652.92 579.982 1652.92Z" fill="#9DACBF" fill-rule="evenodd"/><path d="M857.557 1583.68 926.951 1583.68 926.951 1652.92 857.557 1652.92Z" fill="#EDEFF3" fill-rule="evenodd"/><path d="M579.982 1652.92 649.376 1652.92 649.376 1722.15 579.982 1722.15Z" fill="#607796" fill-rule="evenodd"/><path d="M649.376 1652.92 718.77 1652.92 718.77 1722.15 649.376 1722.15Z" fill="#607796" fill-rule="evenodd"/><path d="M857.557 1652.92 926.951 1652.92 926.951 1722.15 857.557 1722.15Z" fill="#EDEFF3" fill-rule="evenodd"/><path d="M579.982 1722.15 649.376 1722.15 649.376 1791.39 579.982 1791.39Z" fill="#607796" fill-rule="evenodd"/><path d="M649.376 1722.15 718.77 1722.15 718.77 1791.39 649.376 1791.39Z" fill="#607796" fill-rule="evenodd"/><path d="M857.557 1722.15 926.951 1722.15 926.951 1791.39 857.557 1791.39Z" fill="#EDEFF3" fill-rule="evenodd"/><path d="M579.982 1791.39 649.376 1791.39 649.376 1860.63 579.982 1860.63Z" fill="#607796" fill-rule="evenodd"/><path d="M649.376 1791.39 718.77 1791.39 718.77 1860.63 649.376 1860.63Z" fill="#607796" fill-rule="evenodd"/><path d="M857.557 1791.39 926.951 1791.39 926.951 1860.63 857.557 1860.63Z" fill="#EDEFF3" fill-rule="evenodd"/><path d="M163.619 1860.63 233.013 1860.63 233.013 1929.86 163.619 1929.86Z" fill="#EDEFF3" fill-rule="evenodd"/><path d="M233.013 1860.63 302.407 1860.63 302.407 1929.86 233.013 1929.86Z" fill="#EDEFF3" fill-rule="evenodd"/><path d="M302.407 1860.63 371.801 1860.63 371.801 1929.86 302.407 1929.86Z" fill="#EDEFF3" fill-rule="evenodd"/><path d="M371.801 1860.63 441.195 1860.63 441.195 1929.86 371.801 1929.86Z" fill="#EDEFF3" fill-rule="evenodd"/><path d="M441.195 1860.63 510.588 1860.63 510.588 1929.86 441.195 1929.86Z" fill="#EDEFF3" fill-rule="evenodd"/><path d="M510.588 1860.63 579.982 1860.63 579.982 1929.86 510.588 1929.86Z" fill="#EDEFF3" fill-rule="evenodd"/><path d="M579.982 1860.63 649.376 1860.63 649.376 1929.86 579.982 1929.86Z" fill="#EDEFF3" fill-rule="evenodd"/><path d="M649.376 1860.63 718.77 1860.63 718.77 1929.86 649.376 1929.86Z" fill="#EDEFF3" fill-rule="evenodd"/><path d="M718.77 1860.63 788.164 1860.63 788.164 1929.86 718.77 1929.86Z" fill="#EDEFF3" fill-rule="evenodd"/><path d="M788.164 1860.63 857.557 1860.63 857.557 1929.86 788.164 1929.86Z" fill="#EDEFF3" fill-rule="evenodd"/><path d="M857.557 1860.63 926.951 1860.63 926.951 1929.86 857.557 1929.86Z" fill="#EDEFF3" fill-rule="evenodd"/><path d="M163.619 1929.86 233.013 1929.86 233.013 1999.1 163.619 1999.1Z" fill="#EDEFF3" fill-rule="evenodd"/><path d="M233.013 1929.86 302.407 1929.86 302.407 1999.1 233.013 1999.1Z" fill="#EDEFF3" fill-rule="evenodd"/><path d="M302.407 1929.86 371.801 1929.86 371.801 1999.1 302.407 1999.1Z" fill="#EDEFF3" fill-rule="evenodd"/><path d="M371.801 1929.86 441.195 1929.86 441.195 1999.1 371.801 1999.1Z" fill="#EDEFF3" fill-rule="evenodd"/><path d="M441.195 1929.86 510.588 1929.86 510.588 1999.1 441.195 1999.1Z" fill="#EDEFF3" fill-rule="evenodd"/><path d="M510.588 1929.86 579.982 1929.86 579.982 1999.1 510.588 1999.1Z" fill="#EDEFF3" fill-rule="evenodd"/><path d="M579.982 1929.86 649.376 1929.86 649.376 1999.1 579.982 1999.1Z" fill="#EDEFF3" fill-rule="evenodd"/><path d="M649.376 1929.86 718.77 1929.86 718.77 1999.1 649.376 1999.1Z" fill="#EDEFF3" fill-rule="evenodd"/><path d="M718.77 1929.86 788.164 1929.86 788.164 1999.1 718.77 1999.1Z" fill="#EDEFF3" fill-rule="evenodd"/><path d="M788.164 1929.86 857.557 1929.86 857.557 1999.1 788.164 1999.1Z" fill="#EDEFF3" fill-rule="evenodd"/><path d="M857.557 1929.86 926.951 1929.86 926.951 1999.1 857.557 1999.1Z" fill="#EDEFF3" fill-rule="evenodd"/><path d="M233.013 1235.21 233.013 2001.39" stroke="#BCCEE7" stroke-width="4.58333" stroke-linejoin="round" stroke-miterlimit="10" fill="none" fill-rule="evenodd"/><path d="M302.407 1235.21 302.407 2001.39" stroke="#BCCEE7" stroke-width="4.58333" stroke-linejoin="round" stroke-miterlimit="10" fill="none" fill-rule="evenodd"/><path d="M371.801 1235.21 371.801 2001.39" stroke="#BCCEE7" stroke-width="4.58333" stroke-linejoin="round" stroke-miterlimit="10" fill="none" fill-rule="evenodd"/><path d="M441.195 1235.21 441.195 2001.39" stroke="#BCCEE7" stroke-width="4.58333" stroke-linejoin="round" stroke-miterlimit="10" fill="none" fill-rule="evenodd"/><path d="M510.588 1235.21 510.588 2001.39" stroke="#BCCEE7" stroke-width="4.58333" stroke-linejoin="round" stroke-miterlimit="10" fill="none" fill-rule="evenodd"/><path d="M579.982 1235.21 579.982 2001.39" stroke="#BCCEE7" stroke-width="4.58333" stroke-linejoin="round" stroke-miterlimit="10" fill="none" fill-rule="evenodd"/><path d="M649.376 1235.21 649.376 2001.39" stroke="#BCCEE7" stroke-width="4.58333" stroke-linejoin="round" stroke-miterlimit="10" fill="none" fill-rule="evenodd"/><path d="M718.77 1235.21 718.77 2001.39" stroke="#BCCEE7" stroke-width="4.58333" stroke-linejoin="round" stroke-miterlimit="10" fill="none" fill-rule="evenodd"/><path d="M788.164 1235.21 788.164 2001.39" stroke="#BCCEE7" stroke-width="4.58333" stroke-linejoin="round" stroke-miterlimit="10" fill="none" fill-rule="evenodd"/><path d="M857.557 1235.21 857.557 2001.39" stroke="#BCCEE7" stroke-width="4.58333" stroke-linejoin="round" stroke-miterlimit="10" fill="none" fill-rule="evenodd"/><path d="M161.328 1306.74 233.013 1306.74" stroke="#BCCEE7" stroke-width="4.58333" stroke-linejoin="round" stroke-miterlimit="10" fill="none" fill-rule="evenodd"/><path d="M233.013 1306.74 579.982 1306.74" stroke="#BCCEE7" stroke-width="4.58333" stroke-linejoin="round" stroke-miterlimit="10" fill="none" fill-rule="evenodd"/><path d="M579.982 1306.74 929.243 1306.74" stroke="#BCCEE7" stroke-width="4.58333" stroke-linejoin="round" stroke-miterlimit="10" fill="none" fill-rule="evenodd"/><path d="M161.328 1375.97 233.013 1375.97" stroke="#BCCEE7" stroke-width="4.58333" stroke-linejoin="round" stroke-miterlimit="10" fill="none" fill-rule="evenodd"/><path d="M233.013 1375.97 579.982 1375.97" stroke="#BCCEE7" stroke-width="4.58333" stroke-linejoin="round" stroke-miterlimit="10" fill="none" fill-rule="evenodd"/><path d="M579.982 1375.97 929.243 1375.97" stroke="#BCCEE7" stroke-width="4.58333" stroke-linejoin="round" stroke-miterlimit="10" fill="none" fill-rule="evenodd"/><path d="M161.328 1445.21 233.013 1445.21" stroke="#BCCEE7" stroke-width="4.58333" stroke-linejoin="round" stroke-miterlimit="10" fill="none" fill-rule="evenodd"/><path d="M233.013 1445.21 579.982 1445.21" stroke="#BCCEE7" stroke-width="4.58333" stroke-linejoin="round" stroke-miterlimit="10" fill="none" fill-rule="evenodd"/><path d="M579.982 1445.21 929.243 1445.21" stroke="#BCCEE7" stroke-width="4.58333" stroke-linejoin="round" stroke-miterlimit="10" fill="none" fill-rule="evenodd"/><path d="M161.328 1514.44 233.013 1514.44" stroke="#BCCEE7" stroke-width="4.58333" stroke-linejoin="round" stroke-miterlimit="10" fill="none" fill-rule="evenodd"/><path d="M233.013 1514.44 579.982 1514.44" stroke="#BCCEE7" stroke-width="4.58333" stroke-linejoin="round" stroke-miterlimit="10" fill="none" fill-rule="evenodd"/><path d="M579.982 1514.44 929.243 1514.44" stroke="#BCCEE7" stroke-width="4.58333" stroke-linejoin="round" stroke-miterlimit="10" fill="none" fill-rule="evenodd"/><path d="M161.328 1583.68 233.013 1583.68" stroke="#BCCEE7" stroke-width="4.58333" stroke-linejoin="round" stroke-miterlimit="10" fill="none" fill-rule="evenodd"/><path d="M233.013 1583.68 579.982 1583.68" stroke="#BCCEE7" stroke-width="4.58333" stroke-linejoin="round" stroke-miterlimit="10" fill="none" fill-rule="evenodd"/><path d="M579.982 1583.68 929.243 1583.68" stroke="#BCCEE7" stroke-width="4.58333" stroke-linejoin="round" stroke-miterlimit="10" fill="none" fill-rule="evenodd"/><path d="M161.328 1652.92 233.013 1652.92" stroke="#BCCEE7" stroke-width="4.58333" stroke-linejoin="round" stroke-miterlimit="10" fill="none" fill-rule="evenodd"/><path d="M233.013 1652.92 579.982 1652.92" stroke="#BCCEE7" stroke-width="4.58333" stroke-linejoin="round" stroke-miterlimit="10" fill="none" fill-rule="evenodd"/><path d="M579.982 1652.92 929.243 1652.92" stroke="#BCCEE7" stroke-width="4.58333" stroke-linejoin="round" stroke-miterlimit="10" fill="none" fill-rule="evenodd"/><path d="M161.328 1722.15 233.013 1722.15" stroke="#BCCEE7" stroke-width="4.58333" stroke-linejoin="round" stroke-miterlimit="10" fill="none" fill-rule="evenodd"/><path d="M233.013 1722.15 579.982 1722.15" stroke="#BCCEE7" stroke-width="4.58333" stroke-linejoin="round" stroke-miterlimit="10" fill="none" fill-rule="evenodd"/><path d="M579.982 1722.15 929.243 1722.15" stroke="#BCCEE7" stroke-width="4.58333" stroke-linejoin="round" stroke-miterlimit="10" fill="none" fill-rule="evenodd"/><path d="M161.328 1791.39 233.013 1791.39" stroke="#BCCEE7" stroke-width="4.58333" stroke-linejoin="round" stroke-miterlimit="10" fill="none" fill-rule="evenodd"/><path d="M233.013 1791.39 579.982 1791.39" stroke="#BCCEE7" stroke-width="4.58333" stroke-linejoin="round" stroke-miterlimit="10" fill="none" fill-rule="evenodd"/><path d="M579.982 1791.39 929.243 1791.39" stroke="#BCCEE7" stroke-width="4.58333" stroke-linejoin="round" stroke-miterlimit="10" fill="none" fill-rule="evenodd"/><path d="M161.328 1860.63 233.013 1860.63" stroke="#BCCEE7" stroke-width="4.58333" stroke-linejoin="round" stroke-miterlimit="10" fill="none" fill-rule="evenodd"/><path d="M233.013 1860.63 579.982 1860.63" stroke="#BCCEE7" stroke-width="4.58333" stroke-linejoin="round" stroke-miterlimit="10" fill="none" fill-rule="evenodd"/><path d="M579.982 1860.63 929.243 1860.63" stroke="#BCCEE7" stroke-width="4.58333" stroke-linejoin="round" stroke-miterlimit="10" fill="none" fill-rule="evenodd"/><path d="M161.328 1929.86 233.013 1929.86" stroke="#BCCEE7" stroke-width="4.58333" stroke-linejoin="round" stroke-miterlimit="10" fill="none" fill-rule="evenodd"/><path d="M233.013 1929.86 579.982 1929.86" stroke="#BCCEE7" stroke-width="4.58333" stroke-linejoin="round" stroke-miterlimit="10" fill="none" fill-rule="evenodd"/><path d="M579.982 1929.86 929.243 1929.86" stroke="#BCCEE7" stroke-width="4.58333" stroke-linejoin="round" stroke-miterlimit="10" fill="none" fill-rule="evenodd"/><path d="M163.619 1235.21 163.619 2001.39" stroke="#BCCEE7" stroke-width="4.58333" stroke-linejoin="round" stroke-miterlimit="10" fill="none" fill-rule="evenodd"/><path d="M926.951 1235.21 926.951 2001.39" stroke="#BCCEE7" stroke-width="4.58333" stroke-linejoin="round" stroke-miterlimit="10" fill="none" fill-rule="evenodd"/><path d="M161.328 1237.5 233.013 1237.5" stroke="#BCCEE7" stroke-width="4.58333" stroke-linejoin="round" stroke-miterlimit="10" fill="none" fill-rule="evenodd"/><path d="M233.013 1237.5 579.982 1237.5" stroke="#BCCEE7" stroke-width="4.58333" stroke-linejoin="round" stroke-miterlimit="10" fill="none" fill-rule="evenodd"/><path d="M579.982 1237.5 929.243 1237.5" stroke="#BCCEE7" stroke-width="4.58333" stroke-linejoin="round" stroke-miterlimit="10" fill="none" fill-rule="evenodd"/><path d="M161.328 1999.1 929.243 1999.1" stroke="#BCCEE7" stroke-width="4.58333" stroke-linejoin="round" stroke-miterlimit="10" fill="none" fill-rule="evenodd"/><path d="M576 1635 544.5 1635 544.5 1652 513 1618 544.5 1584 544.5 1601 576 1601Z" stroke="#548235" stroke-width="2.29167" stroke-miterlimit="8" fill="#C5E0B4" fill-rule="evenodd"/><path d="M1708.67 1306.48 1778.06 1306.48 1778.06 1375.72 1708.67 1375.72Z" fill="#D1D8E1" fill-rule="evenodd"/><path d="M1778.06 1306.48 1847.46 1306.48 1847.46 1375.72 1778.06 1375.72Z" fill="#D1D8E1" fill-rule="evenodd"/><path d="M1847.46 1306.48 1916.85 1306.48 1916.85 1375.72 1847.46 1375.72Z" fill="#D1D8E1" fill-rule="evenodd"/><path d="M1708.67 1375.72 1778.06 1375.72 1778.06 1444.95 1708.67 1444.95Z" fill="#D1D8E1" fill-rule="evenodd"/><path d="M1778.06 1375.72 1847.46 1375.72 1847.46 1444.95 1778.06 1444.95Z" fill="#D1D8E1" fill-rule="evenodd"/><path d="M1847.46 1375.72 1916.85 1375.72 1916.85 1444.95 1847.46 1444.95Z" fill="#D1D8E1" fill-rule="evenodd"/><path d="M1569.88 1583.42 1639.28 1583.42 1639.28 1652.66 1569.88 1652.66Z" fill="#9DACBF" fill-rule="evenodd"/><path d="M1569.88 1652.66 1639.28 1652.66 1639.28 1721.9 1569.88 1721.9Z" fill="#9DACBF" fill-rule="evenodd"/><path d="M1569.88 1721.9 1639.28 1721.9 1639.28 1791.13 1569.88 1791.13Z" fill="#9DACBF" fill-rule="evenodd"/><path d="M1569.88 1791.13 1639.28 1791.13 1639.28 1860.37 1569.88 1860.37Z" fill="#9DACBF" fill-rule="evenodd"/><path d="M1639.28 1791.13 1708.67 1791.13 1708.67 1860.37 1639.28 1860.37Z" fill="#9DACBF" fill-rule="evenodd"/><path d="M1916.85 1791.13 1986.25 1791.13 1986.25 1860.37 1916.85 1860.37Z" fill="#EDEFF3" fill-rule="evenodd"/><path d="M1639.28 1860.37 1708.67 1860.37 1708.67 1929.6 1639.28 1929.6Z" fill="#607796" fill-rule="evenodd"/><path d="M1708.67 1860.37 1778.06 1860.37 1778.06 1929.6 1708.67 1929.6Z" fill="#607796" fill-rule="evenodd"/><path d="M1916.85 1860.37 1986.25 1860.37 1986.25 1929.6 1916.85 1929.6Z" fill="#EDEFF3" fill-rule="evenodd"/><path d="M1639.28 1929.6 1708.67 1929.6 1708.67 1998.84 1639.28 1998.84Z" fill="#607796" fill-rule="evenodd"/><path d="M1708.67 1929.6 1778.06 1929.6 1778.06 1998.84 1708.67 1998.84Z" fill="#607796" fill-rule="evenodd"/><path d="M1916.85 1929.6 1986.25 1929.6 1986.25 1998.84 1916.85 1998.84Z" fill="#EDEFF3" fill-rule="evenodd"/><path d="M1292.31 1234.95 1292.31 2001.13" stroke="#BCCEE7" stroke-width="4.58333" stroke-linejoin="round" stroke-miterlimit="10" fill="none" fill-rule="evenodd"/><path d="M1361.7 1234.95 1361.7 2001.13" stroke="#BCCEE7" stroke-width="4.58333" stroke-linejoin="round" stroke-miterlimit="10" fill="none" fill-rule="evenodd"/><path d="M1431.09 1234.95 1431.09 2001.13" stroke="#BCCEE7" stroke-width="4.58333" stroke-linejoin="round" stroke-miterlimit="10" fill="none" fill-rule="evenodd"/><path d="M1500.49 1234.95 1500.49 2001.13" stroke="#BCCEE7" stroke-width="4.58333" stroke-linejoin="round" stroke-miterlimit="10" fill="none" fill-rule="evenodd"/><path d="M1569.88 1234.95 1569.88 2001.13" stroke="#BCCEE7" stroke-width="4.58333" stroke-linejoin="round" stroke-miterlimit="10" fill="none" fill-rule="evenodd"/><path d="M1639.28 1234.95 1639.28 2001.13" stroke="#BCCEE7" stroke-width="4.58333" stroke-linejoin="round" stroke-miterlimit="10" fill="none" fill-rule="evenodd"/><path d="M1708.67 1234.95 1708.67 2001.13" stroke="#BCCEE7" stroke-width="4.58333" stroke-linejoin="round" stroke-miterlimit="10" fill="none" fill-rule="evenodd"/><path d="M1778.06 1234.95 1778.06 2001.13" stroke="#BCCEE7" stroke-width="4.58333" stroke-linejoin="round" stroke-miterlimit="10" fill="none" fill-rule="evenodd"/><path d="M1847.46 1234.95 1847.46 2001.13" stroke="#BCCEE7" stroke-width="4.58333" stroke-linejoin="round" stroke-miterlimit="10" fill="none" fill-rule="evenodd"/><path d="M1916.85 1234.95 1916.85 2001.13" stroke="#BCCEE7" stroke-width="4.58333" stroke-linejoin="round" stroke-miterlimit="10" fill="none" fill-rule="evenodd"/><path d="M1220.62 1306.48 1988.54 1306.48" stroke="#BCCEE7" stroke-width="4.58333" stroke-linejoin="round" stroke-miterlimit="10" fill="none" fill-rule="evenodd"/><path d="M1220.62 1375.72 1988.54 1375.72" stroke="#BCCEE7" stroke-width="4.58333" stroke-linejoin="round" stroke-miterlimit="10" fill="none" fill-rule="evenodd"/><path d="M1220.62 1444.95 1292.31 1444.95" stroke="#BCCEE7" stroke-width="4.58333" stroke-linejoin="round" stroke-miterlimit="10" fill="none" fill-rule="evenodd"/><path d="M1292.31 1444.95 1639.28 1444.95" stroke="#BCCEE7" stroke-width="4.58333" stroke-linejoin="round" stroke-miterlimit="10" fill="none" fill-rule="evenodd"/><path d="M1639.28 1444.95 1988.54 1444.95" stroke="#BCCEE7" stroke-width="4.58333" stroke-linejoin="round" stroke-miterlimit="10" fill="none" fill-rule="evenodd"/><path d="M1220.62 1514.19 1292.31 1514.19" stroke="#BCCEE7" stroke-width="4.58333" stroke-linejoin="round" stroke-miterlimit="10" fill="none" fill-rule="evenodd"/><path d="M1292.31 1514.19 1639.28 1514.19" stroke="#BCCEE7" stroke-width="4.58333" stroke-linejoin="round" stroke-miterlimit="10" fill="none" fill-rule="evenodd"/><path d="M1639.28 1514.19 1988.54 1514.19" stroke="#BCCEE7" stroke-width="4.58333" stroke-linejoin="round" stroke-miterlimit="10" fill="none" fill-rule="evenodd"/><path d="M1220.62 1583.42 1292.31 1583.42" stroke="#BCCEE7" stroke-width="4.58333" stroke-linejoin="round" stroke-miterlimit="10" fill="none" fill-rule="evenodd"/><path d="M1292.31 1583.42 1639.28 1583.42" stroke="#BCCEE7" stroke-width="4.58333" stroke-linejoin="round" stroke-miterlimit="10" fill="none" fill-rule="evenodd"/><path d="M1639.28 1583.42 1988.54 1583.42" stroke="#BCCEE7" stroke-width="4.58333" stroke-linejoin="round" stroke-miterlimit="10" fill="none" fill-rule="evenodd"/><path d="M1220.62 1652.66 1292.31 1652.66" stroke="#BCCEE7" stroke-width="4.58333" stroke-linejoin="round" stroke-miterlimit="10" fill="none" fill-rule="evenodd"/><path d="M1292.31 1652.66 1639.28 1652.66" stroke="#BCCEE7" stroke-width="4.58333" stroke-linejoin="round" stroke-miterlimit="10" fill="none" fill-rule="evenodd"/><path d="M1639.28 1652.66 1988.54 1652.66" stroke="#BCCEE7" stroke-width="4.58333" stroke-linejoin="round" stroke-miterlimit="10" fill="none" fill-rule="evenodd"/><path d="M1220.62 1721.9 1292.31 1721.9" stroke="#BCCEE7" stroke-width="4.58333" stroke-linejoin="round" stroke-miterlimit="10" fill="none" fill-rule="evenodd"/><path d="M1292.31 1721.9 1639.28 1721.9" stroke="#BCCEE7" stroke-width="4.58333" stroke-linejoin="round" stroke-miterlimit="10" fill="none" fill-rule="evenodd"/><path d="M1639.28 1721.9 1988.54 1721.9" stroke="#BCCEE7" stroke-width="4.58333" stroke-linejoin="round" stroke-miterlimit="10" fill="none" fill-rule="evenodd"/><path d="M1220.62 1791.13 1292.31 1791.13" stroke="#BCCEE7" stroke-width="4.58333" stroke-linejoin="round" stroke-miterlimit="10" fill="none" fill-rule="evenodd"/><path d="M1292.31 1791.13 1639.28 1791.13" stroke="#BCCEE7" stroke-width="4.58333" stroke-linejoin="round" stroke-miterlimit="10" fill="none" fill-rule="evenodd"/><path d="M1639.28 1791.13 1988.54 1791.13" stroke="#BCCEE7" stroke-width="4.58333" stroke-linejoin="round" stroke-miterlimit="10" fill="none" fill-rule="evenodd"/><path d="M1220.62 1860.37 1292.31 1860.37" stroke="#BCCEE7" stroke-width="4.58333" stroke-linejoin="round" stroke-miterlimit="10" fill="none" fill-rule="evenodd"/><path d="M1292.31 1860.37 1639.28 1860.37" stroke="#BCCEE7" stroke-width="4.58333" stroke-linejoin="round" stroke-miterlimit="10" fill="none" fill-rule="evenodd"/><path d="M1639.28 1860.37 1988.54 1860.37" stroke="#BCCEE7" stroke-width="4.58333" stroke-linejoin="round" stroke-miterlimit="10" fill="none" fill-rule="evenodd"/><path d="M1220.62 1929.6 1292.31 1929.6" stroke="#BCCEE7" stroke-width="4.58333" stroke-linejoin="round" stroke-miterlimit="10" fill="none" fill-rule="evenodd"/><path d="M1292.31 1929.6 1639.28 1929.6" stroke="#BCCEE7" stroke-width="4.58333" stroke-linejoin="round" stroke-miterlimit="10" fill="none" fill-rule="evenodd"/><path d="M1639.28 1929.6 1988.54 1929.6" stroke="#BCCEE7" stroke-width="4.58333" stroke-linejoin="round" stroke-miterlimit="10" fill="none" fill-rule="evenodd"/><path d="M1222.91 1234.95 1222.91 2001.13" stroke="#BCCEE7" stroke-width="4.58333" stroke-linejoin="round" stroke-miterlimit="10" fill="none" fill-rule="evenodd"/><path d="M1986.25 1234.95 1986.25 2001.13" stroke="#BCCEE7" stroke-width="4.58333" stroke-linejoin="round" stroke-miterlimit="10" fill="none" fill-rule="evenodd"/><path d="M1220.62 1237.24 1988.54 1237.24" stroke="#BCCEE7" stroke-width="4.58333" stroke-linejoin="round" stroke-miterlimit="10" fill="none" fill-rule="evenodd"/><path d="M1220.62 1998.84 1988.54 1998.84" stroke="#BCCEE7" stroke-width="4.58333" stroke-linejoin="round" stroke-miterlimit="10" fill="none" fill-rule="evenodd"/><path d="M1587.75 1647 1587.75 1615.5 1571 1615.5 1604.5 1584 1638 1615.5 1621.25 1615.5 1621.25 1647Z" stroke="#548235" stroke-width="2.29167" stroke-miterlimit="8" fill="#C5E0B4" fill-rule="evenodd"/><rect x="158" y="1917" width="774" height="90.0001" stroke="#FFD966" stroke-width="10.3125" stroke-miterlimit="8" stroke-dasharray="41.25 30.9375" fill="none"/><text font-family="Microsoft YaHei,Microsoft YaHei_MSFontService,sans-serif" font-weight="400" font-size="48" transform="matrix(1 0 0 1 400.383 2188)">超出图纸部分</text><path d="M1.71873-0.00798586 2.13952 90.5543-1.29795 90.5702-1.71873 0.00798586ZM14.1493 85.9151 0.527264 113.479-13.3504 86.0428Z" fill="#FFD966" transform="matrix(-1 0 0 1 546.027 1999.5)"/></g></svg>