<svg width="2229" height="1161" xmlns="http://www.w3.org/2000/svg" xmlns:xlink="http://www.w3.org/1999/xlink" overflow="hidden"><defs><clipPath id="clip0"><rect x="394" y="1070" width="2229" height="1161"/></clipPath></defs><g clip-path="url(#clip0)" transform="translate(-394 -1070)"><path d="M481.5 1422C481.5 1409.57 491.574 1399.5 504.001 1399.5L856 1399.5C868.426 1399.5 878.5 1409.57 878.5 1422L878.5 1512C878.5 1524.43 868.426 1534.5 856 1534.5L504.001 1534.5C491.574 1534.5 481.5 1524.43 481.5 1512Z" stroke="#607796" stroke-width="4.58333" stroke-linejoin="round" stroke-miterlimit="10" stroke-dasharray="18.3333 13.75" fill="#EDEFF3" fill-rule="evenodd"/><text fill="#576C87" font-family="SimSun,SimSun_MSFontService,sans-serif" font-weight="400" font-size="73" transform="matrix(1 0 0 1 606.419 1498)">环境</text><path d="M3.95678e-06-3.4375 290.613-3.43717 290.613 3.43783-3.95678e-06 3.4375ZM286.029-13.7497 313.529 0.000360892 286.029 13.7503Z" fill="#607796" transform="matrix(-1 0 0 1 1192.03 1444.5)"/><rect x="1192.5" y="1408.5" width="397" height="122" stroke="#607796" stroke-width="4.58333" stroke-linejoin="round" stroke-miterlimit="10" stroke-dasharray="18.3333 13.75" fill="#EDEFF3"/><text fill="#576C87" font-family="SimSun,SimSun_MSFontService,sans-serif" font-weight="400" font-size="73" transform="matrix(1 0 0 1 1243.97 1500)">行为网络</text><path d="M878.526 1485.06 1169.14 1487.28 1169.09 1494.15 878.474 1491.94ZM1164.64 1476.93 1192.03 1490.89 1164.43 1504.43Z" fill="#607796"/><path d="M1844.97 1782.88 1849.09 1782.88 1845.66 1786.32 1845.66 1658.41 1849.09 1661.85 1388.06 1661.85 1388.06 1553.42 1394.94 1553.42 1394.94 1658.41 1391.5 1654.97 1852.53 1654.97 1852.53 1789.76 1844.97 1789.76ZM1377.75 1558 1391.5 1530.5 1405.25 1558Z" fill="#607796"/><rect x="1903.5" y="1412.5" width="397" height="122" stroke="#607796" stroke-width="4.58333" stroke-linejoin="round" stroke-miterlimit="10" stroke-dasharray="18.3333 13.75" fill="#EDEFF3"/><text fill="#576C87" font-family="SimSun,SimSun_MSFontService,sans-serif" font-weight="400" font-size="73" transform="matrix(1 0 0 1 1954.86 1504)">目标网络</text><path d="M0-3.4375 255.814-3.4375 255.814 100.966 248.939 100.966 248.939 0 252.376 3.4375 0 3.4375ZM266.126 96.3824 252.376 123.882 238.626 96.3824Z" fill="#607796" transform="matrix(1 0 0 -1 1849.5 1658.38)"/><path d="M2054.5 1846C2054.5 1878.86 1960.7 1905.5 1845 1905.5 1729.3 1905.5 1635.5 1878.86 1635.5 1846 1635.5 1813.14 1729.3 1786.5 1845 1786.5 1960.7 1786.5 2054.5 1813.14 2054.5 1846Z" stroke="#607796" stroke-width="3.4375" stroke-miterlimit="8" fill="none" fill-rule="evenodd"/><path d="M1994.64 1995.83C1985.66 1995.83 1979.68 1989.87 1979.68 1980.92 1979.68 1971.97 1985.66 1966 1994.64 1966 2003.62 1966 2009.61 1971.97 2009.61 1980.92 2009.61 1989.87 2003.62 1995.83 1994.64 1995.83ZM1845 1936.17C1729.78 1936.17 1635.5 1909.32 1635.5 1876.5L1635.5 1995.83C1635.5 2028.65 1729.78 2055.5 1845 2055.5 1960.23 2055.5 2054.5 2028.65 2054.5 1995.83L2054.5 1876.5C2054.5 1909.32 1960.23 1936.17 1845 1936.17Z" stroke="#607796" stroke-width="3.4375" stroke-miterlimit="8" fill="none" fill-rule="evenodd"/><text fill="#576C87" font-family="SimSun,SimSun_MSFontService,sans-serif" font-weight="400" font-size="73" transform="matrix(1 0 0 1 1697.44 1887)">经验回放<tspan font-size="73" x="36.6666" y="114">缓冲区</tspan></text><rect x="1314.5" y="1076.5" width="1090" height="122" stroke="#607796" stroke-width="4.58333" stroke-linejoin="round" stroke-miterlimit="10" stroke-dasharray="18.3333 13.75" fill="#EDEFF3"/><text fill="#576C87" font-family="SimSun,SimSun_MSFontService,sans-serif" font-weight="400" font-size="73" transform="matrix(1 0 0 1 1712.28 1168)">误差函数</text><path d="M1589.54 1466.06 1880.16 1469.8 1880.07 1476.67 1589.46 1472.94ZM1875.71 1459.43 1903.03 1473.53 1875.35 1486.92Z" fill="#607796"/><path d="M1477.94 1198.5 1477.94 1387.58 1471.06 1387.58 1471.06 1198.5ZM1488.25 1382.99 1474.5 1410.49 1460.75 1382.99Z" fill="#607796"/><path d="M3.4375-5.7995e-06 3.43782 190.993-3.43718 190.993-3.4375 5.7995e-06ZM13.7503 186.409 0.000360892 213.909-13.7497 186.409Z" fill="#607796" transform="matrix(1 0 0 -1 1389.5 1405.41)"/><path d="M3.4375-5.7995e-06 3.43782 190.993-3.43718 190.993-3.4375 5.7995e-06ZM13.7503 186.409 0.000360892 213.909-13.7497 186.409Z" fill="#607796" transform="matrix(1 0 0 -1 2085.5 1412.41)"/><path d="M0 3.4375-214.495 3.4375-211.058 0-211.058 942.287-214.495 938.849 1318.43 938.849 1314.99 942.287 1314.99 882.706 1321.86 882.706 1321.86 945.724-217.933 945.724-217.933-3.4375 0-3.4375ZM1304.68 887.29 1318.43 859.79 1332.18 887.29Z" fill="#607796" transform="matrix(-1 0 0 1 2404.93 1137.5)"/><path d="M481.5 1469.94 398.996 1469.94 402.434 1466.5 402.434 1708.26 397.577 1708.26 401.014 1704.83 401.014 1875.57 397.577 1872.13 1612.16 1872.13 1612.16 1879 394.139 1879 394.139 1701.39 398.996 1701.39 395.559 1704.83 395.559 1463.06 481.5 1463.06ZM1607.58 1861.82 1635.08 1875.57 1607.58 1889.32Z" fill="#607796"/><path d="M1184.05 1779C1190.14 1780.61 1194.81 1784.07 1198.07 1789.39 1201.33 1794.71 1202.96 1801.14 1202.96 1808.66 1202.96 1816.2 1201.33 1822.62 1198.08 1827.92 1194.83 1833.23 1190.16 1836.68 1184.05 1838.28L1183.3 1835.88C1188.11 1834.27 1191.69 1831.11 1194.04 1826.38 1196.38 1821.65 1197.55 1815.64 1197.55 1808.35 1197.55 1801.3 1196.39 1795.45 1194.05 1790.8 1191.72 1786.14 1188.1 1783.01 1183.21 1781.41ZM949.886 1779 950.73 1781.41C945.855 1783.01 942.245 1786.14 939.901 1790.8 937.558 1795.45 936.386 1801.3 936.386 1808.35 936.386 1815.64 937.558 1821.65 939.901 1826.38 942.245 1831.11 945.823 1834.27 950.636 1835.88L949.886 1838.28C943.782 1836.68 939.105 1833.23 935.855 1827.92 932.605 1822.62 930.98 1816.2 930.98 1808.66 930.98 1801.14 932.61 1794.71 935.87 1789.39 939.131 1784.07 943.802 1780.61 949.886 1779Z" fill="#576C87" fill-rule="evenodd"/><path d="M969.421 1796.56C971.359 1796.56 973.124 1796.67 974.718 1796.9 976.312 1797.13 977.9 1797.52 979.484 1798.09L978.077 1804.65 975.546 1804.65C975.317 1802.8 974.708 1801.39 973.718 1800.43 972.729 1799.47 971.171 1798.99 969.046 1798.99 967.4 1798.99 966.067 1799.41 965.046 1800.26 964.025 1801.1 963.515 1802.21 963.515 1803.59 963.515 1804.34 963.645 1805 963.906 1805.57 964.166 1806.14 964.692 1806.77 965.484 1807.46 966.275 1808.15 967.505 1808.99 969.171 1809.99 970.484 1810.78 971.536 1811.51 972.327 1812.16 973.119 1812.82 973.744 1813.47 974.202 1814.12 974.661 1814.76 974.994 1815.45 975.202 1816.16 975.411 1816.88 975.515 1817.75 975.515 1818.77 975.515 1820.63 975.02 1822.22 974.031 1823.54 973.041 1824.86 971.697 1825.85 969.999 1826.49 968.301 1827.14 966.369 1827.46 964.202 1827.46 962.473 1827.46 960.775 1827.33 959.109 1827.07 957.442 1826.81 955.588 1826.37 953.546 1825.74L955.046 1818.93 957.484 1818.93C957.567 1820.93 958.13 1822.44 959.171 1823.46 960.213 1824.48 961.869 1824.99 964.14 1824.99 966.119 1824.99 967.666 1824.55 968.781 1823.66 969.895 1822.78 970.452 1821.52 970.452 1819.9 970.452 1818.96 970.296 1818.15 969.984 1817.48 969.671 1816.8 969.161 1816.15 968.452 1815.52 967.744 1814.9 966.619 1814.12 965.077 1813.18 963.452 1812.2 962.187 1811.32 961.281 1810.52 960.374 1809.73 959.692 1808.87 959.234 1807.95 958.775 1807.02 958.546 1805.95 958.546 1804.74 958.546 1803.1 958.989 1801.65 959.874 1800.41 960.76 1799.18 962.025 1798.22 963.671 1797.56 965.317 1796.89 967.234 1796.56 969.421 1796.56Z" fill="#576C87" fill-rule="evenodd"/><text fill="#000000" fill-opacity="0" font-family="Arial,Arial_MSFontService,sans-serif" font-size="30.9062" x="953.546" y="1823.6">𝑠</text><path d="M987.269 1819.68 992.738 1819.68C993.03 1821.14 993.175 1822.58 993.175 1823.99 993.175 1825.45 992.925 1826.78 992.425 1827.99 991.925 1829.2 991.129 1830.4 990.035 1831.6 988.941 1832.8 987.436 1834.12 985.519 1835.56L983.832 1833.65C984.894 1832.65 985.665 1831.75 986.144 1830.95 986.623 1830.14 986.967 1829.23 987.175 1828.21 987.384 1827.19 987.488 1825.91 987.488 1824.37 987.488 1822.78 987.415 1821.22 987.269 1819.68Z" fill="#576C87" fill-rule="evenodd"/><text fill="#000000" fill-opacity="0" font-family="Arial,Arial_MSFontService,sans-serif" font-size="15.875" x="983.832" y="1833.57">,</text><path d="M1026.99 1798.99C1024.85 1798.99 1022.92 1799.86 1021.21 1801.59 1019.5 1803.32 1018.17 1805.63 1017.21 1808.54 1016.25 1811.45 1015.77 1814.35 1015.77 1817.24 1015.77 1819.41 1016.07 1821.03 1016.66 1822.1 1017.26 1823.18 1018.25 1823.71 1019.65 1823.71 1021.02 1823.71 1022.37 1823.12 1023.7 1821.93 1025.02 1820.74 1026.38 1819.05 1027.79 1816.85 1029.2 1814.65 1030.19 1812.12 1030.77 1809.24L1031.05 1807.9C1031.24 1807.05 1031.37 1806.31 1031.43 1805.68 1031.49 1805.06 1031.52 1804.38 1031.52 1803.65 1031.52 1802.05 1031.18 1800.87 1030.49 1800.12 1029.8 1799.37 1028.64 1798.99 1026.99 1798.99ZM1026.37 1796.52C1027.72 1796.52 1028.99 1796.68 1030.16 1796.98 1031.34 1797.28 1032.55 1797.82 1033.8 1798.59L1036.68 1796.52 1038.68 1797.02 1034.09 1816.84C1033.63 1818.82 1033.4 1820.36 1033.4 1821.46 1033.4 1822.3 1033.53 1822.9 1033.8 1823.27 1034.08 1823.65 1034.5 1823.84 1035.09 1823.84 1035.71 1823.84 1036.38 1823.58 1037.09 1823.07 1037.79 1822.56 1038.79 1821.59 1040.09 1820.15L1041.87 1821.9C1039.99 1823.9 1038.39 1825.32 1037.07 1826.16 1035.75 1827.01 1034.31 1827.43 1032.77 1827.43 1031.48 1827.43 1030.45 1827 1029.68 1826.15 1028.91 1825.3 1028.52 1824.16 1028.52 1822.74 1028.52 1821.6 1028.76 1820.38 1029.24 1819.09L1028.84 1818.96C1026.84 1821.88 1024.94 1824.01 1023.15 1825.37 1021.36 1826.72 1019.46 1827.4 1017.46 1827.4 1015.17 1827.4 1013.39 1826.53 1012.13 1824.81 1010.87 1823.08 1010.24 1820.65 1010.24 1817.52 1010.24 1813.94 1010.95 1810.5 1012.35 1807.2 1013.76 1803.89 1015.69 1801.29 1018.15 1799.38 1020.61 1797.48 1023.35 1796.52 1026.37 1796.52Z" fill="#576C87" fill-rule="evenodd"/><text fill="#000000" fill-opacity="0" font-family="Arial,Arial_MSFontService,sans-serif" font-size="30.9062" x="1010.24" y="1823.57">𝑎</text><path d="M1048.23 1819.68 1053.7 1819.68C1053.99 1821.14 1054.13 1822.58 1054.13 1823.99 1054.13 1825.45 1053.88 1826.78 1053.38 1827.99 1052.88 1829.2 1052.09 1830.4 1050.99 1831.6 1049.9 1832.8 1048.39 1834.12 1046.48 1835.56L1044.79 1833.65C1045.85 1832.65 1046.62 1831.75 1047.1 1830.95 1047.58 1830.14 1047.93 1829.23 1048.13 1828.21 1048.34 1827.19 1048.45 1825.91 1048.45 1824.37 1048.45 1822.78 1048.37 1821.22 1048.23 1819.68Z" fill="#576C87" fill-rule="evenodd"/><text fill="#000000" fill-opacity="0" font-family="Arial,Arial_MSFontService,sans-serif" font-size="15.875" x="1044.79" y="1833.57">,</text><path d="M1077.73 1796.52C1079.04 1796.52 1080.08 1796.96 1080.84 1797.82 1081.6 1798.69 1081.98 1799.82 1081.98 1801.21 1081.98 1802.25 1081.78 1803.33 1081.39 1804.43L1081.79 1804.59C1083.84 1801.82 1085.8 1799.78 1087.68 1798.49 1089.57 1797.2 1091.48 1796.56 1093.42 1796.56 1094.94 1796.56 1096.21 1796.67 1097.23 1796.9L1095.73 1803.9 1092.51 1803.9C1092.39 1803.02 1092.21 1802.35 1091.98 1801.87 1091.75 1801.39 1091.48 1801.06 1091.17 1800.87 1090.86 1800.68 1090.46 1800.59 1089.98 1800.59 1089.23 1800.59 1088.41 1800.91 1087.53 1801.56 1086.64 1802.2 1085.65 1803.21 1084.54 1804.59 1083.44 1805.96 1082.56 1807.28 1081.9 1808.56 1081.25 1809.83 1080.7 1811.44 1080.26 1813.4L1077.29 1826.93 1071.89 1826.93 1076.42 1807.12C1076.71 1805.87 1076.9 1804.9 1076.98 1804.21 1077.07 1803.52 1077.11 1802.95 1077.11 1802.49 1077.11 1801.66 1076.97 1801.06 1076.7 1800.68 1076.43 1800.31 1076 1800.12 1075.42 1800.12 1074.77 1800.12 1074.09 1800.38 1073.37 1800.91 1072.65 1801.45 1071.67 1802.41 1070.42 1803.81L1068.64 1802.06C1070.55 1800.06 1072.16 1798.63 1073.45 1797.79 1074.74 1796.95 1076.17 1796.52 1077.73 1796.52Z" fill="#576C87" fill-rule="evenodd"/><text fill="#000000" fill-opacity="0" font-family="Arial,Arial_MSFontService,sans-serif" font-size="30.4062" x="1068.64" y="1823.13">𝑟</text><path d="M1103.89 1819.68 1109.36 1819.68C1109.65 1821.14 1109.8 1822.58 1109.8 1823.99 1109.8 1825.45 1109.55 1826.78 1109.05 1827.99 1108.55 1829.2 1107.75 1830.4 1106.66 1831.6 1105.56 1832.8 1104.06 1834.12 1102.14 1835.56L1100.45 1833.65C1101.52 1832.65 1102.29 1831.75 1102.77 1830.95 1103.25 1830.14 1103.59 1829.23 1103.8 1828.21 1104.01 1827.19 1104.11 1825.91 1104.11 1824.37 1104.11 1822.78 1104.04 1821.22 1103.89 1819.68Z" fill="#576C87" fill-rule="evenodd"/><text fill="#000000" fill-opacity="0" font-family="Arial,Arial_MSFontService,sans-serif" font-size="15.875" x="1100.45" y="1833.57">,</text><path d="M1141.02 1796.56C1142.96 1796.56 1144.72 1796.67 1146.32 1796.9 1147.91 1797.13 1149.5 1797.52 1151.08 1798.09L1149.68 1804.65 1147.15 1804.65C1146.92 1802.8 1146.31 1801.39 1145.32 1800.43 1144.33 1799.47 1142.77 1798.99 1140.65 1798.99 1139 1798.99 1137.67 1799.41 1136.65 1800.26 1135.63 1801.1 1135.11 1802.21 1135.11 1803.59 1135.11 1804.34 1135.25 1805 1135.51 1805.57 1135.77 1806.14 1136.29 1806.77 1137.08 1807.46 1137.88 1808.15 1139.1 1808.99 1140.77 1809.99 1142.08 1810.78 1143.14 1811.51 1143.93 1812.16 1144.72 1812.82 1145.34 1813.47 1145.8 1814.12 1146.26 1814.76 1146.59 1815.45 1146.8 1816.16 1147.01 1816.88 1147.11 1817.75 1147.11 1818.77 1147.11 1820.63 1146.62 1822.22 1145.63 1823.54 1144.64 1824.86 1143.3 1825.85 1141.6 1826.49 1139.9 1827.14 1137.97 1827.46 1135.8 1827.46 1134.07 1827.46 1132.38 1827.33 1130.71 1827.07 1129.04 1826.81 1127.19 1826.37 1125.15 1825.74L1126.65 1818.93 1129.08 1818.93C1129.17 1820.93 1129.73 1822.44 1130.77 1823.46 1131.81 1824.48 1133.47 1824.99 1135.74 1824.99 1137.72 1824.99 1139.27 1824.55 1140.38 1823.66 1141.5 1822.78 1142.05 1821.52 1142.05 1819.9 1142.05 1818.96 1141.9 1818.15 1141.58 1817.48 1141.27 1816.8 1140.76 1816.15 1140.05 1815.52 1139.34 1814.9 1138.22 1814.12 1136.68 1813.18 1135.05 1812.2 1133.79 1811.32 1132.88 1810.52 1131.97 1809.73 1131.29 1808.87 1130.83 1807.95 1130.38 1807.02 1130.15 1805.95 1130.15 1804.74 1130.15 1803.1 1130.59 1801.65 1131.47 1800.41 1132.36 1799.18 1133.63 1798.22 1135.27 1797.56 1136.92 1796.89 1138.83 1796.56 1141.02 1796.56ZM1158.21 1782.21 1163.68 1782.21C1163.93 1782.9 1164.12 1783.65 1164.26 1784.46 1164.39 1785.27 1164.46 1786.01 1164.46 1786.68 1164.46 1788.06 1164.25 1789.27 1163.83 1790.34 1163.42 1791.4 1162.76 1792.48 1161.85 1793.57 1160.94 1794.66 1159.56 1796.02 1157.71 1797.65L1155.8 1795.77C1156.82 1794.55 1157.57 1793.3 1158.05 1792.04 1158.53 1790.78 1158.77 1789.24 1158.77 1787.43 1158.77 1786.81 1158.74 1786.14 1158.68 1785.43 1158.61 1784.72 1158.46 1783.65 1158.21 1782.21Z" fill="#576C87" fill-rule="evenodd"/><text fill="#000000" fill-opacity="0" font-family="Arial,Arial_MSFontService,sans-serif" font-size="45.25" x="1125.15" y="1821.81">𝑠’</text><path d="M1452.43 1568.83 1453.28 1571.24C1448.4 1572.84 1444.79 1575.97 1442.45 1580.63 1440.11 1585.28 1438.93 1591.13 1438.93 1598.17 1438.93 1605.46 1440.11 1611.47 1442.45 1616.2 1444.79 1620.93 1448.37 1624.1 1453.18 1625.7L1452.43 1628.11C1446.33 1626.51 1441.65 1623.05 1438.4 1617.75 1435.15 1612.45 1433.53 1606.03 1433.53 1598.49 1433.53 1590.96 1435.16 1584.54 1438.42 1579.22 1441.68 1573.9 1446.35 1570.43 1452.43 1568.83Z" fill="#576C87" fill-rule="evenodd"/><text fill="#000000" fill-opacity="0" font-family="Arial,Arial_MSFontService,sans-serif" font-size="59.2812" x="1433.53" y="1620.7">(</text><path d="M1471.69 1583.61C1473.63 1583.61 1475.4 1583.72 1476.99 1583.95 1478.58 1584.18 1480.17 1584.58 1481.76 1585.14L1480.35 1591.7 1477.82 1591.7C1477.59 1589.85 1476.98 1588.44 1475.99 1587.49 1475 1586.53 1473.44 1586.05 1471.32 1586.05 1469.67 1586.05 1468.34 1586.47 1467.32 1587.31 1466.3 1588.16 1465.79 1589.27 1465.79 1590.64 1465.79 1591.39 1465.92 1592.05 1466.18 1592.63 1466.44 1593.2 1466.96 1593.83 1467.76 1594.52 1468.55 1595.2 1469.78 1596.05 1471.44 1597.05 1472.76 1597.84 1473.81 1598.56 1474.6 1599.22 1475.39 1599.88 1476.02 1600.53 1476.47 1601.17 1476.93 1601.82 1477.27 1602.5 1477.47 1603.22 1477.68 1603.94 1477.79 1604.81 1477.79 1605.83 1477.79 1607.68 1477.29 1609.27 1476.3 1610.59 1475.31 1611.92 1473.97 1612.9 1472.27 1613.55 1470.57 1614.19 1468.64 1614.52 1466.47 1614.52 1464.75 1614.52 1463.05 1614.39 1461.38 1614.13 1459.71 1613.87 1457.86 1613.42 1455.82 1612.8L1457.32 1605.99 1459.76 1605.99C1459.84 1607.99 1460.4 1609.5 1461.44 1610.52 1462.49 1611.54 1464.14 1612.05 1466.41 1612.05 1468.39 1612.05 1469.94 1611.6 1471.05 1610.72 1472.17 1609.83 1472.72 1608.58 1472.72 1606.95 1472.72 1606.02 1472.57 1605.21 1472.26 1604.53 1471.94 1603.85 1471.43 1603.2 1470.72 1602.58 1470.02 1601.95 1468.89 1601.17 1467.35 1600.24 1465.72 1599.26 1464.46 1598.37 1463.55 1597.58 1462.65 1596.79 1461.96 1595.93 1461.51 1595 1461.05 1594.07 1460.82 1593.01 1460.82 1591.8 1460.82 1590.15 1461.26 1588.71 1462.15 1587.47 1463.03 1586.23 1464.3 1585.28 1465.94 1584.61 1467.59 1583.94 1469.51 1583.61 1471.69 1583.61Z" fill="#576C87" fill-rule="evenodd"/><text fill="#000000" fill-opacity="0" font-family="Arial,Arial_MSFontService,sans-serif" font-size="30.9062" x="1455.82" y="1610.65">𝑠</text><path d="M1489.54 1606.74 1495.01 1606.74C1495.3 1608.19 1495.45 1609.63 1495.45 1611.05 1495.45 1612.51 1495.2 1613.84 1494.7 1615.05 1494.2 1616.26 1493.4 1617.46 1492.31 1618.66 1491.21 1619.85 1489.71 1621.17 1487.79 1622.61L1486.1 1620.7C1487.17 1619.7 1487.94 1618.8 1488.42 1618 1488.9 1617.2 1489.24 1616.29 1489.45 1615.27 1489.66 1614.25 1489.76 1612.96 1489.76 1611.42 1489.76 1609.84 1489.69 1608.28 1489.54 1606.74Z" fill="#576C87" fill-rule="evenodd"/><text fill="#000000" fill-opacity="0" font-family="Arial,Arial_MSFontService,sans-serif" font-size="15.875" x="1486.1" y="1620.63">,</text><path d="M1529.26 1586.05C1527.12 1586.05 1525.19 1586.91 1523.48 1588.64 1521.77 1590.37 1520.44 1592.69 1519.48 1595.59 1518.52 1598.5 1518.05 1601.4 1518.05 1604.3 1518.05 1606.46 1518.34 1608.08 1518.94 1609.16 1519.53 1610.23 1520.52 1610.77 1521.92 1610.77 1523.3 1610.77 1524.64 1610.17 1525.97 1608.99 1527.29 1607.8 1528.66 1606.1 1530.06 1603.91 1531.47 1601.71 1532.46 1599.17 1533.05 1596.3L1533.33 1594.95C1533.51 1594.1 1533.64 1593.36 1533.7 1592.74 1533.76 1592.11 1533.8 1591.43 1533.8 1590.7 1533.8 1589.1 1533.45 1587.92 1532.76 1587.17 1532.08 1586.42 1530.91 1586.05 1529.26 1586.05ZM1528.64 1583.58C1529.99 1583.58 1531.26 1583.73 1532.44 1584.03 1533.61 1584.33 1534.83 1584.87 1536.08 1585.64L1538.95 1583.58 1540.95 1584.08 1536.36 1603.89C1535.9 1605.87 1535.67 1607.41 1535.67 1608.52 1535.67 1609.35 1535.81 1609.95 1536.08 1610.33 1536.35 1610.7 1536.77 1610.89 1537.36 1610.89 1537.98 1610.89 1538.65 1610.64 1539.36 1610.13 1540.07 1609.62 1541.07 1608.64 1542.36 1607.2L1544.14 1608.95C1542.26 1610.95 1540.67 1612.38 1539.34 1613.22 1538.02 1614.06 1536.59 1614.49 1535.05 1614.49 1533.75 1614.49 1532.72 1614.06 1531.95 1613.2 1531.18 1612.35 1530.8 1611.21 1530.8 1609.8 1530.8 1608.65 1531.04 1607.43 1531.51 1606.14L1531.11 1606.02C1529.11 1608.93 1527.21 1611.07 1525.42 1612.42 1523.63 1613.78 1521.73 1614.45 1519.73 1614.45 1517.44 1614.45 1515.67 1613.59 1514.41 1611.86 1513.14 1610.13 1512.51 1607.7 1512.51 1604.58 1512.51 1601 1513.22 1597.55 1514.62 1594.25 1516.03 1590.95 1517.96 1588.34 1520.42 1586.44 1522.88 1584.53 1525.62 1583.58 1528.64 1583.58Z" fill="#576C87" fill-rule="evenodd"/><text fill="#000000" fill-opacity="0" font-family="Arial,Arial_MSFontService,sans-serif" font-size="30.9062" x="1512.51" y="1610.62">𝑎</text><path d="M1548.34 1568.83C1554.43 1570.43 1559.1 1573.9 1562.36 1579.22 1565.62 1584.54 1567.25 1590.96 1567.25 1598.49 1567.25 1606.03 1565.62 1612.45 1562.38 1617.75 1559.12 1623.05 1554.45 1626.51 1548.34 1628.11L1547.59 1625.7C1552.41 1624.1 1555.98 1620.93 1558.33 1616.2 1560.67 1611.47 1561.84 1605.46 1561.84 1598.17 1561.84 1591.13 1560.68 1585.28 1558.34 1580.63 1556.01 1575.97 1552.4 1572.84 1547.5 1571.24Z" fill="#576C87" fill-rule="evenodd"/><text fill="#000000" fill-opacity="0" font-family="Arial,Arial_MSFontService,sans-serif" font-size="59.2812" x="1547.5" y="1620.7">)</text><path d="M1984.76 1602.36C1986.7 1602.36 1988.47 1602.47 1990.06 1602.7 1991.65 1602.93 1993.24 1603.33 1994.83 1603.89L1993.42 1610.45 1990.89 1610.45C1990.66 1608.6 1990.05 1607.19 1989.06 1606.23 1988.07 1605.28 1986.51 1604.8 1984.39 1604.8 1982.74 1604.8 1981.41 1605.22 1980.39 1606.06 1979.37 1606.91 1978.86 1608.02 1978.86 1609.39 1978.86 1610.14 1978.99 1610.8 1979.25 1611.37 1979.51 1611.95 1980.03 1612.58 1980.83 1613.27 1981.62 1613.95 1982.85 1614.8 1984.51 1615.8 1985.83 1616.59 1986.88 1617.31 1987.67 1617.97 1988.46 1618.62 1989.09 1619.28 1989.54 1619.92 1990 1620.57 1990.34 1621.25 1990.54 1621.97 1990.75 1622.69 1990.86 1623.56 1990.86 1624.58 1990.86 1626.43 1990.36 1628.02 1989.37 1629.34 1988.38 1630.67 1987.04 1631.65 1985.34 1632.3 1983.64 1632.94 1981.71 1633.27 1979.54 1633.27 1977.82 1633.27 1976.12 1633.13 1974.45 1632.87 1972.78 1632.61 1970.93 1632.17 1968.89 1631.55L1970.39 1624.73 1972.83 1624.73C1972.91 1626.73 1973.47 1628.24 1974.51 1629.27 1975.56 1630.29 1977.21 1630.8 1979.48 1630.8 1981.46 1630.8 1983.01 1630.35 1984.12 1629.47 1985.24 1628.58 1985.79 1627.33 1985.79 1625.7 1985.79 1624.77 1985.64 1623.96 1985.33 1623.28 1985.01 1622.6 1984.5 1621.95 1983.79 1621.33 1983.09 1620.7 1981.96 1619.92 1980.42 1618.98 1978.79 1618 1977.53 1617.12 1976.62 1616.33 1975.72 1615.54 1975.03 1614.68 1974.58 1613.75 1974.12 1612.82 1973.89 1611.75 1973.89 1610.55 1973.89 1608.9 1974.33 1607.46 1975.22 1606.22 1976.1 1604.98 1977.37 1604.03 1979.01 1603.36 1980.66 1602.69 1982.58 1602.36 1984.76 1602.36ZM2001.95 1588.02 2007.42 1588.02C2007.67 1588.7 2007.86 1589.45 2008 1590.27 2008.13 1591.08 2008.2 1591.82 2008.2 1592.48 2008.2 1593.86 2007.99 1595.08 2007.58 1596.14 2007.16 1597.2 2006.5 1598.28 2005.59 1599.37 2004.69 1600.47 2003.31 1601.83 2001.45 1603.45L1999.54 1601.58C2000.57 1600.35 2001.32 1599.1 2001.79 1597.84 2002.27 1596.58 2002.51 1595.05 2002.51 1593.23 2002.51 1592.61 2002.48 1591.94 2002.42 1591.23 2002.36 1590.53 2002.2 1589.45 2001.95 1588.02Z" fill="#576C87" fill-rule="evenodd"/><text fill="#000000" fill-opacity="0" font-family="Arial,Arial_MSFontService,sans-serif" font-size="45.25" x="1968.89" y="1627.61">𝑠’</text><path d="M1064.5 1389.46C1066.44 1389.46 1068.21 1389.57 1069.8 1389.8 1071.39 1390.03 1072.98 1390.43 1074.57 1390.99L1073.16 1397.55 1070.63 1397.55C1070.4 1395.7 1069.79 1394.29 1068.8 1393.33 1067.81 1392.37 1066.25 1391.89 1064.13 1391.89 1062.48 1391.89 1061.15 1392.32 1060.13 1393.16 1059.11 1394 1058.6 1395.11 1058.6 1396.49 1058.6 1397.24 1058.73 1397.9 1058.99 1398.47 1059.25 1399.05 1059.77 1399.68 1060.57 1400.36 1061.36 1401.05 1062.59 1401.89 1064.25 1402.89 1065.57 1403.69 1066.62 1404.41 1067.41 1405.07 1068.2 1405.72 1068.83 1406.37 1069.28 1407.02 1069.74 1407.67 1070.08 1408.35 1070.28 1409.07 1070.49 1409.78 1070.6 1410.65 1070.6 1411.68 1070.6 1413.53 1070.1 1415.12 1069.11 1416.44 1068.12 1417.76 1066.78 1418.75 1065.08 1419.39 1063.38 1420.04 1061.45 1420.36 1059.28 1420.36 1057.56 1420.36 1055.86 1420.23 1054.19 1419.97 1052.52 1419.71 1050.67 1419.27 1048.63 1418.64L1050.13 1411.83 1052.57 1411.83C1052.65 1413.83 1053.21 1415.34 1054.25 1416.36 1055.29 1417.38 1056.95 1417.89 1059.22 1417.89 1061.2 1417.89 1062.75 1417.45 1063.86 1416.57 1064.98 1415.68 1065.53 1414.43 1065.53 1412.8 1065.53 1411.86 1065.38 1411.06 1065.07 1410.38 1064.75 1409.7 1064.24 1409.05 1063.53 1408.43 1062.83 1407.8 1061.7 1407.02 1060.16 1406.08 1058.53 1405.1 1057.27 1404.22 1056.36 1403.43 1055.46 1402.63 1054.77 1401.77 1054.32 1400.85 1053.86 1399.92 1053.63 1398.85 1053.63 1397.64 1053.63 1396 1054.07 1394.56 1054.96 1393.32 1055.84 1392.08 1057.11 1391.12 1058.75 1390.46 1060.4 1389.79 1062.32 1389.46 1064.5 1389.46Z" fill="#576C87" fill-rule="evenodd"/><text fill="#000000" fill-opacity="0" font-family="Arial,Arial_MSFontService,sans-serif" font-size="30.9062" x="1048.63" y="1416.5">𝑠</text><path d="M960.013 1570.56C957.867 1570.56 955.94 1571.42 954.232 1573.15 952.523 1574.88 951.19 1577.2 950.232 1580.11 949.273 1583.01 948.794 1585.91 948.794 1588.81 948.794 1590.97 949.091 1592.59 949.685 1593.67 950.278 1594.74 951.273 1595.28 952.669 1595.28 954.044 1595.28 955.393 1594.68 956.716 1593.5 958.039 1592.31 959.403 1590.62 960.81 1588.42 962.216 1586.22 963.211 1583.68 963.794 1580.81L964.075 1579.46C964.263 1578.61 964.388 1577.87 964.45 1577.25 964.513 1576.62 964.544 1575.94 964.544 1575.21 964.544 1573.61 964.2 1572.43 963.513 1571.68 962.825 1570.93 961.659 1570.56 960.013 1570.56ZM870.888 1570.56C868.763 1570.56 866.857 1571.42 865.169 1573.14 863.482 1574.86 862.153 1577.17 861.185 1580.09 860.216 1583.01 859.732 1585.91 859.732 1588.81 859.732 1590.97 860.044 1592.59 860.669 1593.67 861.294 1594.74 862.273 1595.28 863.607 1595.28 864.669 1595.28 865.726 1594.91 866.778 1594.18 867.831 1593.45 868.956 1592.3 870.153 1590.71 871.351 1589.13 872.284 1587.62 872.95 1586.18 873.617 1584.75 874.185 1582.95 874.653 1580.81 875.122 1578.66 875.357 1576.8 875.357 1575.21 875.357 1573.59 875.013 1572.41 874.325 1571.67 873.638 1570.93 872.492 1570.56 870.888 1570.56ZM801.013 1570.56C798.867 1570.56 796.94 1571.42 795.232 1573.15 793.523 1574.88 792.19 1577.2 791.232 1580.11 790.273 1583.01 789.794 1585.91 789.794 1588.81 789.794 1590.97 790.091 1592.59 790.685 1593.67 791.278 1594.74 792.273 1595.28 793.669 1595.28 795.044 1595.28 796.393 1594.68 797.716 1593.5 799.039 1592.31 800.403 1590.62 801.81 1588.42 803.216 1586.22 804.211 1583.68 804.794 1580.81L805.075 1579.46C805.263 1578.61 805.388 1577.87 805.45 1577.25 805.513 1576.62 805.544 1575.94 805.544 1575.21 805.544 1573.61 805.2 1572.43 804.513 1571.68 803.825 1570.93 802.659 1570.56 801.013 1570.56ZM959.388 1568.09C960.742 1568.09 962.008 1568.24 963.185 1568.54 964.362 1568.84 965.575 1569.38 966.825 1570.15L969.7 1568.09 971.7 1568.59 967.107 1588.4C966.648 1590.38 966.419 1591.92 966.419 1593.03 966.419 1593.86 966.554 1594.46 966.825 1594.84 967.096 1595.21 967.523 1595.4 968.107 1595.4 968.732 1595.4 969.398 1595.15 970.107 1594.64 970.815 1594.13 971.815 1593.15 973.107 1591.71L974.888 1593.46C973.013 1595.46 971.414 1596.89 970.091 1597.73 968.768 1598.57 967.336 1599 965.794 1599 964.502 1599 963.471 1598.57 962.7 1597.71 961.929 1596.86 961.544 1595.72 961.544 1594.31 961.544 1593.16 961.784 1591.94 962.263 1590.65L961.857 1590.53C959.857 1593.44 957.961 1595.58 956.169 1596.93 954.377 1598.29 952.482 1598.96 950.482 1598.96 948.19 1598.96 946.414 1598.1 945.153 1596.37 943.893 1594.64 943.263 1592.21 943.263 1589.09 943.263 1585.51 943.966 1582.06 945.372 1578.76 946.778 1575.46 948.711 1572.86 951.169 1570.95 953.627 1569.04 956.367 1568.09 959.388 1568.09ZM895.825 1568.09C897.138 1568.09 898.174 1568.52 898.935 1569.39 899.695 1570.25 900.075 1571.38 900.075 1572.78 900.075 1573.92 899.836 1575.14 899.357 1576.43L899.732 1576.56C901.648 1573.7 903.554 1571.58 905.45 1570.2 907.346 1568.81 909.263 1568.12 911.2 1568.12 913.2 1568.12 914.721 1568.69 915.763 1569.82 916.804 1570.96 917.325 1572.6 917.325 1574.75L917.325 1575.18C917.325 1575.33 917.315 1575.49 917.294 1575.65 919.086 1573.11 920.872 1571.22 922.653 1569.98 924.435 1568.74 926.284 1568.12 928.2 1568.12 930.117 1568.12 931.596 1568.67 932.638 1569.78 933.679 1570.88 934.2 1572.43 934.2 1574.43 934.2 1575.75 933.898 1577.61 933.294 1580.03L931.263 1588.21C930.7 1590.49 930.419 1592.09 930.419 1593.03 930.419 1593.86 930.554 1594.46 930.825 1594.84 931.096 1595.21 931.523 1595.4 932.107 1595.4 932.732 1595.4 933.398 1595.15 934.107 1594.64 934.815 1594.13 935.815 1593.15 937.107 1591.71L938.888 1593.46C937.096 1595.36 935.534 1596.76 934.2 1597.65 932.867 1598.55 931.346 1599 929.638 1599 928.284 1599 927.2 1598.51 926.388 1597.54 925.575 1596.57 925.169 1595.34 925.169 1593.84 925.169 1592.49 925.513 1590.5 926.2 1587.87L927.575 1582.46C928.075 1580.51 928.403 1579.06 928.56 1578.12 928.716 1577.18 928.794 1576.42 928.794 1575.84 928.794 1574.4 928.554 1573.37 928.075 1572.73 927.596 1572.09 926.815 1571.78 925.732 1571.78 924.857 1571.78 923.919 1572.11 922.919 1572.76 921.919 1573.42 920.867 1574.44 919.763 1575.82 918.659 1577.21 917.758 1578.57 917.06 1579.92 916.362 1581.26 915.804 1582.9 915.388 1584.84L912.544 1598.5 907.138 1598.5 910.732 1582.62C911.169 1580.68 911.466 1579.25 911.622 1578.32 911.778 1577.4 911.857 1576.6 911.857 1575.93 911.857 1574.43 911.591 1573.37 911.06 1572.73 910.528 1572.09 909.7 1571.78 908.575 1571.78 907.784 1571.78 906.883 1572.11 905.872 1572.76 904.862 1573.42 903.784 1574.47 902.638 1575.92 901.492 1577.37 900.596 1578.76 899.95 1580.09 899.304 1581.42 898.763 1583.05 898.325 1584.96L895.357 1598.5 889.95 1598.5 894.513 1578.68C894.971 1576.68 895.2 1575.14 895.2 1574.06 895.2 1573.22 895.065 1572.62 894.794 1572.25 894.523 1571.87 894.096 1571.68 893.513 1571.68 892.867 1571.68 892.185 1571.95 891.466 1572.48 890.747 1573.01 889.763 1573.97 888.513 1575.37L886.732 1573.62C888.565 1571.7 890.143 1570.3 891.466 1569.42 892.789 1568.53 894.242 1568.09 895.825 1568.09ZM870.388 1568.09C871.7 1568.09 872.94 1568.25 874.107 1568.56 875.273 1568.87 876.45 1569.4 877.638 1570.15L880.513 1568.09 882.513 1568.59 879.294 1583.15C879.065 1584.17 878.544 1586.75 877.732 1590.87 876.877 1595.25 876.185 1598.34 875.653 1600.15 875.122 1601.96 874.461 1603.62 873.669 1605.11 872.877 1606.59 871.857 1607.89 870.607 1609 869.357 1610.1 867.841 1610.95 866.06 1611.56 864.278 1612.16 862.169 1612.46 859.732 1612.46 851.857 1612.46 847.919 1610.17 847.919 1605.59 847.919 1604.42 848.273 1603.36 848.982 1602.4 849.69 1601.44 850.825 1600.43 852.388 1599.37L854.638 1601.18C854.242 1601.66 853.909 1602.14 853.638 1602.61 853.367 1603.07 853.174 1603.53 853.06 1603.96 852.945 1604.4 852.888 1604.92 852.888 1605.53 852.888 1607.09 853.45 1608.23 854.575 1608.95 855.7 1609.67 857.398 1610.03 859.669 1610.03 862.232 1610.03 864.289 1609.45 865.841 1608.29 867.393 1607.14 868.721 1605.28 869.825 1602.71 870.929 1600.15 872.002 1596.28 873.044 1591.09L872.607 1591C870.586 1593.77 868.711 1595.79 866.982 1597.06 865.252 1598.33 863.388 1598.96 861.388 1598.96 859.117 1598.96 857.351 1598.11 856.091 1596.4 854.831 1594.69 854.2 1592.26 854.2 1589.09 854.2 1585.53 854.898 1582.11 856.294 1578.82 857.69 1575.54 859.627 1572.93 862.107 1571 864.586 1569.06 867.346 1568.09 870.388 1568.09ZM826.794 1568.09C828.107 1568.09 829.143 1568.52 829.903 1569.39 830.664 1570.25 831.044 1571.38 831.044 1572.78 831.044 1573.82 830.846 1574.89 830.45 1576L830.857 1576.15C832.898 1573.38 834.862 1571.35 836.747 1570.06 838.633 1568.77 840.544 1568.12 842.482 1568.12 844.002 1568.12 845.273 1568.24 846.294 1568.46L844.794 1575.46 841.575 1575.46C841.45 1574.59 841.273 1573.91 841.044 1573.43 840.815 1572.95 840.544 1572.62 840.232 1572.43 839.919 1572.25 839.523 1572.15 839.044 1572.15 838.294 1572.15 837.476 1572.47 836.591 1573.12 835.706 1573.77 834.711 1574.78 833.607 1576.15 832.502 1577.53 831.622 1578.85 830.966 1580.12 830.31 1581.39 829.763 1583.01 829.325 1584.96L826.357 1598.5 820.95 1598.5 825.482 1578.68C825.773 1577.43 825.961 1576.46 826.044 1575.78 826.127 1575.09 826.169 1574.52 826.169 1574.06 826.169 1573.22 826.034 1572.62 825.763 1572.25 825.492 1571.87 825.065 1571.68 824.482 1571.68 823.836 1571.68 823.153 1571.95 822.435 1572.48 821.716 1573.01 820.732 1573.97 819.482 1575.37L817.7 1573.62C819.617 1571.62 821.221 1570.2 822.513 1569.36 823.805 1568.51 825.232 1568.09 826.794 1568.09ZM800.388 1568.09C801.742 1568.09 803.008 1568.24 804.185 1568.54 805.362 1568.84 806.575 1569.38 807.825 1570.15L810.7 1568.09 812.7 1568.59 808.107 1588.4C807.648 1590.38 807.419 1591.92 807.419 1593.03 807.419 1593.86 807.555 1594.46 807.825 1594.84 808.096 1595.21 808.523 1595.4 809.107 1595.4 809.732 1595.4 810.398 1595.15 811.107 1594.64 811.815 1594.13 812.815 1593.15 814.107 1591.71L815.888 1593.46C814.013 1595.46 812.414 1596.89 811.091 1597.73 809.768 1598.57 808.336 1599 806.794 1599 805.502 1599 804.471 1598.57 803.7 1597.71 802.93 1596.86 802.544 1595.72 802.544 1594.31 802.544 1593.16 802.784 1591.94 803.263 1590.65L802.857 1590.53C800.857 1593.44 798.961 1595.58 797.169 1596.93 795.377 1598.29 793.482 1598.96 791.482 1598.96 789.19 1598.96 787.414 1598.1 786.153 1596.37 784.893 1594.64 784.263 1592.21 784.263 1589.09 784.263 1585.51 784.966 1582.06 786.372 1578.76 787.778 1575.46 789.711 1572.86 792.169 1570.95 794.627 1569.04 797.367 1568.09 800.388 1568.09Z" fill="#576C87" fill-rule="evenodd"/><text fill="#000000" fill-opacity="0" font-family="Arial,Arial_MSFontService,sans-serif" font-size="44.375" x="784.263" y="1606.92">𝑎𝑟𝑔𝑚𝑎</text><path d="M989.675 1568.09C990.321 1568.09 990.889 1568.16 991.378 1568.31 991.868 1568.45 992.3 1568.68 992.675 1568.98 993.05 1569.28 993.384 1569.67 993.675 1570.15 993.967 1570.63 994.248 1571.28 994.519 1572.11 994.79 1572.93 995.045 1573.95 995.285 1575.17 995.524 1576.39 995.738 1577.65 995.925 1578.96L996.238 1578.96C998.238 1576.15 999.753 1574.09 1000.78 1572.79 1001.82 1571.49 1002.69 1570.52 1003.39 1569.89 1004.1 1569.25 1004.78 1568.8 1005.44 1568.54 1006.1 1568.28 1006.97 1568.15 1008.05 1568.15 1009.03 1568.15 1009.83 1568.28 1010.46 1568.53L1009.21 1574.18 1007.02 1574.18C1006.89 1573.31 1006.53 1572.87 1005.93 1572.87 1005.74 1572.87 1005.54 1572.9 1005.33 1572.96 1005.12 1573.03 1004.87 1573.16 1004.57 1573.37 1004.26 1573.58 1003.82 1573.99 1003.24 1574.59 1002.65 1575.19 1002 1575.93 1001.27 1576.81 1000.54 1577.68 999.79 1578.6 999.019 1579.56L996.894 1582.21C997.269 1584.21 997.623 1585.94 997.957 1587.4 998.29 1588.86 998.587 1590.07 998.847 1591.04 999.108 1592.01 999.337 1592.78 999.535 1593.34 999.733 1593.9 999.946 1594.32 1000.18 1594.61 1000.4 1594.89 1000.64 1595.08 1000.88 1595.2 1001.12 1595.31 1001.39 1595.37 1001.71 1595.37 1002.27 1595.37 1002.82 1595.15 1003.35 1594.71 1003.88 1594.28 1004.64 1593.29 1005.64 1591.75L1007.68 1593.09C1006.22 1595.26 1004.9 1596.78 1003.72 1597.67 1002.55 1598.55 1001.14 1599 999.519 1599 998.623 1599 997.863 1598.83 997.238 1598.51 996.613 1598.19 996.071 1597.67 995.613 1596.96 995.154 1596.26 994.748 1595.15 994.394 1593.65 993.748 1590.99 993.352 1588.94 993.207 1587.53L992.894 1587.53C990.686 1590.63 989.045 1592.86 987.972 1594.21 986.899 1595.57 986.014 1596.57 985.316 1597.21 984.618 1597.86 983.941 1598.31 983.285 1598.57 982.628 1598.83 981.759 1598.96 980.675 1598.96 979.696 1598.96 978.894 1598.84 978.269 1598.59L979.519 1592.93 981.707 1592.93C981.832 1593.81 982.196 1594.25 982.8 1594.25 983.092 1594.25 983.399 1594.17 983.722 1594.01 984.045 1593.86 984.509 1593.48 985.113 1592.89 985.717 1592.29 986.55 1591.36 987.613 1590.09 988.675 1588.82 990.217 1586.91 992.238 1584.37 991.925 1582.72 991.602 1581.14 991.269 1579.62 990.936 1578.1 990.592 1576.68 990.238 1575.37 989.884 1574.06 989.592 1573.2 989.363 1572.79 989.134 1572.39 988.889 1572.11 988.628 1571.95 988.368 1571.79 988.04 1571.71 987.644 1571.71 987.207 1571.71 986.811 1571.81 986.457 1572.01 986.102 1572.21 985.717 1572.55 985.3 1573.04 984.884 1573.53 984.332 1574.3 983.644 1575.34L981.613 1574C982.925 1572.02 984.186 1570.54 985.394 1569.56 986.602 1568.58 988.029 1568.09 989.675 1568.09Z" fill="#576C87" fill-rule="evenodd"/><text fill="#000000" fill-opacity="0" font-family="Arial,Arial_MSFontService,sans-serif" font-size="30.9062" x="978.269" y="1595.13">𝑥</text><path d="M1027.27 1590.42C1026.36 1590.42 1025.52 1590.62 1024.74 1591.02 1023.96 1591.42 1023.25 1591.96 1022.61 1592.65 1021.97 1593.34 1021.4 1594.13 1020.9 1595.03 1020.4 1595.94 1019.98 1596.89 1019.64 1597.9 1019.29 1598.91 1019.03 1599.95 1018.86 1601.01 1018.68 1602.08 1018.59 1603.1 1018.59 1604.08 1018.59 1605.73 1018.83 1606.96 1019.29 1607.76 1019.76 1608.56 1020.51 1608.97 1021.55 1608.97 1022.07 1608.97 1022.57 1608.87 1023.06 1608.69 1023.54 1608.51 1024.05 1608.22 1024.58 1607.82 1025.93 1606.76 1027.08 1605.48 1028.02 1603.96 1028.97 1602.45 1029.68 1600.66 1030.16 1598.59 1030.37 1597.64 1030.54 1596.79 1030.66 1596.02 1030.79 1595.26 1030.85 1594.53 1030.85 1593.84 1030.85 1592.62 1030.56 1591.74 1029.99 1591.21 1029.41 1590.69 1028.51 1590.42 1027.27 1590.42ZM1026.85 1588.15C1028.06 1588.15 1029.13 1588.29 1030.06 1588.57 1030.98 1588.86 1031.83 1589.24 1032.59 1589.73L1034.82 1588.15 1036.68 1588.63 1033.21 1603.66C1033.01 1604.52 1032.87 1605.23 1032.8 1605.79 1032.72 1606.35 1032.68 1606.84 1032.68 1607.27 1032.68 1607.85 1032.8 1608.27 1033.04 1608.53 1033.28 1608.79 1033.62 1608.92 1034.06 1608.92 1034.34 1608.92 1034.61 1608.87 1034.87 1608.76 1035.14 1608.65 1035.43 1608.48 1035.75 1608.25 1036.06 1608.02 1036.4 1607.73 1036.78 1607.37 1037.15 1607.01 1037.58 1606.58 1038.05 1606.07 1038.3 1606.33 1038.55 1606.59 1038.81 1606.84 1039.07 1607.09 1039.32 1607.34 1039.57 1607.59 1038.8 1608.37 1038.11 1609.04 1037.48 1609.6 1036.85 1610.15 1036.24 1610.61 1035.65 1610.97 1035.07 1611.33 1034.49 1611.59 1033.92 1611.75 1033.36 1611.91 1032.77 1611.99 1032.16 1611.99 1031.05 1611.99 1030.2 1611.64 1029.58 1610.93 1028.97 1610.22 1028.67 1609.24 1028.67 1608 1028.67 1607.31 1028.77 1606.65 1028.99 1606.03L1028.67 1605.89C1027.89 1606.98 1027.13 1607.9 1026.39 1608.67 1025.66 1609.43 1024.93 1610.06 1024.21 1610.56 1023.5 1611.06 1022.77 1611.42 1022.03 1611.65 1021.3 1611.88 1020.54 1611.99 1019.74 1611.99 1017.92 1611.99 1016.51 1611.34 1015.52 1610.03 1014.52 1608.72 1014.03 1606.82 1014.03 1604.33 1014.03 1602.85 1014.18 1601.42 1014.5 1600.05 1014.81 1598.68 1015.25 1597.39 1015.83 1596.19 1016.4 1594.99 1017.09 1593.9 1017.88 1592.91 1018.68 1591.93 1019.55 1591.08 1020.5 1590.38 1021.45 1589.67 1022.46 1589.13 1023.53 1588.74 1024.6 1588.35 1025.71 1588.15 1026.85 1588.15Z" fill="#576C87" fill-rule="evenodd"/><text fill="#000000" fill-opacity="0" font-family="Arial,Arial_MSFontService,sans-serif" font-size="23.8442" x="1014.03" y="1609.01">𝑎</text><path d="M1070.27 1558.09C1068.02 1558.09 1065.92 1558.89 1063.97 1560.5 1062.02 1562.1 1060.31 1564.39 1058.85 1567.37 1057.38 1570.35 1056.24 1573.62 1055.42 1577.18 1054.61 1580.75 1054.2 1583.89 1054.2 1586.62 1054.2 1593.06 1056.55 1596.28 1061.24 1596.28 1064.13 1596.28 1066.79 1594.93 1069.2 1592.23 1071.62 1589.53 1073.57 1585.8 1075.05 1581.03 1076.53 1576.26 1077.27 1571.8 1077.27 1567.65 1077.27 1564.55 1076.69 1562.18 1075.55 1560.54 1074.4 1558.91 1072.64 1558.09 1070.27 1558.09ZM1070.61 1555.34C1074.63 1555.34 1077.73 1556.51 1079.91 1558.84 1082.08 1561.17 1083.17 1564.55 1083.17 1568.96 1083.17 1571.88 1082.71 1575.14 1081.8 1578.75 1080.88 1582.35 1079.62 1585.53 1078.02 1588.29 1076.41 1591.05 1074.55 1593.28 1072.44 1594.96 1070.32 1596.65 1068.03 1597.82 1065.55 1598.46 1066.03 1599.99 1066.48 1601.24 1066.89 1602.23 1067.31 1603.22 1067.71 1604.02 1068.1 1604.64 1068.48 1605.25 1068.86 1605.71 1069.24 1606.01 1069.61 1606.31 1069.99 1606.52 1070.36 1606.62 1070.74 1606.72 1071.17 1606.78 1071.67 1606.78 1072.46 1606.78 1073.27 1606.55 1074.08 1606.09 1074.89 1605.63 1075.8 1604.84 1076.8 1603.71L1078.42 1605.46C1076.76 1607.28 1075.2 1608.56 1073.77 1609.31 1072.33 1610.06 1070.85 1610.43 1069.33 1610.43 1067.6 1610.43 1066.19 1610.05 1065.1 1609.28 1064 1608.51 1063.05 1607.28 1062.25 1605.59 1061.45 1603.9 1060.67 1601.69 1059.92 1598.96 1056.15 1598.76 1053.28 1597.51 1051.3 1595.21 1049.32 1592.92 1048.33 1589.69 1048.33 1585.53 1048.33 1582.4 1048.86 1578.87 1049.91 1574.93 1050.96 1571 1052.48 1567.52 1054.47 1564.51 1056.46 1561.5 1058.83 1559.22 1061.6 1557.67 1064.36 1556.12 1067.36 1555.34 1070.61 1555.34Z" fill="#576C87" fill-rule="evenodd"/><text fill="#000000" fill-opacity="0" font-family="Arial,Arial_MSFontService,sans-serif" font-size="55.0938" x="1048.33" y="1603.55">𝑄</text><path d="M1276.11 1550.57C1282.19 1552.17 1286.87 1555.63 1290.13 1560.96 1293.39 1566.28 1295.02 1572.7 1295.02 1580.22 1295.02 1587.76 1293.39 1594.19 1290.14 1599.49 1286.89 1604.79 1282.21 1608.24 1276.11 1609.85L1275.36 1607.44C1280.17 1605.84 1283.75 1602.67 1286.1 1597.94 1288.44 1593.21 1289.61 1587.2 1289.61 1579.91 1289.61 1572.87 1288.44 1567.02 1286.11 1562.36 1283.78 1557.71 1280.16 1554.58 1275.27 1552.97ZM1114.06 1550.57 1114.91 1552.97C1110.03 1554.58 1106.42 1557.71 1104.08 1562.36 1101.73 1567.02 1100.56 1572.87 1100.56 1579.91 1100.56 1587.2 1101.73 1593.21 1104.08 1597.94 1106.42 1602.67 1110 1605.84 1114.81 1607.44L1114.06 1609.85C1107.96 1608.24 1103.28 1604.79 1100.03 1599.49 1096.78 1594.19 1095.16 1587.76 1095.16 1580.22 1095.16 1572.7 1096.79 1566.28 1100.05 1560.96 1103.31 1555.63 1107.98 1552.17 1114.06 1550.57Z" fill="#576C87" fill-rule="evenodd"/><path d="M1133.6 1568.12C1135.54 1568.12 1137.3 1568.24 1138.9 1568.46 1140.49 1568.69 1142.08 1569.09 1143.66 1569.65L1142.25 1576.21 1139.72 1576.21C1139.49 1574.36 1138.88 1572.95 1137.9 1572 1136.91 1571.04 1135.35 1570.56 1133.22 1570.56 1131.58 1570.56 1130.24 1570.98 1129.22 1571.82 1128.2 1572.67 1127.69 1573.78 1127.69 1575.15 1127.69 1575.9 1127.82 1576.56 1128.08 1577.14 1128.34 1577.71 1128.87 1578.34 1129.66 1579.03 1130.45 1579.71 1131.68 1580.56 1133.35 1581.56 1134.66 1582.35 1135.71 1583.07 1136.5 1583.73 1137.3 1584.39 1137.92 1585.04 1138.38 1585.68 1138.84 1586.33 1139.17 1587.01 1139.38 1587.73 1139.59 1588.45 1139.69 1589.32 1139.69 1590.34 1139.69 1592.19 1139.2 1593.78 1138.21 1595.11 1137.22 1596.43 1135.87 1597.41 1134.18 1598.06 1132.48 1598.7 1130.55 1599.03 1128.38 1599.03 1126.65 1599.03 1124.95 1598.9 1123.29 1598.64 1121.62 1598.38 1119.76 1597.93 1117.72 1597.31L1119.22 1590.5 1121.66 1590.5C1121.74 1592.5 1122.31 1594.01 1123.35 1595.03 1124.39 1596.05 1126.05 1596.56 1128.32 1596.56 1130.3 1596.56 1131.84 1596.12 1132.96 1595.23 1134.07 1594.34 1134.63 1593.09 1134.63 1591.46 1134.63 1590.53 1134.47 1589.72 1134.16 1589.04 1133.85 1588.37 1133.34 1587.71 1132.63 1587.09 1131.92 1586.46 1130.8 1585.68 1129.25 1584.75 1127.63 1583.77 1126.36 1582.88 1125.46 1582.09 1124.55 1581.3 1123.87 1580.44 1123.41 1579.51 1122.95 1578.58 1122.72 1577.52 1122.72 1576.31 1122.72 1574.66 1123.17 1573.22 1124.05 1571.98 1124.94 1570.74 1126.2 1569.79 1127.85 1569.12 1129.49 1568.45 1131.41 1568.12 1133.6 1568.12Z" fill="#576C87" fill-rule="evenodd"/><text fill="#000000" fill-opacity="0" font-family="Arial,Arial_MSFontService,sans-serif" font-size="30.9062" x="1117.72" y="1595.16">𝑠</text><path d="M1151.45 1591.25 1156.91 1591.25C1157.21 1592.7 1157.35 1594.14 1157.35 1595.56 1157.35 1597.02 1157.1 1598.35 1156.6 1599.56 1156.1 1600.77 1155.31 1601.97 1154.21 1603.17 1153.12 1604.37 1151.61 1605.68 1149.7 1607.12L1148.01 1605.21C1149.07 1604.21 1149.84 1603.31 1150.32 1602.51 1150.8 1601.71 1151.14 1600.8 1151.35 1599.78 1151.56 1598.76 1151.66 1597.47 1151.66 1595.93 1151.66 1594.35 1151.59 1592.79 1151.45 1591.25Z" fill="#576C87" fill-rule="evenodd"/><text fill="#000000" fill-opacity="0" font-family="Arial,Arial_MSFontService,sans-serif" font-size="15.875" x="1148.01" y="1605.14">,</text><path d="M1191.17 1570.56C1189.02 1570.56 1187.1 1571.42 1185.39 1573.15 1183.68 1574.88 1182.35 1577.2 1181.39 1580.11 1180.43 1583.01 1179.95 1585.91 1179.95 1588.81 1179.95 1590.97 1180.25 1592.59 1180.84 1593.67 1181.43 1594.74 1182.43 1595.28 1183.83 1595.28 1185.2 1595.28 1186.55 1594.68 1187.87 1593.5 1189.2 1592.31 1190.56 1590.62 1191.97 1588.42 1193.37 1586.22 1194.37 1583.68 1194.95 1580.81L1195.23 1579.46C1195.42 1578.61 1195.54 1577.87 1195.61 1577.25 1195.67 1576.62 1195.7 1575.94 1195.7 1575.21 1195.7 1573.61 1195.36 1572.43 1194.67 1571.68 1193.98 1570.93 1192.81 1570.56 1191.17 1570.56ZM1190.54 1568.09C1191.9 1568.09 1193.16 1568.24 1194.34 1568.54 1195.52 1568.84 1196.73 1569.38 1197.98 1570.15L1200.86 1568.09 1202.86 1568.59 1198.26 1588.4C1197.8 1590.38 1197.58 1591.92 1197.58 1593.03 1197.58 1593.86 1197.71 1594.46 1197.98 1594.84 1198.25 1595.21 1198.68 1595.4 1199.26 1595.4 1199.89 1595.4 1200.55 1595.15 1201.26 1594.64 1201.97 1594.13 1202.97 1593.15 1204.26 1591.71L1206.04 1593.46C1204.17 1595.46 1202.57 1596.89 1201.25 1597.73 1199.92 1598.57 1198.49 1599 1196.95 1599 1195.66 1599 1194.63 1598.57 1193.86 1597.71 1193.09 1596.86 1192.7 1595.72 1192.7 1594.31 1192.7 1593.16 1192.94 1591.94 1193.42 1590.65L1193.01 1590.53C1191.01 1593.44 1189.12 1595.58 1187.33 1596.93 1185.53 1598.29 1183.64 1598.96 1181.64 1598.96 1179.35 1598.96 1177.57 1598.1 1176.31 1596.37 1175.05 1594.64 1174.42 1592.21 1174.42 1589.09 1174.42 1585.51 1175.12 1582.06 1176.53 1578.76 1177.93 1575.46 1179.87 1572.86 1182.33 1570.95 1184.78 1569.04 1187.52 1568.09 1190.54 1568.09Z" fill="#576C87" fill-rule="evenodd"/><text fill="#000000" fill-opacity="0" font-family="Arial,Arial_MSFontService,sans-serif" font-size="30.9062" x="1174.42" y="1595.13">𝑎</text><path d="M1213.94 1591.25 1219.4 1591.25C1219.7 1592.7 1219.84 1594.14 1219.84 1595.56 1219.84 1597.02 1219.59 1598.35 1219.09 1599.56 1218.59 1600.77 1217.8 1601.97 1216.7 1603.17 1215.61 1604.37 1214.1 1605.68 1212.19 1607.12L1210.5 1605.21C1211.56 1604.21 1212.33 1603.31 1212.81 1602.51 1213.29 1601.71 1213.63 1600.8 1213.84 1599.78 1214.05 1598.76 1214.15 1597.47 1214.15 1595.93 1214.15 1594.35 1214.08 1592.79 1213.94 1591.25ZM1213.53 1570.28 1219.78 1570.28 1219.78 1577.59 1213.53 1577.59Z" fill="#576C87" fill-rule="evenodd"/><text fill="#000000" fill-opacity="0" font-family="Arial,Arial_MSFontService,sans-serif" font-size="36.8438" x="1210.5" y="1602.52">;</text><path d="M1246.26 1578.28C1245.28 1582.8 1244.79 1586.6 1244.79 1589.68 1244.79 1592.02 1245.15 1593.73 1245.86 1594.82 1246.56 1595.92 1247.71 1596.46 1249.29 1596.46 1251.63 1596.46 1253.84 1594.9 1255.93 1591.76 1258.03 1588.63 1259.8 1584.13 1261.26 1578.28ZM1259.08 1557.21C1256.64 1557.21 1254.38 1558.76 1252.31 1561.84 1250.24 1564.92 1248.47 1569.34 1247.01 1575.09L1261.98 1575.09C1262.96 1570.69 1263.45 1566.91 1263.45 1563.75 1263.45 1561.56 1263.1 1559.92 1262.39 1558.84 1261.68 1557.76 1260.58 1557.21 1259.08 1557.21ZM1259.45 1554.68C1265.49 1554.68 1268.51 1558.52 1268.51 1566.18 1268.51 1568.35 1268.27 1570.94 1267.78 1573.95 1267.29 1576.96 1266.51 1580.03 1265.45 1583.15 1264.39 1586.28 1263.04 1589.04 1261.42 1591.45 1259.79 1593.86 1257.92 1595.71 1255.79 1597.03 1253.67 1598.34 1251.38 1599 1248.92 1599 1245.81 1599 1243.5 1598.05 1241.98 1596.15 1240.46 1594.26 1239.7 1591.41 1239.7 1587.62 1239.7 1585.56 1239.93 1583.02 1240.39 1580 1240.85 1576.97 1241.6 1573.89 1242.65 1570.73 1243.71 1567.57 1245.06 1564.77 1246.72 1562.32 1248.37 1559.88 1250.28 1557.99 1252.43 1556.67 1254.59 1555.34 1256.93 1554.68 1259.45 1554.68Z" fill="#576C87" fill-rule="evenodd"/><text fill="#000000" fill-opacity="0" font-family="Arial,Arial_MSFontService,sans-serif" font-size="44.3125" x="1239.7" y="1593.46">𝜃</text><path d="M2192.29 1293.58C2190.14 1293.58 2188.22 1294.44 2186.51 1296.17 2184.8 1297.9 2183.47 1300.22 2182.51 1303.13 2181.55 1306.03 2181.07 1308.93 2181.07 1311.83 2181.07 1314 2181.37 1315.62 2181.96 1316.69 2182.55 1317.76 2183.55 1318.3 2184.94 1318.3 2186.32 1318.3 2187.67 1317.7 2188.99 1316.52 2190.31 1315.33 2191.68 1313.64 2193.09 1311.44 2194.49 1309.24 2195.49 1306.7 2196.07 1303.83L2196.35 1302.49C2196.54 1301.63 2196.66 1300.89 2196.73 1300.27 2196.79 1299.64 2196.82 1298.96 2196.82 1298.24 2196.82 1296.63 2196.48 1295.45 2195.79 1294.7 2195.1 1293.95 2193.93 1293.58 2192.29 1293.58ZM2191.66 1291.11C2193.02 1291.11 2194.28 1291.26 2195.46 1291.56 2196.64 1291.87 2197.85 1292.4 2199.1 1293.17L2201.98 1291.11 2203.98 1291.61 2199.38 1311.42C2198.92 1313.4 2198.69 1314.94 2198.69 1316.05 2198.69 1316.88 2198.83 1317.49 2199.1 1317.86 2199.37 1318.24 2199.8 1318.42 2200.38 1318.42 2201.01 1318.42 2201.67 1318.17 2202.38 1317.66 2203.09 1317.15 2204.09 1316.17 2205.38 1314.74L2207.16 1316.49C2205.29 1318.49 2203.69 1319.91 2202.37 1320.75 2201.04 1321.59 2199.61 1322.02 2198.07 1322.02 2196.78 1322.02 2195.75 1321.59 2194.98 1320.74 2194.21 1319.88 2193.82 1318.75 2193.82 1317.33 2193.82 1316.18 2194.06 1314.96 2194.54 1313.67L2194.13 1313.55C2192.13 1316.46 2190.24 1318.6 2188.44 1319.95 2186.65 1321.31 2184.76 1321.99 2182.76 1321.99 2180.47 1321.99 2178.69 1321.12 2177.43 1319.39 2176.17 1317.66 2175.54 1315.24 2175.54 1312.11 2175.54 1308.53 2176.24 1305.08 2177.65 1301.78 2179.05 1298.48 2180.99 1295.88 2183.44 1293.97 2185.9 1292.06 2188.64 1291.11 2191.66 1291.11ZM2128.1 1291.11C2129.41 1291.11 2130.45 1291.54 2131.21 1292.41 2131.97 1293.27 2132.35 1294.4 2132.35 1295.8 2132.35 1296.94 2132.11 1298.16 2131.63 1299.45L2132.01 1299.58C2133.92 1296.72 2135.83 1294.6 2137.73 1293.22 2139.62 1291.83 2141.54 1291.14 2143.48 1291.14 2145.48 1291.14 2147 1291.71 2148.04 1292.84 2149.08 1293.98 2149.6 1295.62 2149.6 1297.77L2149.6 1298.2C2149.6 1298.35 2149.59 1298.51 2149.57 1298.67 2151.36 1296.13 2153.15 1294.24 2154.93 1293 2156.71 1291.76 2158.56 1291.14 2160.48 1291.14 2162.39 1291.14 2163.87 1291.69 2164.91 1292.8 2165.96 1293.9 2166.48 1295.45 2166.48 1297.45 2166.48 1298.77 2166.17 1300.63 2165.57 1303.05L2163.54 1311.24C2162.98 1313.51 2162.69 1315.11 2162.69 1316.05 2162.69 1316.88 2162.83 1317.49 2163.1 1317.86 2163.37 1318.24 2163.8 1318.42 2164.38 1318.42 2165.01 1318.42 2165.67 1318.17 2166.38 1317.66 2167.09 1317.15 2168.09 1316.17 2169.38 1314.74L2171.16 1316.49C2169.37 1318.38 2167.81 1319.78 2166.48 1320.67 2165.14 1321.57 2163.62 1322.02 2161.91 1322.02 2160.56 1322.02 2159.48 1321.53 2158.66 1320.56 2157.85 1319.59 2157.44 1318.36 2157.44 1316.86 2157.44 1315.51 2157.79 1313.52 2158.48 1310.89L2159.85 1305.49C2160.35 1303.53 2160.68 1302.08 2160.84 1301.14 2160.99 1300.2 2161.07 1299.44 2161.07 1298.86 2161.07 1297.42 2160.83 1296.39 2160.35 1295.75 2159.87 1295.12 2159.09 1294.8 2158.01 1294.8 2157.13 1294.8 2156.19 1295.13 2155.19 1295.78 2154.19 1296.44 2153.14 1297.46 2152.04 1298.84 2150.93 1300.23 2150.03 1301.59 2149.34 1302.94 2148.64 1304.28 2148.08 1305.92 2147.66 1307.86L2144.82 1321.52 2139.41 1321.52 2143.01 1305.64C2143.44 1303.7 2143.74 1302.27 2143.9 1301.34 2144.05 1300.42 2144.13 1299.62 2144.13 1298.95 2144.13 1297.45 2143.87 1296.39 2143.34 1295.75 2142.8 1295.12 2141.98 1294.8 2140.85 1294.8 2140.06 1294.8 2139.16 1295.13 2138.15 1295.78 2137.14 1296.44 2136.06 1297.49 2134.91 1298.94 2133.77 1300.39 2132.87 1301.78 2132.23 1303.11 2131.58 1304.44 2131.04 1306.07 2130.6 1307.99L2127.63 1321.52 2122.23 1321.52 2126.79 1301.7C2127.25 1299.7 2127.48 1298.16 2127.48 1297.08 2127.48 1296.25 2127.34 1295.64 2127.07 1295.27 2126.8 1294.89 2126.37 1294.7 2125.79 1294.7 2125.14 1294.7 2124.46 1294.97 2123.74 1295.5 2123.02 1296.03 2122.04 1297 2120.79 1298.39L2119.01 1296.64C2120.84 1294.72 2122.42 1293.32 2123.74 1292.44 2125.06 1291.55 2126.52 1291.11 2128.1 1291.11Z" fill="#576C87" fill-rule="evenodd"/><text fill="#000000" fill-opacity="0" font-family="Arial,Arial_MSFontService,sans-serif" font-size="30.9062" x="2119.01" y="1318.15">𝑚𝑎</text><path d="M2221.53 1291.11C2222.18 1291.11 2222.75 1291.18 2223.24 1291.33 2223.73 1291.47 2224.16 1291.7 2224.53 1292 2224.91 1292.3 2225.24 1292.69 2225.53 1293.17 2225.83 1293.65 2226.11 1294.3 2226.38 1295.13 2226.65 1295.95 2226.9 1296.97 2227.14 1298.19 2227.38 1299.41 2227.6 1300.67 2227.78 1301.99L2228.1 1301.99C2230.1 1299.17 2231.61 1297.12 2232.64 1295.81 2233.67 1294.51 2234.54 1293.54 2235.25 1292.91 2235.96 1292.27 2236.64 1291.82 2237.3 1291.56 2237.96 1291.3 2238.83 1291.17 2239.91 1291.17 2240.89 1291.17 2241.69 1291.3 2242.32 1291.55L2241.07 1297.2 2238.88 1297.2C2238.75 1296.33 2238.39 1295.89 2237.78 1295.89 2237.6 1295.89 2237.4 1295.92 2237.19 1295.99 2236.98 1296.05 2236.73 1296.18 2236.42 1296.39 2236.12 1296.6 2235.68 1297.01 2235.1 1297.61 2234.51 1298.21 2233.86 1298.95 2233.13 1299.83 2232.4 1300.7 2231.65 1301.62 2230.88 1302.58L2228.75 1305.24C2229.13 1307.24 2229.48 1308.96 2229.82 1310.42 2230.15 1311.88 2230.45 1313.09 2230.71 1314.06 2230.97 1315.03 2231.2 1315.8 2231.39 1316.36 2231.59 1316.92 2231.8 1317.34 2232.03 1317.63 2232.26 1317.91 2232.5 1318.1 2232.74 1318.22 2232.98 1318.33 2233.25 1318.39 2233.57 1318.39 2234.13 1318.39 2234.67 1318.17 2235.21 1317.74 2235.74 1317.3 2236.5 1316.31 2237.5 1314.77L2239.53 1316.11C2238.08 1318.28 2236.76 1319.8 2235.58 1320.69 2234.4 1321.57 2233 1322.02 2231.38 1322.02 2230.48 1322.02 2229.72 1321.85 2229.1 1321.53 2228.47 1321.21 2227.93 1320.69 2227.47 1319.99 2227.01 1319.28 2226.61 1318.17 2226.25 1316.67 2225.61 1314.01 2225.21 1311.96 2225.07 1310.55L2224.75 1310.55C2222.54 1313.65 2220.9 1315.88 2219.83 1317.24 2218.76 1318.59 2217.87 1319.59 2217.17 1320.24 2216.48 1320.88 2215.8 1321.33 2215.14 1321.59 2214.49 1321.85 2213.62 1321.99 2212.53 1321.99 2211.55 1321.99 2210.75 1321.86 2210.13 1321.61L2211.38 1315.95 2213.57 1315.95C2213.69 1316.83 2214.05 1317.27 2214.66 1317.27 2214.95 1317.27 2215.26 1317.19 2215.58 1317.03 2215.9 1316.88 2216.37 1316.5 2216.97 1315.91 2217.58 1315.31 2218.41 1314.38 2219.47 1313.11 2220.53 1311.84 2222.08 1309.93 2224.1 1307.39 2223.78 1305.75 2223.46 1304.16 2223.13 1302.64 2222.79 1301.12 2222.45 1299.7 2222.1 1298.39 2221.74 1297.08 2221.45 1296.22 2221.22 1295.81 2220.99 1295.41 2220.75 1295.13 2220.49 1294.97 2220.23 1294.81 2219.9 1294.74 2219.5 1294.74 2219.07 1294.74 2218.67 1294.83 2218.32 1295.03 2217.96 1295.23 2217.58 1295.57 2217.16 1296.06 2216.74 1296.55 2216.19 1297.32 2215.5 1298.36L2213.47 1297.02C2214.78 1295.04 2216.04 1293.56 2217.25 1292.58 2218.46 1291.6 2219.89 1291.11 2221.53 1291.11Z" fill="#576C87" fill-rule="evenodd"/><text fill="#000000" fill-opacity="0" font-family="Arial,Arial_MSFontService,sans-serif" font-size="30.9062" x="2210.13" y="1318.15">𝑥</text><path d="M2259.13 1313.44C2258.22 1313.44 2257.38 1313.64 2256.6 1314.04 2255.82 1314.44 2255.11 1314.98 2254.47 1315.67 2253.82 1316.36 2253.25 1317.15 2252.76 1318.06 2252.26 1318.96 2251.84 1319.91 2251.5 1320.92 2251.15 1321.93 2250.89 1322.97 2250.71 1324.03 2250.54 1325.1 2250.45 1326.12 2250.45 1327.1 2250.45 1328.75 2250.68 1329.98 2251.15 1330.78 2251.62 1331.58 2252.37 1331.99 2253.41 1331.99 2253.93 1331.99 2254.43 1331.89 2254.91 1331.71 2255.4 1331.53 2255.91 1331.24 2256.44 1330.84 2257.79 1329.78 2258.93 1328.5 2259.88 1326.98 2260.83 1325.47 2261.54 1323.68 2262.02 1321.61 2262.23 1320.66 2262.4 1319.81 2262.52 1319.04 2262.64 1318.28 2262.71 1317.55 2262.71 1316.86 2262.71 1315.64 2262.42 1314.76 2261.85 1314.23 2261.27 1313.71 2260.36 1313.44 2259.13 1313.44ZM2258.71 1311.17C2259.92 1311.17 2260.99 1311.31 2261.91 1311.6 2262.84 1311.88 2263.69 1312.26 2264.45 1312.75L2266.68 1311.17 2268.53 1311.65 2265.07 1326.68C2264.87 1327.54 2264.73 1328.25 2264.66 1328.81 2264.58 1329.37 2264.54 1329.86 2264.54 1330.29 2264.54 1330.87 2264.66 1331.29 2264.9 1331.55 2265.13 1331.81 2265.48 1331.94 2265.92 1331.94 2266.19 1331.94 2266.47 1331.89 2266.73 1331.78 2267 1331.67 2267.29 1331.5 2267.61 1331.27 2267.92 1331.04 2268.26 1330.75 2268.64 1330.39 2269.01 1330.03 2269.44 1329.6 2269.91 1329.09 2270.16 1329.35 2270.41 1329.61 2270.67 1329.86 2270.93 1330.12 2271.18 1330.36 2271.43 1330.61 2270.66 1331.39 2269.97 1332.06 2269.34 1332.62 2268.71 1333.18 2268.1 1333.63 2267.51 1333.99 2266.92 1334.35 2266.35 1334.61 2265.78 1334.77 2265.21 1334.93 2264.63 1335.01 2264.01 1335.01 2262.91 1335.01 2262.06 1334.66 2261.44 1333.95 2260.83 1333.24 2260.53 1332.26 2260.53 1331.02 2260.53 1330.33 2260.63 1329.68 2260.85 1329.05L2260.53 1328.91C2259.75 1330 2258.99 1330.92 2258.25 1331.69 2257.52 1332.45 2256.79 1333.08 2256.07 1333.58 2255.35 1334.08 2254.63 1334.44 2253.89 1334.67 2253.16 1334.9 2252.39 1335.01 2251.6 1335.01 2249.78 1335.01 2248.37 1334.36 2247.38 1333.05 2246.38 1331.74 2245.88 1329.84 2245.88 1327.35 2245.88 1325.87 2246.04 1324.44 2246.35 1323.07 2246.67 1321.7 2247.11 1320.42 2247.69 1319.21 2248.26 1318.01 2248.94 1316.92 2249.74 1315.93 2250.54 1314.95 2251.41 1314.1 2252.36 1313.4 2253.3 1312.69 2254.31 1312.15 2255.39 1311.76 2256.46 1311.37 2257.57 1311.17 2258.71 1311.17ZM2279.77 1310.28 2285.69 1310.28 2285.69 1312.07 2278.05 1330.45 2275.37 1329.64Z" fill="#576C87" fill-rule="evenodd"/><text fill="#000000" fill-opacity="0" font-family="Arial,Arial_MSFontService,sans-serif" font-size="24.7393" x="2245.88" y="1331.92">𝑎′</text><path d="M2317.59 1281.11C2315.34 1281.11 2313.25 1281.91 2311.3 1283.52 2309.35 1285.12 2307.64 1287.41 2306.17 1290.39 2304.7 1293.37 2303.56 1296.64 2302.75 1300.2 2301.94 1303.77 2301.53 1306.91 2301.53 1309.64 2301.53 1316.08 2303.88 1319.3 2308.56 1319.3 2311.46 1319.3 2314.12 1317.95 2316.53 1315.25 2318.95 1312.55 2320.9 1308.82 2322.38 1304.05 2323.85 1299.28 2324.59 1294.82 2324.59 1290.67 2324.59 1287.57 2324.02 1285.2 2322.88 1283.56 2321.73 1281.93 2319.97 1281.11 2317.59 1281.11ZM2317.94 1278.36C2321.96 1278.36 2325.06 1279.53 2327.24 1281.86 2329.41 1284.19 2330.5 1287.57 2330.5 1291.99 2330.5 1294.9 2330.04 1298.16 2329.13 1301.77 2328.21 1305.37 2326.95 1308.55 2325.34 1311.31 2323.74 1314.07 2321.88 1316.3 2319.77 1317.99 2317.65 1319.67 2315.35 1320.84 2312.88 1321.49 2313.35 1323.01 2313.8 1324.26 2314.22 1325.25 2314.64 1326.24 2315.04 1327.04 2315.42 1327.66 2315.81 1328.27 2316.19 1328.73 2316.56 1329.03 2316.94 1329.33 2317.31 1329.54 2317.69 1329.64 2318.06 1329.75 2318.5 1329.8 2319 1329.8 2319.79 1329.8 2320.59 1329.57 2321.41 1329.11 2322.22 1328.65 2323.13 1327.86 2324.13 1326.74L2325.75 1328.49C2324.08 1330.3 2322.53 1331.58 2321.09 1332.33 2319.66 1333.08 2318.18 1333.45 2316.66 1333.45 2314.93 1333.45 2313.52 1333.07 2312.42 1332.3 2311.33 1331.53 2310.38 1330.3 2309.58 1328.61 2308.78 1326.92 2308 1324.71 2307.25 1321.99 2303.48 1321.78 2300.6 1320.53 2298.63 1318.24 2296.65 1315.94 2295.66 1312.71 2295.66 1308.55 2295.66 1305.42 2296.18 1301.89 2297.24 1297.95 2298.29 1294.02 2299.81 1290.54 2301.8 1287.53 2303.79 1284.52 2306.16 1282.24 2308.92 1280.69 2311.68 1279.14 2314.69 1278.36 2317.94 1278.36Z" fill="#576C87" fill-rule="evenodd"/><text fill="#000000" fill-opacity="0" font-family="Arial,Arial_MSFontService,sans-serif" font-size="55.0938" x="2295.66" y="1326.57">𝑄</text><path d="M2345.01 1276.11 2346.92 1277.99C2345.85 1279.3 2345.09 1280.58 2344.64 1281.83 2344.18 1283.08 2343.95 1284.58 2343.95 1286.33 2343.95 1286.95 2343.98 1287.63 2344.04 1288.34 2344.1 1289.06 2344.26 1290.13 2344.51 1291.55L2339.04 1291.55C2338.79 1290.86 2338.6 1290.11 2338.46 1289.3 2338.33 1288.49 2338.26 1287.75 2338.26 1287.08 2338.26 1285.79 2338.45 1284.63 2338.82 1283.59 2339.2 1282.56 2339.82 1281.51 2340.68 1280.42 2341.55 1279.34 2342.99 1277.9 2345.01 1276.11Z" fill="#576C87" fill-rule="evenodd"/><text fill="#000000" fill-opacity="0" font-family="Arial,Arial_MSFontService,sans-serif" font-size="15.4375" x="2338.26" y="1289.62">‘</text><path d="M2548.65 1273.59C2554.73 1275.19 2559.4 1278.65 2562.66 1283.98 2565.92 1289.3 2567.55 1295.72 2567.55 1303.24 2567.55 1310.79 2565.93 1317.21 2562.68 1322.51 2559.43 1327.81 2554.75 1331.26 2548.65 1332.87L2547.9 1330.46C2552.71 1328.86 2556.29 1325.69 2558.63 1320.96 2560.97 1316.23 2562.15 1310.22 2562.15 1302.93 2562.15 1295.89 2560.98 1290.04 2558.65 1285.38 2556.31 1280.73 2552.7 1277.6 2547.8 1275.99ZM2373.83 1273.59 2374.68 1275.99C2369.8 1277.6 2366.19 1280.73 2363.85 1285.38 2361.51 1290.04 2360.33 1295.89 2360.33 1302.93 2360.33 1310.22 2361.51 1316.23 2363.85 1320.96 2366.19 1325.69 2369.77 1328.86 2374.58 1330.46L2373.83 1332.87C2367.73 1331.26 2363.05 1327.81 2359.8 1322.51 2356.55 1317.21 2354.93 1310.79 2354.93 1303.24 2354.93 1295.72 2356.56 1289.3 2359.82 1283.98 2363.08 1278.65 2367.75 1275.19 2373.83 1273.59Z" fill="#576C87" fill-rule="evenodd"/><path d="M2393.37 1291.14C2395.31 1291.14 2397.07 1291.26 2398.67 1291.49 2400.26 1291.71 2401.85 1292.11 2403.43 1292.67L2402.03 1299.24 2399.49 1299.24C2399.27 1297.38 2398.66 1295.97 2397.67 1295.02 2396.68 1294.06 2395.12 1293.58 2392.99 1293.58 2391.35 1293.58 2390.02 1294 2388.99 1294.84 2387.97 1295.69 2387.46 1296.8 2387.46 1298.17 2387.46 1298.92 2387.59 1299.58 2387.85 1300.16 2388.11 1300.73 2388.64 1301.36 2389.43 1302.05 2390.22 1302.74 2391.45 1303.58 2393.12 1304.58 2394.43 1305.37 2395.48 1306.09 2396.28 1306.75 2397.07 1307.41 2397.69 1308.06 2398.15 1308.7 2398.61 1309.35 2398.94 1310.03 2399.15 1310.75 2399.36 1311.47 2399.46 1312.34 2399.46 1313.36 2399.46 1315.21 2398.97 1316.8 2397.98 1318.13 2396.99 1319.45 2395.65 1320.43 2393.95 1321.08 2392.25 1321.72 2390.32 1322.05 2388.15 1322.05 2386.42 1322.05 2384.72 1321.92 2383.06 1321.66 2381.39 1321.4 2379.54 1320.95 2377.49 1320.33L2378.99 1313.52 2381.43 1313.52C2381.52 1315.52 2382.08 1317.03 2383.12 1318.05 2384.16 1319.07 2385.82 1319.58 2388.09 1319.58 2390.07 1319.58 2391.61 1319.14 2392.73 1318.25 2393.84 1317.37 2394.4 1316.11 2394.4 1314.49 2394.4 1313.55 2394.24 1312.74 2393.93 1312.06 2393.62 1311.39 2393.11 1310.74 2392.4 1310.11 2391.69 1309.49 2390.57 1308.7 2389.03 1307.77 2387.4 1306.79 2386.14 1305.9 2385.23 1305.11 2384.32 1304.32 2383.64 1303.46 2383.18 1302.53 2382.72 1301.6 2382.49 1300.54 2382.49 1299.33 2382.49 1297.68 2382.94 1296.24 2383.82 1295 2384.71 1293.76 2385.97 1292.81 2387.62 1292.14 2389.27 1291.47 2391.18 1291.14 2393.37 1291.14Z" fill="#576C87" fill-rule="evenodd"/><text fill="#000000" fill-opacity="0" font-family="Arial,Arial_MSFontService,sans-serif" font-size="30.9062" x="2377.49" y="1318.18">𝑠</text><path d="M2411.22 1314.27 2416.69 1314.27C2416.98 1315.72 2417.12 1317.16 2417.12 1318.58 2417.12 1320.04 2416.87 1321.37 2416.37 1322.58 2415.87 1323.79 2415.08 1324.99 2413.98 1326.19 2412.89 1327.39 2411.38 1328.7 2409.47 1330.14L2407.78 1328.24C2408.84 1327.24 2409.61 1326.33 2410.09 1325.53 2410.57 1324.73 2410.92 1323.82 2411.12 1322.8 2411.33 1321.78 2411.44 1320.5 2411.44 1318.95 2411.44 1317.37 2411.36 1315.81 2411.22 1314.27Z" fill="#576C87" fill-rule="evenodd"/><text fill="#000000" fill-opacity="0" font-family="Arial,Arial_MSFontService,sans-serif" font-size="15.875" x="2407.78" y="1328.16">,</text><path d="M2450.94 1293.58C2448.79 1293.58 2446.87 1294.44 2445.16 1296.17 2443.45 1297.9 2442.12 1300.22 2441.16 1303.13 2440.2 1306.03 2439.72 1308.93 2439.72 1311.83 2439.72 1314 2440.02 1315.62 2440.61 1316.69 2441.21 1317.76 2442.2 1318.3 2443.6 1318.3 2444.97 1318.3 2446.32 1317.7 2447.64 1316.52 2448.97 1315.33 2450.33 1313.64 2451.74 1311.44 2453.14 1309.24 2454.14 1306.7 2454.72 1303.83L2455 1302.49C2455.19 1301.63 2455.32 1300.89 2455.38 1300.27 2455.44 1299.64 2455.47 1298.96 2455.47 1298.24 2455.47 1296.63 2455.13 1295.45 2454.44 1294.7 2453.75 1293.95 2452.59 1293.58 2450.94 1293.58ZM2450.32 1291.11C2451.67 1291.11 2452.94 1291.26 2454.11 1291.56 2455.29 1291.87 2456.5 1292.4 2457.75 1293.17L2460.63 1291.11 2462.63 1291.61 2458.03 1311.42C2457.58 1313.4 2457.35 1314.94 2457.35 1316.05 2457.35 1316.88 2457.48 1317.49 2457.75 1317.86 2458.02 1318.24 2458.45 1318.42 2459.03 1318.42 2459.66 1318.42 2460.33 1318.17 2461.03 1317.66 2461.74 1317.15 2462.74 1316.17 2464.03 1314.74L2465.82 1316.49C2463.94 1318.49 2462.34 1319.91 2461.02 1320.75 2459.7 1321.59 2458.26 1322.02 2456.72 1322.02 2455.43 1322.02 2454.4 1321.59 2453.63 1320.74 2452.86 1319.88 2452.47 1318.75 2452.47 1317.33 2452.47 1316.18 2452.71 1314.96 2453.19 1313.67L2452.78 1313.55C2450.78 1316.46 2448.89 1318.6 2447.1 1319.95 2445.3 1321.31 2443.41 1321.99 2441.41 1321.99 2439.12 1321.99 2437.34 1321.12 2436.08 1319.39 2434.82 1317.66 2434.19 1315.24 2434.19 1312.11 2434.19 1308.53 2434.89 1305.08 2436.3 1301.78 2437.71 1298.48 2439.64 1295.88 2442.1 1293.97 2444.55 1292.06 2447.29 1291.11 2450.32 1291.11Z" fill="#576C87" fill-rule="evenodd"/><text fill="#000000" fill-opacity="0" font-family="Arial,Arial_MSFontService,sans-serif" font-size="30.9062" x="2434.19" y="1318.15">𝑎</text><path d="M2476.46 1276.11 2478.37 1277.99C2477.3 1279.3 2476.54 1280.58 2476.09 1281.83 2475.63 1283.08 2475.4 1284.58 2475.4 1286.33 2475.4 1286.95 2475.43 1287.63 2475.49 1288.34 2475.55 1289.06 2475.71 1290.13 2475.96 1291.55L2470.49 1291.55C2470.24 1290.86 2470.05 1290.11 2469.91 1289.3 2469.78 1288.49 2469.71 1287.75 2469.71 1287.08 2469.71 1285.79 2469.9 1284.63 2470.27 1283.59 2470.65 1282.56 2471.27 1281.51 2472.13 1280.42 2473 1279.34 2474.44 1277.9 2476.46 1276.11Z" fill="#576C87" fill-rule="evenodd"/><text fill="#000000" fill-opacity="0" font-family="Arial,Arial_MSFontService,sans-serif" font-size="15.4375" x="2469.71" y="1289.62">‘</text><path d="M2486.47 1314.27 2491.94 1314.27C2492.23 1315.72 2492.38 1317.16 2492.38 1318.58 2492.38 1320.04 2492.13 1321.37 2491.63 1322.58 2491.13 1323.79 2490.33 1324.99 2489.24 1326.19 2488.14 1327.39 2486.64 1328.7 2484.72 1330.14L2483.03 1328.24C2484.1 1327.24 2484.87 1326.33 2485.35 1325.53 2485.83 1324.73 2486.17 1323.82 2486.38 1322.8 2486.59 1321.78 2486.69 1320.5 2486.69 1318.95 2486.69 1317.37 2486.62 1315.81 2486.47 1314.27ZM2486.07 1293.3 2492.32 1293.3 2492.32 1300.61 2486.07 1300.61Z" fill="#576C87" fill-rule="evenodd"/><text fill="#000000" fill-opacity="0" font-family="Arial,Arial_MSFontService,sans-serif" font-size="36.8438" x="2483.03" y="1325.54">;</text><path d="M2518.8 1301.3C2517.82 1305.82 2517.33 1309.62 2517.33 1312.7 2517.33 1315.04 2517.68 1316.75 2518.39 1317.84 2519.1 1318.94 2520.25 1319.49 2521.83 1319.49 2524.16 1319.49 2526.38 1317.92 2528.47 1314.78 2530.56 1311.65 2532.34 1307.15 2533.8 1301.3ZM2531.61 1280.24C2529.17 1280.24 2526.92 1281.78 2524.85 1284.86 2522.77 1287.94 2521.01 1292.36 2519.55 1298.11L2534.52 1298.11C2535.5 1293.71 2535.99 1289.93 2535.99 1286.77 2535.99 1284.58 2535.63 1282.94 2534.92 1281.86 2534.22 1280.78 2533.11 1280.24 2531.61 1280.24ZM2531.99 1277.7C2538.03 1277.7 2541.05 1281.54 2541.05 1289.2 2541.05 1291.37 2540.8 1293.96 2540.31 1296.97 2539.82 1299.98 2539.05 1303.05 2537.99 1306.17 2536.92 1309.3 2535.58 1312.06 2533.95 1314.47 2532.33 1316.88 2530.45 1318.74 2528.33 1320.05 2526.2 1321.36 2523.91 1322.02 2521.45 1322.02 2518.35 1322.02 2516.04 1321.07 2514.52 1319.17 2513 1317.28 2512.24 1314.43 2512.24 1310.64 2512.24 1308.58 2512.47 1306.04 2512.92 1303.02 2513.38 1300 2514.14 1296.91 2515.19 1293.75 2516.24 1290.59 2517.6 1287.79 2519.25 1285.34 2520.91 1282.9 2522.81 1281.01 2524.97 1279.69 2527.13 1278.37 2529.47 1277.7 2531.99 1277.7Z" fill="#576C87" fill-rule="evenodd"/><text fill="#000000" fill-opacity="0" font-family="Arial,Arial_MSFontService,sans-serif" font-size="44.3125" x="2512.24" y="1316.48">𝜃</text><text fill="#576C87" font-family="SimSun,SimSun_MSFontService,sans-serif" font-weight="400" font-size="64" transform="matrix(1 0 0 1 1631.25 1444)">每隔<tspan font-size="64" x="128.333" y="0">n</tspan><tspan font-size="64" x="160.417" y="0">步</tspan><tspan font-size="64" x="-16.0416" y="100">拷贝数据</tspan><tspan font-size="64" x="-519.332" y="-121">参数更新</tspan></text><path d="M1531.31 1277.96C1529.06 1277.96 1526.96 1278.77 1525.01 1280.37 1523.06 1281.97 1521.35 1284.27 1519.88 1287.25 1518.41 1290.22 1517.27 1293.5 1516.46 1297.06 1515.65 1300.62 1515.24 1303.77 1515.24 1306.5 1515.24 1312.93 1517.59 1316.15 1522.27 1316.15 1525.17 1316.15 1527.83 1314.8 1530.24 1312.1 1532.66 1309.41 1534.61 1305.67 1536.09 1300.9 1537.57 1296.13 1538.31 1291.67 1538.31 1287.53 1538.31 1284.42 1537.73 1282.05 1536.59 1280.42 1535.44 1278.78 1533.68 1277.96 1531.31 1277.96ZM1531.65 1275.21C1535.67 1275.21 1538.77 1276.38 1540.95 1278.71 1543.12 1281.05 1544.21 1284.42 1544.21 1288.84 1544.21 1291.76 1543.75 1295.02 1542.84 1298.62 1541.92 1302.22 1540.66 1305.41 1539.06 1308.17 1537.45 1310.93 1535.59 1313.15 1533.48 1314.84 1531.36 1316.53 1529.07 1317.69 1526.59 1318.34 1527.07 1319.86 1527.51 1321.12 1527.93 1322.1 1528.35 1323.09 1528.75 1323.9 1529.13 1324.51 1529.52 1325.13 1529.9 1325.58 1530.27 1325.89 1530.65 1326.19 1531.02 1326.39 1531.4 1326.5 1531.77 1326.6 1532.21 1326.65 1532.71 1326.65 1533.5 1326.65 1534.31 1326.42 1535.12 1325.96 1535.93 1325.51 1536.84 1324.71 1537.84 1323.59L1539.46 1325.34C1537.8 1327.15 1536.24 1328.43 1534.81 1329.18 1533.37 1329.93 1531.89 1330.31 1530.37 1330.31 1528.64 1330.31 1527.23 1329.92 1526.13 1329.15 1525.04 1328.38 1524.09 1327.15 1523.29 1325.46 1522.49 1323.78 1521.71 1321.57 1520.96 1318.84 1517.19 1318.63 1514.32 1317.38 1512.34 1315.09 1510.36 1312.8 1509.37 1309.57 1509.37 1305.4 1509.37 1302.28 1509.89 1298.75 1510.95 1294.81 1512 1290.87 1513.52 1287.4 1515.51 1284.39 1517.5 1281.38 1519.87 1279.09 1522.63 1277.54 1525.39 1275.99 1528.4 1275.21 1531.65 1275.21Z" fill="#576C87" fill-rule="evenodd"/><text fill="#000000" fill-opacity="0" font-family="Arial,Arial_MSFontService,sans-serif" font-size="55.0938" x="1509.37" y="1323.42">𝑄</text><path d="M1737.15 1270.44C1743.23 1272.05 1747.9 1275.51 1751.16 1280.83 1754.43 1286.15 1756.06 1292.58 1756.06 1300.1 1756.06 1307.64 1754.43 1314.06 1751.18 1319.36 1747.93 1324.67 1743.25 1328.12 1737.15 1329.72L1736.4 1327.32C1741.21 1325.71 1744.79 1322.55 1747.13 1317.82 1749.48 1313.09 1750.65 1307.08 1750.65 1299.79 1750.65 1292.74 1749.48 1286.89 1747.15 1282.24 1744.82 1277.58 1741.2 1274.45 1736.31 1272.85ZM1575.1 1270.44 1575.95 1272.85C1571.07 1274.45 1567.46 1277.58 1565.12 1282.24 1562.77 1286.89 1561.6 1292.74 1561.6 1299.79 1561.6 1307.08 1562.77 1313.09 1565.12 1317.82 1567.46 1322.55 1571.04 1325.71 1575.85 1327.32L1575.1 1329.72C1569 1328.12 1564.32 1324.67 1561.07 1319.36 1557.82 1314.06 1556.2 1307.64 1556.2 1300.1 1556.2 1292.58 1557.83 1286.15 1561.09 1280.83 1564.35 1275.51 1569.02 1272.05 1575.1 1270.44Z" fill="#576C87" fill-rule="evenodd"/><path d="M1594.64 1288C1596.57 1288 1598.34 1288.11 1599.93 1288.34 1601.53 1288.57 1603.12 1288.96 1604.7 1289.53L1603.29 1296.09 1600.76 1296.09C1600.53 1294.24 1599.92 1292.83 1598.93 1291.87 1597.94 1290.91 1596.39 1290.43 1594.26 1290.43 1592.62 1290.43 1591.28 1290.85 1590.26 1291.7 1589.24 1292.54 1588.73 1293.65 1588.73 1295.03 1588.73 1295.78 1588.86 1296.44 1589.12 1297.01 1589.38 1297.58 1589.91 1298.21 1590.7 1298.9 1591.49 1299.59 1592.72 1300.43 1594.39 1301.43 1595.7 1302.22 1596.75 1302.95 1597.54 1303.6 1598.33 1304.26 1598.96 1304.91 1599.42 1305.56 1599.88 1306.2 1600.21 1306.89 1600.42 1307.6 1600.63 1308.32 1600.73 1309.19 1600.73 1310.21 1600.73 1312.07 1600.24 1313.66 1599.25 1314.98 1598.26 1316.3 1596.91 1317.29 1595.21 1317.93 1593.52 1318.58 1591.58 1318.9 1589.42 1318.9 1587.69 1318.9 1585.99 1318.77 1584.32 1318.51 1582.66 1318.25 1580.8 1317.81 1578.76 1317.18L1580.26 1310.37 1582.7 1310.37C1582.78 1312.37 1583.35 1313.88 1584.39 1314.9 1585.43 1315.92 1587.08 1316.43 1589.36 1316.43 1591.33 1316.43 1592.88 1315.99 1594 1315.1 1595.11 1314.22 1595.67 1312.96 1595.67 1311.34 1595.67 1310.4 1595.51 1309.59 1595.2 1308.92 1594.89 1308.24 1594.38 1307.59 1593.67 1306.96 1592.96 1306.34 1591.83 1305.56 1590.29 1304.62 1588.67 1303.64 1587.4 1302.76 1586.5 1301.96 1585.59 1301.17 1584.91 1300.31 1584.45 1299.39 1583.99 1298.46 1583.76 1297.39 1583.76 1296.18 1583.76 1294.54 1584.2 1293.09 1585.09 1291.85 1585.98 1290.62 1587.24 1289.66 1588.89 1289 1590.53 1288.33 1592.45 1288 1594.64 1288Z" fill="#576C87" fill-rule="evenodd"/><text fill="#000000" fill-opacity="0" font-family="Arial,Arial_MSFontService,sans-serif" font-size="30.9062" x="1578.76" y="1315.04">𝑠</text><path d="M1612.48 1311.12 1617.95 1311.12C1618.24 1312.58 1618.39 1314.02 1618.39 1315.43 1618.39 1316.89 1618.14 1318.22 1617.64 1319.43 1617.14 1320.64 1616.34 1321.84 1615.25 1323.04 1614.16 1324.24 1612.65 1325.56 1610.73 1327L1609.05 1325.09C1610.11 1324.09 1610.88 1323.19 1611.36 1322.39 1611.84 1321.58 1612.18 1320.67 1612.39 1319.65 1612.6 1318.63 1612.7 1317.35 1612.7 1315.81 1612.7 1314.22 1612.63 1312.66 1612.48 1311.12Z" fill="#576C87" fill-rule="evenodd"/><text fill="#000000" fill-opacity="0" font-family="Arial,Arial_MSFontService,sans-serif" font-size="15.875" x="1609.05" y="1325.01">,</text><path d="M1652.21 1290.43C1650.06 1290.43 1648.13 1291.3 1646.43 1293.03 1644.72 1294.76 1643.38 1297.07 1642.43 1299.98 1641.47 1302.89 1640.99 1305.79 1640.99 1308.68 1640.99 1310.85 1641.29 1312.47 1641.88 1313.54 1642.47 1314.62 1643.47 1315.15 1644.86 1315.15 1646.24 1315.15 1647.59 1314.56 1648.91 1313.37 1650.23 1312.18 1651.6 1310.49 1653 1308.29 1654.41 1306.09 1655.41 1303.56 1655.99 1300.68L1656.27 1299.34C1656.46 1298.49 1656.58 1297.75 1656.65 1297.12 1656.71 1296.5 1656.74 1295.82 1656.74 1295.09 1656.74 1293.49 1656.4 1292.31 1655.71 1291.56 1655.02 1290.81 1653.85 1290.43 1652.21 1290.43ZM1651.58 1287.96C1652.94 1287.96 1654.2 1288.12 1655.38 1288.42 1656.56 1288.72 1657.77 1289.26 1659.02 1290.03L1661.9 1287.96 1663.9 1288.46 1659.3 1308.28C1658.84 1310.26 1658.61 1311.8 1658.61 1312.9 1658.61 1313.74 1658.75 1314.34 1659.02 1314.71 1659.29 1315.09 1659.72 1315.28 1660.3 1315.28 1660.93 1315.28 1661.59 1315.02 1662.3 1314.51 1663.01 1314 1664.01 1313.03 1665.3 1311.59L1667.08 1313.34C1665.21 1315.34 1663.61 1316.76 1662.29 1317.6 1660.96 1318.45 1659.53 1318.87 1657.99 1318.87 1656.7 1318.87 1655.67 1318.44 1654.9 1317.59 1654.12 1316.74 1653.74 1315.6 1653.74 1314.18 1653.74 1313.04 1653.98 1311.82 1654.46 1310.53L1654.05 1310.4C1652.05 1313.32 1650.16 1315.45 1648.36 1316.81 1646.57 1318.16 1644.68 1318.84 1642.68 1318.84 1640.38 1318.84 1638.61 1317.97 1637.35 1316.25 1636.09 1314.52 1635.46 1312.09 1635.46 1308.96 1635.46 1305.38 1636.16 1301.94 1637.57 1298.64 1638.97 1295.33 1640.91 1292.73 1643.36 1290.82 1645.82 1288.92 1648.56 1287.96 1651.58 1287.96Z" fill="#576C87" fill-rule="evenodd"/><text fill="#000000" fill-opacity="0" font-family="Arial,Arial_MSFontService,sans-serif" font-size="30.9062" x="1635.46" y="1315.01">𝑎</text><path d="M1674.97 1311.12 1680.44 1311.12C1680.73 1312.58 1680.88 1314.02 1680.88 1315.43 1680.88 1316.89 1680.63 1318.22 1680.13 1319.43 1679.63 1320.64 1678.83 1321.84 1677.74 1323.04 1676.65 1324.24 1675.14 1325.56 1673.22 1327L1671.54 1325.09C1672.6 1324.09 1673.37 1323.19 1673.85 1322.39 1674.33 1321.58 1674.67 1320.67 1674.88 1319.65 1675.09 1318.63 1675.19 1317.35 1675.19 1315.81 1675.19 1314.22 1675.12 1312.66 1674.97 1311.12ZM1674.57 1290.15 1680.82 1290.15 1680.82 1297.46 1674.57 1297.46Z" fill="#576C87" fill-rule="evenodd"/><text fill="#000000" fill-opacity="0" font-family="Arial,Arial_MSFontService,sans-serif" font-size="36.8438" x="1671.54" y="1322.39">;</text><path d="M1707.3 1298.15C1706.32 1302.67 1705.83 1306.47 1705.83 1309.56 1705.83 1311.89 1706.19 1313.6 1706.9 1314.7 1707.6 1315.79 1708.75 1316.34 1710.33 1316.34 1712.67 1316.34 1714.88 1314.77 1716.97 1311.64 1719.07 1308.5 1720.84 1304.01 1722.3 1298.15ZM1720.11 1277.09C1717.68 1277.09 1715.42 1278.63 1713.35 1281.71 1711.28 1284.8 1709.51 1289.21 1708.05 1294.96L1723.02 1294.96C1724 1290.57 1724.49 1286.79 1724.49 1283.62 1724.49 1281.43 1724.13 1279.8 1723.43 1278.71 1722.72 1277.63 1721.61 1277.09 1720.11 1277.09ZM1720.49 1274.56C1726.53 1274.56 1729.55 1278.39 1729.55 1286.06 1729.55 1288.22 1729.31 1290.81 1728.82 1293.82 1728.33 1296.83 1727.55 1299.9 1726.49 1303.03 1725.43 1306.15 1724.08 1308.92 1722.46 1311.32 1720.83 1313.73 1718.96 1315.59 1716.83 1316.9 1714.71 1318.21 1712.42 1318.87 1709.96 1318.87 1706.85 1318.87 1704.54 1317.92 1703.02 1316.03 1701.5 1314.13 1700.74 1311.29 1700.74 1307.5 1700.74 1305.43 1700.97 1302.89 1701.43 1299.87 1701.88 1296.85 1702.64 1293.76 1703.69 1290.6 1704.74 1287.45 1706.1 1284.65 1707.75 1282.2 1709.41 1279.75 1711.32 1277.87 1713.47 1276.54 1715.63 1275.22 1717.97 1274.56 1720.49 1274.56Z" fill="#576C87" fill-rule="evenodd"/><text fill="#000000" fill-opacity="0" font-family="Arial,Arial_MSFontService,sans-serif" font-size="44.3125" x="1700.74" y="1313.33">𝜃</text><text fill="#576C87" font-family="SimSun,SimSun_MSFontService,sans-serif" font-weight="400" font-size="64" transform="matrix(1 0 0 1 801.66 1965)">设置</text><path d="M952.993 1938.46C951.931 1938.46 950.884 1938.82 949.853 1939.54 948.821 1940.26 947.691 1941.41 946.462 1942.99 945.233 1944.58 944.275 1946.14 943.587 1947.68 942.9 1949.22 942.358 1950.99 941.962 1952.99L941.712 1954.3C941.504 1955.41 941.373 1956.25 941.321 1956.84 941.269 1957.42 941.243 1957.99 941.243 1958.55 941.243 1960.18 941.592 1961.36 942.29 1962.1 942.988 1962.84 944.191 1963.21 945.9 1963.21 946.962 1963.21 947.941 1963 948.837 1962.59 949.733 1962.17 950.582 1961.57 951.384 1960.77 952.186 1959.98 952.91 1959.02 953.556 1957.9 954.202 1956.77 954.78 1955.47 955.29 1953.98 955.801 1952.49 956.186 1950.96 956.446 1949.38 956.707 1947.81 956.837 1946.34 956.837 1944.96 956.837 1942.77 956.53 1941.14 955.915 1940.07 955.301 1939 954.327 1938.46 952.993 1938.46ZM939.837 1934.77C941.129 1934.77 942.155 1935.2 942.915 1936.05 943.676 1936.91 944.056 1938.04 944.056 1939.46 944.056 1940.63 943.816 1941.86 943.337 1943.15L943.712 1943.27C947.566 1937.63 951.4 1934.8 955.212 1934.8 957.483 1934.8 959.248 1935.67 960.509 1937.4 961.769 1939.13 962.4 1941.57 962.4 1944.71 962.4 1948.15 961.707 1951.53 960.321 1954.85 958.936 1958.17 957.014 1960.81 954.556 1962.76 952.097 1964.71 949.347 1965.68 946.306 1965.68 943.535 1965.68 941.233 1965.08 939.4 1963.87L937.962 1970.71C937.65 1972.19 937.493 1973.41 937.493 1974.37 937.493 1975.28 937.728 1975.93 938.196 1976.32 938.665 1976.71 939.577 1976.96 940.931 1977.09L940.681 1978.62 931.025 1978.62 938.556 1945.46C938.993 1943.54 939.212 1941.97 939.212 1940.74 939.212 1939.91 939.077 1939.3 938.806 1938.93 938.535 1938.55 938.108 1938.37 937.525 1938.37 936.879 1938.37 936.196 1938.63 935.478 1939.16 934.759 1939.7 933.775 1940.66 932.525 1942.05L930.743 1940.3C932.618 1938.35 934.207 1936.93 935.509 1936.07 936.811 1935.21 938.254 1934.77 939.837 1934.77Z" fill="#576C87" fill-rule="evenodd"/><text fill="#000000" fill-opacity="0" font-family="Arial,Arial_MSFontService,sans-serif" font-size="43.8438" x="930.743" y="1973.14">𝑝</text><path d="M974.49 1955.06 975.615 1955.06 972.218 1970.35C972.004 1971.25 971.855 1971.97 971.771 1972.5 971.687 1973.04 971.644 1973.52 971.644 1973.95 971.644 1974.53 971.763 1974.95 972 1975.21 972.237 1975.47 972.593 1975.6 973.067 1975.6 973.343 1975.6 973.618 1975.55 973.893 1975.44 974.169 1975.34 974.463 1975.17 974.777 1974.94 975.091 1974.71 975.435 1974.41 975.81 1974.05 976.185 1973.69 976.602 1973.26 977.06 1972.76L978.621 1974.27C977.825 1975.08 977.103 1975.77 976.452 1976.33 975.802 1976.88 975.186 1977.34 974.605 1977.69 974.024 1978.04 973.454 1978.3 972.895 1978.45 972.337 1978.6 971.744 1978.68 971.117 1978.68 970.535 1978.68 970.011 1978.57 969.545 1978.36 969.078 1978.14 968.676 1977.85 968.34 1977.47 968.003 1977.1 967.743 1976.65 967.56 1976.13 967.376 1975.61 967.284 1975.04 967.284 1974.41 967.284 1973.9 967.345 1973.28 967.468 1972.53 967.59 1971.78 967.747 1970.96 967.938 1970.08 968.129 1969.2 968.34 1968.28 968.569 1967.32 968.799 1966.35 969.024 1965.4 969.246 1964.45 969.468 1963.5 969.667 1962.59 969.843 1961.71 970.019 1960.83 970.145 1960.03 970.222 1959.31 970.252 1959.19 970.268 1959.07 970.268 1958.95 970.268 1958.84 970.268 1958.74 970.268 1958.64 970.237 1958.05 970.027 1957.61 969.636 1957.34 969.246 1957.06 968.554 1956.91 967.56 1956.88L967.835 1955.32ZM973.159 1945.81 977.749 1945.81 976.624 1950.75 972.081 1950.75Z" fill="#576C87" fill-rule="evenodd"/><text fill="#000000" fill-opacity="0" font-family="Arial,Arial_MSFontService,sans-serif" font-size="32.8633" x="967.284" y="1974.57">𝑖</text><text fill="#576C87" font-family="SimSun,SimSun_MSFontService,sans-serif" font-weight="400" font-size="64" transform="matrix(1 0 0 1 984.352 1965)">为<tspan font-size="64" x="64.1667" y="0">最大优先级</tspan><tspan font-size="64" x="644.412" y="212">利用</tspan><tspan font-family="Cambria Math,Cambria Math_MSFontService,sans-serif" font-size="64" x="772.745" y="212">TD</tspan><tspan font-size="64" x="852.954" y="212">误差更新优先级</tspan><tspan font-size="64" x="325.431" y="-209">据优先级调取数据</tspan></text></g></svg>