<svg width="1242" height="1415" xmlns="http://www.w3.org/2000/svg" xmlns:xlink="http://www.w3.org/1999/xlink" overflow="hidden"><defs><clipPath id="clip0"><rect x="165" y="845" width="1242" height="1415"/></clipPath><clipPath id="clip1"><rect x="445" y="844" width="70" height="270"/></clipPath><clipPath id="clip2"><rect x="445" y="844" width="70" height="270"/></clipPath><clipPath id="clip3"><rect x="514" y="844" width="71" height="270"/></clipPath><clipPath id="clip4"><rect x="514" y="844" width="71" height="270"/></clipPath><clipPath id="clip5"><rect x="584" y="844" width="70" height="270"/></clipPath><clipPath id="clip6"><rect x="584" y="844" width="70" height="270"/></clipPath><clipPath id="clip7"><rect x="445" y="913" width="70" height="270"/></clipPath><clipPath id="clip8"><rect x="445" y="913" width="70" height="270"/></clipPath><clipPath id="clip9"><rect x="514" y="913" width="71" height="270"/></clipPath><clipPath id="clip10"><rect x="514" y="913" width="71" height="270"/></clipPath><clipPath id="clip11"><rect x="584" y="913" width="70" height="270"/></clipPath><clipPath id="clip12"><rect x="584" y="913" width="70" height="270"/></clipPath><clipPath id="clip13"><rect x="653" y="1328" width="71" height="271"/></clipPath><clipPath id="clip14"><rect x="653" y="1328" width="71" height="271"/></clipPath></defs><g clip-path="url(#clip0)" transform="translate(-165 -845)"><path d="M376.157 944.167 445.551 944.167 445.551 1013.4 376.157 1013.4Z" fill="#778CA5" fill-rule="evenodd"/><path d="M445.551 944.167 514.945 944.167 514.945 1013.4 445.551 1013.4Z" fill="#D1D8E1" fill-rule="evenodd"/><path d="M514.945 944.167 584.339 944.167 584.339 1013.4 514.945 1013.4Z" fill="#D1D8E1" fill-rule="evenodd"/><path d="M584.339 944.167 653.733 944.167 653.733 1013.4 584.339 1013.4Z" fill="#D1D8E1" fill-rule="evenodd"/><path d="M376.157 1013.4 445.551 1013.4 445.551 1082.64 376.157 1082.64Z" fill="#778CA5" fill-rule="evenodd"/><path d="M445.551 1013.4 514.945 1013.4 514.945 1082.64 445.551 1082.64Z" fill="#D1D8E1" fill-rule="evenodd"/><path d="M514.945 1013.4 584.339 1013.4 584.339 1082.64 514.945 1082.64Z" fill="#D1D8E1" fill-rule="evenodd"/><path d="M584.339 1013.4 653.733 1013.4 653.733 1082.64 584.339 1082.64Z" fill="#D1D8E1" fill-rule="evenodd"/><path d="M237.37 1082.64 306.764 1082.64 306.764 1151.88 237.37 1151.88Z" fill="#778CA5" fill-rule="evenodd"/><path d="M306.764 1082.64 376.157 1082.64 376.157 1151.88 306.764 1151.88Z" fill="#778CA5" fill-rule="evenodd"/><path d="M376.157 1082.64 445.551 1082.64 445.551 1151.88 376.157 1151.88Z" fill="#9DACBF" fill-rule="evenodd"/><path d="M445.551 1082.64 514.945 1082.64 514.945 1151.88 445.551 1151.88Z" fill="#9DACBF" fill-rule="evenodd"/><path d="M514.945 1082.64 584.339 1082.64 584.339 1151.88 514.945 1151.88Z" fill="#9DACBF" fill-rule="evenodd"/><path d="M584.339 1082.64 653.733 1082.64 653.733 1151.88 584.339 1151.88Z" fill="#9DACBF" fill-rule="evenodd"/><path d="M237.37 1151.88 306.764 1151.88 306.764 1221.11 237.37 1221.11Z" fill="#778CA5" fill-rule="evenodd"/><path d="M306.764 1151.88 376.157 1151.88 376.157 1221.11 306.764 1221.11Z" fill="#778CA5" fill-rule="evenodd"/><path d="M376.157 1151.88 445.551 1151.88 445.551 1221.11 376.157 1221.11Z" fill="#9DACBF" fill-rule="evenodd"/><path d="M445.551 1151.88 514.945 1151.88 514.945 1221.11 445.551 1221.11Z" fill="#9DACBF" fill-rule="evenodd"/><path d="M514.945 1151.88 584.339 1151.88 584.339 1221.11 514.945 1221.11Z" fill="#9DACBF" fill-rule="evenodd"/><path d="M584.339 1151.88 653.733 1151.88 653.733 1221.11 584.339 1221.11Z" fill="#9DACBF" fill-rule="evenodd"/><path d="M653.733 1151.88 723.127 1151.88 723.127 1221.11 653.733 1221.11Z" fill="#778CA5" fill-rule="evenodd"/><path d="M376.157 1221.11 445.551 1221.11 445.551 1290.35 376.157 1290.35Z" fill="#9DACBF" fill-rule="evenodd"/><path d="M445.551 1221.11 514.945 1221.11 514.945 1290.35 445.551 1290.35Z" fill="#9DACBF" fill-rule="evenodd"/><path d="M514.945 1221.11 584.339 1221.11 584.339 1290.35 514.945 1290.35Z" fill="#9DACBF" fill-rule="evenodd"/><path d="M584.339 1221.11 653.733 1221.11 653.733 1290.35 584.339 1290.35Z" fill="#9DACBF" fill-rule="evenodd"/><path d="M653.733 1221.11 723.127 1221.11 723.127 1290.35 653.733 1290.35Z" fill="#778CA5" fill-rule="evenodd"/><path d="M376.157 1290.35 445.551 1290.35 445.551 1359.58 376.157 1359.58Z" fill="#9DACBF" fill-rule="evenodd"/><path d="M445.551 1290.35 514.945 1290.35 514.945 1359.58 445.551 1359.58Z" fill="#9DACBF" fill-rule="evenodd"/><path d="M514.945 1290.35 584.339 1290.35 584.339 1359.58 514.945 1359.58Z" fill="#9DACBF" fill-rule="evenodd"/><path d="M584.339 1290.35 653.733 1290.35 653.733 1359.58 584.339 1359.58Z" fill="#9DACBF" fill-rule="evenodd"/><path d="M653.733 1290.35 723.127 1290.35 723.127 1359.58 653.733 1359.58Z" fill="#778CA5" fill-rule="evenodd"/><path d="M514.945 1359.58 584.339 1359.58 584.339 1428.82 514.945 1428.82Z" fill="#9DACBF" fill-rule="evenodd"/><path d="M584.339 1359.58 653.733 1359.58 653.733 1428.82 584.339 1428.82Z" fill="#9DACBF" fill-rule="evenodd"/><path d="M653.733 1359.58 723.127 1359.58 723.127 1428.82 653.733 1428.82Z" fill="#778CA5" fill-rule="evenodd"/><path d="M514.945 1428.82 584.339 1428.82 584.339 1498.06 514.945 1498.06Z" fill="#9DACBF" fill-rule="evenodd"/><path d="M584.339 1428.82 653.733 1428.82 653.733 1498.06 584.339 1498.06Z" fill="#9DACBF" fill-rule="evenodd"/><path d="M653.733 1428.82 723.127 1428.82 723.127 1498.06 653.733 1498.06Z" fill="#EDEFF3" fill-rule="evenodd"/><path d="M237.37 941.875 237.37 1500.35" stroke="#BCCEE7" stroke-width="4.58333" stroke-linejoin="round" stroke-miterlimit="10" fill="none" fill-rule="evenodd"/><path d="M306.764 941.875 306.764 1500.35" stroke="#BCCEE7" stroke-width="4.58333" stroke-linejoin="round" stroke-miterlimit="10" fill="none" fill-rule="evenodd"/><path d="M376.157 941.875 376.157 1500.35" stroke="#BCCEE7" stroke-width="4.58333" stroke-linejoin="round" stroke-miterlimit="10" fill="none" fill-rule="evenodd"/><path d="M445.551 941.875 445.551 1500.35" stroke="#BCCEE7" stroke-width="4.58333" stroke-linejoin="round" stroke-miterlimit="10" fill="none" fill-rule="evenodd"/><path d="M514.945 941.875 514.945 1500.35" stroke="#BCCEE7" stroke-width="4.58333" stroke-linejoin="round" stroke-miterlimit="10" fill="none" fill-rule="evenodd"/><path d="M584.339 941.875 584.339 1500.35" stroke="#BCCEE7" stroke-width="4.58333" stroke-linejoin="round" stroke-miterlimit="10" fill="none" fill-rule="evenodd"/><path d="M653.733 941.875 653.733 1500.35" stroke="#BCCEE7" stroke-width="4.58333" stroke-linejoin="round" stroke-miterlimit="10" fill="none" fill-rule="evenodd"/><path d="M165.684 1013.4 725.418 1013.4" stroke="#BCCEE7" stroke-width="4.58333" stroke-linejoin="round" stroke-miterlimit="10" fill="none" fill-rule="evenodd"/><path d="M165.684 1082.64 376.157 1082.64" stroke="#BCCEE7" stroke-width="4.58333" stroke-linejoin="round" stroke-miterlimit="10" fill="none" fill-rule="evenodd"/><path d="M376.157 1082.64 725.418 1082.64" stroke="#BCCEE7" stroke-width="4.58333" stroke-linejoin="round" stroke-miterlimit="10" fill="none" fill-rule="evenodd"/><path d="M165.684 1151.88 376.157 1151.88" stroke="#BCCEE7" stroke-width="4.58333" stroke-linejoin="round" stroke-miterlimit="10" fill="none" fill-rule="evenodd"/><path d="M376.157 1151.88 725.418 1151.88" stroke="#BCCEE7" stroke-width="4.58333" stroke-linejoin="round" stroke-miterlimit="10" fill="none" fill-rule="evenodd"/><path d="M165.684 1221.11 725.418 1221.11" stroke="#BCCEE7" stroke-width="4.58333" stroke-linejoin="round" stroke-miterlimit="10" fill="none" fill-rule="evenodd"/><path d="M165.684 1290.35 376.157 1290.35" stroke="#BCCEE7" stroke-width="4.58333" stroke-linejoin="round" stroke-miterlimit="10" fill="none" fill-rule="evenodd"/><path d="M376.157 1290.35 725.418 1290.35" stroke="#BCCEE7" stroke-width="4.58333" stroke-linejoin="round" stroke-miterlimit="10" fill="none" fill-rule="evenodd"/><path d="M165.684 1359.58 376.157 1359.58" stroke="#BCCEE7" stroke-width="4.58333" stroke-linejoin="round" stroke-miterlimit="10" fill="none" fill-rule="evenodd"/><path d="M376.157 1359.58 725.418 1359.58" stroke="#BCCEE7" stroke-width="4.58333" stroke-linejoin="round" stroke-miterlimit="10" fill="none" fill-rule="evenodd"/><path d="M165.684 1428.82 376.157 1428.82" stroke="#BCCEE7" stroke-width="4.58333" stroke-linejoin="round" stroke-miterlimit="10" fill="none" fill-rule="evenodd"/><path d="M376.157 1428.82 725.418 1428.82" stroke="#BCCEE7" stroke-width="4.58333" stroke-linejoin="round" stroke-miterlimit="10" fill="none" fill-rule="evenodd"/><path d="M167.976 941.875 167.976 1500.35" stroke="#BCCEE7" stroke-width="4.58333" stroke-linejoin="round" stroke-miterlimit="10" fill="none" fill-rule="evenodd"/><path d="M723.127 941.875 723.127 1500.35" stroke="#BCCEE7" stroke-width="4.58333" stroke-linejoin="round" stroke-miterlimit="10" fill="none" fill-rule="evenodd"/><path d="M165.684 944.167 725.418 944.167" stroke="#BCCEE7" stroke-width="4.58333" stroke-linejoin="round" stroke-miterlimit="10" fill="none" fill-rule="evenodd"/><path d="M165.684 1498.06 725.418 1498.06" stroke="#BCCEE7" stroke-width="4.58333" stroke-linejoin="round" stroke-miterlimit="10" fill="none" fill-rule="evenodd"/><text font-family="DengXian,DengXian_MSFontService,sans-serif" font-weight="400" font-size="32" transform="matrix(1 0 0 1 194.079 990)">0<tspan font-size="32" x="69.3938" y="0">0</tspan><tspan font-size="32" x="138.788" y="0">0</tspan><tspan font-size="32" x="208.182" y="0">2</tspan></text><g clip-path="url(#clip1)"><text font-family="DengXian,DengXian_MSFontService,sans-serif" font-weight="400" font-size="32" transform="matrix(1 0 0 1 463.633 990)">-</text></g><g clip-path="url(#clip2)"><text font-family="DengXian,DengXian_MSFontService,sans-serif" font-weight="400" font-size="32" transform="matrix(1 0 0 1 479.675 990)">1</text></g><g clip-path="url(#clip3)"><text font-family="DengXian,DengXian_MSFontService,sans-serif" font-weight="400" font-size="32" transform="matrix(1 0 0 1 533.027 990)">-</text></g><g clip-path="url(#clip4)"><text font-family="DengXian,DengXian_MSFontService,sans-serif" font-weight="400" font-size="32" transform="matrix(1 0 0 1 549.069 990)">1</text></g><g clip-path="url(#clip5)"><text font-family="DengXian,DengXian_MSFontService,sans-serif" font-weight="400" font-size="32" transform="matrix(1 0 0 1 602.421 990)">-</text></g><g clip-path="url(#clip6)"><text font-family="DengXian,DengXian_MSFontService,sans-serif" font-weight="400" font-size="32" transform="matrix(1 0 0 1 618.463 990)">1</text></g><text font-family="DengXian,DengXian_MSFontService,sans-serif" font-weight="400" font-size="32" transform="matrix(1 0 0 1 679.836 990)">0<tspan font-size="32" x="-485.757" y="69">0</tspan><tspan font-size="32" x="-416.363" y="69">0</tspan><tspan font-size="32" x="-346.969" y="69">0</tspan><tspan font-size="32" x="-277.575" y="69">2</tspan></text><g clip-path="url(#clip7)"><text font-family="DengXian,DengXian_MSFontService,sans-serif" font-weight="400" font-size="32" transform="matrix(1 0 0 1 463.633 1059)">-</text></g><g clip-path="url(#clip8)"><text font-family="DengXian,DengXian_MSFontService,sans-serif" font-weight="400" font-size="32" transform="matrix(1 0 0 1 479.675 1059)">1</text></g><g clip-path="url(#clip9)"><text font-family="DengXian,DengXian_MSFontService,sans-serif" font-weight="400" font-size="32" transform="matrix(1 0 0 1 533.027 1059)">-</text></g><g clip-path="url(#clip10)"><text font-family="DengXian,DengXian_MSFontService,sans-serif" font-weight="400" font-size="32" transform="matrix(1 0 0 1 549.069 1059)">1</text></g><g clip-path="url(#clip11)"><text font-family="DengXian,DengXian_MSFontService,sans-serif" font-weight="400" font-size="32" transform="matrix(1 0 0 1 602.421 1059)">-</text></g><g clip-path="url(#clip12)"><text font-family="DengXian,DengXian_MSFontService,sans-serif" font-weight="400" font-size="32" transform="matrix(1 0 0 1 618.463 1059)">1</text></g><text font-family="DengXian,DengXian_MSFontService,sans-serif" font-weight="400" font-size="32" transform="matrix(1 0 0 1 679.836 1059)">0<tspan font-size="32" x="-485.757" y="69">0</tspan><tspan font-size="32" x="-416.363" y="69">2</tspan><tspan font-size="32" x="-346.969" y="69">2</tspan><tspan font-size="32" x="-277.575" y="69">1</tspan><tspan font-size="32" x="-208.182" y="69">1</tspan><tspan font-size="32" x="-138.788" y="69">1</tspan><tspan font-size="32" x="-69.3939" y="69">1</tspan><tspan font-size="32" x="0" y="69">0</tspan><tspan font-size="32" x="-485.757" y="138">0</tspan><tspan font-size="32" x="-416.363" y="138">2</tspan><tspan font-size="32" x="-346.969" y="138">2</tspan><tspan font-size="32" x="-277.575" y="138">1</tspan><tspan font-size="32" x="-208.182" y="138">1</tspan><tspan font-size="32" x="-138.788" y="138">1</tspan><tspan font-size="32" x="-69.3939" y="138">1</tspan><tspan font-size="32" x="0" y="138">2</tspan><tspan font-size="32" x="-485.757" y="207">0</tspan><tspan font-size="32" x="-416.363" y="207">0</tspan><tspan font-size="32" x="-346.969" y="207">0</tspan><tspan font-size="32" x="-277.575" y="207">1</tspan><tspan font-size="32" x="-208.182" y="207">1</tspan><tspan font-size="32" x="-138.788" y="207">1</tspan><tspan font-size="32" x="-69.3939" y="207">1</tspan><tspan font-size="32" x="0" y="207">2</tspan><tspan font-size="32" x="-485.757" y="277">0</tspan><tspan font-size="32" x="-416.363" y="277">0</tspan><tspan font-size="32" x="-346.969" y="277">0</tspan><tspan font-size="32" x="-277.575" y="277">1</tspan><tspan font-size="32" x="-208.182" y="277">1</tspan><tspan font-size="32" x="-138.788" y="277">1</tspan><tspan font-size="32" x="-69.3939" y="277">1</tspan><tspan font-size="32" x="0" y="277">2</tspan><tspan font-size="32" x="-485.757" y="346">0</tspan><tspan font-size="32" x="-416.363" y="346">0</tspan><tspan font-size="32" x="-346.969" y="346">0</tspan><tspan font-size="32" x="-277.575" y="346">0</tspan><tspan font-size="32" x="-208.182" y="346">0</tspan><tspan font-size="32" x="-138.788" y="346">1</tspan><tspan font-size="32" x="-69.3939" y="346">1</tspan><tspan font-size="32" x="0" y="346">2</tspan><tspan font-size="32" x="-485.757" y="415">0</tspan><tspan font-size="32" x="-416.363" y="415">0</tspan><tspan font-size="32" x="-346.969" y="415">0</tspan><tspan font-size="32" x="-277.575" y="415">0</tspan><tspan font-size="32" x="-208.182" y="415">0</tspan><tspan font-size="32" x="-138.788" y="415">1</tspan><tspan font-size="32" x="-69.3939" y="415">1</tspan></text><g clip-path="url(#clip13)"><text font-family="DengXian,DengXian_MSFontService,sans-serif" font-weight="400" font-size="32" transform="matrix(1 0 0 1 671.815 1474)">-</text></g><g clip-path="url(#clip14)"><text font-family="DengXian,DengXian_MSFontService,sans-serif" font-weight="400" font-size="32" transform="matrix(1 0 0 1 687.857 1474)">2</text></g><rect x="369.5" y="1217.5" width="153" height="148" stroke="#F1644D" stroke-width="6.875" stroke-miterlimit="8" fill="none"/><path d="M0 13.75 41.5001 13.75 41.5001 0 69.0001 27.5 41.5001 55 41.5001 41.25 0 41.25Z" stroke="#F1644D" stroke-width="4.58333" stroke-miterlimit="8" fill="#F7AA9D" fill-rule="evenodd" transform="matrix(6.12323e-17 1 1 -6.12323e-17 418.5 1254.5)"/><rect x="230.5" y="1076.5" width="154" height="78.9998" stroke="#FFD966" stroke-width="6.875" stroke-miterlimit="8" fill="none"/><rect x="508.5" y="1076.5" width="153" height="78.9998" stroke="#FFD966" stroke-width="6.875" stroke-miterlimit="8" fill="none"/><rect x="230.5" y="1147.5" width="154" height="80.0001" stroke="#548235" stroke-width="6.875" stroke-miterlimit="8" fill="none"/><path d="M0 13.75 40.5001 13.75 40.5001 0 68.0001 27.5 40.5001 55 40.5001 41.25 0 41.25Z" stroke="#548235" stroke-width="4.58333" stroke-miterlimit="8" fill="#C5E0B4" fill-rule="evenodd" transform="matrix(6.12323e-17 1 1 -6.12323e-17 418.5 1119.5)"/><rect x="508.5" y="1147.5" width="153" height="80.0001" stroke="#548235" stroke-width="6.875" stroke-miterlimit="8" fill="none"/><path d="M571 1464.5 571 1422.5 557.5 1422.5 584.5 1395.5 611.5 1422.5 598 1422.5 598 1464.5Z" stroke="#548235" stroke-width="4.58333" stroke-miterlimit="8" fill="#C5E0B4" fill-rule="evenodd"/><path d="M571 1326.5 571 1284.5 557.5 1284.5 584.5 1257.5 611.5 1284.5 598 1284.5 598 1326.5Z" stroke="#548235" stroke-width="4.58333" stroke-miterlimit="8" fill="#C5E0B4" fill-rule="evenodd"/><path d="M618.5 1161 577.5 1161 577.5 1174.5 550.5 1147.5 577.5 1120.5 577.5 1134 618.5 1134Z" stroke="#548235" stroke-width="4.58333" stroke-miterlimit="8" fill="#C5E0B4" fill-rule="evenodd"/><path d="M237.37 1698.58 237.37 2257.05" stroke="#BCCEE7" stroke-width="4.58333" stroke-linejoin="round" stroke-miterlimit="10" fill="none" fill-rule="evenodd"/><path d="M306.764 1698.58 306.764 2257.05" stroke="#BCCEE7" stroke-width="4.58333" stroke-linejoin="round" stroke-miterlimit="10" fill="none" fill-rule="evenodd"/><path d="M376.157 1698.58 376.157 2257.05" stroke="#BCCEE7" stroke-width="4.58333" stroke-linejoin="round" stroke-miterlimit="10" fill="none" fill-rule="evenodd"/><path d="M445.551 1698.58 445.551 2257.05" stroke="#BCCEE7" stroke-width="4.58333" stroke-linejoin="round" stroke-miterlimit="10" fill="none" fill-rule="evenodd"/><path d="M514.945 1698.58 514.945 2257.05" stroke="#BCCEE7" stroke-width="4.58333" stroke-linejoin="round" stroke-miterlimit="10" fill="none" fill-rule="evenodd"/><path d="M584.339 1698.58 584.339 2257.05" stroke="#BCCEE7" stroke-width="4.58333" stroke-linejoin="round" stroke-miterlimit="10" fill="none" fill-rule="evenodd"/><path d="M653.733 1698.58 653.733 2257.05" stroke="#BCCEE7" stroke-width="4.58333" stroke-linejoin="round" stroke-miterlimit="10" fill="none" fill-rule="evenodd"/><path d="M165.684 1770.1 725.418 1770.1" stroke="#BCCEE7" stroke-width="4.58333" stroke-linejoin="round" stroke-miterlimit="10" fill="none" fill-rule="evenodd"/><path d="M165.684 1839.34 376.157 1839.34" stroke="#BCCEE7" stroke-width="4.58333" stroke-linejoin="round" stroke-miterlimit="10" fill="none" fill-rule="evenodd"/><path d="M376.157 1839.34 725.418 1839.34" stroke="#BCCEE7" stroke-width="4.58333" stroke-linejoin="round" stroke-miterlimit="10" fill="none" fill-rule="evenodd"/><path d="M165.684 1908.58 376.157 1908.58" stroke="#BCCEE7" stroke-width="4.58333" stroke-linejoin="round" stroke-miterlimit="10" fill="none" fill-rule="evenodd"/><path d="M376.157 1908.58 725.418 1908.58" stroke="#BCCEE7" stroke-width="4.58333" stroke-linejoin="round" stroke-miterlimit="10" fill="none" fill-rule="evenodd"/><path d="M165.684 1977.81 725.418 1977.81" stroke="#BCCEE7" stroke-width="4.58333" stroke-linejoin="round" stroke-miterlimit="10" fill="none" fill-rule="evenodd"/><path d="M165.684 2047.05 376.157 2047.05" stroke="#BCCEE7" stroke-width="4.58333" stroke-linejoin="round" stroke-miterlimit="10" fill="none" fill-rule="evenodd"/><path d="M376.157 2047.05 725.418 2047.05" stroke="#BCCEE7" stroke-width="4.58333" stroke-linejoin="round" stroke-miterlimit="10" fill="none" fill-rule="evenodd"/><path d="M165.684 2116.28 376.157 2116.28" stroke="#BCCEE7" stroke-width="4.58333" stroke-linejoin="round" stroke-miterlimit="10" fill="none" fill-rule="evenodd"/><path d="M376.157 2116.28 725.418 2116.28" stroke="#BCCEE7" stroke-width="4.58333" stroke-linejoin="round" stroke-miterlimit="10" fill="none" fill-rule="evenodd"/><path d="M165.684 2185.52 376.157 2185.52" stroke="#BCCEE7" stroke-width="4.58333" stroke-linejoin="round" stroke-miterlimit="10" fill="none" fill-rule="evenodd"/><path d="M376.157 2185.52 725.418 2185.52" stroke="#BCCEE7" stroke-width="4.58333" stroke-linejoin="round" stroke-miterlimit="10" fill="none" fill-rule="evenodd"/><path d="M167.976 1698.58 167.976 2257.05" stroke="#BCCEE7" stroke-width="4.58333" stroke-linejoin="round" stroke-miterlimit="10" fill="none" fill-rule="evenodd"/><path d="M723.127 1698.58 723.127 2257.05" stroke="#BCCEE7" stroke-width="4.58333" stroke-linejoin="round" stroke-miterlimit="10" fill="none" fill-rule="evenodd"/><path d="M165.684 1700.87 725.418 1700.87" stroke="#BCCEE7" stroke-width="4.58333" stroke-linejoin="round" stroke-miterlimit="10" fill="none" fill-rule="evenodd"/><path d="M165.684 2254.76 725.418 2254.76" stroke="#BCCEE7" stroke-width="4.58333" stroke-linejoin="round" stroke-miterlimit="10" fill="none" fill-rule="evenodd"/><text font-family="DengXian,DengXian_MSFontService,sans-serif" font-weight="400" font-size="32" transform="matrix(1 0 0 1 194.079 1746)">0<tspan font-size="32" x="69.3938" y="0">0</tspan><tspan font-size="32" x="138.788" y="0">0</tspan><tspan font-size="32" x="208.182" y="0">0</tspan><tspan font-size="32" x="277.575" y="0">0</tspan><tspan font-size="32" x="346.969" y="0">0</tspan><tspan font-size="32" x="416.363" y="0">0</tspan><tspan font-size="32" x="485.757" y="0">0</tspan><tspan font-size="32" x="0" y="69">0</tspan><tspan font-size="32" x="69.3938" y="69">0</tspan><tspan font-size="32" x="138.788" y="69">0</tspan><tspan font-size="32" x="208.182" y="69">0</tspan><tspan font-size="32" x="277.575" y="69">0</tspan><tspan font-size="32" x="346.969" y="69">0</tspan><tspan font-size="32" x="416.363" y="69">0</tspan><tspan font-size="32" x="485.757" y="69">0</tspan><tspan font-size="32" x="0" y="139">0</tspan><tspan font-size="32" x="69.3938" y="139">0</tspan><tspan font-size="32" x="138.788" y="139">0</tspan><tspan font-size="32" x="208.182" y="139">0</tspan><tspan font-size="32" x="277.575" y="139">0</tspan><tspan font-size="32" x="346.969" y="139">0</tspan><tspan font-size="32" x="416.363" y="139">0</tspan><tspan font-size="32" x="485.757" y="139">0</tspan><tspan font-size="32" x="0" y="208">0</tspan><tspan font-size="32" x="69.3938" y="208">0</tspan><tspan font-size="32" x="138.788" y="208">0</tspan><tspan font-size="32" x="208.182" y="208">0</tspan><tspan font-size="32" x="277.575" y="208">0</tspan><tspan font-size="32" x="346.969" y="208">0</tspan><tspan font-size="32" x="416.363" y="208">0</tspan><tspan font-size="32" x="485.757" y="208">0</tspan><tspan font-size="32" x="0" y="277">0</tspan><tspan font-size="32" x="69.3938" y="277">0</tspan><tspan font-size="32" x="138.788" y="277">0</tspan><tspan font-size="32" x="208.182" y="277">0</tspan><tspan font-size="32" x="277.575" y="277">0</tspan><tspan font-size="32" x="346.969" y="277">0</tspan><tspan font-size="32" x="416.363" y="277">0</tspan><tspan font-size="32" x="485.757" y="277">0</tspan><tspan font-size="32" x="0" y="346">0</tspan><tspan font-size="32" x="69.3938" y="346">0</tspan><tspan font-size="32" x="138.788" y="346">0</tspan><tspan font-size="32" x="208.182" y="346">0</tspan><tspan font-size="32" x="277.575" y="346">0</tspan><tspan font-size="32" x="346.969" y="346">0</tspan><tspan font-size="32" x="416.363" y="346">0</tspan><tspan font-size="32" x="485.757" y="346">0</tspan><tspan font-size="32" x="0" y="416">0</tspan><tspan font-size="32" x="69.3938" y="416">0</tspan><tspan font-size="32" x="138.788" y="416">0</tspan><tspan font-size="32" x="208.182" y="416">0</tspan><tspan font-size="32" x="277.575" y="416">0</tspan><tspan font-size="32" x="346.969" y="416">0</tspan><tspan font-size="32" x="416.363" y="416">0</tspan><tspan font-size="32" x="485.757" y="416">0</tspan><tspan font-size="32" x="0" y="485">0</tspan><tspan font-size="32" x="69.3938" y="485">0</tspan><tspan font-size="32" x="138.788" y="485">0</tspan><tspan font-size="32" x="208.182" y="485">0</tspan><tspan font-size="32" x="277.575" y="485">0</tspan><tspan font-size="32" x="346.969" y="485">0</tspan><tspan font-size="32" x="416.363" y="485">0</tspan><tspan font-size="32" x="485.757" y="485">0</tspan></text><rect x="369.5" y="1974.5" width="153" height="148" stroke="#F1644D" stroke-width="6.875" stroke-miterlimit="8" fill="none"/><path d="M0 13.7499 40.4999 13.7499 40.4999 0 67.9997 27.4999 40.4999 54.9997 40.4999 41.2498 0 41.2498Z" stroke="#F1644D" stroke-width="4.58333" stroke-miterlimit="8" fill="#F7AA9D" fill-rule="evenodd" transform="matrix(6.12323e-17 1 1 -6.12323e-17 418.5 2011.5)"/><rect x="230.5" y="1904.5" width="154" height="79.0001" stroke="#548235" stroke-width="6.875" stroke-miterlimit="8" fill="none"/><rect x="508.5" y="1904.5" width="153" height="79.0001" stroke="#548235" stroke-width="6.875" stroke-miterlimit="8" fill="none"/><text fill="#576C87" font-family="SimSun,SimSun_MSFontService,sans-serif" font-weight="400" font-size="55" transform="matrix(1 0 0 1 335.551 919)">状态矩阵<tspan font-size="55" x="-110" y="755">道路过宽判别矩阵</tspan></text><path d="M0 13.75 40.5001 13.75 40.5001 0 68.0001 27.5 40.5001 55 40.5001 41.25 0 41.25Z" stroke="#548235" stroke-width="4.58333" stroke-miterlimit="8" fill="#C5E0B4" fill-rule="evenodd" transform="matrix(1 -1.22465e-16 -1.22465e-16 -1 862.5 1027.5)"/><path d="M0 13.75 40.5001 13.75 40.5001 0 68.0001 27.5 40.5001 55 40.5001 41.25 0 41.25Z" stroke="#F1644D" stroke-width="4.58333" stroke-miterlimit="8" fill="#F7AA9D" fill-rule="evenodd" transform="matrix(1 -1.22465e-16 -1.22465e-16 -1 862.5 1147.5)"/><text fill="#576C87" font-family="SimSun,SimSun_MSFontService,sans-serif" font-weight="400" font-size="55" transform="matrix(1 0 0 1 978.712 1016)">当前智能体朝向<tspan font-size="55" x="0" y="125">之前智能体朝向</tspan></text><rect x="864.5" y="1213.5" width="66" height="65" stroke="#548235" stroke-width="6.875" stroke-miterlimit="8" fill="none"/><text fill="#576C87" font-family="SimSun,SimSun_MSFontService,sans-serif" font-weight="400" font-size="55" transform="matrix(1 0 0 1 1061.21 1269)">检查区域</text><rect x="864.5" y="1343.5" width="69.0001" height="67" stroke="#F1644D" stroke-width="6.875" stroke-miterlimit="8" fill="none"/><text fill="#576C87" font-family="SimSun,SimSun_MSFontService,sans-serif" font-weight="400" font-size="55" transform="matrix(1 0 0 1 1061.21 1402)">当前<tspan font-size="55" x="110" y="0">区域</tspan></text><rect x="800.5" y="926.5" width="604" height="554" stroke="#9DACBF" stroke-width="4.58333" stroke-miterlimit="8" fill="none"/><rect x="230.5" y="1216.5" width="154" height="149" stroke="#FFD966" stroke-width="6.875" stroke-miterlimit="8" fill="none"/><rect x="508.5" y="1216.5" width="153" height="149" stroke="#FFD966" stroke-width="6.875" stroke-miterlimit="8" fill="none"/></g></svg>