<svg width="2605" height="1719" xmlns="http://www.w3.org/2000/svg" xmlns:xlink="http://www.w3.org/1999/xlink" overflow="hidden"><defs><clipPath id="clip0"><rect x="-12" y="390" width="2605" height="1719"/></clipPath><clipPath id="clip1"><rect x="177" y="1262" width="578" height="580"/></clipPath><clipPath id="clip2"><rect x="177" y="1262" width="578" height="580"/></clipPath><clipPath id="clip3"><rect x="177" y="1262" width="578" height="580"/></clipPath><clipPath id="clip4"><rect x="177" y="1262" width="578" height="580"/></clipPath><clipPath id="clip5"><rect x="179" y="470" width="576" height="580"/></clipPath><clipPath id="clip6"><rect x="179" y="470" width="576" height="580"/></clipPath><clipPath id="clip7"><rect x="179" y="470" width="576" height="580"/></clipPath><clipPath id="clip8"><rect x="179" y="470" width="576" height="580"/></clipPath></defs><g clip-path="url(#clip0)" transform="translate(12 -390)"><path d="M1186.5 715.167C1186.5 702.648 1196.65 692.5 1209.17 692.5L1418.83 692.5C1431.35 692.5 1441.5 702.648 1441.5 715.167L1441.5 805.833C1441.5 818.352 1431.35 828.5 1418.83 828.5L1209.17 828.5C1196.65 828.5 1186.5 818.352 1186.5 805.833Z" stroke="#607796" stroke-width="4.58333" stroke-linejoin="round" stroke-miterlimit="10" stroke-dasharray="18.3333 13.75" fill="#EDEFF3" fill-rule="evenodd"/><text fill="#576C87" font-family="SimSun,SimSun_MSFontService,sans-serif" font-weight="400" font-size="73" transform="matrix(1 0 0 1 1258.55 792)">cat</text><path d="M0-3.4375 219.063-3.4375 219.063 0.000360892 215.626-3.43714 408.335-3.43714 408.335 3.43786 212.188 3.43786 212.188 0 215.626 3.4375 0 3.4375ZM403.752-13.7496 431.252 0.000360892 403.752 13.7504Z" fill="#607796" transform="matrix(1 0 0 -1 754.5 760.5)"/><path d="M3.4375-6.35782e-06 3.43782 172.208-3.43718 172.208-3.4375 6.35782e-06ZM13.7503 167.625 0.000360892 195.125-13.7497 167.625Z" fill="#607796" transform="matrix(1 0 0 -1 1314.5 1023.62)"/><rect x="1749.5" y="1697.5" width="402" height="122" stroke="#607796" stroke-width="4.58333" stroke-linejoin="round" stroke-miterlimit="10" stroke-dasharray="18.3333 13.75" fill="#EDEFF3"/><text fill="#576C87" font-family="SimSun,SimSun_MSFontService,sans-serif" font-weight="400" font-size="73" transform="matrix(1 0 0 1 1803.03 1789)">价值函数</text><path d="M1948.93 1620.3 1952.15 1674.4 1945.29 1674.81 1942.07 1620.7ZM1962.17 1669.21 1950.08 1697.48 1934.72 1670.85Z" fill="#607796"/><rect x="2188.5" y="1697.5" width="402" height="122" stroke="#607796" stroke-width="4.58333" stroke-linejoin="round" stroke-miterlimit="10" stroke-dasharray="18.3333 13.75" fill="#EDEFF3"/><text fill="#576C87" font-family="SimSun,SimSun_MSFontService,sans-serif" font-weight="400" font-size="73" transform="matrix(1 0 0 1 2242.22 1789)">优势函数</text><path d="M2387.93 1620.3 2391.15 1674.4 2384.29 1674.81 2381.07 1620.7ZM2401.17 1669.21 2389.08 1697.48 2373.72 1670.85Z" fill="#607796"/><rect x="-8.5001" y="393.5" width="843" height="1689" stroke="#607796" stroke-width="6.875" stroke-miterlimit="8" stroke-dasharray="27.5 20.625" fill="none"/><g clip-path="url(#clip1)"><g clip-path="url(#clip2)"><g clip-path="url(#clip3)"><g clip-path="url(#clip4)"><path d="M3052.75 123.135 3104.75 123.135 3104.75 175.017 3052.75 175.017Z" fill="#778CA5" fill-rule="evenodd" transform="matrix(6.12854e-17 1.00087 -1 6.12323e-17 771.235 -1477.5)"/><path d="M3104.75 123.135 3156.74 123.135 3156.74 175.017 3104.75 175.017Z" fill="#778CA5" fill-rule="evenodd" transform="matrix(6.12854e-17 1.00087 -1 6.12323e-17 771.235 -1477.5)"/><path d="M3052.75 175.017 3104.75 175.017 3104.75 226.899 3052.75 226.899Z" fill="#778CA5" fill-rule="evenodd" transform="matrix(6.12854e-17 1.00087 -1 6.12323e-17 771.235 -1477.5)"/><path d="M3104.75 175.017 3156.74 175.017 3156.74 226.899 3104.75 226.899Z" fill="#778CA5" fill-rule="evenodd" transform="matrix(6.12854e-17 1.00087 -1 6.12323e-17 771.235 -1477.5)"/><path d="M3000.74 278.781 3052.75 278.781 3052.75 330.663 3000.74 330.663Z" fill="#9DACBF" fill-rule="evenodd" transform="matrix(6.12854e-17 1.00087 -1 6.12323e-17 771.235 -1477.5)"/><path d="M3052.75 278.781 3104.75 278.781 3104.75 330.663 3052.75 330.663Z" fill="#9DACBF" fill-rule="evenodd" transform="matrix(6.12854e-17 1.00087 -1 6.12323e-17 771.235 -1477.5)"/><path d="M3260.75 278.781 3312.75 278.781 3312.75 330.663 3260.75 330.663Z" fill="#EDEFF3" fill-rule="evenodd" transform="matrix(6.12854e-17 1.00087 -1 6.12323e-17 771.235 -1477.5)"/><path d="M3052.75 330.663 3104.75 330.663 3104.75 382.546 3052.75 382.546Z" fill="#607796" fill-rule="evenodd" transform="matrix(6.12854e-17 1.00087 -1 6.12323e-17 771.235 -1477.5)"/><path d="M3104.75 330.663 3156.74 330.663 3156.74 382.546 3104.75 382.546Z" fill="#607796" fill-rule="evenodd" transform="matrix(6.12854e-17 1.00087 -1 6.12323e-17 771.235 -1477.5)"/><path d="M3260.75 330.663 3312.75 330.663 3312.75 382.546 3260.75 382.546Z" fill="#EDEFF3" fill-rule="evenodd" transform="matrix(6.12854e-17 1.00087 -1 6.12323e-17 771.235 -1477.5)"/><path d="M3052.75 382.546 3104.75 382.546 3104.75 434.428 3052.75 434.428Z" fill="#607796" fill-rule="evenodd" transform="matrix(6.12854e-17 1.00087 -1 6.12323e-17 771.235 -1477.5)"/><path d="M3104.75 382.546 3156.74 382.546 3156.74 434.428 3104.75 434.428Z" fill="#607796" fill-rule="evenodd" transform="matrix(6.12854e-17 1.00087 -1 6.12323e-17 771.235 -1477.5)"/><path d="M3260.75 382.546 3312.75 382.546 3312.75 434.428 3260.75 434.428Z" fill="#EDEFF3" fill-rule="evenodd" transform="matrix(6.12854e-17 1.00087 -1 6.12323e-17 771.235 -1477.5)"/><path d="M3052.75 434.428 3104.75 434.428 3104.75 486.31 3052.75 486.31Z" fill="#607796" fill-rule="evenodd" transform="matrix(6.12854e-17 1.00087 -1 6.12323e-17 771.235 -1477.5)"/><path d="M3104.75 434.428 3156.74 434.428 3156.74 486.31 3104.75 486.31Z" fill="#607796" fill-rule="evenodd" transform="matrix(6.12854e-17 1.00087 -1 6.12323e-17 771.235 -1477.5)"/><path d="M3260.75 434.428 3312.75 434.428 3312.75 486.31 3260.75 486.31Z" fill="#EDEFF3" fill-rule="evenodd" transform="matrix(6.12854e-17 1.00087 -1 6.12323e-17 771.235 -1477.5)"/><path d="M2740.74 486.31 2792.75 486.31 2792.75 538.192 2740.74 538.192Z" fill="#EDEFF3" fill-rule="evenodd" transform="matrix(6.12854e-17 1.00087 -1 6.12323e-17 771.235 -1477.5)"/><path d="M2792.75 486.31 2844.74 486.31 2844.74 538.192 2792.75 538.192Z" fill="#EDEFF3" fill-rule="evenodd" transform="matrix(6.12854e-17 1.00087 -1 6.12323e-17 771.235 -1477.5)"/><path d="M2844.74 486.31 2896.75 486.31 2896.75 538.192 2844.74 538.192Z" fill="#EDEFF3" fill-rule="evenodd" transform="matrix(6.12854e-17 1.00087 -1 6.12323e-17 771.235 -1477.5)"/><path d="M2896.75 486.31 2948.75 486.31 2948.75 538.192 2896.75 538.192Z" fill="#EDEFF3" fill-rule="evenodd" transform="matrix(6.12854e-17 1.00087 -1 6.12323e-17 771.235 -1477.5)"/><path d="M2948.75 486.31 3000.74 486.31 3000.74 538.192 2948.75 538.192Z" fill="#EDEFF3" fill-rule="evenodd" transform="matrix(6.12854e-17 1.00087 -1 6.12323e-17 771.235 -1477.5)"/><path d="M3000.74 486.31 3052.75 486.31 3052.75 538.192 3000.74 538.192Z" fill="#EDEFF3" fill-rule="evenodd" transform="matrix(6.12854e-17 1.00087 -1 6.12323e-17 771.235 -1477.5)"/><path d="M3052.75 486.31 3104.75 486.31 3104.75 538.192 3052.75 538.192Z" fill="#EDEFF3" fill-rule="evenodd" transform="matrix(6.12854e-17 1.00087 -1 6.12323e-17 771.235 -1477.5)"/><path d="M3104.75 486.31 3156.74 486.31 3156.74 538.192 3104.75 538.192Z" fill="#EDEFF3" fill-rule="evenodd" transform="matrix(6.12854e-17 1.00087 -1 6.12323e-17 771.235 -1477.5)"/><path d="M3156.74 486.31 3208.75 486.31 3208.75 538.192 3156.74 538.192Z" fill="#EDEFF3" fill-rule="evenodd" transform="matrix(6.12854e-17 1.00087 -1 6.12323e-17 771.235 -1477.5)"/><path d="M3208.75 486.31 3260.75 486.31 3260.75 538.192 3208.75 538.192Z" fill="#EDEFF3" fill-rule="evenodd" transform="matrix(6.12854e-17 1.00087 -1 6.12323e-17 771.235 -1477.5)"/><path d="M3260.75 486.31 3312.75 486.31 3312.75 538.192 3260.75 538.192Z" fill="#EDEFF3" fill-rule="evenodd" transform="matrix(6.12854e-17 1.00087 -1 6.12323e-17 771.235 -1477.5)"/><path d="M2740.74 538.192 2792.75 538.192 2792.75 590.074 2740.74 590.074Z" fill="#EDEFF3" fill-rule="evenodd" transform="matrix(6.12854e-17 1.00087 -1 6.12323e-17 771.235 -1477.5)"/><path d="M2792.75 538.192 2844.74 538.192 2844.74 590.074 2792.75 590.074Z" fill="#EDEFF3" fill-rule="evenodd" transform="matrix(6.12854e-17 1.00087 -1 6.12323e-17 771.235 -1477.5)"/><path d="M2844.74 538.192 2896.75 538.192 2896.75 590.074 2844.74 590.074Z" fill="#EDEFF3" fill-rule="evenodd" transform="matrix(6.12854e-17 1.00087 -1 6.12323e-17 771.235 -1477.5)"/><path d="M2896.75 538.192 2948.75 538.192 2948.75 590.074 2896.75 590.074Z" fill="#EDEFF3" fill-rule="evenodd" transform="matrix(6.12854e-17 1.00087 -1 6.12323e-17 771.235 -1477.5)"/><path d="M2948.75 538.192 3000.74 538.192 3000.74 590.074 2948.75 590.074Z" fill="#EDEFF3" fill-rule="evenodd" transform="matrix(6.12854e-17 1.00087 -1 6.12323e-17 771.235 -1477.5)"/><path d="M3000.74 538.192 3052.75 538.192 3052.75 590.074 3000.74 590.074Z" fill="#EDEFF3" fill-rule="evenodd" transform="matrix(6.12854e-17 1.00087 -1 6.12323e-17 771.235 -1477.5)"/><path d="M3052.75 538.192 3104.75 538.192 3104.75 590.074 3052.75 590.074Z" fill="#EDEFF3" fill-rule="evenodd" transform="matrix(6.12854e-17 1.00087 -1 6.12323e-17 771.235 -1477.5)"/><path d="M3104.75 538.192 3156.74 538.192 3156.74 590.074 3104.75 590.074Z" fill="#EDEFF3" fill-rule="evenodd" transform="matrix(6.12854e-17 1.00087 -1 6.12323e-17 771.235 -1477.5)"/><path d="M3156.74 538.192 3208.75 538.192 3208.75 590.074 3156.74 590.074Z" fill="#EDEFF3" fill-rule="evenodd" transform="matrix(6.12854e-17 1.00087 -1 6.12323e-17 771.235 -1477.5)"/><path d="M3208.75 538.192 3260.75 538.192 3260.75 590.074 3208.75 590.074Z" fill="#EDEFF3" fill-rule="evenodd" transform="matrix(6.12854e-17 1.00087 -1 6.12323e-17 771.235 -1477.5)"/><path d="M3260.75 538.192 3312.75 538.192 3312.75 590.074 3260.75 590.074Z" fill="#EDEFF3" fill-rule="evenodd" transform="matrix(6.12854e-17 1.00087 -1 6.12323e-17 771.235 -1477.5)"/><path d="M2792.75 17.6532 2792.75 591.791" stroke="#BCCEE7" stroke-width="3.43452" stroke-linejoin="round" stroke-miterlimit="10" fill="none" fill-rule="evenodd" transform="matrix(6.12854e-17 1.00087 -1 6.12323e-17 771.235 -1477.5)"/><path d="M2844.74 17.6532 2844.74 591.791" stroke="#BCCEE7" stroke-width="3.43452" stroke-linejoin="round" stroke-miterlimit="10" fill="none" fill-rule="evenodd" transform="matrix(6.12854e-17 1.00087 -1 6.12323e-17 771.235 -1477.5)"/><path d="M2896.75 17.6532 2896.75 591.791" stroke="#BCCEE7" stroke-width="3.43452" stroke-linejoin="round" stroke-miterlimit="10" fill="none" fill-rule="evenodd" transform="matrix(6.12854e-17 1.00087 -1 6.12323e-17 771.235 -1477.5)"/><path d="M2948.75 17.6532 2948.75 591.791" stroke="#BCCEE7" stroke-width="3.43452" stroke-linejoin="round" stroke-miterlimit="10" fill="none" fill-rule="evenodd" transform="matrix(6.12854e-17 1.00087 -1 6.12323e-17 771.235 -1477.5)"/><path d="M3000.74 17.6532 3000.74 591.791" stroke="#BCCEE7" stroke-width="3.43452" stroke-linejoin="round" stroke-miterlimit="10" fill="none" fill-rule="evenodd" transform="matrix(6.12854e-17 1.00087 -1 6.12323e-17 771.235 -1477.5)"/><path d="M3052.75 17.6532 3052.75 591.791" stroke="#BCCEE7" stroke-width="3.43452" stroke-linejoin="round" stroke-miterlimit="10" fill="none" fill-rule="evenodd" transform="matrix(6.12854e-17 1.00087 -1 6.12323e-17 771.235 -1477.5)"/><path d="M3104.75 17.6532 3104.75 591.791" stroke="#BCCEE7" stroke-width="3.43452" stroke-linejoin="round" stroke-miterlimit="10" fill="none" fill-rule="evenodd" transform="matrix(6.12854e-17 1.00087 -1 6.12323e-17 771.235 -1477.5)"/><path d="M3156.74 17.6532 3156.74 591.791" stroke="#BCCEE7" stroke-width="3.43452" stroke-linejoin="round" stroke-miterlimit="10" fill="none" fill-rule="evenodd" transform="matrix(6.12854e-17 1.00087 -1 6.12323e-17 771.235 -1477.5)"/><path d="M3208.75 17.6532 3208.75 591.791" stroke="#BCCEE7" stroke-width="3.43452" stroke-linejoin="round" stroke-miterlimit="10" fill="none" fill-rule="evenodd" transform="matrix(6.12854e-17 1.00087 -1 6.12323e-17 771.235 -1477.5)"/><path d="M3260.75 17.6532 3260.75 591.791" stroke="#BCCEE7" stroke-width="3.43452" stroke-linejoin="round" stroke-miterlimit="10" fill="none" fill-rule="evenodd" transform="matrix(6.12854e-17 1.00087 -1 6.12323e-17 771.235 -1477.5)"/><path d="M2739.03 71.2526 2792.75 71.2526" stroke="#BCCEE7" stroke-width="3.43452" stroke-linejoin="round" stroke-miterlimit="10" fill="none" fill-rule="evenodd" transform="matrix(6.12854e-17 1.00087 -1 6.12323e-17 771.235 -1477.5)"/><path d="M2792.75 71.2526 3052.75 71.2526" stroke="#BCCEE7" stroke-width="3.43452" stroke-linejoin="round" stroke-miterlimit="10" fill="none" fill-rule="evenodd" transform="matrix(6.12854e-17 1.00087 -1 6.12323e-17 771.235 -1477.5)"/><path d="M3052.75 71.2526 3314.47 71.2526" stroke="#BCCEE7" stroke-width="3.43452" stroke-linejoin="round" stroke-miterlimit="10" fill="none" fill-rule="evenodd" transform="matrix(6.12854e-17 1.00087 -1 6.12323e-17 771.235 -1477.5)"/><path d="M2739.03 123.135 2792.75 123.135" stroke="#BCCEE7" stroke-width="3.43452" stroke-linejoin="round" stroke-miterlimit="10" fill="none" fill-rule="evenodd" transform="matrix(6.12854e-17 1.00087 -1 6.12323e-17 771.235 -1477.5)"/><path d="M2792.75 123.135 3052.75 123.135" stroke="#BCCEE7" stroke-width="3.43452" stroke-linejoin="round" stroke-miterlimit="10" fill="none" fill-rule="evenodd" transform="matrix(6.12854e-17 1.00087 -1 6.12323e-17 771.235 -1477.5)"/><path d="M3052.75 123.135 3314.47 123.135" stroke="#BCCEE7" stroke-width="3.43452" stroke-linejoin="round" stroke-miterlimit="10" fill="none" fill-rule="evenodd" transform="matrix(6.12854e-17 1.00087 -1 6.12323e-17 771.235 -1477.5)"/><path d="M2739.03 175.017 2792.75 175.017" stroke="#BCCEE7" stroke-width="3.43452" stroke-linejoin="round" stroke-miterlimit="10" fill="none" fill-rule="evenodd" transform="matrix(6.12854e-17 1.00087 -1 6.12323e-17 771.235 -1477.5)"/><path d="M2792.75 175.017 3052.75 175.017" stroke="#BCCEE7" stroke-width="3.43452" stroke-linejoin="round" stroke-miterlimit="10" fill="none" fill-rule="evenodd" transform="matrix(6.12854e-17 1.00087 -1 6.12323e-17 771.235 -1477.5)"/><path d="M3052.75 175.017 3314.47 175.017" stroke="#BCCEE7" stroke-width="3.43452" stroke-linejoin="round" stroke-miterlimit="10" fill="none" fill-rule="evenodd" transform="matrix(6.12854e-17 1.00087 -1 6.12323e-17 771.235 -1477.5)"/><path d="M2739.03 226.899 2792.75 226.899" stroke="#BCCEE7" stroke-width="3.43452" stroke-linejoin="round" stroke-miterlimit="10" fill="none" fill-rule="evenodd" transform="matrix(6.12854e-17 1.00087 -1 6.12323e-17 771.235 -1477.5)"/><path d="M2792.75 226.899 3052.75 226.899" stroke="#BCCEE7" stroke-width="3.43452" stroke-linejoin="round" stroke-miterlimit="10" fill="none" fill-rule="evenodd" transform="matrix(6.12854e-17 1.00087 -1 6.12323e-17 771.235 -1477.5)"/><path d="M3052.75 226.899 3314.47 226.899" stroke="#BCCEE7" stroke-width="3.43452" stroke-linejoin="round" stroke-miterlimit="10" fill="none" fill-rule="evenodd" transform="matrix(6.12854e-17 1.00087 -1 6.12323e-17 771.235 -1477.5)"/><path d="M2739.03 278.781 2792.75 278.781" stroke="#BCCEE7" stroke-width="3.43452" stroke-linejoin="round" stroke-miterlimit="10" fill="none" fill-rule="evenodd" transform="matrix(6.12854e-17 1.00087 -1 6.12323e-17 771.235 -1477.5)"/><path d="M2792.75 278.781 3052.75 278.781" stroke="#BCCEE7" stroke-width="3.43452" stroke-linejoin="round" stroke-miterlimit="10" fill="none" fill-rule="evenodd" transform="matrix(6.12854e-17 1.00087 -1 6.12323e-17 771.235 -1477.5)"/><path d="M3052.75 278.781 3314.47 278.781" stroke="#BCCEE7" stroke-width="3.43452" stroke-linejoin="round" stroke-miterlimit="10" fill="none" fill-rule="evenodd" transform="matrix(6.12854e-17 1.00087 -1 6.12323e-17 771.235 -1477.5)"/><path d="M2739.03 330.663 2792.75 330.663" stroke="#BCCEE7" stroke-width="3.43452" stroke-linejoin="round" stroke-miterlimit="10" fill="none" fill-rule="evenodd" transform="matrix(6.12854e-17 1.00087 -1 6.12323e-17 771.235 -1477.5)"/><path d="M2792.75 330.663 3052.75 330.663" stroke="#BCCEE7" stroke-width="3.43452" stroke-linejoin="round" stroke-miterlimit="10" fill="none" fill-rule="evenodd" transform="matrix(6.12854e-17 1.00087 -1 6.12323e-17 771.235 -1477.5)"/><path d="M3052.75 330.663 3314.47 330.663" stroke="#BCCEE7" stroke-width="3.43452" stroke-linejoin="round" stroke-miterlimit="10" fill="none" fill-rule="evenodd" transform="matrix(6.12854e-17 1.00087 -1 6.12323e-17 771.235 -1477.5)"/><path d="M2739.03 382.546 2792.75 382.546" stroke="#BCCEE7" stroke-width="3.43452" stroke-linejoin="round" stroke-miterlimit="10" fill="none" fill-rule="evenodd" transform="matrix(6.12854e-17 1.00087 -1 6.12323e-17 771.235 -1477.5)"/><path d="M2792.75 382.546 3052.75 382.546" stroke="#BCCEE7" stroke-width="3.43452" stroke-linejoin="round" stroke-miterlimit="10" fill="none" fill-rule="evenodd" transform="matrix(6.12854e-17 1.00087 -1 6.12323e-17 771.235 -1477.5)"/><path d="M3052.75 382.546 3314.47 382.546" stroke="#BCCEE7" stroke-width="3.43452" stroke-linejoin="round" stroke-miterlimit="10" fill="none" fill-rule="evenodd" transform="matrix(6.12854e-17 1.00087 -1 6.12323e-17 771.235 -1477.5)"/><path d="M2739.03 434.428 2792.75 434.428" stroke="#BCCEE7" stroke-width="3.43452" stroke-linejoin="round" stroke-miterlimit="10" fill="none" fill-rule="evenodd" transform="matrix(6.12854e-17 1.00087 -1 6.12323e-17 771.235 -1477.5)"/><path d="M2792.75 434.428 3052.75 434.428" stroke="#BCCEE7" stroke-width="3.43452" stroke-linejoin="round" stroke-miterlimit="10" fill="none" fill-rule="evenodd" transform="matrix(6.12854e-17 1.00087 -1 6.12323e-17 771.235 -1477.5)"/><path d="M3052.75 434.428 3314.47 434.428" stroke="#BCCEE7" stroke-width="3.43452" stroke-linejoin="round" stroke-miterlimit="10" fill="none" fill-rule="evenodd" transform="matrix(6.12854e-17 1.00087 -1 6.12323e-17 771.235 -1477.5)"/><path d="M2739.03 486.31 2792.75 486.31" stroke="#BCCEE7" stroke-width="3.43452" stroke-linejoin="round" stroke-miterlimit="10" fill="none" fill-rule="evenodd" transform="matrix(6.12854e-17 1.00087 -1 6.12323e-17 771.235 -1477.5)"/><path d="M2792.75 486.31 3052.75 486.31" stroke="#BCCEE7" stroke-width="3.43452" stroke-linejoin="round" stroke-miterlimit="10" fill="none" fill-rule="evenodd" transform="matrix(6.12854e-17 1.00087 -1 6.12323e-17 771.235 -1477.5)"/><path d="M3052.75 486.31 3314.47 486.31" stroke="#BCCEE7" stroke-width="3.43452" stroke-linejoin="round" stroke-miterlimit="10" fill="none" fill-rule="evenodd" transform="matrix(6.12854e-17 1.00087 -1 6.12323e-17 771.235 -1477.5)"/><path d="M2739.03 538.192 2792.75 538.192" stroke="#BCCEE7" stroke-width="3.43452" stroke-linejoin="round" stroke-miterlimit="10" fill="none" fill-rule="evenodd" transform="matrix(6.12854e-17 1.00087 -1 6.12323e-17 771.235 -1477.5)"/><path d="M2792.75 538.192 3052.75 538.192" stroke="#BCCEE7" stroke-width="3.43452" stroke-linejoin="round" stroke-miterlimit="10" fill="none" fill-rule="evenodd" transform="matrix(6.12854e-17 1.00087 -1 6.12323e-17 771.235 -1477.5)"/><path d="M3052.75 538.192 3314.47 538.192" stroke="#BCCEE7" stroke-width="3.43452" stroke-linejoin="round" stroke-miterlimit="10" fill="none" fill-rule="evenodd" transform="matrix(6.12854e-17 1.00087 -1 6.12323e-17 771.235 -1477.5)"/><path d="M2740.74 17.6532 2740.74 591.791" stroke="#BCCEE7" stroke-width="3.43452" stroke-linejoin="round" stroke-miterlimit="10" fill="none" fill-rule="evenodd" transform="matrix(6.12854e-17 1.00087 -1 6.12323e-17 771.235 -1477.5)"/><path d="M3312.75 17.6532 3312.75 591.791" stroke="#BCCEE7" stroke-width="3.43452" stroke-linejoin="round" stroke-miterlimit="10" fill="none" fill-rule="evenodd" transform="matrix(6.12854e-17 1.00087 -1 6.12323e-17 771.235 -1477.5)"/><path d="M2739.03 19.3704 2792.75 19.3704" stroke="#BCCEE7" stroke-width="3.43452" stroke-linejoin="round" stroke-miterlimit="10" fill="none" fill-rule="evenodd" transform="matrix(6.12854e-17 1.00087 -1 6.12323e-17 771.235 -1477.5)"/><path d="M2792.75 19.3704 3052.75 19.3704" stroke="#BCCEE7" stroke-width="3.43452" stroke-linejoin="round" stroke-miterlimit="10" fill="none" fill-rule="evenodd" transform="matrix(6.12854e-17 1.00087 -1 6.12323e-17 771.235 -1477.5)"/><path d="M3052.75 19.3704 3314.47 19.3704" stroke="#BCCEE7" stroke-width="3.43452" stroke-linejoin="round" stroke-miterlimit="10" fill="none" fill-rule="evenodd" transform="matrix(6.12854e-17 1.00087 -1 6.12323e-17 771.235 -1477.5)"/><path d="M2739.03 590.074 3314.47 590.074" stroke="#BCCEE7" stroke-width="3.43452" stroke-linejoin="round" stroke-miterlimit="10" fill="none" fill-rule="evenodd" transform="matrix(6.12854e-17 1.00087 -1 6.12323e-17 771.235 -1477.5)"/><path d="M0 0 0.000270435 210.582" stroke="#607796" stroke-width="5.15178" stroke-miterlimit="8" stroke-dasharray="20.6071 15.4554" fill="none" fill-rule="evenodd" transform="matrix(6.12854e-17 1.00087 1 -6.12323e-17 286.016 1785.38)"/><path d="M0 0 52.1658 0.322088" stroke="#607796" stroke-width="5.15178" stroke-miterlimit="8" stroke-dasharray="20.6071 15.4554" fill="none" fill-rule="evenodd" transform="matrix(-6.12854e-17 -1.00087 -1 6.12323e-17 493.601 1836.08)"/><path d="M2738.5 485.204 3259.04 485.204" stroke="#607796" stroke-width="5.15178" stroke-miterlimit="8" stroke-dasharray="20.6071 15.4554" fill="none" fill-rule="evenodd" transform="matrix(6.12854e-17 1.00087 -1 6.12323e-17 771.235 -1477.5)"/><path d="M3049.86 317.163 3026.25 317.163 3026.25 329.714 3002.65 304.611 3026.25 279.508 3026.25 292.059 3049.86 292.059Z" stroke="#548235" stroke-width="1.71726" stroke-miterlimit="8" fill="#C5E0B4" fill-rule="evenodd" transform="matrix(6.12854e-17 1.00087 -1 6.12323e-17 771.235 -1477.5)"/></g></g></g></g><path d="M297.5 1890.33C297.5 1881.04 305.036 1873.5 314.333 1873.5L594.667 1873.5C603.963 1873.5 611.5 1881.04 611.5 1890.33L611.5 1957.67C611.5 1966.96 603.963 1974.5 594.667 1974.5L314.333 1974.5C305.036 1974.5 297.5 1966.96 297.5 1957.67Z" stroke="#607796" stroke-width="4.58333" stroke-linejoin="round" stroke-miterlimit="10" stroke-dasharray="18.3333 13.75" fill="#EDEFF3" fill-rule="evenodd"/><text fill="#607796" font-family="SimSun,SimSun_MSFontService,sans-serif" font-weight="400" font-size="48" transform="matrix(1 0 0 1 345.966 1944)">周围<tspan font-size="48" x="96.25" y="0">11*11</tspan></text><path d="M339.5 1103.17C339.5 1093.41 347.41 1085.5 357.167 1085.5L593.833 1085.5C603.59 1085.5 611.5 1093.41 611.5 1103.17L611.5 1173.83C611.5 1183.59 603.59 1191.5 593.833 1191.5L357.167 1191.5C347.41 1191.5 339.5 1183.59 339.5 1173.83Z" stroke="#607796" stroke-width="4.58333" stroke-linejoin="round" stroke-miterlimit="10" stroke-dasharray="18.3333 13.75" fill="#EDEFF3" fill-rule="evenodd"/><text fill="#607796" font-family="SimSun,SimSun_MSFontService,sans-serif" font-weight="400" font-size="48" transform="matrix(1 0 0 1 379.029 1157)">四周距离</text><g clip-path="url(#clip5)"><g clip-path="url(#clip6)"><g clip-path="url(#clip7)"><g clip-path="url(#clip8)"><path d="M2069.36 470.846 2104.64 470.846 2104.64 506.046 2069.36 506.046Z" fill="#EDEFF3" fill-rule="evenodd" transform="matrix(6.12791e-17 1.00076 -1 6.12323e-17 1222.24 -1377.93)"/><path d="M2104.64 470.846 2139.92 470.846 2139.92 506.046 2104.64 506.046Z" fill="#EDEFF3" fill-rule="evenodd" transform="matrix(6.12791e-17 1.00076 -1 6.12323e-17 1222.24 -1377.93)"/><path d="M2139.92 470.846 2175.2 470.846 2175.2 506.046 2139.92 506.046Z" fill="#EDEFF3" fill-rule="evenodd" transform="matrix(6.12791e-17 1.00076 -1 6.12323e-17 1222.24 -1377.93)"/><path d="M2175.2 470.846 2210.48 470.846 2210.48 506.046 2175.2 506.046Z" fill="#EDEFF3" fill-rule="evenodd" transform="matrix(6.12791e-17 1.00076 -1 6.12323e-17 1222.24 -1377.93)"/><path d="M2210.48 470.846 2245.76 470.846 2245.76 506.046 2210.48 506.046Z" fill="#EDEFF3" fill-rule="evenodd" transform="matrix(6.12791e-17 1.00076 -1 6.12323e-17 1222.24 -1377.93)"/><path d="M2245.76 470.846 2281.04 470.846 2281.04 506.046 2245.76 506.046Z" fill="#EDEFF3" fill-rule="evenodd" transform="matrix(6.12791e-17 1.00076 -1 6.12323e-17 1222.24 -1377.93)"/><path d="M2281.04 470.846 2316.32 470.846 2316.32 506.046 2281.04 506.046Z" fill="#EDEFF3" fill-rule="evenodd" transform="matrix(6.12791e-17 1.00076 -1 6.12323e-17 1222.24 -1377.93)"/><path d="M2316.32 470.846 2351.6 470.846 2351.6 506.046 2316.32 506.046Z" fill="#EDEFF3" fill-rule="evenodd" transform="matrix(6.12791e-17 1.00076 -1 6.12323e-17 1222.24 -1377.93)"/><path d="M2351.6 470.846 2386.88 470.846 2386.88 506.046 2351.6 506.046Z" fill="#EDEFF3" fill-rule="evenodd" transform="matrix(6.12791e-17 1.00076 -1 6.12323e-17 1222.24 -1377.93)"/><path d="M2386.88 470.846 2422.16 470.846 2422.16 506.046 2386.88 506.046Z" fill="#EDEFF3" fill-rule="evenodd" transform="matrix(6.12791e-17 1.00076 -1 6.12323e-17 1222.24 -1377.93)"/><path d="M2069.36 506.046 2104.64 506.046 2104.64 541.247 2069.36 541.247Z" fill="#EDEFF3" fill-rule="evenodd" transform="matrix(6.12791e-17 1.00076 -1 6.12323e-17 1222.24 -1377.93)"/><path d="M2104.64 506.046 2139.92 506.046 2139.92 541.247 2104.64 541.247Z" fill="#EDEFF3" fill-rule="evenodd" transform="matrix(6.12791e-17 1.00076 -1 6.12323e-17 1222.24 -1377.93)"/><path d="M2139.92 506.046 2175.2 506.046 2175.2 541.247 2139.92 541.247Z" fill="#EDEFF3" fill-rule="evenodd" transform="matrix(6.12791e-17 1.00076 -1 6.12323e-17 1222.24 -1377.93)"/><path d="M2175.2 506.046 2210.48 506.046 2210.48 541.247 2175.2 541.247Z" fill="#EDEFF3" fill-rule="evenodd" transform="matrix(6.12791e-17 1.00076 -1 6.12323e-17 1222.24 -1377.93)"/><path d="M2210.48 506.046 2245.76 506.046 2245.76 541.247 2210.48 541.247Z" fill="#EDEFF3" fill-rule="evenodd" transform="matrix(6.12791e-17 1.00076 -1 6.12323e-17 1222.24 -1377.93)"/><path d="M2245.76 506.046 2281.04 506.046 2281.04 541.247 2245.76 541.247Z" fill="#EDEFF3" fill-rule="evenodd" transform="matrix(6.12791e-17 1.00076 -1 6.12323e-17 1222.24 -1377.93)"/><path d="M2281.04 506.046 2316.32 506.046 2316.32 541.247 2281.04 541.247Z" fill="#EDEFF3" fill-rule="evenodd" transform="matrix(6.12791e-17 1.00076 -1 6.12323e-17 1222.24 -1377.93)"/><path d="M2316.32 506.046 2351.6 506.046 2351.6 541.247 2316.32 541.247Z" fill="#EDEFF3" fill-rule="evenodd" transform="matrix(6.12791e-17 1.00076 -1 6.12323e-17 1222.24 -1377.93)"/><path d="M2351.6 506.046 2386.88 506.046 2386.88 541.247 2351.6 541.247Z" fill="#EDEFF3" fill-rule="evenodd" transform="matrix(6.12791e-17 1.00076 -1 6.12323e-17 1222.24 -1377.93)"/><path d="M2386.88 506.046 2422.16 506.046 2422.16 541.247 2386.88 541.247Z" fill="#EDEFF3" fill-rule="evenodd" transform="matrix(6.12791e-17 1.00076 -1 6.12323e-17 1222.24 -1377.93)"/><path d="M1928.24 541.247 1963.52 541.247 1963.52 576.444 1928.24 576.444Z" fill="#D1D8E1" fill-rule="evenodd" transform="matrix(6.12791e-17 1.00076 -1 6.12323e-17 1222.24 -1377.93)"/><path d="M1963.52 541.247 1998.8 541.247 1998.8 576.444 1963.52 576.444Z" fill="#D1D8E1" fill-rule="evenodd" transform="matrix(6.12791e-17 1.00076 -1 6.12323e-17 1222.24 -1377.93)"/><path d="M1998.8 541.247 2034.08 541.247 2034.08 576.444 1998.8 576.444Z" fill="#D1D8E1" fill-rule="evenodd" transform="matrix(6.12791e-17 1.00076 -1 6.12323e-17 1222.24 -1377.93)"/><path d="M2139.92 541.247 2175.2 541.247 2175.2 576.444 2139.92 576.444Z" fill="#EDEFF3" fill-rule="evenodd" transform="matrix(6.12791e-17 1.00076 -1 6.12323e-17 1222.24 -1377.93)"/><path d="M2175.2 541.247 2210.48 541.247 2210.48 576.444 2175.2 576.444Z" fill="#EDEFF3" fill-rule="evenodd" transform="matrix(6.12791e-17 1.00076 -1 6.12323e-17 1222.24 -1377.93)"/><path d="M2210.48 541.247 2245.76 541.247 2245.76 576.444 2210.48 576.444Z" fill="#EDEFF3" fill-rule="evenodd" transform="matrix(6.12791e-17 1.00076 -1 6.12323e-17 1222.24 -1377.93)"/><path d="M2245.76 541.247 2281.04 541.247 2281.04 576.444 2245.76 576.444Z" fill="#EDEFF3" fill-rule="evenodd" transform="matrix(6.12791e-17 1.00076 -1 6.12323e-17 1222.24 -1377.93)"/><path d="M2281.04 541.247 2316.32 541.247 2316.32 576.444 2281.04 576.444Z" fill="#EDEFF3" fill-rule="evenodd" transform="matrix(6.12791e-17 1.00076 -1 6.12323e-17 1222.24 -1377.93)"/><path d="M2316.32 541.247 2351.6 541.247 2351.6 576.444 2316.32 576.444Z" fill="#EDEFF3" fill-rule="evenodd" transform="matrix(6.12791e-17 1.00076 -1 6.12323e-17 1222.24 -1377.93)"/><path d="M2351.6 541.247 2386.88 541.247 2386.88 576.444 2351.6 576.444Z" fill="#EDEFF3" fill-rule="evenodd" transform="matrix(6.12791e-17 1.00076 -1 6.12323e-17 1222.24 -1377.93)"/><path d="M2386.88 541.247 2422.16 541.247 2422.16 576.444 2386.88 576.444Z" fill="#EDEFF3" fill-rule="evenodd" transform="matrix(6.12791e-17 1.00076 -1 6.12323e-17 1222.24 -1377.93)"/><path d="M1928.24 576.444 1963.52 576.444 1963.52 611.645 1928.24 611.645Z" fill="#D1D8E1" fill-rule="evenodd" transform="matrix(6.12791e-17 1.00076 -1 6.12323e-17 1222.24 -1377.93)"/><path d="M1963.52 576.444 1998.8 576.444 1998.8 611.645 1963.52 611.645Z" fill="#D1D8E1" fill-rule="evenodd" transform="matrix(6.12791e-17 1.00076 -1 6.12323e-17 1222.24 -1377.93)"/><path d="M1998.8 576.444 2034.08 576.444 2034.08 611.645 1998.8 611.645Z" fill="#D1D8E1" fill-rule="evenodd" transform="matrix(6.12791e-17 1.00076 -1 6.12323e-17 1222.24 -1377.93)"/><path d="M2175.2 576.444 2210.48 576.444 2210.48 611.645 2175.2 611.645Z" fill="#EDEFF3" fill-rule="evenodd" transform="matrix(6.12791e-17 1.00076 -1 6.12323e-17 1222.24 -1377.93)"/><path d="M2210.48 576.444 2245.76 576.444 2245.76 611.645 2210.48 611.645Z" fill="#EDEFF3" fill-rule="evenodd" transform="matrix(6.12791e-17 1.00076 -1 6.12323e-17 1222.24 -1377.93)"/><path d="M2245.76 576.444 2281.04 576.444 2281.04 611.645 2245.76 611.645Z" fill="#EDEFF3" fill-rule="evenodd" transform="matrix(6.12791e-17 1.00076 -1 6.12323e-17 1222.24 -1377.93)"/><path d="M2281.04 576.444 2316.32 576.444 2316.32 611.645 2281.04 611.645Z" fill="#EDEFF3" fill-rule="evenodd" transform="matrix(6.12791e-17 1.00076 -1 6.12323e-17 1222.24 -1377.93)"/><path d="M2316.32 576.444 2351.6 576.444 2351.6 611.645 2316.32 611.645Z" fill="#EDEFF3" fill-rule="evenodd" transform="matrix(6.12791e-17 1.00076 -1 6.12323e-17 1222.24 -1377.93)"/><path d="M2351.6 576.444 2386.88 576.444 2386.88 611.645 2351.6 611.645Z" fill="#EDEFF3" fill-rule="evenodd" transform="matrix(6.12791e-17 1.00076 -1 6.12323e-17 1222.24 -1377.93)"/><path d="M2386.88 576.444 2422.16 576.444 2422.16 611.645 2386.88 611.645Z" fill="#EDEFF3" fill-rule="evenodd" transform="matrix(6.12791e-17 1.00076 -1 6.12323e-17 1222.24 -1377.93)"/><path d="M2281.04 646.842 2316.32 646.842 2316.32 682.043 2281.04 682.043Z" fill="#D1D8E1" fill-rule="evenodd" transform="matrix(6.12791e-17 1.00076 -1 6.12323e-17 1222.24 -1377.93)"/><path d="M2316.32 646.842 2351.6 646.842 2351.6 682.043 2316.32 682.043Z" fill="#D1D8E1" fill-rule="evenodd" transform="matrix(6.12791e-17 1.00076 -1 6.12323e-17 1222.24 -1377.93)"/><path d="M2351.6 646.842 2386.88 646.842 2386.88 682.043 2351.6 682.043Z" fill="#D1D8E1" fill-rule="evenodd" transform="matrix(6.12791e-17 1.00076 -1 6.12323e-17 1222.24 -1377.93)"/><path d="M2281.04 682.043 2316.32 682.043 2316.32 717.245 2281.04 717.245Z" fill="#D1D8E1" fill-rule="evenodd" transform="matrix(6.12791e-17 1.00076 -1 6.12323e-17 1222.24 -1377.93)"/><path d="M2316.32 682.043 2351.6 682.043 2351.6 717.245 2316.32 717.245Z" fill="#D1D8E1" fill-rule="evenodd" transform="matrix(6.12791e-17 1.00076 -1 6.12323e-17 1222.24 -1377.93)"/><path d="M2351.6 682.043 2386.88 682.043 2386.88 717.245 2351.6 717.245Z" fill="#D1D8E1" fill-rule="evenodd" transform="matrix(6.12791e-17 1.00076 -1 6.12323e-17 1222.24 -1377.93)"/><path d="M1892.96 787.643 1928.24 787.643 1928.24 822.844 1892.96 822.844Z" fill="#D1D8E1" fill-rule="evenodd" transform="matrix(6.12791e-17 1.00076 -1 6.12323e-17 1222.24 -1377.93)"/><path d="M1928.24 787.643 1963.52 787.643 1963.52 822.844 1928.24 822.844Z" fill="#D1D8E1" fill-rule="evenodd" transform="matrix(6.12791e-17 1.00076 -1 6.12323e-17 1222.24 -1377.93)"/><path d="M1963.52 787.643 1998.8 787.643 1998.8 822.844 1963.52 822.844Z" fill="#D1D8E1" fill-rule="evenodd" transform="matrix(6.12791e-17 1.00076 -1 6.12323e-17 1222.24 -1377.93)"/><path d="M2245.76 787.643 2281.04 787.643 2281.04 822.844 2245.76 822.844Z" fill="#778CA5" fill-rule="evenodd" transform="matrix(6.12791e-17 1.00076 -1 6.12323e-17 1222.24 -1377.93)"/><path d="M2281.04 787.643 2316.32 787.643 2316.32 822.844 2281.04 822.844Z" fill="#778CA5" fill-rule="evenodd" transform="matrix(6.12791e-17 1.00076 -1 6.12323e-17 1222.24 -1377.93)"/><path d="M1892.96 822.844 1928.24 822.844 1928.24 858.041 1892.96 858.041Z" fill="#D1D8E1" fill-rule="evenodd" transform="matrix(6.12791e-17 1.00076 -1 6.12323e-17 1222.24 -1377.93)"/><path d="M1928.24 822.844 1963.52 822.844 1963.52 858.041 1928.24 858.041Z" fill="#D1D8E1" fill-rule="evenodd" transform="matrix(6.12791e-17 1.00076 -1 6.12323e-17 1222.24 -1377.93)"/><path d="M1963.52 822.844 1998.8 822.844 1998.8 858.041 1963.52 858.041Z" fill="#D1D8E1" fill-rule="evenodd" transform="matrix(6.12791e-17 1.00076 -1 6.12323e-17 1222.24 -1377.93)"/><path d="M2245.76 822.844 2281.04 822.844 2281.04 858.041 2245.76 858.041Z" fill="#778CA5" fill-rule="evenodd" transform="matrix(6.12791e-17 1.00076 -1 6.12323e-17 1222.24 -1377.93)"/><path d="M2281.04 822.844 2316.32 822.844 2316.32 858.041 2281.04 858.041Z" fill="#778CA5" fill-rule="evenodd" transform="matrix(6.12791e-17 1.00076 -1 6.12323e-17 1222.24 -1377.93)"/><path d="M2210.48 893.243 2245.76 893.243 2245.76 928.439 2210.48 928.439Z" fill="#9DACBF" fill-rule="evenodd" transform="matrix(6.12791e-17 1.00076 -1 6.12323e-17 1222.24 -1377.93)"/><path d="M2245.76 893.243 2281.04 893.243 2281.04 928.439 2245.76 928.439Z" fill="#9DACBF" fill-rule="evenodd" transform="matrix(6.12791e-17 1.00076 -1 6.12323e-17 1222.24 -1377.93)"/><path d="M2386.88 893.243 2422.16 893.243 2422.16 928.439 2386.88 928.439Z" fill="#EDEFF3" fill-rule="evenodd" transform="matrix(6.12791e-17 1.00076 -1 6.12323e-17 1222.24 -1377.93)"/><path d="M2245.76 928.439 2281.04 928.439 2281.04 963.641 2245.76 963.641Z" fill="#607796" fill-rule="evenodd" transform="matrix(6.12791e-17 1.00076 -1 6.12323e-17 1222.24 -1377.93)"/><path d="M2281.04 928.439 2316.32 928.439 2316.32 963.641 2281.04 963.641Z" fill="#607796" fill-rule="evenodd" transform="matrix(6.12791e-17 1.00076 -1 6.12323e-17 1222.24 -1377.93)"/><path d="M2386.88 928.439 2422.16 928.439 2422.16 963.641 2386.88 963.641Z" fill="#EDEFF3" fill-rule="evenodd" transform="matrix(6.12791e-17 1.00076 -1 6.12323e-17 1222.24 -1377.93)"/><path d="M2245.76 963.641 2281.04 963.641 2281.04 998.842 2245.76 998.842Z" fill="#607796" fill-rule="evenodd" transform="matrix(6.12791e-17 1.00076 -1 6.12323e-17 1222.24 -1377.93)"/><path d="M2281.04 963.641 2316.32 963.641 2316.32 998.842 2281.04 998.842Z" fill="#607796" fill-rule="evenodd" transform="matrix(6.12791e-17 1.00076 -1 6.12323e-17 1222.24 -1377.93)"/><path d="M2386.88 963.641 2422.16 963.641 2422.16 998.842 2386.88 998.842Z" fill="#EDEFF3" fill-rule="evenodd" transform="matrix(6.12791e-17 1.00076 -1 6.12323e-17 1222.24 -1377.93)"/><path d="M1857.68 998.842 1892.96 998.842 1892.96 1034.04 1857.68 1034.04Z" fill="#EDEFF3" fill-rule="evenodd" transform="matrix(6.12791e-17 1.00076 -1 6.12323e-17 1222.24 -1377.93)"/><path d="M1892.96 998.842 1928.24 998.842 1928.24 1034.04 1892.96 1034.04Z" fill="#EDEFF3" fill-rule="evenodd" transform="matrix(6.12791e-17 1.00076 -1 6.12323e-17 1222.24 -1377.93)"/><path d="M1928.24 998.842 1963.52 998.842 1963.52 1034.04 1928.24 1034.04Z" fill="#EDEFF3" fill-rule="evenodd" transform="matrix(6.12791e-17 1.00076 -1 6.12323e-17 1222.24 -1377.93)"/><path d="M1963.52 998.842 1998.8 998.842 1998.8 1034.04 1963.52 1034.04Z" fill="#EDEFF3" fill-rule="evenodd" transform="matrix(6.12791e-17 1.00076 -1 6.12323e-17 1222.24 -1377.93)"/><path d="M1998.8 998.842 2034.08 998.842 2034.08 1034.04 1998.8 1034.04Z" fill="#EDEFF3" fill-rule="evenodd" transform="matrix(6.12791e-17 1.00076 -1 6.12323e-17 1222.24 -1377.93)"/><path d="M2245.76 998.842 2281.04 998.842 2281.04 1034.04 2245.76 1034.04Z" fill="#607796" fill-rule="evenodd" transform="matrix(6.12791e-17 1.00076 -1 6.12323e-17 1222.24 -1377.93)"/><path d="M2281.04 998.842 2316.32 998.842 2316.32 1034.04 2281.04 1034.04Z" fill="#607796" fill-rule="evenodd" transform="matrix(6.12791e-17 1.00076 -1 6.12323e-17 1222.24 -1377.93)"/><path d="M2386.88 998.842 2422.16 998.842 2422.16 1034.04 2386.88 1034.04Z" fill="#EDEFF3" fill-rule="evenodd" transform="matrix(6.12791e-17 1.00076 -1 6.12323e-17 1222.24 -1377.93)"/><path d="M1892.96 469.681 1892.96 506.046" stroke="#BCCEE7" stroke-width="2.33016" stroke-linejoin="round" stroke-miterlimit="10" fill="none" fill-rule="evenodd" transform="matrix(6.12791e-17 1.00076 -1 6.12323e-17 1222.24 -1377.93)"/><path d="M1892.96 506.046 1892.96 1035.2" stroke="#BCCEE7" stroke-width="2.33016" stroke-linejoin="round" stroke-miterlimit="10" fill="none" fill-rule="evenodd" transform="matrix(6.12791e-17 1.00076 -1 6.12323e-17 1222.24 -1377.93)"/><path d="M1928.24 469.681 1928.24 506.046" stroke="#BCCEE7" stroke-width="2.33016" stroke-linejoin="round" stroke-miterlimit="10" fill="none" fill-rule="evenodd" transform="matrix(6.12791e-17 1.00076 -1 6.12323e-17 1222.24 -1377.93)"/><path d="M1928.24 506.046 1928.24 1035.2" stroke="#BCCEE7" stroke-width="2.33016" stroke-linejoin="round" stroke-miterlimit="10" fill="none" fill-rule="evenodd" transform="matrix(6.12791e-17 1.00076 -1 6.12323e-17 1222.24 -1377.93)"/><path d="M1963.52 469.681 1963.52 506.046" stroke="#BCCEE7" stroke-width="2.33016" stroke-linejoin="round" stroke-miterlimit="10" fill="none" fill-rule="evenodd" transform="matrix(6.12791e-17 1.00076 -1 6.12323e-17 1222.24 -1377.93)"/><path d="M1963.52 506.046 1963.52 1035.2" stroke="#BCCEE7" stroke-width="2.33016" stroke-linejoin="round" stroke-miterlimit="10" fill="none" fill-rule="evenodd" transform="matrix(6.12791e-17 1.00076 -1 6.12323e-17 1222.24 -1377.93)"/><path d="M1998.8 469.681 1998.8 506.046" stroke="#BCCEE7" stroke-width="2.33016" stroke-linejoin="round" stroke-miterlimit="10" fill="none" fill-rule="evenodd" transform="matrix(6.12791e-17 1.00076 -1 6.12323e-17 1222.24 -1377.93)"/><path d="M1998.8 506.046 1998.8 1035.2" stroke="#BCCEE7" stroke-width="2.33016" stroke-linejoin="round" stroke-miterlimit="10" fill="none" fill-rule="evenodd" transform="matrix(6.12791e-17 1.00076 -1 6.12323e-17 1222.24 -1377.93)"/><path d="M2034.08 469.681 2034.08 506.046" stroke="#BCCEE7" stroke-width="2.33016" stroke-linejoin="round" stroke-miterlimit="10" fill="none" fill-rule="evenodd" transform="matrix(6.12791e-17 1.00076 -1 6.12323e-17 1222.24 -1377.93)"/><path d="M2034.08 506.046 2034.08 1035.2" stroke="#BCCEE7" stroke-width="2.33016" stroke-linejoin="round" stroke-miterlimit="10" fill="none" fill-rule="evenodd" transform="matrix(6.12791e-17 1.00076 -1 6.12323e-17 1222.24 -1377.93)"/><path d="M2069.36 469.681 2069.36 506.046" stroke="#BCCEE7" stroke-width="2.33016" stroke-linejoin="round" stroke-miterlimit="10" fill="none" fill-rule="evenodd" transform="matrix(6.12791e-17 1.00076 -1 6.12323e-17 1222.24 -1377.93)"/><path d="M2069.36 506.046 2069.36 1035.2" stroke="#BCCEE7" stroke-width="2.33016" stroke-linejoin="round" stroke-miterlimit="10" fill="none" fill-rule="evenodd" transform="matrix(6.12791e-17 1.00076 -1 6.12323e-17 1222.24 -1377.93)"/><path d="M2104.64 469.681 2104.64 506.046" stroke="#BCCEE7" stroke-width="2.33016" stroke-linejoin="round" stroke-miterlimit="10" fill="none" fill-rule="evenodd" transform="matrix(6.12791e-17 1.00076 -1 6.12323e-17 1222.24 -1377.93)"/><path d="M2104.64 506.046 2104.64 1035.2" stroke="#BCCEE7" stroke-width="2.33016" stroke-linejoin="round" stroke-miterlimit="10" fill="none" fill-rule="evenodd" transform="matrix(6.12791e-17 1.00076 -1 6.12323e-17 1222.24 -1377.93)"/><path d="M2139.92 469.681 2139.92 506.046" stroke="#BCCEE7" stroke-width="2.33016" stroke-linejoin="round" stroke-miterlimit="10" fill="none" fill-rule="evenodd" transform="matrix(6.12791e-17 1.00076 -1 6.12323e-17 1222.24 -1377.93)"/><path d="M2139.92 506.046 2139.92 1035.2" stroke="#BCCEE7" stroke-width="2.33016" stroke-linejoin="round" stroke-miterlimit="10" fill="none" fill-rule="evenodd" transform="matrix(6.12791e-17 1.00076 -1 6.12323e-17 1222.24 -1377.93)"/><path d="M2175.2 469.681 2175.2 506.046" stroke="#BCCEE7" stroke-width="2.33016" stroke-linejoin="round" stroke-miterlimit="10" fill="none" fill-rule="evenodd" transform="matrix(6.12791e-17 1.00076 -1 6.12323e-17 1222.24 -1377.93)"/><path d="M2175.2 506.046 2175.2 1035.2" stroke="#BCCEE7" stroke-width="2.33016" stroke-linejoin="round" stroke-miterlimit="10" fill="none" fill-rule="evenodd" transform="matrix(6.12791e-17 1.00076 -1 6.12323e-17 1222.24 -1377.93)"/><path d="M2210.48 469.681 2210.48 506.046" stroke="#BCCEE7" stroke-width="2.33016" stroke-linejoin="round" stroke-miterlimit="10" fill="none" fill-rule="evenodd" transform="matrix(6.12791e-17 1.00076 -1 6.12323e-17 1222.24 -1377.93)"/><path d="M2210.48 506.046 2210.48 1035.2" stroke="#BCCEE7" stroke-width="2.33016" stroke-linejoin="round" stroke-miterlimit="10" fill="none" fill-rule="evenodd" transform="matrix(6.12791e-17 1.00076 -1 6.12323e-17 1222.24 -1377.93)"/><path d="M2245.76 469.681 2245.76 506.046" stroke="#BCCEE7" stroke-width="2.33016" stroke-linejoin="round" stroke-miterlimit="10" fill="none" fill-rule="evenodd" transform="matrix(6.12791e-17 1.00076 -1 6.12323e-17 1222.24 -1377.93)"/><path d="M2245.76 506.046 2245.76 1035.2" stroke="#BCCEE7" stroke-width="2.33016" stroke-linejoin="round" stroke-miterlimit="10" fill="none" fill-rule="evenodd" transform="matrix(6.12791e-17 1.00076 -1 6.12323e-17 1222.24 -1377.93)"/><path d="M2281.04 469.681 2281.04 506.046" stroke="#BCCEE7" stroke-width="2.33016" stroke-linejoin="round" stroke-miterlimit="10" fill="none" fill-rule="evenodd" transform="matrix(6.12791e-17 1.00076 -1 6.12323e-17 1222.24 -1377.93)"/><path d="M2281.04 506.046 2281.04 1035.2" stroke="#BCCEE7" stroke-width="2.33016" stroke-linejoin="round" stroke-miterlimit="10" fill="none" fill-rule="evenodd" transform="matrix(6.12791e-17 1.00076 -1 6.12323e-17 1222.24 -1377.93)"/><path d="M2316.32 469.681 2316.32 506.046" stroke="#BCCEE7" stroke-width="2.33016" stroke-linejoin="round" stroke-miterlimit="10" fill="none" fill-rule="evenodd" transform="matrix(6.12791e-17 1.00076 -1 6.12323e-17 1222.24 -1377.93)"/><path d="M2316.32 506.046 2316.32 1035.2" stroke="#BCCEE7" stroke-width="2.33016" stroke-linejoin="round" stroke-miterlimit="10" fill="none" fill-rule="evenodd" transform="matrix(6.12791e-17 1.00076 -1 6.12323e-17 1222.24 -1377.93)"/><path d="M2351.6 469.681 2351.6 506.046" stroke="#BCCEE7" stroke-width="2.33016" stroke-linejoin="round" stroke-miterlimit="10" fill="none" fill-rule="evenodd" transform="matrix(6.12791e-17 1.00076 -1 6.12323e-17 1222.24 -1377.93)"/><path d="M2351.6 506.046 2351.6 1035.2" stroke="#BCCEE7" stroke-width="2.33016" stroke-linejoin="round" stroke-miterlimit="10" fill="none" fill-rule="evenodd" transform="matrix(6.12791e-17 1.00076 -1 6.12323e-17 1222.24 -1377.93)"/><path d="M2386.88 469.681 2386.88 1035.2" stroke="#BCCEE7" stroke-width="2.33016" stroke-linejoin="round" stroke-miterlimit="10" fill="none" fill-rule="evenodd" transform="matrix(6.12791e-17 1.00076 -1 6.12323e-17 1222.24 -1377.93)"/><path d="M1856.52 506.046 2245.76 506.046" stroke="#BCCEE7" stroke-width="2.33016" stroke-linejoin="round" stroke-miterlimit="10" fill="none" fill-rule="evenodd" transform="matrix(6.12791e-17 1.00076 -1 6.12323e-17 1222.24 -1377.93)"/><path d="M2245.76 506.046 2423.32 506.046" stroke="#BCCEE7" stroke-width="2.33016" stroke-linejoin="round" stroke-miterlimit="10" fill="none" fill-rule="evenodd" transform="matrix(6.12791e-17 1.00076 -1 6.12323e-17 1222.24 -1377.93)"/><path d="M1856.52 541.247 2423.32 541.247" stroke="#BCCEE7" stroke-width="2.33016" stroke-linejoin="round" stroke-miterlimit="10" fill="none" fill-rule="evenodd" transform="matrix(6.12791e-17 1.00076 -1 6.12323e-17 1222.24 -1377.93)"/><path d="M1856.52 576.444 2423.32 576.444" stroke="#BCCEE7" stroke-width="2.33016" stroke-linejoin="round" stroke-miterlimit="10" fill="none" fill-rule="evenodd" transform="matrix(6.12791e-17 1.00076 -1 6.12323e-17 1222.24 -1377.93)"/><path d="M1856.52 611.645 2423.32 611.645" stroke="#BCCEE7" stroke-width="2.33016" stroke-linejoin="round" stroke-miterlimit="10" fill="none" fill-rule="evenodd" transform="matrix(6.12791e-17 1.00076 -1 6.12323e-17 1222.24 -1377.93)"/><path d="M1856.52 646.842 2423.32 646.842" stroke="#BCCEE7" stroke-width="2.33016" stroke-linejoin="round" stroke-miterlimit="10" fill="none" fill-rule="evenodd" transform="matrix(6.12791e-17 1.00076 -1 6.12323e-17 1222.24 -1377.93)"/><path d="M1856.52 682.043 2423.32 682.043" stroke="#BCCEE7" stroke-width="2.33016" stroke-linejoin="round" stroke-miterlimit="10" fill="none" fill-rule="evenodd" transform="matrix(6.12791e-17 1.00076 -1 6.12323e-17 1222.24 -1377.93)"/><path d="M1856.52 717.245 2245.76 717.245" stroke="#BCCEE7" stroke-width="2.33016" stroke-linejoin="round" stroke-miterlimit="10" fill="none" fill-rule="evenodd" transform="matrix(6.12791e-17 1.00076 -1 6.12323e-17 1222.24 -1377.93)"/><path d="M2245.76 717.245 2423.32 717.245" stroke="#BCCEE7" stroke-width="2.33016" stroke-linejoin="round" stroke-miterlimit="10" fill="none" fill-rule="evenodd" transform="matrix(6.12791e-17 1.00076 -1 6.12323e-17 1222.24 -1377.93)"/><path d="M1856.52 752.441 2245.76 752.441" stroke="#BCCEE7" stroke-width="2.33016" stroke-linejoin="round" stroke-miterlimit="10" fill="none" fill-rule="evenodd" transform="matrix(6.12791e-17 1.00076 -1 6.12323e-17 1222.24 -1377.93)"/><path d="M2245.76 752.441 2423.32 752.441" stroke="#BCCEE7" stroke-width="2.33016" stroke-linejoin="round" stroke-miterlimit="10" fill="none" fill-rule="evenodd" transform="matrix(6.12791e-17 1.00076 -1 6.12323e-17 1222.24 -1377.93)"/><path d="M1856.52 787.643 1928.24 787.643" stroke="#BCCEE7" stroke-width="2.33016" stroke-linejoin="round" stroke-miterlimit="10" fill="none" fill-rule="evenodd" transform="matrix(6.12791e-17 1.00076 -1 6.12323e-17 1222.24 -1377.93)"/><path d="M1928.24 787.643 1998.8 787.643" stroke="#BCCEE7" stroke-width="2.33016" stroke-linejoin="round" stroke-miterlimit="10" fill="none" fill-rule="evenodd" transform="matrix(6.12791e-17 1.00076 -1 6.12323e-17 1222.24 -1377.93)"/><path d="M1998.8 787.643 2245.76 787.643" stroke="#BCCEE7" stroke-width="2.33016" stroke-linejoin="round" stroke-miterlimit="10" fill="none" fill-rule="evenodd" transform="matrix(6.12791e-17 1.00076 -1 6.12323e-17 1222.24 -1377.93)"/><path d="M2245.76 787.643 2423.32 787.643" stroke="#BCCEE7" stroke-width="2.33016" stroke-linejoin="round" stroke-miterlimit="10" fill="none" fill-rule="evenodd" transform="matrix(6.12791e-17 1.00076 -1 6.12323e-17 1222.24 -1377.93)"/><path d="M1856.52 822.844 1892.96 822.844" stroke="#BCCEE7" stroke-width="2.33016" stroke-linejoin="round" stroke-miterlimit="10" fill="none" fill-rule="evenodd" transform="matrix(6.12791e-17 1.00076 -1 6.12323e-17 1222.24 -1377.93)"/><path d="M1892.96 822.844 1998.8 822.844" stroke="#BCCEE7" stroke-width="2.33016" stroke-linejoin="round" stroke-miterlimit="10" fill="none" fill-rule="evenodd" transform="matrix(6.12791e-17 1.00076 -1 6.12323e-17 1222.24 -1377.93)"/><path d="M1998.8 822.844 2245.76 822.844" stroke="#BCCEE7" stroke-width="2.33016" stroke-linejoin="round" stroke-miterlimit="10" fill="none" fill-rule="evenodd" transform="matrix(6.12791e-17 1.00076 -1 6.12323e-17 1222.24 -1377.93)"/><path d="M2245.76 822.844 2423.32 822.844" stroke="#BCCEE7" stroke-width="2.33016" stroke-linejoin="round" stroke-miterlimit="10" fill="none" fill-rule="evenodd" transform="matrix(6.12791e-17 1.00076 -1 6.12323e-17 1222.24 -1377.93)"/><path d="M1856.52 858.041 1928.24 858.041" stroke="#BCCEE7" stroke-width="2.33016" stroke-linejoin="round" stroke-miterlimit="10" fill="none" fill-rule="evenodd" transform="matrix(6.12791e-17 1.00076 -1 6.12323e-17 1222.24 -1377.93)"/><path d="M1928.24 858.041 1998.8 858.041" stroke="#BCCEE7" stroke-width="2.33016" stroke-linejoin="round" stroke-miterlimit="10" fill="none" fill-rule="evenodd" transform="matrix(6.12791e-17 1.00076 -1 6.12323e-17 1222.24 -1377.93)"/><path d="M1998.8 858.041 2245.76 858.041" stroke="#BCCEE7" stroke-width="2.33016" stroke-linejoin="round" stroke-miterlimit="10" fill="none" fill-rule="evenodd" transform="matrix(6.12791e-17 1.00076 -1 6.12323e-17 1222.24 -1377.93)"/><path d="M2245.76 858.041 2423.32 858.041" stroke="#BCCEE7" stroke-width="2.33016" stroke-linejoin="round" stroke-miterlimit="10" fill="none" fill-rule="evenodd" transform="matrix(6.12791e-17 1.00076 -1 6.12323e-17 1222.24 -1377.93)"/><path d="M1856.52 893.243 2245.76 893.243" stroke="#BCCEE7" stroke-width="2.33016" stroke-linejoin="round" stroke-miterlimit="10" fill="none" fill-rule="evenodd" transform="matrix(6.12791e-17 1.00076 -1 6.12323e-17 1222.24 -1377.93)"/><path d="M2245.76 893.243 2423.32 893.243" stroke="#BCCEE7" stroke-width="2.33016" stroke-linejoin="round" stroke-miterlimit="10" fill="none" fill-rule="evenodd" transform="matrix(6.12791e-17 1.00076 -1 6.12323e-17 1222.24 -1377.93)"/><path d="M1856.52 928.439 2245.76 928.439" stroke="#BCCEE7" stroke-width="2.33016" stroke-linejoin="round" stroke-miterlimit="10" fill="none" fill-rule="evenodd" transform="matrix(6.12791e-17 1.00076 -1 6.12323e-17 1222.24 -1377.93)"/><path d="M2245.76 928.439 2423.32 928.439" stroke="#BCCEE7" stroke-width="2.33016" stroke-linejoin="round" stroke-miterlimit="10" fill="none" fill-rule="evenodd" transform="matrix(6.12791e-17 1.00076 -1 6.12323e-17 1222.24 -1377.93)"/><path d="M1856.52 963.641 2245.76 963.641" stroke="#BCCEE7" stroke-width="2.33016" stroke-linejoin="round" stroke-miterlimit="10" fill="none" fill-rule="evenodd" transform="matrix(6.12791e-17 1.00076 -1 6.12323e-17 1222.24 -1377.93)"/><path d="M2245.76 963.641 2423.32 963.641" stroke="#BCCEE7" stroke-width="2.33016" stroke-linejoin="round" stroke-miterlimit="10" fill="none" fill-rule="evenodd" transform="matrix(6.12791e-17 1.00076 -1 6.12323e-17 1222.24 -1377.93)"/><path d="M1856.52 998.842 2245.76 998.842" stroke="#BCCEE7" stroke-width="2.33016" stroke-linejoin="round" stroke-miterlimit="10" fill="none" fill-rule="evenodd" transform="matrix(6.12791e-17 1.00076 -1 6.12323e-17 1222.24 -1377.93)"/><path d="M2245.76 998.842 2423.32 998.842" stroke="#BCCEE7" stroke-width="2.33016" stroke-linejoin="round" stroke-miterlimit="10" fill="none" fill-rule="evenodd" transform="matrix(6.12791e-17 1.00076 -1 6.12323e-17 1222.24 -1377.93)"/><path d="M1857.68 469.681 1857.68 1035.2" stroke="#BCCEE7" stroke-width="2.33016" stroke-linejoin="round" stroke-miterlimit="10" fill="none" fill-rule="evenodd" transform="matrix(6.12791e-17 1.00076 -1 6.12323e-17 1222.24 -1377.93)"/><path d="M2422.16 469.681 2422.16 1035.2" stroke="#BCCEE7" stroke-width="2.33016" stroke-linejoin="round" stroke-miterlimit="10" fill="none" fill-rule="evenodd" transform="matrix(6.12791e-17 1.00076 -1 6.12323e-17 1222.24 -1377.93)"/><path d="M1856.52 470.846 2423.32 470.846" stroke="#BCCEE7" stroke-width="2.33016" stroke-linejoin="round" stroke-miterlimit="10" fill="none" fill-rule="evenodd" transform="matrix(6.12791e-17 1.00076 -1 6.12323e-17 1222.24 -1377.93)"/><path d="M1856.52 1034.04 2423.32 1034.04" stroke="#BCCEE7" stroke-width="2.33016" stroke-linejoin="round" stroke-miterlimit="10" fill="none" fill-rule="evenodd" transform="matrix(6.12791e-17 1.00076 -1 6.12323e-17 1222.24 -1377.93)"/><path d="M1859.47 470.015 2424.3 470.015 2424.3 1033.32 1859.47 1033.32Z" stroke="#9DACBF" stroke-width="1.74762" stroke-miterlimit="8" fill="none" transform="matrix(6.12791e-17 1.00076 -1 6.12323e-17 1222.24 -1377.93)"/><path d="M2177.22 611.35 2424.07 611.35" stroke="#607796" stroke-width="3.49525" stroke-miterlimit="8" stroke-dasharray="13.981 10.4857" fill="none" fill-rule="evenodd" transform="matrix(6.12791e-17 1.00076 -1 6.12323e-17 1222.24 -1377.93)"/><path d="M0 0 0.000183477 71.0442" stroke="#607796" stroke-width="3.49525" stroke-miterlimit="8" stroke-dasharray="13.981 10.4857" fill="none" fill-rule="evenodd" transform="matrix(6.12791e-17 1.00076 1 -6.12323e-17 681.177 693.594)"/><path d="M0 0 0.000183477 35.6075" stroke="#607796" stroke-width="3.49525" stroke-miterlimit="8" stroke-dasharray="13.981 10.4857" fill="none" fill-rule="evenodd" transform="matrix(6.12791e-17 1.00076 1 -6.12323e-17 612.39 799.931)"/><path d="M0 0 70.7758 0.000183477" stroke="#607796" stroke-width="3.49525" stroke-miterlimit="8" stroke-dasharray="13.981 10.4857" fill="none" fill-rule="evenodd" transform="matrix(-6.12791e-17 -1.00076 -1 6.12323e-17 681.045 765.44)"/><path d="M0 0 0.000183477 35.6504" stroke="#607796" stroke-width="3.49525" stroke-miterlimit="8" stroke-dasharray="13.981 10.4857" fill="none" fill-rule="evenodd" transform="matrix(6.12791e-17 1.00076 1 -6.12323e-17 645.396 764.316)"/><path d="M0 0 35.3921 0.218522" stroke="#607796" stroke-width="3.49525" stroke-miterlimit="8" stroke-dasharray="13.981 10.4857" fill="none" fill-rule="evenodd" transform="matrix(-6.12791e-17 -1.00076 -1 6.12323e-17 647.999 801.259)"/><path d="M2034.36 997.734 2034.36 1033.28" stroke="#607796" stroke-width="3.49525" stroke-miterlimit="8" stroke-dasharray="13.981 10.4857" fill="none" fill-rule="evenodd" transform="matrix(6.12791e-17 1.00076 -1 6.12323e-17 1222.24 -1377.93)"/><path d="M1859.47 997.734 2035.4 997.734" stroke="#607796" stroke-width="3.49525" stroke-miterlimit="8" stroke-dasharray="13.981 10.4857" fill="none" fill-rule="evenodd" transform="matrix(6.12791e-17 1.00076 -1 6.12323e-17 1222.24 -1377.93)"/><path d="M0 0 0.000183477 142.87" stroke="#607796" stroke-width="3.49525" stroke-miterlimit="8" stroke-dasharray="13.981 10.4857" fill="none" fill-rule="evenodd" transform="matrix(6.12791e-17 1.00076 1 -6.12323e-17 188.904 1012.1)"/><path d="M0 0 35.3921 0.218522" stroke="#607796" stroke-width="3.49525" stroke-miterlimit="8" stroke-dasharray="13.981 10.4857" fill="none" fill-rule="evenodd" transform="matrix(-6.12791e-17 -1.00076 -1 6.12323e-17 329.741 1048.02)"/><path d="M1859.98 470.015 2071.44 470.015" stroke="#607796" stroke-width="3.49525" stroke-miterlimit="8" stroke-dasharray="13.981 10.4857" fill="none" fill-rule="evenodd" transform="matrix(6.12791e-17 1.00076 -1 6.12323e-17 1222.24 -1377.93)"/><path d="M1858.45 470.015 1858.45 997.953" stroke="#607796" stroke-width="3.49525" stroke-miterlimit="8" stroke-dasharray="13.981 10.4857" fill="none" fill-rule="evenodd" transform="matrix(6.12791e-17 1.00076 -1 6.12323e-17 1222.24 -1377.93)"/><path d="M2035.89 1033.32 2389.04 1033.32" stroke="#607796" stroke-width="3.49525" stroke-miterlimit="8" stroke-dasharray="13.981 10.4857" fill="none" fill-rule="evenodd" transform="matrix(6.12791e-17 1.00076 -1 6.12323e-17 1222.24 -1377.93)"/><path d="M2423.29 609.825 2423.29 892.104" stroke="#607796" stroke-width="3.49525" stroke-miterlimit="8" stroke-dasharray="13.981 10.4857" fill="none" fill-rule="evenodd" transform="matrix(6.12791e-17 1.00076 -1 6.12323e-17 1222.24 -1377.93)"/><path d="M2.62144 7.86453 2.62161 414.194-2.62126 414.194-2.62143 7.86453ZM-7.86428 10.4857 0 0 7.86433 10.4857ZM7.86448 411.572 0.000183477 422.058-7.86413 411.572Z" fill="#548235" transform="matrix(6.12791e-17 1.00076 1 -6.12323e-17 190.607 852.082)"/><path d="M7.86453-2.62143 521.221-2.62125 521.221 2.62162 7.86453 2.62144ZM10.4857 7.86433 0 0 10.4857-7.86428ZM518.598-7.86413 529.086 0.000183477 518.598 7.86448Z" fill="#548235" transform="matrix(-6.12791e-17 -1.00076 -1 6.12323e-17 312.201 1012.19)"/><path d="M2244.58 918.169 2228.57 918.169 2228.57 926.812 2212.55 909.527 2228.57 892.241 2228.57 900.884 2244.58 900.884Z" stroke="#548235" stroke-width="1.16508" stroke-miterlimit="8" fill="#C5E0B4" fill-rule="evenodd" transform="matrix(6.12791e-17 1.00076 -1 6.12323e-17 1222.24 -1377.93)"/></g></g></g></g><rect x="1178.5" y="1073.5" width="440" height="122" stroke="#607796" stroke-width="4.58333" stroke-linejoin="round" stroke-miterlimit="10" stroke-dasharray="18.3333 13.75" fill="#EDEFF3"/><text fill="#576C87" font-family="SimSun,SimSun_MSFontService,sans-serif" font-weight="400" font-size="73" transform="matrix(1 0 0 1 1324.21 1165)">conv</text><rect x="1176.5" y="1280.5" width="440" height="122" stroke="#607796" stroke-width="4.58333" stroke-linejoin="round" stroke-miterlimit="10" stroke-dasharray="18.3333 13.75" fill="#EDEFF3"/><text fill="#576C87" font-family="SimSun,SimSun_MSFontService,sans-serif" font-weight="400" font-size="73" transform="matrix(1 0 0 1 1249.5 1373)">max_pool</text><path d="M1401.31 1195.5 1401.31 1242.77 1396.5 1242.77 1399.94 1239.34 1399.94 1260.26 1393.06 1260.26 1393.06 1235.9 1397.87 1235.9 1394.44 1239.34 1394.44 1195.5ZM1410.25 1255.67 1396.5 1283.17 1382.75 1255.67Z" fill="#607796"/><rect x="1178.5" y="1488.5" width="440" height="122" stroke="#607796" stroke-width="4.58333" stroke-linejoin="round" stroke-miterlimit="10" stroke-dasharray="18.3333 13.75" fill="#EDEFF3"/><text fill="#576C87" font-family="SimSun,SimSun_MSFontService,sans-serif" font-weight="400" font-size="73" transform="matrix(1 0 0 1 1324.21 1580)">conv</text><rect x="1176.5" y="1695.5" width="440" height="122" stroke="#607796" stroke-width="4.58333" stroke-linejoin="round" stroke-miterlimit="10" stroke-dasharray="18.3333 13.75" fill="#EDEFF3"/><text fill="#576C87" font-family="SimSun,SimSun_MSFontService,sans-serif" font-weight="400" font-size="73" transform="matrix(1 0 0 1 1249.5 1788)">max_pool</text><path d="M1401.31 1610.5 1401.31 1656.57 1396.5 1656.57 1399.94 1653.14 1399.94 1672.86 1393.06 1672.86 1393.06 1649.7 1397.87 1649.7 1394.44 1653.14 1394.44 1610.5ZM1410.25 1668.27 1396.5 1695.77 1382.75 1668.27Z" fill="#607796"/><path d="M0-3.4375 46.075-3.4375 46.075 1.37464 42.6375-2.06286 62.3582-2.06286 62.3582 4.81214 39.2 4.81214 39.2 0 42.6375 3.4375 0 3.4375ZM57.7749-12.3754 85.2749 1.37464 57.7749 15.1246Z" fill="#607796" transform="matrix(1.83697e-16 1 1 -1.83697e-16 1396.5 1402.5)"/><path d="M754.5 1549.06 945.778 1549.06 945.778 1555.94 754.5 1555.94ZM941.195 1538.75 968.695 1552.5 941.195 1566.25Z" fill="#607796"/><rect x="969.5" y="1023.5" width="689" height="1059" stroke="#607796" stroke-width="6.875" stroke-miterlimit="8" stroke-dasharray="27.5 20.625" fill="none"/><rect x="1181.5" y="1904.5" width="435" height="122" stroke="#607796" stroke-width="4.58333" stroke-linejoin="round" stroke-miterlimit="10" stroke-dasharray="18.3333 13.75" fill="#EDEFF3"/><text fill="#576C87" font-family="SimSun,SimSun_MSFontService,sans-serif" font-weight="400" font-size="73" transform="matrix(1 0 0 1 1270.21 1996)">flatten</text><path d="M0-3.4375 46.8236-3.4375 46.8236 2.38009 43.3861-1.05741 63.8556-1.05741 63.8556 5.81759 39.9486 5.81759 39.9486 0 43.3861 3.4375 0 3.4375ZM59.2722-11.3699 86.7722 2.38009 59.2722 16.1301Z" fill="#607796" transform="matrix(1.83697e-16 1 1 -1.83697e-16 1396.5 1817.5)"/><text fill="#607796" font-family="SimSun,SimSun_MSFontService,sans-serif" font-weight="700" font-size="64" transform="matrix(1 0 0 1 1033.12 1382)">特<tspan font-size="64" x="0" y="77">征</tspan><tspan font-size="64" x="0" y="154">提</tspan><tspan font-size="64" x="0" y="231">取</tspan><tspan font-size="64" x="0" y="308">网</tspan><tspan font-size="64" x="0" y="385">络</tspan></text><rect x="2091.5" y="933.5" width="252" height="122" stroke="#607796" stroke-width="4.58333" stroke-linejoin="round" stroke-miterlimit="10" stroke-dasharray="18.3333 13.75" fill="#EDEFF3"/><text fill="#576C87" font-family="SimSun,SimSun_MSFontService,sans-serif" font-weight="400" font-size="73" transform="matrix(1 0 0 1 2125.18 1025)">dense</text><path d="M1441.5 757.062 2173.08 757.062 2173.08 827.009 2166.21 827.009 2166.21 760.5 2169.64 763.937 1441.5 763.937ZM2183.39 822.426 2169.64 849.926 2155.89 822.426Z" fill="#607796"/><rect x="2088.5" y="1163.5" width="256" height="122" stroke="#607796" stroke-width="4.58333" stroke-linejoin="round" stroke-miterlimit="10" stroke-dasharray="18.3333 13.75" fill="#EDEFF3"/><text fill="#576C87" font-family="SimSun,SimSun_MSFontService,sans-serif" font-weight="400" font-size="73" transform="matrix(1 0 0 1 2124.38 1255)">dense</text><path d="M3.4374-0.0256411 4.07053 84.8504-2.80428 84.9017-3.4374 0.0256411ZM14.3486 80.1903 0.804068 107.792-13.1507 80.3954Z" fill="#607796" transform="matrix(-1 0 0 1 2217.3 1055.5)"/><rect x="1924.5" y="849.5" width="491" height="535" stroke="#607796" stroke-width="6.875" stroke-miterlimit="8" stroke-dasharray="27.5 20.625" fill="none"/><text fill="#607796" font-family="SimSun,SimSun_MSFontService,sans-serif" font-weight="700" font-size="64" transform="matrix(1 0 0 1 1976.72 940)">特<tspan font-size="64" x="0" y="77">征</tspan><tspan font-size="64" x="0" y="154">融</tspan><tspan font-size="64" x="0" y="231">合</tspan><tspan font-size="64" x="0" y="308">网</tspan><tspan font-size="64" x="0" y="385">络</tspan><tspan font-size="64" x="-1932.19" y="122">数</tspan><tspan font-size="64" x="-1932.19" y="199">据</tspan><tspan font-size="64" x="-1932.19" y="276">初</tspan><tspan font-size="64" x="-1932.19" y="353">始</tspan><tspan font-size="64" x="-1932.19" y="430">化</tspan></text><rect x="1744.5" y="1497.5" width="402" height="123" stroke="#607796" stroke-width="4.58333" stroke-linejoin="round" stroke-miterlimit="10" stroke-dasharray="18.3333 13.75" fill="#EDEFF3"/><text fill="#576C87" font-family="SimSun,SimSun_MSFontService,sans-serif" font-weight="400" font-size="73" transform="matrix(1 0 0 1 1798.45 1590)">噪声网络</text><path d="M2173.37 1384.5 2173.37 1444.72 1945.5 1444.72 1948.94 1441.29 1948.94 1475.16 1942.06 1475.16 1942.06 1437.85 2169.94 1437.85 2166.5 1441.29 2166.5 1384.5ZM1959.25 1470.57 1945.5 1498.07 1931.75 1470.57Z" fill="#607796"/><text fill="#576C87" font-family="SimSun,SimSun_MSFontService,sans-serif" font-weight="400" font-size="73" transform="matrix(1 0 0 1 2243.58 1125)">relu</text><path d="M2219.94 1285.5 2219.94 1367.09 2213.06 1367.09 2213.06 1285.5ZM2230.25 1362.51 2216.5 1390.01 2202.75 1362.51Z" fill="#607796"/><text fill="#576C87" font-family="SimSun,SimSun_MSFontService,sans-serif" font-weight="400" font-size="73" transform="matrix(1 0 0 1 2243.58 1347)">relu</text><rect x="2183.5" y="1497.5" width="402" height="123" stroke="#607796" stroke-width="4.58333" stroke-linejoin="round" stroke-miterlimit="10" stroke-dasharray="18.3333 13.75" fill="#EDEFF3"/><text fill="#576C87" font-family="SimSun,SimSun_MSFontService,sans-serif" font-weight="400" font-size="73" transform="matrix(1 0 0 1 2237.64 1590)">噪声网络</text><path d="M0-3.4375 60.2246-3.4375 60.2246 214.754 56.7871 211.317 90.6572 211.317 90.6572 218.192 53.3496 218.192 53.3496 0 56.7871 3.4375 0 3.4375ZM86.0739 201.004 113.574 214.754 86.0739 228.504Z" fill="#607796" transform="matrix(1.83697e-16 1 1 -1.83697e-16 2170.5 1384.5)"/><path d="M0-3.4375 73.9349-3.4375 73.9349 219.852 70.4974 216.415 118.078 216.415 118.078 223.29 67.0599 223.29 67.0599 0 70.4974 3.4375 0 3.4375ZM113.495 206.102 140.995 219.852 113.495 233.602Z" fill="#607796" transform="matrix(1.83697e-16 1 1 -1.83697e-16 1950.5 1819.5)"/><path d="M2393.27 1819.5 2393.27 1893.43 2170.5 1893.43 2173.94 1890 2173.94 1937.58 2167.06 1937.58 2167.06 1886.56 2389.84 1886.56 2386.4 1890 2386.4 1819.5ZM2184.25 1932.99 2170.5 1960.49 2156.75 1932.99Z" fill="#607796"/><rect x="1968.5" y="1960.5" width="403" height="122" stroke="#607796" stroke-width="4.58333" stroke-linejoin="round" stroke-miterlimit="10" stroke-dasharray="18.3333 13.75" fill="#EDEFF3"/><text fill="#576C87" font-family="SimSun,SimSun_MSFontService,sans-serif" font-weight="400" font-size="73" transform="matrix(1 0 0 1 2114.55 2052)">Q<tspan font-size="73" x="36.6665" y="0">值</tspan></text></g></svg>