<svg width="387" height="569" xmlns="http://www.w3.org/2000/svg" xmlns:xlink="http://www.w3.org/1999/xlink" overflow="hidden"><defs><clipPath id="clip0"><rect x="1491" y="1745" width="387" height="569"/></clipPath></defs><g clip-path="url(#clip0)" transform="translate(-1491 -1745)"><rect x="1685" y="1746" width="188" height="187" fill="#607796"/><rect x="1685" y="1933" width="188" height="187" fill="#607796"/><rect x="1686" y="2119" width="187" height="187" fill="#607796"/><path d="M1779 1746 1779.14 2306.07" stroke="#FFFFFF" stroke-width="13.75" stroke-miterlimit="8" stroke-dasharray="55 41.25" fill="none" fill-rule="evenodd"/><rect x="1498" y="1933" width="187" height="187" fill="#607796"/><path d="M0 0 374.741 0.0166011" stroke="#FFFFFF" stroke-width="13.75" stroke-miterlimit="8" stroke-dasharray="55 41.25" fill="none" fill-rule="evenodd" transform="matrix(-1 0 0 1 1872.74 2026)"/><path d="M0 13.75 41.5001 13.75 41.5001 0 69.0001 27.5 41.5001 55 41.5001 41.25 0 41.25Z" stroke="#548235" stroke-width="2.29167" stroke-miterlimit="8" fill="#C5E0B4" fill-rule="evenodd" transform="matrix(1 -1.22465e-16 -1.22465e-16 -1 1740 2001)"/><path d="M0 13.75 41.5001 13.75 41.5001 0 69.0001 27.5 41.5001 55 41.5001 41.25 0 41.25Z" stroke="#548235" stroke-width="2.29167" stroke-miterlimit="8" fill="#C5E0B4" fill-rule="evenodd" transform="matrix(1 -1.22465e-16 -1.22465e-16 -1 1531 2001)"/><text fill="#C5E0B4" font-family="Cambria Math,Cambria Math_MSFontService,sans-serif" font-weight="400" font-size="37" transform="translate(1611.12 1968)">𝒔<tspan font-size="27" x="18.3333" y="8">𝟏</tspan><tspan font-size="37" x="203.17" y="0">𝒔</tspan><tspan font-size="27" x="221.503" y="8">𝟐</tspan></text></g></svg>