<svg width="407" height="398" xmlns="http://www.w3.org/2000/svg" xmlns:xlink="http://www.w3.org/1999/xlink" overflow="hidden"><defs><clipPath id="clip0"><rect x="863" y="1917" width="407" height="398"/></clipPath></defs><g clip-path="url(#clip0)" transform="translate(-863 -1917)"><rect x="1061" y="1933" width="188" height="187" fill="#607796"/><rect x="1061" y="2120" width="188" height="187" fill="#607796"/><path d="M0 0 0.141831 187.019" stroke="#FFFFFF" stroke-width="13.75" stroke-miterlimit="8" stroke-dasharray="55 41.25" fill="none" fill-rule="evenodd" transform="matrix(-1 0 0 1 1155.14 2120)"/><path d="M1061 2026 1155.53 2026 1155.53 2024.15 1154.69 2024.15 1154.69 2119.54" stroke="#FFFFFF" stroke-width="13.75" stroke-miterlimit="8" stroke-dasharray="55 41.25" fill="none" fill-rule="evenodd"/><rect x="874" y="1933" width="188" height="187" fill="#607796"/><path d="M0 0 187.23 0.000360892" stroke="#FFFFFF" stroke-width="13.75" stroke-miterlimit="8" stroke-dasharray="55 41.25" fill="none" fill-rule="evenodd" transform="matrix(-1 0 0 1 1061.23 2026)"/><path d="M0 105 0 59.0626C0 33.692 20.5669 13.125 45.9376 13.125L79.7498 13.125 79.7498 0 106 26.25 79.7498 52.5001 79.7498 39.3751 45.9376 39.3751C35.0644 39.3751 26.25 48.1895 26.25 59.0626L26.25 105Z" stroke="#548235" stroke-width="2.29167" stroke-miterlimit="8" fill="#C5E0B4" fill-rule="evenodd" transform="matrix(-1 0 0 1 1217 1946)"/><path d="M0 0 95.2759 0 95.2759 83.2302 93.5444 83.2302 93.5444 93.5433" stroke="#FFFFFF" stroke-width="13.75" stroke-miterlimit="8" stroke-dasharray="55 41.25" fill="none" fill-rule="evenodd" transform="matrix(-1 1.22465e-16 1.22465e-16 1 1072.54 2026)"/><path d="M1072.54 2026.54 985.69 2026.54 985.69 2027.88 979 2027.88 979 1933" stroke="#FFFFFF" stroke-width="13.75" stroke-miterlimit="8" stroke-dasharray="55 41.25" fill="none" fill-rule="evenodd"/><path d="M1061 2004 1030.38 2004C1013.46 2004 999.75 1990.29 999.75 1973.37L999.75 1950.5 991 1950.5 1008.5 1933 1026 1950.5 1017.25 1950.5 1017.25 1973.37C1017.25 1980.62 1023.13 1986.5 1030.38 1986.5L1061 1986.5Z" stroke="#548235" stroke-width="2.29167" stroke-miterlimit="8" fill="#C5E0B4" fill-rule="evenodd"/><path d="M945 2010.25 904.5 2010.25 904.5 2024 877 1996.5 904.5 1969 904.5 1982.75 945 1982.75Z" stroke="#548235" stroke-width="2.29167" stroke-miterlimit="8" fill="#C5E0B4" fill-rule="evenodd"/><path d="M0 70.0001 0 39.3751C0 22.4613 13.7113 8.75002 30.625 8.75002L53.5001 8.75002 53.5001 0 71.0002 17.5 53.5001 35.0001 53.5001 26.25 30.625 26.25C23.3763 26.25 17.5 32.1263 17.5 39.3751L17.5 70.0001Z" stroke="#548235" stroke-width="2.29167" stroke-miterlimit="8" fill="#C5E0B4" fill-rule="evenodd" transform="matrix(1.83697e-16 1 1 -1.83697e-16 991 2041)"/><text fill="#C5E0B4" font-family="Cambria Math,Cambria Math_MSFontService,sans-serif" font-weight="400" font-size="37" transform="translate(1206.09 1968)">𝒔<tspan font-size="27" x="18.3334" y="8">𝟏</tspan><tspan font-size="37" x="-309.737" y="0">𝒔</tspan><tspan font-size="27" x="-291.404" y="8">𝟐</tspan><tspan font-size="27" x="-275.362" y="8">−</tspan><tspan font-size="27" x="-255.883" y="8">𝟏</tspan><tspan font-size="37" x="-181.077" y="0">𝒔</tspan><tspan font-size="27" x="-162.743" y="8">𝟐</tspan><tspan font-size="27" x="-146.702" y="8">−</tspan><tspan font-size="27" x="-127.223" y="8">𝟐</tspan><tspan font-size="37" x="-181.077" y="121">𝒔</tspan><tspan font-size="27" x="-162.743" y="128">𝟐</tspan><tspan font-size="27" x="-146.702" y="128">−</tspan><tspan font-size="27" x="-127.223" y="128">𝟑</tspan></text></g></svg>