<svg width="414" height="382" xmlns="http://www.w3.org/2000/svg" xmlns:xlink="http://www.w3.org/1999/xlink" overflow="hidden"><defs><clipPath id="clip0"><rect x="1245" y="1572" width="414" height="382"/></clipPath></defs><g clip-path="url(#clip0)" transform="translate(-1245 -1572)"><rect x="1450" y="1572" width="187" height="187" fill="#607796"/><rect x="1450" y="1759" width="187" height="187" fill="#607796"/><path d="M0 0 0.141831 187.019" stroke="#FFFFFF" stroke-width="13.75" stroke-miterlimit="8" stroke-dasharray="55 41.25" fill="none" fill-rule="evenodd" transform="matrix(-1 0 0 1 1543.14 1759)"/><path d="M1450 1666 1544.53 1666 1544.53 1664.15 1543.69 1664.15 1543.69 1759.54" stroke="#FFFFFF" stroke-width="13.75" stroke-miterlimit="8" stroke-dasharray="55 41.25" fill="none" fill-rule="evenodd"/><rect x="1263" y="1572" width="187" height="187" fill="#607796"/><rect x="1263" y="1759" width="187" height="187" fill="#607796"/><path d="M0 0 0.141831 187.019" stroke="#FFFFFF" stroke-width="13.75" stroke-miterlimit="8" stroke-dasharray="55 41.25" fill="none" fill-rule="evenodd" transform="matrix(-1 0 0 1 1356.14 1759)"/><path d="M0 0 95.2759 0 95.2759 83.2302 93.5444 83.2302 93.5444 93.5433" stroke="#FFFFFF" stroke-width="13.75" stroke-miterlimit="8" stroke-dasharray="55 41.25" fill="none" fill-rule="evenodd" transform="matrix(-1 1.22465e-16 1.22465e-16 1 1449.54 1666)"/><path d="M0 104 0 58.4999C-1.34952e-14 33.371 20.371 13.0001 45.4998 13.0001L80 12.9999 80 0 106 26 80 51.9999 80 39 45.4998 39C34.7303 39 25.9999 47.7304 25.9999 58.4999L26 104Z" stroke="#548235" stroke-width="2.29167" stroke-miterlimit="8" fill="#C5E0B4" fill-rule="evenodd" transform="matrix(-1 0 0 1 1606 1586)"/><path d="M0 104 0 58.4999C-1.34952e-14 33.3711 20.371 13.0001 45.4998 13.0001L80 12.9999 80 0 106 26 80 51.9999 80 39 45.4998 39C34.7303 39 25.9999 47.7304 25.9999 58.4999L26 104Z" stroke="#548235" stroke-width="2.29167" stroke-miterlimit="8" fill="#C5E0B4" fill-rule="evenodd" transform="matrix(1.83697e-16 1 1 -1.83697e-16 1284 1600)"/><path d="M0 0 0.000360892 40.4394" stroke="#ECB2B2" stroke-width="4.58333" stroke-miterlimit="8" fill="none" fill-rule="evenodd" transform="matrix(1 0 0 -1 1450.5 1852.94)"/><path d="M0 0 0.000360892 41.7928" stroke="#ECB2B2" stroke-width="4.58333" stroke-miterlimit="8" fill="none" fill-rule="evenodd" transform="matrix(1 0 0 -1 1637.5 1853.29)"/><path d="M0 0 0.000360892 40.4394" stroke="#E18787" stroke-width="4.58333" stroke-miterlimit="8" fill="none" fill-rule="evenodd" transform="matrix(1 0 0 -1 1263.5 1810.94)"/><path d="M1277.25 1789.21 1295.58 1789.21 1295.58 1793.79 1277.25 1793.79ZM1309.33 1789.21 1327.67 1789.21 1327.67 1793.79 1309.33 1793.79ZM1341.42 1789.21 1359.75 1789.21 1359.75 1793.79 1341.42 1793.79ZM1373.5 1789.21 1391.83 1789.21 1391.83 1793.79 1373.5 1793.79ZM1405.58 1789.21 1423.92 1789.21 1423.92 1793.79 1405.58 1793.79ZM1437.67 1789.21 1456 1789.21 1456 1793.79 1437.67 1793.79ZM1469.75 1789.21 1488.08 1789.21 1488.08 1793.79 1469.75 1793.79ZM1501.83 1789.21 1520.17 1789.21 1520.17 1793.79 1501.83 1793.79ZM1533.92 1789.21 1552.25 1789.21 1552.25 1793.79 1533.92 1793.79ZM1566 1789.21 1584.33 1789.21 1584.33 1793.79 1566 1793.79ZM1598.08 1789.21 1616.42 1789.21 1616.42 1793.79 1598.08 1793.79ZM1281.83 1800.67 1263.5 1791.5 1281.83 1782.33ZM1619.48 1782.33 1637.82 1791.5 1619.48 1800.67Z" fill="#E18787"/><path d="M1464.25 1830.21 1482.58 1830.21 1482.58 1834.79 1464.25 1834.79ZM1496.33 1830.21 1514.67 1830.21 1514.67 1834.79 1496.33 1834.79ZM1528.42 1830.21 1546.75 1830.21 1546.75 1834.79 1528.42 1834.79ZM1560.5 1830.21 1578.83 1830.21 1578.83 1834.79 1560.5 1834.79ZM1592.58 1830.21 1610.92 1830.21 1610.92 1834.79 1592.58 1834.79ZM1624.67 1830.21 1626.61 1830.21 1626.61 1834.79 1624.67 1834.79ZM1468.83 1841.67 1450.5 1832.5 1468.83 1823.33ZM1622.03 1823.33 1640.36 1832.5 1622.03 1841.67Z" fill="#ECB2B2"/><path d="M0 0 0.000360892 40.4394" stroke="#E18787" stroke-width="4.58333" stroke-miterlimit="8" fill="none" fill-rule="evenodd" transform="matrix(1 0 0 -1 1637.5 1810.94)"/><text fill="#EDEFF3" font-family="Cambria Math,Cambria Math_MSFontService,sans-serif" font-weight="400" font-size="37" transform="translate(1438.58 1784)">𝑊<tspan font-size="37" x="111.457" y="82">𝑊</tspan><tspan font-size="27" x="138.521" y="89">max</tspan></text></g></svg>