<svg width="1243" height="1415" xmlns="http://www.w3.org/2000/svg" xmlns:xlink="http://www.w3.org/1999/xlink" overflow="hidden"><defs><clipPath id="clip0"><rect x="1605" y="845" width="1243" height="1415"/></clipPath><clipPath id="clip1"><rect x="1885" y="844" width="70" height="270"/></clipPath><clipPath id="clip2"><rect x="1885" y="844" width="70" height="270"/></clipPath><clipPath id="clip3"><rect x="1954" y="844" width="71" height="270"/></clipPath><clipPath id="clip4"><rect x="1954" y="844" width="71" height="270"/></clipPath><clipPath id="clip5"><rect x="2024" y="844" width="70" height="270"/></clipPath><clipPath id="clip6"><rect x="2024" y="844" width="70" height="270"/></clipPath><clipPath id="clip7"><rect x="1885" y="913" width="70" height="270"/></clipPath><clipPath id="clip8"><rect x="1885" y="913" width="70" height="270"/></clipPath><clipPath id="clip9"><rect x="1954" y="913" width="71" height="270"/></clipPath><clipPath id="clip10"><rect x="1954" y="913" width="71" height="270"/></clipPath><clipPath id="clip11"><rect x="2024" y="913" width="70" height="270"/></clipPath><clipPath id="clip12"><rect x="2024" y="913" width="70" height="270"/></clipPath><clipPath id="clip13"><rect x="2093" y="1328" width="71" height="271"/></clipPath><clipPath id="clip14"><rect x="2093" y="1328" width="71" height="271"/></clipPath></defs><g clip-path="url(#clip0)" transform="translate(-1605 -845)"><path d="M1677.39 944.167 1746.78 944.167 1746.78 1013.4 1677.39 1013.4Z" fill="#778CA5" fill-rule="evenodd"/><path d="M1746.78 944.167 1816.18 944.167 1816.18 1013.4 1746.78 1013.4Z" fill="#778CA5" fill-rule="evenodd"/><path d="M1816.18 944.167 1885.57 944.167 1885.57 1013.4 1816.18 1013.4Z" fill="#778CA5" fill-rule="evenodd"/><path d="M1885.57 944.167 1954.96 944.167 1954.96 1013.4 1885.57 1013.4Z" fill="#D1D8E1" fill-rule="evenodd"/><path d="M1954.96 944.167 2024.36 944.167 2024.36 1013.4 1954.96 1013.4Z" fill="#D1D8E1" fill-rule="evenodd"/><path d="M2024.36 944.167 2093.75 944.167 2093.75 1013.4 2024.36 1013.4Z" fill="#D1D8E1" fill-rule="evenodd"/><path d="M1677.39 1013.4 1746.78 1013.4 1746.78 1082.64 1677.39 1082.64Z" fill="#778CA5" fill-rule="evenodd"/><path d="M1746.78 1013.4 1816.18 1013.4 1816.18 1082.64 1746.78 1082.64Z" fill="#778CA5" fill-rule="evenodd"/><path d="M1816.18 1013.4 1885.57 1013.4 1885.57 1082.64 1816.18 1082.64Z" fill="#778CA5" fill-rule="evenodd"/><path d="M1885.57 1013.4 1954.96 1013.4 1954.96 1082.64 1885.57 1082.64Z" fill="#D1D8E1" fill-rule="evenodd"/><path d="M1954.96 1013.4 2024.36 1013.4 2024.36 1082.64 1954.96 1082.64Z" fill="#D1D8E1" fill-rule="evenodd"/><path d="M2024.36 1013.4 2093.75 1013.4 2093.75 1082.64 2024.36 1082.64Z" fill="#D1D8E1" fill-rule="evenodd"/><path d="M1607.99 1082.64 1677.39 1082.64 1677.39 1151.88 1607.99 1151.88Z" fill="#778CA5" fill-rule="evenodd"/><path d="M1677.39 1082.64 1746.78 1082.64 1746.78 1151.88 1677.39 1151.88Z" fill="#9DACBF" fill-rule="evenodd"/><path d="M1746.78 1082.64 1816.18 1082.64 1816.18 1151.88 1746.78 1151.88Z" fill="#9DACBF" fill-rule="evenodd"/><path d="M1816.18 1082.64 1885.57 1082.64 1885.57 1151.88 1816.18 1151.88Z" fill="#9DACBF" fill-rule="evenodd"/><path d="M1885.57 1082.64 1954.96 1082.64 1954.96 1151.88 1885.57 1151.88Z" fill="#9DACBF" fill-rule="evenodd"/><path d="M1954.96 1082.64 2024.36 1082.64 2024.36 1151.88 1954.96 1151.88Z" fill="#9DACBF" fill-rule="evenodd"/><path d="M2024.36 1082.64 2093.75 1082.64 2093.75 1151.88 2024.36 1151.88Z" fill="#9DACBF" fill-rule="evenodd"/><path d="M1607.99 1151.88 1677.39 1151.88 1677.39 1221.11 1607.99 1221.11Z" fill="#778CA5" fill-rule="evenodd"/><path d="M1677.39 1151.88 1746.78 1151.88 1746.78 1221.11 1677.39 1221.11Z" fill="#9DACBF" fill-rule="evenodd"/><path d="M1746.78 1151.88 1816.18 1151.88 1816.18 1221.11 1746.78 1221.11Z" fill="#9DACBF" fill-rule="evenodd"/><path d="M1816.18 1151.88 1885.57 1151.88 1885.57 1221.11 1816.18 1221.11Z" fill="#9DACBF" fill-rule="evenodd"/><path d="M1885.57 1151.88 1954.96 1151.88 1954.96 1221.11 1885.57 1221.11Z" fill="#9DACBF" fill-rule="evenodd"/><path d="M1954.96 1151.88 2024.36 1151.88 2024.36 1221.11 1954.96 1221.11Z" fill="#9DACBF" fill-rule="evenodd"/><path d="M2024.36 1151.88 2093.75 1151.88 2093.75 1221.11 2024.36 1221.11Z" fill="#9DACBF" fill-rule="evenodd"/><path d="M2093.75 1151.88 2163.15 1151.88 2163.15 1221.11 2093.75 1221.11Z" fill="#778CA5" fill-rule="evenodd"/><path d="M1607.99 1221.11 1677.39 1221.11 1677.39 1290.35 1607.99 1290.35Z" fill="#778CA5" fill-rule="evenodd"/><path d="M1677.39 1221.11 1746.78 1221.11 1746.78 1290.35 1677.39 1290.35Z" fill="#9DACBF" fill-rule="evenodd"/><path d="M1746.78 1221.11 1816.18 1221.11 1816.18 1290.35 1746.78 1290.35Z" fill="#9DACBF" fill-rule="evenodd"/><path d="M1816.18 1221.11 1885.57 1221.11 1885.57 1290.35 1816.18 1290.35Z" fill="#9DACBF" fill-rule="evenodd"/><path d="M1885.57 1221.11 1954.96 1221.11 1954.96 1290.35 1885.57 1290.35Z" fill="#9DACBF" fill-rule="evenodd"/><path d="M1954.96 1221.11 2024.36 1221.11 2024.36 1290.35 1954.96 1290.35Z" fill="#9DACBF" fill-rule="evenodd"/><path d="M2024.36 1221.11 2093.75 1221.11 2093.75 1290.35 2024.36 1290.35Z" fill="#9DACBF" fill-rule="evenodd"/><path d="M2093.75 1221.11 2163.15 1221.11 2163.15 1290.35 2093.75 1290.35Z" fill="#778CA5" fill-rule="evenodd"/><path d="M1607.99 1290.35 1677.39 1290.35 1677.39 1359.58 1607.99 1359.58Z" fill="#778CA5" fill-rule="evenodd"/><path d="M1677.39 1290.35 1746.78 1290.35 1746.78 1359.58 1677.39 1359.58Z" fill="#9DACBF" fill-rule="evenodd"/><path d="M1746.78 1290.35 1816.18 1290.35 1816.18 1359.58 1746.78 1359.58Z" fill="#9DACBF" fill-rule="evenodd"/><path d="M1816.18 1290.35 1885.57 1290.35 1885.57 1359.58 1816.18 1359.58Z" fill="#9DACBF" fill-rule="evenodd"/><path d="M1885.57 1290.35 1954.96 1290.35 1954.96 1359.58 1885.57 1359.58Z" fill="#9DACBF" fill-rule="evenodd"/><path d="M1954.96 1290.35 2024.36 1290.35 2024.36 1359.58 1954.96 1359.58Z" fill="#9DACBF" fill-rule="evenodd"/><path d="M2024.36 1290.35 2093.75 1290.35 2093.75 1359.58 2024.36 1359.58Z" fill="#9DACBF" fill-rule="evenodd"/><path d="M2093.75 1290.35 2163.15 1290.35 2163.15 1359.58 2093.75 1359.58Z" fill="#778CA5" fill-rule="evenodd"/><path d="M1607.99 1359.58 1677.39 1359.58 1677.39 1428.82 1607.99 1428.82Z" fill="#778CA5" fill-rule="evenodd"/><path d="M1677.39 1359.58 1746.78 1359.58 1746.78 1428.82 1677.39 1428.82Z" fill="#9DACBF" fill-rule="evenodd"/><path d="M1746.78 1359.58 1816.18 1359.58 1816.18 1428.82 1746.78 1428.82Z" fill="#9DACBF" fill-rule="evenodd"/><path d="M1816.18 1359.58 1885.57 1359.58 1885.57 1428.82 1816.18 1428.82Z" fill="#9DACBF" fill-rule="evenodd"/><path d="M1885.57 1359.58 1954.96 1359.58 1954.96 1428.82 1885.57 1428.82Z" fill="#9DACBF" fill-rule="evenodd"/><path d="M1954.96 1359.58 2024.36 1359.58 2024.36 1428.82 1954.96 1428.82Z" fill="#9DACBF" fill-rule="evenodd"/><path d="M2024.36 1359.58 2093.75 1359.58 2093.75 1428.82 2024.36 1428.82Z" fill="#9DACBF" fill-rule="evenodd"/><path d="M2093.75 1359.58 2163.15 1359.58 2163.15 1428.82 2093.75 1428.82Z" fill="#778CA5" fill-rule="evenodd"/><path d="M1607.99 1428.82 1677.39 1428.82 1677.39 1498.06 1607.99 1498.06Z" fill="#778CA5" fill-rule="evenodd"/><path d="M1677.39 1428.82 1746.78 1428.82 1746.78 1498.06 1677.39 1498.06Z" fill="#9DACBF" fill-rule="evenodd"/><path d="M1746.78 1428.82 1816.18 1428.82 1816.18 1498.06 1746.78 1498.06Z" fill="#9DACBF" fill-rule="evenodd"/><path d="M1816.18 1428.82 1885.57 1428.82 1885.57 1498.06 1816.18 1498.06Z" fill="#9DACBF" fill-rule="evenodd"/><path d="M1885.57 1428.82 1954.96 1428.82 1954.96 1498.06 1885.57 1498.06Z" fill="#9DACBF" fill-rule="evenodd"/><path d="M1954.96 1428.82 2024.36 1428.82 2024.36 1498.06 1954.96 1498.06Z" fill="#9DACBF" fill-rule="evenodd"/><path d="M2024.36 1428.82 2093.75 1428.82 2093.75 1498.06 2024.36 1498.06Z" fill="#9DACBF" fill-rule="evenodd"/><path d="M2093.75 1428.82 2163.15 1428.82 2163.15 1498.06 2093.75 1498.06Z" fill="#EDEFF3" fill-rule="evenodd"/><path d="M1677.39 941.875 1677.39 1500.35" stroke="#BCCEE7" stroke-width="4.58333" stroke-linejoin="round" stroke-miterlimit="10" fill="none" fill-rule="evenodd"/><path d="M1746.78 941.875 1746.78 1500.35" stroke="#BCCEE7" stroke-width="4.58333" stroke-linejoin="round" stroke-miterlimit="10" fill="none" fill-rule="evenodd"/><path d="M1816.18 941.875 1816.18 1500.35" stroke="#BCCEE7" stroke-width="4.58333" stroke-linejoin="round" stroke-miterlimit="10" fill="none" fill-rule="evenodd"/><path d="M1885.57 941.875 1885.57 1500.35" stroke="#BCCEE7" stroke-width="4.58333" stroke-linejoin="round" stroke-miterlimit="10" fill="none" fill-rule="evenodd"/><path d="M1954.96 941.875 1954.96 1500.35" stroke="#BCCEE7" stroke-width="4.58333" stroke-linejoin="round" stroke-miterlimit="10" fill="none" fill-rule="evenodd"/><path d="M2024.36 941.875 2024.36 1500.35" stroke="#BCCEE7" stroke-width="4.58333" stroke-linejoin="round" stroke-miterlimit="10" fill="none" fill-rule="evenodd"/><path d="M2093.75 941.875 2093.75 1500.35" stroke="#BCCEE7" stroke-width="4.58333" stroke-linejoin="round" stroke-miterlimit="10" fill="none" fill-rule="evenodd"/><path d="M1605.7 1013.4 2165.44 1013.4" stroke="#BCCEE7" stroke-width="4.58333" stroke-linejoin="round" stroke-miterlimit="10" fill="none" fill-rule="evenodd"/><path d="M1605.7 1082.64 1677.39 1082.64" stroke="#BCCEE7" stroke-width="4.58333" stroke-linejoin="round" stroke-miterlimit="10" fill="none" fill-rule="evenodd"/><path d="M1677.39 1082.64 2165.44 1082.64" stroke="#BCCEE7" stroke-width="4.58333" stroke-linejoin="round" stroke-miterlimit="10" fill="none" fill-rule="evenodd"/><path d="M1605.7 1151.88 1816.18 1151.88" stroke="#BCCEE7" stroke-width="4.58333" stroke-linejoin="round" stroke-miterlimit="10" fill="none" fill-rule="evenodd"/><path d="M1816.18 1151.88 2165.44 1151.88" stroke="#BCCEE7" stroke-width="4.58333" stroke-linejoin="round" stroke-miterlimit="10" fill="none" fill-rule="evenodd"/><path d="M1605.7 1221.11 2165.44 1221.11" stroke="#BCCEE7" stroke-width="4.58333" stroke-linejoin="round" stroke-miterlimit="10" fill="none" fill-rule="evenodd"/><path d="M1605.7 1290.35 1816.18 1290.35" stroke="#BCCEE7" stroke-width="4.58333" stroke-linejoin="round" stroke-miterlimit="10" fill="none" fill-rule="evenodd"/><path d="M1816.18 1290.35 2165.44 1290.35" stroke="#BCCEE7" stroke-width="4.58333" stroke-linejoin="round" stroke-miterlimit="10" fill="none" fill-rule="evenodd"/><path d="M1605.7 1359.58 1816.18 1359.58" stroke="#BCCEE7" stroke-width="4.58333" stroke-linejoin="round" stroke-miterlimit="10" fill="none" fill-rule="evenodd"/><path d="M1816.18 1359.58 2165.44 1359.58" stroke="#BCCEE7" stroke-width="4.58333" stroke-linejoin="round" stroke-miterlimit="10" fill="none" fill-rule="evenodd"/><path d="M1605.7 1428.82 1816.18 1428.82" stroke="#BCCEE7" stroke-width="4.58333" stroke-linejoin="round" stroke-miterlimit="10" fill="none" fill-rule="evenodd"/><path d="M1816.18 1428.82 2165.44 1428.82" stroke="#BCCEE7" stroke-width="4.58333" stroke-linejoin="round" stroke-miterlimit="10" fill="none" fill-rule="evenodd"/><path d="M1607.99 941.875 1607.99 1500.35" stroke="#BCCEE7" stroke-width="4.58333" stroke-linejoin="round" stroke-miterlimit="10" fill="none" fill-rule="evenodd"/><path d="M2163.15 941.875 2163.15 1500.35" stroke="#BCCEE7" stroke-width="4.58333" stroke-linejoin="round" stroke-miterlimit="10" fill="none" fill-rule="evenodd"/><path d="M1605.7 944.167 2165.44 944.167" stroke="#BCCEE7" stroke-width="4.58333" stroke-linejoin="round" stroke-miterlimit="10" fill="none" fill-rule="evenodd"/><path d="M1605.7 1498.06 2165.44 1498.06" stroke="#BCCEE7" stroke-width="4.58333" stroke-linejoin="round" stroke-miterlimit="10" fill="none" fill-rule="evenodd"/><text font-family="DengXian,DengXian_MSFontService,sans-serif" font-weight="400" font-size="32" transform="matrix(1 0 0 1 1634.1 990)">0<tspan font-size="32" x="69.3938" y="0">2</tspan><tspan font-size="32" x="138.788" y="0">2</tspan><tspan font-size="32" x="208.182" y="0">2</tspan></text><g clip-path="url(#clip1)"><text font-family="DengXian,DengXian_MSFontService,sans-serif" font-weight="400" font-size="32" transform="matrix(1 0 0 1 1903.65 990)">-</text></g><g clip-path="url(#clip2)"><text font-family="DengXian,DengXian_MSFontService,sans-serif" font-weight="400" font-size="32" transform="matrix(1 0 0 1 1919.69 990)">1</text></g><g clip-path="url(#clip3)"><text font-family="DengXian,DengXian_MSFontService,sans-serif" font-weight="400" font-size="32" transform="matrix(1 0 0 1 1973.05 990)">-</text></g><g clip-path="url(#clip4)"><text font-family="DengXian,DengXian_MSFontService,sans-serif" font-weight="400" font-size="32" transform="matrix(1 0 0 1 1989.09 990)">1</text></g><g clip-path="url(#clip5)"><text font-family="DengXian,DengXian_MSFontService,sans-serif" font-weight="400" font-size="32" transform="matrix(1 0 0 1 2042.44 990)">-</text></g><g clip-path="url(#clip6)"><text font-family="DengXian,DengXian_MSFontService,sans-serif" font-weight="400" font-size="32" transform="matrix(1 0 0 1 2058.48 990)">1</text></g><text font-family="DengXian,DengXian_MSFontService,sans-serif" font-weight="400" font-size="32" transform="matrix(1 0 0 1 2119.85 990)">0<tspan font-size="32" x="-485.757" y="69">0</tspan><tspan font-size="32" x="-416.363" y="69">2</tspan><tspan font-size="32" x="-346.969" y="69">2</tspan><tspan font-size="32" x="-277.575" y="69">2</tspan></text><g clip-path="url(#clip7)"><text font-family="DengXian,DengXian_MSFontService,sans-serif" font-weight="400" font-size="32" transform="matrix(1 0 0 1 1903.65 1059)">-</text></g><g clip-path="url(#clip8)"><text font-family="DengXian,DengXian_MSFontService,sans-serif" font-weight="400" font-size="32" transform="matrix(1 0 0 1 1919.69 1059)">1</text></g><g clip-path="url(#clip9)"><text font-family="DengXian,DengXian_MSFontService,sans-serif" font-weight="400" font-size="32" transform="matrix(1 0 0 1 1973.05 1059)">-</text></g><g clip-path="url(#clip10)"><text font-family="DengXian,DengXian_MSFontService,sans-serif" font-weight="400" font-size="32" transform="matrix(1 0 0 1 1989.09 1059)">1</text></g><g clip-path="url(#clip11)"><text font-family="DengXian,DengXian_MSFontService,sans-serif" font-weight="400" font-size="32" transform="matrix(1 0 0 1 2042.44 1059)">-</text></g><g clip-path="url(#clip12)"><text font-family="DengXian,DengXian_MSFontService,sans-serif" font-weight="400" font-size="32" transform="matrix(1 0 0 1 2058.48 1059)">1</text></g><text font-family="DengXian,DengXian_MSFontService,sans-serif" font-weight="400" font-size="32" transform="matrix(1 0 0 1 2119.85 1059)">0<tspan font-size="32" x="-485.757" y="69">2</tspan><tspan font-size="32" x="-416.363" y="69">1</tspan><tspan font-size="32" x="-346.969" y="69">1</tspan><tspan font-size="32" x="-277.575" y="69">1</tspan><tspan font-size="32" x="-208.181" y="69">1</tspan><tspan font-size="32" x="-138.788" y="69">1</tspan><tspan font-size="32" x="-69.3938" y="69">1</tspan><tspan font-size="32" x="0" y="69">0</tspan><tspan font-size="32" x="-485.757" y="138">2</tspan><tspan font-size="32" x="-416.363" y="138">1</tspan><tspan font-size="32" x="-346.969" y="138">1</tspan><tspan font-size="32" x="-277.575" y="138">1</tspan><tspan font-size="32" x="-208.181" y="138">1</tspan><tspan font-size="32" x="-138.788" y="138">1</tspan><tspan font-size="32" x="-69.3938" y="138">1</tspan><tspan font-size="32" x="0" y="138">2</tspan><tspan font-size="32" x="-485.757" y="207">2</tspan><tspan font-size="32" x="-416.363" y="207">1</tspan><tspan font-size="32" x="-346.969" y="207">1</tspan><tspan font-size="32" x="-277.575" y="207">1</tspan><tspan font-size="32" x="-208.181" y="207">1</tspan><tspan font-size="32" x="-138.788" y="207">1</tspan><tspan font-size="32" x="-69.3938" y="207">1</tspan><tspan font-size="32" x="0" y="207">2</tspan><tspan font-size="32" x="-485.757" y="277">2</tspan><tspan font-size="32" x="-416.363" y="277">1</tspan><tspan font-size="32" x="-346.969" y="277">1</tspan><tspan font-size="32" x="-277.575" y="277">1</tspan><tspan font-size="32" x="-208.181" y="277">1</tspan><tspan font-size="32" x="-138.788" y="277">1</tspan><tspan font-size="32" x="-69.3938" y="277">1</tspan><tspan font-size="32" x="0" y="277">2</tspan><tspan font-size="32" x="-485.757" y="346">2</tspan><tspan font-size="32" x="-416.363" y="346">1</tspan><tspan font-size="32" x="-346.969" y="346">1</tspan><tspan font-size="32" x="-277.575" y="346">1</tspan><tspan font-size="32" x="-208.181" y="346">1</tspan><tspan font-size="32" x="-138.788" y="346">1</tspan><tspan font-size="32" x="-69.3938" y="346">1</tspan><tspan font-size="32" x="0" y="346">2</tspan><tspan font-size="32" x="-485.757" y="415">2</tspan><tspan font-size="32" x="-416.363" y="415">1</tspan><tspan font-size="32" x="-346.969" y="415">1</tspan><tspan font-size="32" x="-277.575" y="415">1</tspan><tspan font-size="32" x="-208.181" y="415">1</tspan><tspan font-size="32" x="-138.788" y="415">1</tspan><tspan font-size="32" x="-69.3938" y="415">1</tspan></text><g clip-path="url(#clip13)"><text font-family="DengXian,DengXian_MSFontService,sans-serif" font-weight="400" font-size="32" transform="matrix(1 0 0 1 2111.83 1474)">-</text></g><g clip-path="url(#clip14)"><text font-family="DengXian,DengXian_MSFontService,sans-serif" font-weight="400" font-size="32" transform="matrix(1 0 0 1 2127.88 1474)">2</text></g><rect x="1809.5" y="1217.5" width="153" height="148" stroke="#F1644D" stroke-width="6.875" stroke-miterlimit="8" fill="none"/><rect x="1670.5" y="1215.5" width="154" height="80.0001" stroke="#548235" stroke-width="6.875" stroke-miterlimit="8" fill="none"/><path d="M0 13.75 40.5001 13.75 40.5001 0 68.0001 27.5 40.5001 55 40.5001 41.25 0 41.25Z" stroke="#548235" stroke-width="4.58333" stroke-miterlimit="8" fill="#C5E0B4" fill-rule="evenodd" transform="matrix(6.12323e-17 1 1 -6.12323e-17 1720.5 1119.5)"/><rect x="1948.5" y="1215.5" width="153" height="80.0001" stroke="#548235" stroke-width="6.875" stroke-miterlimit="8" fill="none"/><path d="M2011 1464.5 2011 1422.5 1997.5 1422.5 2024.5 1395.5 2051.5 1422.5 2038 1422.5 2038 1464.5Z" stroke="#548235" stroke-width="4.58333" stroke-miterlimit="8" fill="#C5E0B4" fill-rule="evenodd"/><path d="M2058.5 1161 2017.5 1161 2017.5 1174.5 1990.5 1147.5 2017.5 1120.5 2017.5 1134 2058.5 1134Z" stroke="#548235" stroke-width="4.58333" stroke-miterlimit="8" fill="#C5E0B4" fill-rule="evenodd"/><path d="M1677.39 1698.58 1677.39 2257.05" stroke="#BCCEE7" stroke-width="4.58333" stroke-linejoin="round" stroke-miterlimit="10" fill="none" fill-rule="evenodd"/><path d="M1746.78 1698.58 1746.78 2257.05" stroke="#BCCEE7" stroke-width="4.58333" stroke-linejoin="round" stroke-miterlimit="10" fill="none" fill-rule="evenodd"/><path d="M1816.18 1698.58 1816.18 2257.05" stroke="#BCCEE7" stroke-width="4.58333" stroke-linejoin="round" stroke-miterlimit="10" fill="none" fill-rule="evenodd"/><path d="M1885.57 1698.58 1885.57 2257.05" stroke="#BCCEE7" stroke-width="4.58333" stroke-linejoin="round" stroke-miterlimit="10" fill="none" fill-rule="evenodd"/><path d="M1954.96 1698.58 1954.96 2257.05" stroke="#BCCEE7" stroke-width="4.58333" stroke-linejoin="round" stroke-miterlimit="10" fill="none" fill-rule="evenodd"/><path d="M2024.36 1698.58 2024.36 2257.05" stroke="#BCCEE7" stroke-width="4.58333" stroke-linejoin="round" stroke-miterlimit="10" fill="none" fill-rule="evenodd"/><path d="M2093.75 1698.58 2093.75 2257.05" stroke="#BCCEE7" stroke-width="4.58333" stroke-linejoin="round" stroke-miterlimit="10" fill="none" fill-rule="evenodd"/><path d="M1605.7 1770.1 2165.44 1770.1" stroke="#BCCEE7" stroke-width="4.58333" stroke-linejoin="round" stroke-miterlimit="10" fill="none" fill-rule="evenodd"/><path d="M1605.7 1839.34 1816.18 1839.34" stroke="#BCCEE7" stroke-width="4.58333" stroke-linejoin="round" stroke-miterlimit="10" fill="none" fill-rule="evenodd"/><path d="M1816.18 1839.34 2165.44 1839.34" stroke="#BCCEE7" stroke-width="4.58333" stroke-linejoin="round" stroke-miterlimit="10" fill="none" fill-rule="evenodd"/><path d="M1605.7 1908.58 1816.18 1908.58" stroke="#BCCEE7" stroke-width="4.58333" stroke-linejoin="round" stroke-miterlimit="10" fill="none" fill-rule="evenodd"/><path d="M1816.18 1908.58 2165.44 1908.58" stroke="#BCCEE7" stroke-width="4.58333" stroke-linejoin="round" stroke-miterlimit="10" fill="none" fill-rule="evenodd"/><path d="M1605.7 1977.81 2165.44 1977.81" stroke="#BCCEE7" stroke-width="4.58333" stroke-linejoin="round" stroke-miterlimit="10" fill="none" fill-rule="evenodd"/><path d="M1605.7 2047.05 1816.18 2047.05" stroke="#BCCEE7" stroke-width="4.58333" stroke-linejoin="round" stroke-miterlimit="10" fill="none" fill-rule="evenodd"/><path d="M1816.18 2047.05 2165.44 2047.05" stroke="#BCCEE7" stroke-width="4.58333" stroke-linejoin="round" stroke-miterlimit="10" fill="none" fill-rule="evenodd"/><path d="M1605.7 2116.28 1816.18 2116.28" stroke="#BCCEE7" stroke-width="4.58333" stroke-linejoin="round" stroke-miterlimit="10" fill="none" fill-rule="evenodd"/><path d="M1816.18 2116.28 2165.44 2116.28" stroke="#BCCEE7" stroke-width="4.58333" stroke-linejoin="round" stroke-miterlimit="10" fill="none" fill-rule="evenodd"/><path d="M1605.7 2185.52 1816.18 2185.52" stroke="#BCCEE7" stroke-width="4.58333" stroke-linejoin="round" stroke-miterlimit="10" fill="none" fill-rule="evenodd"/><path d="M1816.18 2185.52 2165.44 2185.52" stroke="#BCCEE7" stroke-width="4.58333" stroke-linejoin="round" stroke-miterlimit="10" fill="none" fill-rule="evenodd"/><path d="M1607.99 1698.58 1607.99 2257.05" stroke="#BCCEE7" stroke-width="4.58333" stroke-linejoin="round" stroke-miterlimit="10" fill="none" fill-rule="evenodd"/><path d="M2163.15 1698.58 2163.15 2257.05" stroke="#BCCEE7" stroke-width="4.58333" stroke-linejoin="round" stroke-miterlimit="10" fill="none" fill-rule="evenodd"/><path d="M1605.7 1700.87 2165.44 1700.87" stroke="#BCCEE7" stroke-width="4.58333" stroke-linejoin="round" stroke-miterlimit="10" fill="none" fill-rule="evenodd"/><path d="M1605.7 2254.76 2165.44 2254.76" stroke="#BCCEE7" stroke-width="4.58333" stroke-linejoin="round" stroke-miterlimit="10" fill="none" fill-rule="evenodd"/><text font-family="DengXian,DengXian_MSFontService,sans-serif" font-weight="400" font-size="32" transform="matrix(1 0 0 1 1634.1 1746)">0<tspan font-size="32" x="69.3938" y="0">0</tspan><tspan font-size="32" x="138.788" y="0">0</tspan><tspan font-size="32" x="208.182" y="0">0</tspan><tspan font-size="32" x="277.575" y="0">0</tspan><tspan font-size="32" x="346.969" y="0">0</tspan><tspan font-size="32" x="416.363" y="0">0</tspan><tspan font-size="32" x="485.757" y="0">0</tspan><tspan font-size="32" x="0" y="69">0</tspan><tspan font-size="32" x="69.3938" y="69">0</tspan><tspan font-size="32" x="138.788" y="69">0</tspan><tspan font-size="32" x="208.182" y="69">0</tspan><tspan font-size="32" x="277.575" y="69">0</tspan><tspan font-size="32" x="346.969" y="69">0</tspan><tspan font-size="32" x="416.363" y="69">0</tspan><tspan font-size="32" x="485.757" y="69">0</tspan><tspan font-size="32" x="0" y="139">0</tspan><tspan font-size="32" x="69.3938" y="139">0</tspan><tspan font-size="32" x="138.788" y="139">0</tspan><tspan font-size="32" x="208.182" y="139">0</tspan><tspan font-size="32" x="277.575" y="139">0</tspan><tspan font-size="32" x="346.969" y="139">0</tspan><tspan font-size="32" x="416.363" y="139">0</tspan><tspan font-size="32" x="485.757" y="139">0</tspan><tspan font-size="32" x="0" y="208">0</tspan><tspan font-size="32" x="69.3938" y="208">0</tspan><tspan font-size="32" x="138.788" y="208">0</tspan><tspan font-size="32" x="208.182" y="208">0</tspan><tspan font-size="32" x="277.575" y="208">0</tspan><tspan font-size="32" x="346.969" y="208">0</tspan><tspan font-size="32" x="416.363" y="208">0</tspan><tspan font-size="32" x="485.757" y="208">0</tspan><tspan font-size="32" x="0" y="277">0</tspan><tspan font-size="32" x="69.3938" y="277">0</tspan><tspan font-size="32" x="138.788" y="277">0</tspan><tspan font-size="32" x="208.182" y="277">0</tspan><tspan font-size="32" x="277.575" y="277">0</tspan><tspan font-size="32" x="346.969" y="277">0</tspan><tspan font-size="32" x="416.363" y="277">0</tspan><tspan font-size="32" x="485.757" y="277">0</tspan><tspan font-size="32" x="0" y="346">0</tspan><tspan font-size="32" x="69.3938" y="346">0</tspan><tspan font-size="32" x="138.788" y="346">0</tspan><tspan font-size="32" x="208.182" y="346">0</tspan><tspan font-size="32" x="277.575" y="346">0</tspan><tspan font-size="32" x="346.969" y="346">0</tspan><tspan font-size="32" x="416.363" y="346">0</tspan><tspan font-size="32" x="485.757" y="346">0</tspan><tspan font-size="32" x="0" y="416">0</tspan><tspan font-size="32" x="69.3938" y="416">0</tspan><tspan font-size="32" x="138.788" y="416">0</tspan><tspan font-size="32" x="208.182" y="416">0</tspan><tspan font-size="32" x="277.575" y="416">0</tspan><tspan font-size="32" x="346.969" y="416">0</tspan><tspan font-size="32" x="416.363" y="416">0</tspan><tspan font-size="32" x="485.757" y="416">0</tspan><tspan font-size="32" x="0" y="485">0</tspan><tspan font-size="32" x="69.3938" y="485">0</tspan><tspan font-size="32" x="138.788" y="485">0</tspan><tspan font-size="32" x="208.182" y="485">0</tspan><tspan font-size="32" x="277.575" y="485">0</tspan><tspan font-size="32" x="346.969" y="485">0</tspan><tspan font-size="32" x="416.363" y="485">0</tspan><tspan font-size="32" x="485.757" y="485">0</tspan></text><rect x="1809.5" y="1834.5" width="153" height="148" stroke="#F1644D" stroke-width="6.875" stroke-miterlimit="8" fill="none"/><path d="M1872.25 1938.5 1872.25 1898 1858.5 1898 1886 1870.5 1913.5 1898 1899.75 1898 1899.75 1938.5Z" stroke="#F1644D" stroke-width="4.58333" stroke-miterlimit="8" fill="#F7AA9D" fill-rule="evenodd"/><rect x="1670.5" y="1971.5" width="154" height="80.0001" stroke="#548235" stroke-width="6.875" stroke-miterlimit="8" fill="none"/><rect x="1948.5" y="1973.5" width="153" height="79" stroke="#548235" stroke-width="6.875" stroke-miterlimit="8" fill="none"/><text fill="#576C87" font-family="SimSun,SimSun_MSFontService,sans-serif" font-weight="400" font-size="55" transform="matrix(1 0 0 1 1775.57 919)">状态矩阵<tspan font-size="55" x="-110" y="755">道路过宽判别矩阵</tspan></text><path d="M0 13.75 40.5001 13.75 40.5001 0 68.0001 27.5 40.5001 55 40.5001 41.25 0 41.25Z" stroke="#548235" stroke-width="4.58333" stroke-miterlimit="8" fill="#C5E0B4" fill-rule="evenodd" transform="matrix(1 -1.22465e-16 -1.22465e-16 -1 2302.5 1027.5)"/><path d="M0 13.75 40.5001 13.75 40.5001 0 68.0001 27.5 40.5001 55 40.5001 41.25 0 41.25Z" stroke="#F1644D" stroke-width="4.58333" stroke-miterlimit="8" fill="#F7AA9D" fill-rule="evenodd" transform="matrix(1 -1.22465e-16 -1.22465e-16 -1 2302.5 1147.5)"/><text fill="#576C87" font-family="SimSun,SimSun_MSFontService,sans-serif" font-weight="400" font-size="55" transform="matrix(1 0 0 1 2418.73 1016)">当前智能体朝向<tspan font-size="55" x="0" y="125">之前智能体朝向</tspan></text><rect x="2304.5" y="1213.5" width="66" height="65" stroke="#548235" stroke-width="6.875" stroke-miterlimit="8" fill="none"/><text fill="#576C87" font-family="SimSun,SimSun_MSFontService,sans-serif" font-weight="400" font-size="55" transform="matrix(1 0 0 1 2505.45 1267)">检查区域</text><rect x="2304.5" y="1343.5" width="69" height="67" stroke="#F1644D" stroke-width="6.875" stroke-miterlimit="8" fill="none"/><text fill="#576C87" font-family="SimSun,SimSun_MSFontService,sans-serif" font-weight="400" font-size="55" transform="matrix(1 0 0 1 2501.23 1399)">当前<tspan font-size="55" x="110" y="0">区域</tspan></text><rect x="2240.5" y="926.5" width="604" height="554" stroke="#9DACBF" stroke-width="4.58333" stroke-miterlimit="8" fill="none"/><path d="M1923.5 1161 1881.5 1161 1881.5 1174.5 1854.5 1147.5 1881.5 1120.5 1881.5 1134 1923.5 1134Z" stroke="#548235" stroke-width="4.58333" stroke-miterlimit="8" fill="#C5E0B4" fill-rule="evenodd"/><path d="M1875.25 1464.5 1875.25 1423 1861.5 1423 1889 1395.5 1916.5 1423 1902.75 1423 1902.75 1464.5Z" stroke="#548235" stroke-width="4.58333" stroke-miterlimit="8" fill="#C5E0B4" fill-rule="evenodd"/><path d="M1872.25 1186.5 1872.25 1146 1858.5 1146 1886 1118.5 1913.5 1146 1899.75 1146 1899.75 1186.5Z" stroke="#F1644D" stroke-width="4.58333" stroke-miterlimit="8" fill="#F7AA9D" fill-rule="evenodd"/><path d="M1875.25 1325.5 1875.25 1284 1861.5 1284 1889 1256.5 1916.5 1284 1902.75 1284 1902.75 1325.5Z" stroke="#548235" stroke-width="4.58333" stroke-miterlimit="8" fill="#C5E0B4" fill-rule="evenodd"/><path d="M0 13.75 40.5001 13.75 40.5001 0 68.0001 27.5 40.5001 55 40.5001 41.25 0 41.25Z" stroke="#548235" stroke-width="4.58333" stroke-miterlimit="8" fill="#C5E0B4" fill-rule="evenodd" transform="matrix(1 -1.22465e-16 -1.22465e-16 -1 1713.5 1455.5)"/><rect x="1670.5" y="1287.5" width="154" height="80.0001" stroke="#FFD966" stroke-width="6.875" stroke-miterlimit="8" fill="none"/><rect x="1948.5" y="1287.5" width="153" height="80.0001" stroke="#FFD966" stroke-width="6.875" stroke-miterlimit="8" fill="none"/><path d="M2011 1326.5 2011 1284.5 1997.5 1284.5 2024.5 1257.5 2051.5 1284.5 2038 1284.5 2038 1326.5Z" stroke="#548235" stroke-width="4.58333" stroke-miterlimit="8" fill="#C5E0B4" fill-rule="evenodd"/><path d="M0 13.75 40.5001 13.75 40.5001 0 68.0001 27.5 40.5001 55 40.5001 41.25 0 41.25Z" stroke="#548235" stroke-width="4.58333" stroke-miterlimit="8" fill="#C5E0B4" fill-rule="evenodd" transform="matrix(6.12323e-17 1 1 -6.12323e-17 1720.5 1258.5)"/><rect x="1669.5" y="1075.5" width="153" height="149" stroke="#FFD966" stroke-width="6.875" stroke-miterlimit="8" fill="none"/><rect x="1946.5" y="1075.5" width="154" height="149" stroke="#FFD966" stroke-width="6.875" stroke-miterlimit="8" fill="none"/></g></svg>