<svg width="2051" height="950" xmlns="http://www.w3.org/2000/svg" xmlns:xlink="http://www.w3.org/1999/xlink" overflow="hidden"><defs><clipPath id="clip0"><rect x="3707" y="1766" width="2051" height="950"/></clipPath><clipPath id="clip1"><rect x="3706" y="1765" width="2051" height="950"/></clipPath><clipPath id="clip2"><rect x="4095" y="1940" width="1419" height="596"/></clipPath><clipPath id="clip3"><rect x="4095" y="1940" width="1419" height="596"/></clipPath><clipPath id="clip4"><rect x="4095" y="1940" width="1419" height="596"/></clipPath><clipPath id="clip5"><rect x="4095" y="1940" width="1419" height="596"/></clipPath><clipPath id="clip6"><rect x="4095" y="1940" width="1419" height="596"/></clipPath><clipPath id="clip7"><rect x="4095" y="1940" width="1419" height="596"/></clipPath><clipPath id="clip8"><rect x="4095" y="1940" width="1419" height="596"/></clipPath><clipPath id="clip9"><rect x="4095" y="1940" width="1419" height="596"/></clipPath><clipPath id="clip10"><rect x="4095" y="1940" width="1419" height="596"/></clipPath><clipPath id="clip11"><rect x="4095" y="1940" width="1419" height="596"/></clipPath><clipPath id="clip12"><rect x="4095" y="1940" width="1419" height="596"/></clipPath><clipPath id="clip13"><rect x="4095" y="1940" width="1419" height="596"/></clipPath><clipPath id="clip14"><rect x="4095" y="1940" width="1419" height="596"/></clipPath><clipPath id="clip15"><rect x="3706" y="1765" width="2051" height="950"/></clipPath><clipPath id="clip16"><rect x="4095" y="1940" width="1419" height="596"/></clipPath><clipPath id="clip17"><rect x="3706" y="1765" width="2051" height="950"/></clipPath><clipPath id="clip18"><rect x="3706" y="1765" width="2051" height="950"/></clipPath><clipPath id="clip19"><rect x="3706" y="1765" width="2051" height="950"/></clipPath><clipPath id="clip20"><rect x="3706" y="1765" width="2051" height="950"/></clipPath><clipPath id="clip21"><rect x="3706" y="1765" width="2051" height="950"/></clipPath><clipPath id="clip22"><rect x="3706" y="1765" width="2051" height="950"/></clipPath><clipPath id="clip23"><rect x="3706" y="1765" width="2051" height="950"/></clipPath><clipPath id="clip24"><rect x="3706" y="1765" width="2051" height="950"/></clipPath><clipPath id="clip25"><rect x="3706" y="1765" width="2051" height="950"/></clipPath><clipPath id="clip26"><rect x="3706" y="1765" width="2051" height="950"/></clipPath><clipPath id="clip27"><rect x="3706" y="1765" width="2051" height="950"/></clipPath><clipPath id="clip28"><rect x="3706" y="1765" width="2051" height="950"/></clipPath><clipPath id="clip29"><rect x="3706" y="1765" width="2051" height="950"/></clipPath><clipPath id="clip30"><rect x="3706" y="1765" width="2051" height="950"/></clipPath><clipPath id="clip31"><rect x="3706" y="1765" width="2051" height="950"/></clipPath><clipPath id="clip32"><rect x="3706" y="1765" width="2051" height="950"/></clipPath><clipPath id="clip33"><rect x="3706" y="1765" width="2051" height="950"/></clipPath><clipPath id="clip34"><rect x="3706" y="1765" width="2051" height="950"/></clipPath><clipPath id="clip35"><path d="M3569.95 2871.68 4516.58 2325.14 4544.51 2373.5 3597.87 2920.04Z" fill-rule="evenodd" clip-rule="evenodd"/></clipPath><clipPath id="clip36"><rect x="3706" y="1765" width="2051" height="950"/></clipPath><clipPath id="clip37"><path d="M3569.95 2871.68 4516.58 2325.14 4544.51 2373.5 3597.87 2920.04Z" fill-rule="evenodd" clip-rule="evenodd"/></clipPath><clipPath id="clip38"><rect x="3706" y="1765" width="2051" height="950"/></clipPath><clipPath id="clip39"><path d="M4013.59 2683.67 4390.35 2466.14 4418.27 2514.51 4041.51 2732.04Z" fill-rule="evenodd" clip-rule="evenodd"/></clipPath><clipPath id="clip40"><rect x="3706" y="1765" width="2051" height="950"/></clipPath><clipPath id="clip41"><path d="M4013.59 2683.67 4390.35 2466.14 4418.27 2514.51 4041.51 2732.04Z" fill-rule="evenodd" clip-rule="evenodd"/></clipPath><clipPath id="clip42"><rect x="3706" y="1765" width="2051" height="950"/></clipPath><clipPath id="clip43"><path d="M4131.58 2683.67 4508.35 2466.14 4536.27 2514.51 4159.51 2732.04Z" fill-rule="evenodd" clip-rule="evenodd"/></clipPath><clipPath id="clip44"><rect x="3706" y="1765" width="2051" height="950"/></clipPath><clipPath id="clip45"><path d="M4131.58 2683.67 4508.35 2466.14 4536.27 2514.51 4159.51 2732.04Z" fill-rule="evenodd" clip-rule="evenodd"/></clipPath><clipPath id="clip46"><rect x="3706" y="1765" width="2051" height="950"/></clipPath><clipPath id="clip47"><path d="M4249.58 2683.67 4626.35 2466.14 4654.27 2514.51 4277.51 2732.04Z" fill-rule="evenodd" clip-rule="evenodd"/></clipPath><clipPath id="clip48"><rect x="3706" y="1765" width="2051" height="950"/></clipPath><clipPath id="clip49"><path d="M4249.58 2683.67 4626.35 2466.14 4654.27 2514.51 4277.51 2732.04Z" fill-rule="evenodd" clip-rule="evenodd"/></clipPath><clipPath id="clip50"><rect x="3706" y="1765" width="2051" height="950"/></clipPath><clipPath id="clip51"><path d="M4367.58 2683.67 4744.35 2466.14 4772.27 2514.51 4395.5 2732.04Z" fill-rule="evenodd" clip-rule="evenodd"/></clipPath><clipPath id="clip52"><rect x="3706" y="1765" width="2051" height="950"/></clipPath><clipPath id="clip53"><path d="M4367.58 2683.67 4744.34 2466.14 4772.27 2514.51 4395.5 2732.04Z" fill-rule="evenodd" clip-rule="evenodd"/></clipPath><clipPath id="clip54"><rect x="3706" y="1765" width="2051" height="950"/></clipPath><clipPath id="clip55"><path d="M4413.18 2725.47 4916.64 2434.79 4944.57 2483.16 4441.1 2773.84Z" fill-rule="evenodd" clip-rule="evenodd"/></clipPath><clipPath id="clip56"><rect x="3706" y="1765" width="2051" height="950"/></clipPath><clipPath id="clip57"><path d="M4413.18 2725.47 4916.64 2434.79 4944.57 2483.16 4441.1 2773.84Z" fill-rule="evenodd" clip-rule="evenodd"/></clipPath><clipPath id="clip58"><rect x="3706" y="1765" width="2051" height="950"/></clipPath><clipPath id="clip59"><path d="M4277.94 2871.68 5224.57 2325.14 5252.49 2373.5 4305.86 2920.04Z" fill-rule="evenodd" clip-rule="evenodd"/></clipPath><clipPath id="clip60"><rect x="3706" y="1765" width="2051" height="950"/></clipPath><clipPath id="clip61"><path d="M4277.94 2871.68 5224.57 2325.14 5252.49 2373.5 4305.86 2920.04Z" fill-rule="evenodd" clip-rule="evenodd"/></clipPath><clipPath id="clip62"><rect x="3706" y="1765" width="2051" height="950"/></clipPath><clipPath id="clip63"><path d="M4721.57 2683.67 5098.34 2466.14 5126.26 2514.51 4749.5 2732.04Z" fill-rule="evenodd" clip-rule="evenodd"/></clipPath><clipPath id="clip64"><rect x="3706" y="1765" width="2051" height="950"/></clipPath><clipPath id="clip65"><path d="M4721.57 2683.67 5098.34 2466.14 5126.26 2514.51 4749.5 2732.04Z" fill-rule="evenodd" clip-rule="evenodd"/></clipPath><clipPath id="clip66"><rect x="3706" y="1765" width="2051" height="950"/></clipPath><clipPath id="clip67"><path d="M4839.57 2683.67 5216.34 2466.14 5244.26 2514.51 4867.5 2732.04Z" fill-rule="evenodd" clip-rule="evenodd"/></clipPath><clipPath id="clip68"><rect x="3706" y="1765" width="2051" height="950"/></clipPath><clipPath id="clip69"><path d="M4839.57 2683.67 5216.34 2466.14 5244.26 2514.51 4867.5 2732.04Z" fill-rule="evenodd" clip-rule="evenodd"/></clipPath><clipPath id="clip70"><rect x="3706" y="1765" width="2051" height="950"/></clipPath><clipPath id="clip71"><path d="M4957.57 2683.67 5334.33 2466.14 5362.26 2514.51 4985.49 2732.04Z" fill-rule="evenodd" clip-rule="evenodd"/></clipPath><clipPath id="clip72"><rect x="3706" y="1765" width="2051" height="950"/></clipPath><clipPath id="clip73"><path d="M4957.57 2683.67 5334.33 2466.14 5362.26 2514.51 4985.49 2732.04Z" fill-rule="evenodd" clip-rule="evenodd"/></clipPath><clipPath id="clip74"><rect x="3706" y="1765" width="2051" height="950"/></clipPath><clipPath id="clip75"><path d="M5075.57 2683.67 5452.33 2466.14 5480.26 2514.51 5103.49 2732.04Z" fill-rule="evenodd" clip-rule="evenodd"/></clipPath><clipPath id="clip76"><rect x="3706" y="1765" width="2051" height="950"/></clipPath><clipPath id="clip77"><path d="M5075.57 2683.67 5452.33 2466.14 5480.26 2514.51 5103.49 2732.04Z" fill-rule="evenodd" clip-rule="evenodd"/></clipPath><clipPath id="clip78"><rect x="3706" y="1765" width="2051" height="950"/></clipPath><clipPath id="clip79"><path d="M5121.17 2725.47 5624.63 2434.79 5652.55 2483.16 5149.09 2773.84Z" fill-rule="evenodd" clip-rule="evenodd"/></clipPath><clipPath id="clip80"><rect x="3706" y="1765" width="2051" height="950"/></clipPath><clipPath id="clip81"><path d="M5121.17 2725.47 5624.63 2434.79 5652.55 2483.16 5149.09 2773.84Z" fill-rule="evenodd" clip-rule="evenodd"/></clipPath><clipPath id="clip82"><rect x="3706" y="1765" width="2051" height="950"/></clipPath><clipPath id="clip83"><rect x="3706" y="1765" width="2051" height="950"/></clipPath><clipPath id="clip84"><rect x="3706" y="1765" width="2051" height="950"/></clipPath><clipPath id="clip85"><rect x="3706" y="1765" width="2051" height="950"/></clipPath></defs><g clip-path="url(#clip0)" transform="translate(-3707 -1766)"><g clip-path="url(#clip1)"><path d="M4095.5 2448.58 5511.5 2448.58M4095.5 2363.58 5511.5 2363.58M4095.5 2279.57 5511.5 2279.57M4095.5 2194.57 5511.5 2194.57M4095.5 2109.57 5511.5 2109.57M4095.5 2025.57 5511.5 2025.57M4095.5 1940.5 5511.5 1940.5" stroke="#D9D9D9" stroke-width="3.4375" stroke-linejoin="round" stroke-miterlimit="10" fill="none"/></g><g clip-path="url(#clip2)"><path d="M4824 2254 4842 2254 4842 2533 4824 2533Z" fill="#F9C2B9"/></g><g clip-path="url(#clip3)"><path d="M4883 2199 4901 2199 4901 2533 4883 2533Z" fill="#F9C2B9"/></g><g clip-path="url(#clip4)"><path d="M4942 2118 4960 2118 4960 2533 4942 2533Z" fill="#F9C2B9"/></g><g clip-path="url(#clip5)"><path d="M5001 2168 5019 2168 5019 2533 5001 2533Z" fill="#F9C2B9"/></g><g clip-path="url(#clip6)"><path d="M5060 2130 5078 2130 5078 2533 5060 2533Z" fill="#F9C2B9"/></g><g clip-path="url(#clip7)"><path d="M5119 2089 5137 2089 5137 2533 5119 2533Z" fill="#F9C2B9"/></g><g clip-path="url(#clip8)"><path d="M5178 2129 5196 2129 5196 2533 5178 2533Z" fill="#F9C2B9"/></g><g clip-path="url(#clip9)"><path d="M5237 2096 5255 2096 5255 2533 5237 2533Z" fill="#F9C2B9"/></g><g clip-path="url(#clip10)"><path d="M5296 2049 5314 2049 5314 2533 5296 2533Z" fill="#F9C2B9"/></g><g clip-path="url(#clip11)"><path d="M5355 2050 5373 2050 5373 2533 5355 2533Z" fill="#F9C2B9"/></g><g clip-path="url(#clip12)"><path d="M5414 2030 5432 2030 5432 2533 5414 2533Z" fill="#F9C2B9"/></g><g clip-path="url(#clip13)"><path d="M5473 1999 5491 1999 5491 2533 5473 2533Z" fill="#F9C2B9"/></g><g clip-path="url(#clip14)"><path d="M4115.13 2105.07 4134.14 2105.07 4134.14 2533 4115.13 2533ZM4174.14 2239.07 4193.14 2239.07 4193.14 2533 4174.14 2533ZM4233.14 2155.07 4252.14 2155.07 4252.14 2533 4233.14 2533ZM4292.14 2333.08 4311.14 2333.08 4311.14 2533 4292.14 2533ZM4351.14 2218.07 4370.14 2218.07 4370.14 2533 4351.14 2533ZM4410.14 2110.07 4429.15 2110.07 4429.15 2533 4410.14 2533ZM4469.15 2123.07 4488.15 2123.07 4488.15 2533 4469.15 2533ZM4528.15 2130.07 4547.15 2130.07 4547.15 2533 4528.15 2533ZM4587.15 2091.07 4606.15 2091.07 4606.15 2533 4587.15 2533ZM4646.15 2109.07 4665.15 2109.07 4665.15 2533 4646.15 2533ZM4705.15 2139.07 4724.15 2139.07 4724.15 2533 4705.15 2533ZM4764.16 2100.07 4783.16 2100.07 4783.16 2533 4764.16 2533Z" fill="#C0C0C0"/></g><g clip-path="url(#clip15)"><path d="M4095.5 2533.5 5511.5 2533.5" stroke="#D9D9D9" stroke-width="3.4375" stroke-linejoin="round" stroke-miterlimit="10" fill="none" fill-rule="evenodd"/></g><g clip-path="url(#clip16)"><path d="M4125 2308.08 4184.14 2242.07 4243.14 2354.08 4302.14 2487 4361.14 2358.08 4420.15 2223.07 4479.15 2201.07 4538.15 2192.07 4597.15 2216.07 4656.15 2285.07 4715.15 2340.08 4774.16 2280.07 4833.16 2441.08 4892.16 2261.07 4951.16 2275.07 5010.16 2005 5069.17 2208.07 5128.17 2293.08 5187.17 2323.08 5246.17 2280.07 5305.17 2276.07 5364.18 2260.07 5423.18 2209.07 5482 2224.07" stroke="#7D91AB" stroke-width="10.3125" stroke-linecap="round" stroke-linejoin="round" stroke-miterlimit="10" fill="none"/></g><g clip-path="url(#clip17)"><text fill="#595959" font-family="Calibri,Calibri_MSFontService,sans-serif" font-weight="400" font-size="41" transform="matrix(1 0 0 1 5549.59 2545)">-60</text></g><g clip-path="url(#clip18)"><text fill="#595959" font-family="Calibri,Calibri_MSFontService,sans-serif" font-weight="400" font-size="41" transform="matrix(1 0 0 1 5549.59 2471)">-40</text></g><g clip-path="url(#clip19)"><text fill="#595959" font-family="Calibri,Calibri_MSFontService,sans-serif" font-weight="400" font-size="41" transform="matrix(1 0 0 1 5549.59 2397)">-20</text></g><g clip-path="url(#clip20)"><text fill="#595959" font-family="Calibri,Calibri_MSFontService,sans-serif" font-weight="400" font-size="41" transform="matrix(1 0 0 1 5549.59 2323)">0</text></g><g clip-path="url(#clip21)"><text fill="#595959" font-family="Calibri,Calibri_MSFontService,sans-serif" font-weight="400" font-size="41" transform="matrix(1 0 0 1 5549.59 2248)">20</text></g><g clip-path="url(#clip22)"><text fill="#595959" font-family="Calibri,Calibri_MSFontService,sans-serif" font-weight="400" font-size="41" transform="matrix(1 0 0 1 5549.59 2174)">40</text></g><g clip-path="url(#clip23)"><text fill="#595959" font-family="Calibri,Calibri_MSFontService,sans-serif" font-weight="400" font-size="41" transform="matrix(1 0 0 1 5549.59 2100)">60</text></g><g clip-path="url(#clip24)"><text fill="#595959" font-family="Calibri,Calibri_MSFontService,sans-serif" font-weight="400" font-size="41" transform="matrix(1 0 0 1 5549.59 2026)">80</text></g><g clip-path="url(#clip25)"><text fill="#595959" font-family="Calibri,Calibri_MSFontService,sans-serif" font-weight="400" font-size="41" transform="matrix(1 0 0 1 5549.59 1952)">100</text></g><g clip-path="url(#clip26)"><text fill="#595959" font-family="Calibri,Calibri_MSFontService,sans-serif" font-weight="400" font-size="41" transform="matrix(1 0 0 1 3974.65 2545)">0.00</text></g><g clip-path="url(#clip27)"><text fill="#595959" font-family="Calibri,Calibri_MSFontService,sans-serif" font-weight="400" font-size="41" transform="matrix(1 0 0 1 3974.65 2460)">0.50</text></g><g clip-path="url(#clip28)"><text fill="#595959" font-family="Calibri,Calibri_MSFontService,sans-serif" font-weight="400" font-size="41" transform="matrix(1 0 0 1 3974.65 2375)">1.00</text></g><g clip-path="url(#clip29)"><text fill="#595959" font-family="Calibri,Calibri_MSFontService,sans-serif" font-weight="400" font-size="41" transform="matrix(1 0 0 1 3974.65 2291)">1.50</text></g><g clip-path="url(#clip30)"><text fill="#595959" font-family="Calibri,Calibri_MSFontService,sans-serif" font-weight="400" font-size="41" transform="matrix(1 0 0 1 3974.65 2206)">2.00</text></g><g clip-path="url(#clip31)"><text fill="#595959" font-family="Calibri,Calibri_MSFontService,sans-serif" font-weight="400" font-size="41" transform="matrix(1 0 0 1 3974.65 2121)">2.50</text></g><g clip-path="url(#clip32)"><text fill="#595959" font-family="Calibri,Calibri_MSFontService,sans-serif" font-weight="400" font-size="41" transform="matrix(1 0 0 1 3974.65 2037)">3.00</text></g><g clip-path="url(#clip33)"><text fill="#595959" font-family="Calibri,Calibri_MSFontService,sans-serif" font-weight="400" font-size="41" transform="matrix(1 0 0 1 3974.65 1952)">3.50</text></g><g clip-path="url(#clip34)"><g clip-path="url(#clip35)"><text fill="#595959" font-family="Calibri,Calibri_MSFontService,sans-serif" font-weight="400" font-size="41" transform="matrix(0.866025 -0.5 0.5 0.866025 3995.64 2672)">2022.1</text></g></g><g clip-path="url(#clip36)"><g clip-path="url(#clip37)"><text fill="#595959" font-family="DengXian,DengXian_MSFontService,sans-serif" font-weight="400" font-size="41" transform="matrix(0.866025 -0.5 0.5 0.866025 4095.15 2615)">月</text></g></g><g clip-path="url(#clip38)"><g clip-path="url(#clip39)"><text fill="#595959" font-family="Calibri,Calibri_MSFontService,sans-serif" font-weight="400" font-size="41" transform="matrix(0.866025 -0.5 0.5 0.866025 4195.05 2625)">3</text></g></g><g clip-path="url(#clip40)"><g clip-path="url(#clip41)"><text fill="#595959" font-family="DengXian,DengXian_MSFontService,sans-serif" font-weight="400" font-size="41" transform="matrix(0.866025 -0.5 0.5 0.866025 4213.15 2615)">月</text></g></g><g clip-path="url(#clip42)"><g clip-path="url(#clip43)"><text fill="#595959" font-family="Calibri,Calibri_MSFontService,sans-serif" font-weight="400" font-size="41" transform="matrix(0.866025 -0.5 0.5 0.866025 4313.05 2625)">5</text></g></g><g clip-path="url(#clip44)"><g clip-path="url(#clip45)"><text fill="#595959" font-family="DengXian,DengXian_MSFontService,sans-serif" font-weight="400" font-size="41" transform="matrix(0.866025 -0.5 0.5 0.866025 4331.15 2615)">月</text></g></g><g clip-path="url(#clip46)"><g clip-path="url(#clip47)"><text fill="#595959" font-family="Calibri,Calibri_MSFontService,sans-serif" font-weight="400" font-size="41" transform="matrix(0.866025 -0.5 0.5 0.866025 4431.05 2625)">7</text></g></g><g clip-path="url(#clip48)"><g clip-path="url(#clip49)"><text fill="#595959" font-family="DengXian,DengXian_MSFontService,sans-serif" font-weight="400" font-size="41" transform="matrix(0.866025 -0.5 0.5 0.866025 4449.15 2615)">月</text></g></g><g clip-path="url(#clip50)"><g clip-path="url(#clip51)"><text fill="#595959" font-family="Calibri,Calibri_MSFontService,sans-serif" font-weight="400" font-size="41" transform="matrix(0.866025 -0.5 0.5 0.866025 4549.05 2625)">9</text></g></g><g clip-path="url(#clip52)"><g clip-path="url(#clip53)"><text fill="#595959" font-family="DengXian,DengXian_MSFontService,sans-serif" font-weight="400" font-size="41" transform="matrix(0.866025 -0.5 0.5 0.866025 4567.15 2615)">月</text></g></g><g clip-path="url(#clip54)"><g clip-path="url(#clip55)"><text fill="#595959" font-family="Calibri,Calibri_MSFontService,sans-serif" font-weight="400" font-size="41" transform="matrix(0.866025 -0.5 0.5 0.866025 4648.94 2636)">11</text></g></g><g clip-path="url(#clip56)"><g clip-path="url(#clip57)"><text fill="#595959" font-family="DengXian,DengXian_MSFontService,sans-serif" font-weight="400" font-size="41" transform="matrix(0.866025 -0.5 0.5 0.866025 4685.14 2615)">月</text></g></g><g clip-path="url(#clip58)"><g clip-path="url(#clip59)"><text fill="#595959" font-family="Calibri,Calibri_MSFontService,sans-serif" font-weight="400" font-size="41" transform="matrix(0.866025 -0.5 0.5 0.866025 4703.63 2672)">2023.1</text></g></g><g clip-path="url(#clip60)"><g clip-path="url(#clip61)"><text fill="#595959" font-family="DengXian,DengXian_MSFontService,sans-serif" font-weight="400" font-size="41" transform="matrix(0.866025 -0.5 0.5 0.866025 4803.14 2615)">月</text></g></g><g clip-path="url(#clip62)"><g clip-path="url(#clip63)"><text fill="#595959" font-family="Calibri,Calibri_MSFontService,sans-serif" font-weight="400" font-size="41" transform="matrix(0.866025 -0.5 0.5 0.866025 4903.04 2625)">3</text></g></g><g clip-path="url(#clip64)"><g clip-path="url(#clip65)"><text fill="#595959" font-family="DengXian,DengXian_MSFontService,sans-serif" font-weight="400" font-size="41" transform="matrix(0.866025 -0.5 0.5 0.866025 4921.14 2615)">月</text></g></g><g clip-path="url(#clip66)"><g clip-path="url(#clip67)"><text fill="#595959" font-family="Calibri,Calibri_MSFontService,sans-serif" font-weight="400" font-size="41" transform="matrix(0.866025 -0.5 0.5 0.866025 5021.04 2625)">5</text></g></g><g clip-path="url(#clip68)"><g clip-path="url(#clip69)"><text fill="#595959" font-family="DengXian,DengXian_MSFontService,sans-serif" font-weight="400" font-size="41" transform="matrix(0.866025 -0.5 0.5 0.866025 5039.14 2615)">月</text></g></g><g clip-path="url(#clip70)"><g clip-path="url(#clip71)"><text fill="#595959" font-family="Calibri,Calibri_MSFontService,sans-serif" font-weight="400" font-size="41" transform="matrix(0.866025 -0.5 0.5 0.866025 5139.04 2625)">7</text></g></g><g clip-path="url(#clip72)"><g clip-path="url(#clip73)"><text fill="#595959" font-family="DengXian,DengXian_MSFontService,sans-serif" font-weight="400" font-size="41" transform="matrix(0.866025 -0.5 0.5 0.866025 5157.14 2615)">月</text></g></g><g clip-path="url(#clip74)"><g clip-path="url(#clip75)"><text fill="#595959" font-family="Calibri,Calibri_MSFontService,sans-serif" font-weight="400" font-size="41" transform="matrix(0.866025 -0.5 0.5 0.866025 5257.03 2625)">9</text></g></g><g clip-path="url(#clip76)"><g clip-path="url(#clip77)"><text fill="#595959" font-family="DengXian,DengXian_MSFontService,sans-serif" font-weight="400" font-size="41" transform="matrix(0.866025 -0.5 0.5 0.866025 5275.13 2615)">月</text></g></g><g clip-path="url(#clip78)"><g clip-path="url(#clip79)"><text fill="#595959" font-family="Calibri,Calibri_MSFontService,sans-serif" font-weight="400" font-size="41" transform="matrix(0.866025 -0.5 0.5 0.866025 5356.93 2636)">11</text></g></g><g clip-path="url(#clip80)"><g clip-path="url(#clip81)"><text fill="#595959" font-family="DengXian,DengXian_MSFontService,sans-serif" font-weight="400" font-size="41" transform="matrix(0.866025 -0.5 0.5 0.866025 5393.13 2615)">月</text></g></g><g clip-path="url(#clip82)"><text fill="#595959" font-family="Calibri,Calibri_MSFontService,sans-serif" font-weight="400" font-size="46" transform="matrix(1 0 0 1 5535.88 1883)">(%)</text></g><g clip-path="url(#clip83)"><text fill="#595959" font-family="SimSun,SimSun_MSFontService,sans-serif" font-weight="400" font-size="46" transform="matrix(1 0 0 1 3945.49 1875)">(</text></g><g clip-path="url(#clip84)"><text fill="#595959" font-family="SimSun,SimSun_MSFontService,sans-serif" font-weight="400" font-size="46" transform="matrix(1 0 0 1 3968.41 1875)">百万辆</text></g><g clip-path="url(#clip85)"><text fill="#595959" font-family="SimSun,SimSun_MSFontService,sans-serif" font-weight="400" font-size="46" transform="matrix(1 0 0 1 4105.91 1875)">)</text></g></g></svg>